<?xml version="1.0" encoding="UTF-8" standalone="no"?>
<!-- Created with Inkscape (http://www.inkscape.org/) -->

<svg
   xmlns:dc="http://purl.org/dc/elements/1.1/"
   xmlns:cc="http://creativecommons.org/ns#"
   xmlns:rdf="http://www.w3.org/1999/02/22-rdf-syntax-ns#"
   xmlns:svg="http://www.w3.org/2000/svg"
   xmlns="http://www.w3.org/2000/svg"
   xmlns:sodipodi="http://sodipodi.sourceforge.net/DTD/sodipodi-0.dtd"
   xmlns:inkscape="http://www.inkscape.org/namespaces/inkscape"
   width="210mm"
   height="297mm"
   viewBox="0 0 210 297"
   version="1.1"
   id="svg8"
   inkscape:version="0.92.4 5da689c313, 2019-01-14"
   sodipodi:docname="elongateLogo.svg">
  <defs
     id="defs2" />
  <sodipodi:namedview
     id="base"
     pagecolor="#ffffff"
     bordercolor="#666666"
     borderopacity="1.0"
     inkscape:pageopacity="0.0"
     inkscape:pageshadow="2"
     inkscape:zoom="1.979899"
     inkscape:cx="245.03633"
     inkscape:cy="647.58553"
     inkscape:document-units="mm"
     inkscape:current-layer="layer1"
     showgrid="false"
     inkscape:window-width="1366"
     inkscape:window-height="711"
     inkscape:window-x="0"
     inkscape:window-y="20"
     inkscape:window-maximized="1" />
  <metadata
     id="metadata5">
    <rdf:RDF>
      <cc:Work
         rdf:about="">
        <dc:format>image/svg+xml</dc:format>
        <dc:type
           rdf:resource="http://purl.org/dc/dcmitype/StillImage" />
        <dc:title />
      </cc:Work>
    </rdf:RDF>
  </metadata>
  <g
     inkscape:label="Layer 1"
     inkscape:groupmode="layer"
     id="layer1">
    <rect
       style="opacity:1;fill:#ffffff;fill-opacity:1;stroke:#000000;stroke-width:1;stroke-linecap:round;stroke-linejoin:round;stroke-miterlimit:4;stroke-dasharray:none;stroke-dashoffset:0;stroke-opacity:1"
       id="rect912"
       width="56.66114"
       height="13.898015"
       x="46.371262"
       y="132.76288"
       rx="1.2490582"
       ry="1.2963101" />
    <flowRoot
       xml:space="preserve"
       id="flowRoot10"
       style="font-style:normal;font-variant:normal;font-weight:normal;font-stretch:normal;font-size:40px;line-height:1.25;font-family:Pirulen;-inkscape-font-specification:Pirulen;letter-spacing:0px;word-spacing:0px;fill:#000000;fill-opacity:1;stroke:none"
       transform="matrix(0.26458333,0,0,0.26458333,92.982143,-43.089286)"><flowRegion
         id="flowRegion12"
         style="font-style:normal;font-variant:normal;font-weight:normal;font-stretch:normal;font-family:Pirulen;-inkscape-font-specification:Pirulen"><rect
           id="rect14"
           width="862.85712"
           height="402.85715"
           x="-202.85715"
           y="428.23398"
           style="font-style:normal;font-variant:normal;font-weight:normal;font-stretch:normal;font-family:Pirulen;-inkscape-font-specification:Pirulen" /></flowRegion><flowPara
         id="flowPara16">ELONGATE</flowPara></flowRoot>    <flowRoot
       transform="matrix(0.26458333,0,0,0.26458333,92.982143,1.5119045)"
       style="font-style:normal;font-variant:normal;font-weight:normal;font-stretch:normal;font-size:40px;line-height:1.25;font-family:Pirulen;-inkscape-font-specification:Pirulen;letter-spacing:0px;word-spacing:0px;fill:#000000;fill-opacity:1;stroke:none"
       id="flowRoot24"
       xml:space="preserve"><flowRegion
         style="font-style:normal;font-variant:normal;font-weight:normal;font-stretch:normal;font-family:Pirulen;-inkscape-font-specification:Pirulen"
         id="flowRegion20"><rect
           style="font-style:normal;font-variant:normal;font-weight:normal;font-stretch:normal;font-family:Pirulen;-inkscape-font-specification:Pirulen"
           y="428.23398"
           x="-202.85715"
           height="402.85715"
           width="862.85712"
           id="rect18" /></flowRegion><flowPara
         id="flowPara22">E</flowPara></flowRoot>    <flowRoot
       xml:space="preserve"
       id="flowRoot32"
       style="font-style:normal;font-variant:normal;font-weight:normal;font-stretch:normal;font-size:40px;line-height:1.25;font-family:Pirulen;-inkscape-font-specification:Pirulen;letter-spacing:0px;word-spacing:0px;fill:#000000;fill-opacity:1;stroke:none"
       transform="matrix(0.17916338,0,0,0.17916338,84.630711,39.818322)"><flowRegion
         id="flowRegion28"
         style="font-style:normal;font-variant:normal;font-weight:normal;font-stretch:normal;font-family:Pirulen;-inkscape-font-specification:Pirulen"><rect
           id="rect26"
           width="862.85712"
           height="402.85715"
           x="-202.85715"
           y="428.23398"
           style="font-style:normal;font-variant:normal;font-weight:normal;font-stretch:normal;font-family:Pirulen;-inkscape-font-specification:Pirulen" /></flowRegion><flowPara
         id="flowPara30">LON</flowPara></flowRoot>    <flowRoot
       transform="matrix(0.26458333,0,0,0.26458333,123.18359,1.5119045)"
       style="font-style:normal;font-variant:normal;font-weight:normal;font-stretch:normal;font-size:40px;line-height:1.25;font-family:Pirulen;-inkscape-font-specification:Pirulen;letter-spacing:0px;word-spacing:0px;fill:#000000;fill-opacity:1;stroke:none"
       id="flowRoot40"
       xml:space="preserve"><flowRegion
         style="font-style:normal;font-variant:normal;font-weight:normal;font-stretch:normal;font-family:Pirulen;-inkscape-font-specification:Pirulen"
         id="flowRegion36"><rect
           style="font-style:normal;font-variant:normal;font-weight:normal;font-stretch:normal;font-family:Pirulen;-inkscape-font-specification:Pirulen"
           y="428.23398"
           x="-202.85715"
           height="402.85715"
           width="862.85712"
           id="rect34" /></flowRegion><flowPara
         id="flowPara38">GATE</flowPara></flowRoot>    <path
       style="fill:none;stroke:#000000;stroke-width:1;stroke-linecap:butt;stroke-linejoin:miter;stroke-miterlimit:4;stroke-dasharray:none;stroke-opacity:1"
       d="M 48.340002,116.65988 H 68.786119"
       id="path42"
       inkscape:connector-curvature="0"
       sodipodi:nodetypes="cc" />
    <path
       inkscape:connector-curvature="0"
       id="path44"
       d="M 48.340002,124.04321 H 68.786119"
       style="fill:none;stroke:#000000;stroke-width:1;stroke-linecap:butt;stroke-linejoin:miter;stroke-miterlimit:4;stroke-dasharray:none;stroke-opacity:1"
       sodipodi:nodetypes="cc" />
    <g
       aria-label="E"
       transform="matrix(0.18936338,0,0,0.18936338,88.903028,54.821038)"
       style="font-style:normal;font-variant:normal;font-weight:normal;font-stretch:normal;font-size:40px;line-height:1.25;font-family:Pirulen;-inkscape-font-specification:Pirulen;letter-spacing:0px;word-spacing:0px;fill:#000000;fill-opacity:1;stroke:none"
       id="flowRoot890"
       inkscape:export-xdpi="10000"
       inkscape:export-ydpi="10000">
      <path
         d="m -200.25742,463.63437 v -28.16 h 28.96 v 4.16 h -23.64 v 7.04 h 22.44 v 4.16 h -22.44 v 8.64 h 23.64 v 4.16 z"
         id="path930"
         inkscape:connector-curvature="0" />
    </g>
    <g
       aria-label="LON"
       transform="matrix(0.12822798,0,0,0.12822798,82.925873,82.237099)"
       style="font-style:normal;font-variant:normal;font-weight:normal;font-stretch:normal;font-size:40px;line-height:1.25;font-family:Pirulen;-inkscape-font-specification:Pirulen;letter-spacing:0px;word-spacing:0px;fill:#000000;fill-opacity:1;stroke:none"
       id="flowRoot898"
       inkscape:export-xdpi="10000"
       inkscape:export-ydpi="10000">
      <path
         d="m -200.25742,463.63437 v -28.16 h 5.36 v 24 h 22.84 v 4.16 z"
         id="path923"
         inkscape:connector-curvature="0" />
      <path
         d="m -160.44555,463.63437 q -2.4,0 -4.08,-0.48 -1.68,-0.52 -2.76,-1.4 -1.04,-0.92 -1.52,-2.16 -0.48,-1.24 -0.48,-2.76 v -14.56 q 0,-1.52 0.48,-2.76 0.48,-1.24 1.52,-2.12 1.08,-0.92 2.76,-1.4 1.68,-0.52 4.08,-0.52 h 18.6 q 2.4,0 4.08,0.52 1.68,0.48 2.72,1.4 1.08,0.88 1.56,2.12 0.48,1.24 0.48,2.76 v 14.56 q 0,1.52 -0.48,2.76 -0.48,1.24 -1.56,2.16 -1.04,0.88 -2.72,1.4 -1.68,0.48 -4.08,0.48 z m 22.12,-21.4 q 0,-2.6 -3.52,-2.6 h -18.6 q -3.52,0 -3.52,2.6 v 14.64 q 0,2.6 3.52,2.6 h 18.6 q 3.52,0 3.52,-2.6 z"
         id="path925"
         inkscape:connector-curvature="0" />
      <path
         d="m -93.311797,463.63437 -30.040003,-21.92 v 21.92 h -4.64 v -28.16 h 4.6 l 28.040003,20.92 v -20.92 h 4.64 v 28.16 z"
         id="path927"
         inkscape:connector-curvature="0" />
    </g>
    <g
       aria-label="GATE"
       transform="matrix(0.18936338,0,0,0.18936338,110.51832,54.821038)"
       style="font-style:normal;font-variant:normal;font-weight:normal;font-stretch:normal;font-size:40px;line-height:1.25;font-family:Pirulen;-inkscape-font-specification:Pirulen;letter-spacing:0px;word-spacing:0px;fill:#000000;fill-opacity:1;stroke:none"
       id="flowRoot906"
       inkscape:export-xdpi="10000"
       inkscape:export-ydpi="10000">
      <path
         d="m -190.41742,463.63437 q -10.04,0 -10.04,-6.08 v -16 q 0,-6.08 10.04,-6.08 h 22.04 v 4.16 h -22.04 q -4.72,0 -4.72,1.92 v 16 q 0,1.92 4.72,1.92 h 12.44 q 4.72,0 4.72,-1.84 v -9.36 h 5.32 v 9.36 q 0,6 -10.04,6 z"
         id="path914"
         inkscape:connector-curvature="0" />
      <path
         d="m -131.79805,463.63437 -14.52,-22.68 -14.76,22.68 h -5.92 l 18.72,-28.16 h 3.88 l 18.6,28.16 z"
         id="path916"
         inkscape:connector-curvature="0" />
      <path
         d="m -117.0993,463.63437 v -24 h -14.76 v -4.16 h 34.440003 v 4.16 H -111.7793 v 24 z"
         id="path918"
         inkscape:connector-curvature="0" />
      <path
         d="m -93.851172,463.63437 v -28.16 h 28.96 v 4.16 h -23.64 v 7.04 h 22.44 v 4.16 h -22.44 v 8.64 h 23.64 v 4.16 z"
         id="path920"
         inkscape:connector-curvature="0" />
    </g>
    <path
       sodipodi:nodetypes="cc"
       inkscape:connector-curvature="0"
       id="path908"
       d="m 56.952463,137.23292 h 14.63337"
       style="fill:none;stroke:#000000;stroke-width:0.71570414;stroke-linecap:butt;stroke-linejoin:miter;stroke-miterlimit:4;stroke-dasharray:none;stroke-opacity:1"
       inkscape:export-xdpi="10000"
       inkscape:export-ydpi="10000" />
    <path
       sodipodi:nodetypes="cc"
       style="fill:none;stroke:#000000;stroke-width:0.71570414;stroke-linecap:butt;stroke-linejoin:miter;stroke-miterlimit:4;stroke-dasharray:none;stroke-opacity:1"
       d="m 56.952463,142.51721 h 14.63337"
       id="path910"
       inkscape:connector-curvature="0"
       inkscape:export-xdpi="10000"
       inkscape:export-ydpi="10000" />
    <rect
       style="opacity:1;fill:#ffffff;fill-opacity:1;stroke:none;stroke-width:0.73755509;stroke-linecap:round;stroke-linejoin:round;stroke-miterlimit:4;stroke-dasharray:none;stroke-dashoffset:0;stroke-opacity:1"
       id="rect39"
       width="0.58855957"
       height="4.1109629"
       x="63.2733"
       y="137.84894"
       rx="0"
       ry="0"
       inkscape:export-xdpi="10000"
       inkscape:export-ydpi="10000" />
  </g>
</svg>
