G04 #@! TF.GenerationSoftware,KiCad,Pcbnew,(5.0.0-3-g5ebb6b6)*
G04 #@! TF.CreationDate,2019-05-05T10:35:57-03:00*
G04 #@! TF.ProjectId,elongate,656C6F6E676174652E6B696361645F70,rev?*
G04 #@! TF.SameCoordinates,Original*
G04 #@! TF.FileFunction,Legend,Top*
G04 #@! TF.FilePolarity,Positive*
%FSLAX46Y46*%
G04 Gerber Fmt 4.6, Leading zero omitted, Abs format (unit mm)*
G04 Created by KiCad (PCBNEW (5.0.0-3-g5ebb6b6)) date 2019 May 05, Sunday 10:35:57*
%MOMM*%
%LPD*%
G01*
G04 APERTURE LIST*
%ADD10C,0.200000*%
%ADD11C,0.150000*%
G04 APERTURE END LIST*
D10*
G04 #@! TO.C,D_TAB*
X18350000Y-12300000D02*
X20750000Y-12300000D01*
X18350000Y-12475000D02*
X20750000Y-12475000D01*
X18350000Y-12650000D02*
X20750000Y-12650000D01*
X20750000Y-13050000D02*
X18350000Y-13050000D01*
X18350000Y-12825000D02*
X20750000Y-12825000D01*
X18350000Y-12950000D02*
X20750000Y-12950000D01*
X18350000Y-13025000D02*
X18350000Y-7225000D01*
X18350000Y-7225000D02*
X20750000Y-7225000D01*
X20750000Y-7225000D02*
X20750000Y-13025000D01*
G04 #@! TO.C,D_Q*
X37400000Y-12300000D02*
X39800000Y-12300000D01*
X37400000Y-12475000D02*
X39800000Y-12475000D01*
X37400000Y-12650000D02*
X39800000Y-12650000D01*
X39800000Y-13050000D02*
X37400000Y-13050000D01*
X37400000Y-12825000D02*
X39800000Y-12825000D01*
X37400000Y-12950000D02*
X39800000Y-12950000D01*
X37400000Y-13025000D02*
X37400000Y-7225000D01*
X37400000Y-7225000D02*
X39800000Y-7225000D01*
X39800000Y-7225000D02*
X39800000Y-13025000D01*
G04 #@! TO.C,D_W*
X56450000Y-12300000D02*
X58850000Y-12300000D01*
X56450000Y-12475000D02*
X58850000Y-12475000D01*
X56450000Y-12650000D02*
X58850000Y-12650000D01*
X58850000Y-13050000D02*
X56450000Y-13050000D01*
X56450000Y-12825000D02*
X58850000Y-12825000D01*
X56450000Y-12950000D02*
X58850000Y-12950000D01*
X56450000Y-13025000D02*
X56450000Y-7225000D01*
X56450000Y-7225000D02*
X58850000Y-7225000D01*
X58850000Y-7225000D02*
X58850000Y-13025000D01*
G04 #@! TO.C,D_E*
X75500000Y-12300000D02*
X77900000Y-12300000D01*
X75500000Y-12475000D02*
X77900000Y-12475000D01*
X75500000Y-12650000D02*
X77900000Y-12650000D01*
X77900000Y-13050000D02*
X75500000Y-13050000D01*
X75500000Y-12825000D02*
X77900000Y-12825000D01*
X75500000Y-12950000D02*
X77900000Y-12950000D01*
X75500000Y-13025000D02*
X75500000Y-7225000D01*
X75500000Y-7225000D02*
X77900000Y-7225000D01*
X77900000Y-7225000D02*
X77900000Y-13025000D01*
G04 #@! TO.C,D_R*
X94550000Y-12300000D02*
X96950000Y-12300000D01*
X94550000Y-12475000D02*
X96950000Y-12475000D01*
X94550000Y-12650000D02*
X96950000Y-12650000D01*
X96950000Y-13050000D02*
X94550000Y-13050000D01*
X94550000Y-12825000D02*
X96950000Y-12825000D01*
X94550000Y-12950000D02*
X96950000Y-12950000D01*
X94550000Y-13025000D02*
X94550000Y-7225000D01*
X94550000Y-7225000D02*
X96950000Y-7225000D01*
X96950000Y-7225000D02*
X96950000Y-13025000D01*
G04 #@! TO.C,D_T*
X113600000Y-12300000D02*
X116000000Y-12300000D01*
X113600000Y-12475000D02*
X116000000Y-12475000D01*
X113600000Y-12650000D02*
X116000000Y-12650000D01*
X116000000Y-13050000D02*
X113600000Y-13050000D01*
X113600000Y-12825000D02*
X116000000Y-12825000D01*
X113600000Y-12950000D02*
X116000000Y-12950000D01*
X113600000Y-13025000D02*
X113600000Y-7225000D01*
X113600000Y-7225000D02*
X116000000Y-7225000D01*
X116000000Y-7225000D02*
X116000000Y-13025000D01*
G04 #@! TO.C,D_Y*
X132650000Y-12300000D02*
X135050000Y-12300000D01*
X132650000Y-12475000D02*
X135050000Y-12475000D01*
X132650000Y-12650000D02*
X135050000Y-12650000D01*
X135050000Y-13050000D02*
X132650000Y-13050000D01*
X132650000Y-12825000D02*
X135050000Y-12825000D01*
X132650000Y-12950000D02*
X135050000Y-12950000D01*
X132650000Y-13025000D02*
X132650000Y-7225000D01*
X132650000Y-7225000D02*
X135050000Y-7225000D01*
X135050000Y-7225000D02*
X135050000Y-13025000D01*
G04 #@! TO.C,D_U*
X151700000Y-12300000D02*
X154100000Y-12300000D01*
X151700000Y-12475000D02*
X154100000Y-12475000D01*
X151700000Y-12650000D02*
X154100000Y-12650000D01*
X154100000Y-13050000D02*
X151700000Y-13050000D01*
X151700000Y-12825000D02*
X154100000Y-12825000D01*
X151700000Y-12950000D02*
X154100000Y-12950000D01*
X151700000Y-13025000D02*
X151700000Y-7225000D01*
X151700000Y-7225000D02*
X154100000Y-7225000D01*
X154100000Y-7225000D02*
X154100000Y-13025000D01*
G04 #@! TO.C,D_I*
X170750000Y-12300000D02*
X173150000Y-12300000D01*
X170750000Y-12475000D02*
X173150000Y-12475000D01*
X170750000Y-12650000D02*
X173150000Y-12650000D01*
X173150000Y-13050000D02*
X170750000Y-13050000D01*
X170750000Y-12825000D02*
X173150000Y-12825000D01*
X170750000Y-12950000D02*
X173150000Y-12950000D01*
X170750000Y-13025000D02*
X170750000Y-7225000D01*
X170750000Y-7225000D02*
X173150000Y-7225000D01*
X173150000Y-7225000D02*
X173150000Y-13025000D01*
G04 #@! TO.C,D_O*
X189800000Y-12300000D02*
X192200000Y-12300000D01*
X189800000Y-12475000D02*
X192200000Y-12475000D01*
X189800000Y-12650000D02*
X192200000Y-12650000D01*
X192200000Y-13050000D02*
X189800000Y-13050000D01*
X189800000Y-12825000D02*
X192200000Y-12825000D01*
X189800000Y-12950000D02*
X192200000Y-12950000D01*
X189800000Y-13025000D02*
X189800000Y-7225000D01*
X189800000Y-7225000D02*
X192200000Y-7225000D01*
X192200000Y-7225000D02*
X192200000Y-13025000D01*
G04 #@! TO.C,D_P*
X208850000Y-12300000D02*
X211250000Y-12300000D01*
X208850000Y-12475000D02*
X211250000Y-12475000D01*
X208850000Y-12650000D02*
X211250000Y-12650000D01*
X211250000Y-13050000D02*
X208850000Y-13050000D01*
X208850000Y-12825000D02*
X211250000Y-12825000D01*
X208850000Y-12950000D02*
X211250000Y-12950000D01*
X208850000Y-13025000D02*
X208850000Y-7225000D01*
X208850000Y-7225000D02*
X211250000Y-7225000D01*
X211250000Y-7225000D02*
X211250000Y-13025000D01*
G04 #@! TO.C,D_BS*
X221175000Y-20400000D02*
X221175000Y-18000000D01*
X221350000Y-20400000D02*
X221350000Y-18000000D01*
X221525000Y-20400000D02*
X221525000Y-18000000D01*
X221925000Y-18000000D02*
X221925000Y-20400000D01*
X221700000Y-20400000D02*
X221700000Y-18000000D01*
X221825000Y-20400000D02*
X221825000Y-18000000D01*
X221900000Y-20400000D02*
X216100000Y-20400000D01*
X216100000Y-20400000D02*
X216100000Y-18000000D01*
X216100000Y-18000000D02*
X221900000Y-18000000D01*
G04 #@! TO.C,D_7*
X256475000Y-12300000D02*
X258875000Y-12300000D01*
X256475000Y-12475000D02*
X258875000Y-12475000D01*
X256475000Y-12650000D02*
X258875000Y-12650000D01*
X258875000Y-13050000D02*
X256475000Y-13050000D01*
X256475000Y-12825000D02*
X258875000Y-12825000D01*
X256475000Y-12950000D02*
X258875000Y-12950000D01*
X256475000Y-13025000D02*
X256475000Y-7225000D01*
X256475000Y-7225000D02*
X258875000Y-7225000D01*
X258875000Y-7225000D02*
X258875000Y-13025000D01*
G04 #@! TO.C,D_8*
X275525000Y-12300000D02*
X277925000Y-12300000D01*
X275525000Y-12475000D02*
X277925000Y-12475000D01*
X275525000Y-12650000D02*
X277925000Y-12650000D01*
X277925000Y-13050000D02*
X275525000Y-13050000D01*
X275525000Y-12825000D02*
X277925000Y-12825000D01*
X275525000Y-12950000D02*
X277925000Y-12950000D01*
X275525000Y-13025000D02*
X275525000Y-7225000D01*
X275525000Y-7225000D02*
X277925000Y-7225000D01*
X277925000Y-7225000D02*
X277925000Y-13025000D01*
G04 #@! TO.C,D_9*
X294575000Y-12300000D02*
X296975000Y-12300000D01*
X294575000Y-12475000D02*
X296975000Y-12475000D01*
X294575000Y-12650000D02*
X296975000Y-12650000D01*
X296975000Y-13050000D02*
X294575000Y-13050000D01*
X294575000Y-12825000D02*
X296975000Y-12825000D01*
X294575000Y-12950000D02*
X296975000Y-12950000D01*
X294575000Y-13025000D02*
X294575000Y-7225000D01*
X294575000Y-7225000D02*
X296975000Y-7225000D01*
X296975000Y-7225000D02*
X296975000Y-13025000D01*
G04 #@! TO.C,D_CTRL*
X23112500Y-31350000D02*
X25512500Y-31350000D01*
X23112500Y-31525000D02*
X25512500Y-31525000D01*
X23112500Y-31700000D02*
X25512500Y-31700000D01*
X25512500Y-32100000D02*
X23112500Y-32100000D01*
X23112500Y-31875000D02*
X25512500Y-31875000D01*
X23112500Y-32000000D02*
X25512500Y-32000000D01*
X23112500Y-32075000D02*
X23112500Y-26275000D01*
X23112500Y-26275000D02*
X25512500Y-26275000D01*
X25512500Y-26275000D02*
X25512500Y-32075000D01*
G04 #@! TO.C,D_A*
X42162500Y-31350000D02*
X44562500Y-31350000D01*
X42162500Y-31525000D02*
X44562500Y-31525000D01*
X42162500Y-31700000D02*
X44562500Y-31700000D01*
X44562500Y-32100000D02*
X42162500Y-32100000D01*
X42162500Y-31875000D02*
X44562500Y-31875000D01*
X42162500Y-32000000D02*
X44562500Y-32000000D01*
X42162500Y-32075000D02*
X42162500Y-26275000D01*
X42162500Y-26275000D02*
X44562500Y-26275000D01*
X44562500Y-26275000D02*
X44562500Y-32075000D01*
G04 #@! TO.C,D_S*
X61212500Y-31350000D02*
X63612500Y-31350000D01*
X61212500Y-31525000D02*
X63612500Y-31525000D01*
X61212500Y-31700000D02*
X63612500Y-31700000D01*
X63612500Y-32100000D02*
X61212500Y-32100000D01*
X61212500Y-31875000D02*
X63612500Y-31875000D01*
X61212500Y-32000000D02*
X63612500Y-32000000D01*
X61212500Y-32075000D02*
X61212500Y-26275000D01*
X61212500Y-26275000D02*
X63612500Y-26275000D01*
X63612500Y-26275000D02*
X63612500Y-32075000D01*
G04 #@! TO.C,D_D*
X80262500Y-31350000D02*
X82662500Y-31350000D01*
X80262500Y-31525000D02*
X82662500Y-31525000D01*
X80262500Y-31700000D02*
X82662500Y-31700000D01*
X82662500Y-32100000D02*
X80262500Y-32100000D01*
X80262500Y-31875000D02*
X82662500Y-31875000D01*
X80262500Y-32000000D02*
X82662500Y-32000000D01*
X80262500Y-32075000D02*
X80262500Y-26275000D01*
X80262500Y-26275000D02*
X82662500Y-26275000D01*
X82662500Y-26275000D02*
X82662500Y-32075000D01*
G04 #@! TO.C,D_F*
X99312500Y-31350000D02*
X101712500Y-31350000D01*
X99312500Y-31525000D02*
X101712500Y-31525000D01*
X99312500Y-31700000D02*
X101712500Y-31700000D01*
X101712500Y-32100000D02*
X99312500Y-32100000D01*
X99312500Y-31875000D02*
X101712500Y-31875000D01*
X99312500Y-32000000D02*
X101712500Y-32000000D01*
X99312500Y-32075000D02*
X99312500Y-26275000D01*
X99312500Y-26275000D02*
X101712500Y-26275000D01*
X101712500Y-26275000D02*
X101712500Y-32075000D01*
G04 #@! TO.C,D_G*
X118362500Y-31350000D02*
X120762500Y-31350000D01*
X118362500Y-31525000D02*
X120762500Y-31525000D01*
X118362500Y-31700000D02*
X120762500Y-31700000D01*
X120762500Y-32100000D02*
X118362500Y-32100000D01*
X118362500Y-31875000D02*
X120762500Y-31875000D01*
X118362500Y-32000000D02*
X120762500Y-32000000D01*
X118362500Y-32075000D02*
X118362500Y-26275000D01*
X118362500Y-26275000D02*
X120762500Y-26275000D01*
X120762500Y-26275000D02*
X120762500Y-32075000D01*
G04 #@! TO.C,D_H*
X137412500Y-31350000D02*
X139812500Y-31350000D01*
X137412500Y-31525000D02*
X139812500Y-31525000D01*
X137412500Y-31700000D02*
X139812500Y-31700000D01*
X139812500Y-32100000D02*
X137412500Y-32100000D01*
X137412500Y-31875000D02*
X139812500Y-31875000D01*
X137412500Y-32000000D02*
X139812500Y-32000000D01*
X137412500Y-32075000D02*
X137412500Y-26275000D01*
X137412500Y-26275000D02*
X139812500Y-26275000D01*
X139812500Y-26275000D02*
X139812500Y-32075000D01*
G04 #@! TO.C,D_J*
X156462500Y-31350000D02*
X158862500Y-31350000D01*
X156462500Y-31525000D02*
X158862500Y-31525000D01*
X156462500Y-31700000D02*
X158862500Y-31700000D01*
X158862500Y-32100000D02*
X156462500Y-32100000D01*
X156462500Y-31875000D02*
X158862500Y-31875000D01*
X156462500Y-32000000D02*
X158862500Y-32000000D01*
X156462500Y-32075000D02*
X156462500Y-26275000D01*
X156462500Y-26275000D02*
X158862500Y-26275000D01*
X158862500Y-26275000D02*
X158862500Y-32075000D01*
G04 #@! TO.C,D_K*
X175512500Y-31350000D02*
X177912500Y-31350000D01*
X175512500Y-31525000D02*
X177912500Y-31525000D01*
X175512500Y-31700000D02*
X177912500Y-31700000D01*
X177912500Y-32100000D02*
X175512500Y-32100000D01*
X175512500Y-31875000D02*
X177912500Y-31875000D01*
X175512500Y-32000000D02*
X177912500Y-32000000D01*
X175512500Y-32075000D02*
X175512500Y-26275000D01*
X175512500Y-26275000D02*
X177912500Y-26275000D01*
X177912500Y-26275000D02*
X177912500Y-32075000D01*
G04 #@! TO.C,D_L*
X194562500Y-31350000D02*
X196962500Y-31350000D01*
X194562500Y-31525000D02*
X196962500Y-31525000D01*
X194562500Y-31700000D02*
X196962500Y-31700000D01*
X196962500Y-32100000D02*
X194562500Y-32100000D01*
X194562500Y-31875000D02*
X196962500Y-31875000D01*
X194562500Y-32000000D02*
X196962500Y-32000000D01*
X194562500Y-32075000D02*
X194562500Y-26275000D01*
X194562500Y-26275000D02*
X196962500Y-26275000D01*
X196962500Y-26275000D02*
X196962500Y-32075000D01*
G04 #@! TO.C,D_ENTER*
X227900000Y-31350000D02*
X230300000Y-31350000D01*
X227900000Y-31525000D02*
X230300000Y-31525000D01*
X227900000Y-31700000D02*
X230300000Y-31700000D01*
X230300000Y-32100000D02*
X227900000Y-32100000D01*
X227900000Y-31875000D02*
X230300000Y-31875000D01*
X227900000Y-32000000D02*
X230300000Y-32000000D01*
X227900000Y-32075000D02*
X227900000Y-26275000D01*
X227900000Y-26275000D02*
X230300000Y-26275000D01*
X230300000Y-26275000D02*
X230300000Y-32075000D01*
G04 #@! TO.C,D_4*
X256475000Y-31350000D02*
X258875000Y-31350000D01*
X256475000Y-31525000D02*
X258875000Y-31525000D01*
X256475000Y-31700000D02*
X258875000Y-31700000D01*
X258875000Y-32100000D02*
X256475000Y-32100000D01*
X256475000Y-31875000D02*
X258875000Y-31875000D01*
X256475000Y-32000000D02*
X258875000Y-32000000D01*
X256475000Y-32075000D02*
X256475000Y-26275000D01*
X256475000Y-26275000D02*
X258875000Y-26275000D01*
X258875000Y-26275000D02*
X258875000Y-32075000D01*
G04 #@! TO.C,D_5*
X275525000Y-31350000D02*
X277925000Y-31350000D01*
X275525000Y-31525000D02*
X277925000Y-31525000D01*
X275525000Y-31700000D02*
X277925000Y-31700000D01*
X277925000Y-32100000D02*
X275525000Y-32100000D01*
X275525000Y-31875000D02*
X277925000Y-31875000D01*
X275525000Y-32000000D02*
X277925000Y-32000000D01*
X275525000Y-32075000D02*
X275525000Y-26275000D01*
X275525000Y-26275000D02*
X277925000Y-26275000D01*
X277925000Y-26275000D02*
X277925000Y-32075000D01*
G04 #@! TO.C,D_6*
X294575000Y-31350000D02*
X296975000Y-31350000D01*
X294575000Y-31525000D02*
X296975000Y-31525000D01*
X294575000Y-31700000D02*
X296975000Y-31700000D01*
X296975000Y-32100000D02*
X294575000Y-32100000D01*
X294575000Y-31875000D02*
X296975000Y-31875000D01*
X294575000Y-32000000D02*
X296975000Y-32000000D01*
X294575000Y-32075000D02*
X294575000Y-26275000D01*
X294575000Y-26275000D02*
X296975000Y-26275000D01*
X296975000Y-26275000D02*
X296975000Y-32075000D01*
G04 #@! TO.C,D_SHIFT*
X32637500Y-50400000D02*
X35037500Y-50400000D01*
X32637500Y-50575000D02*
X35037500Y-50575000D01*
X32637500Y-50750000D02*
X35037500Y-50750000D01*
X35037500Y-51150000D02*
X32637500Y-51150000D01*
X32637500Y-50925000D02*
X35037500Y-50925000D01*
X32637500Y-51050000D02*
X35037500Y-51050000D01*
X32637500Y-51125000D02*
X32637500Y-45325000D01*
X32637500Y-45325000D02*
X35037500Y-45325000D01*
X35037500Y-45325000D02*
X35037500Y-51125000D01*
G04 #@! TO.C,D_Z*
X51687500Y-50400000D02*
X54087500Y-50400000D01*
X51687500Y-50575000D02*
X54087500Y-50575000D01*
X51687500Y-50750000D02*
X54087500Y-50750000D01*
X54087500Y-51150000D02*
X51687500Y-51150000D01*
X51687500Y-50925000D02*
X54087500Y-50925000D01*
X51687500Y-51050000D02*
X54087500Y-51050000D01*
X51687500Y-51125000D02*
X51687500Y-45325000D01*
X51687500Y-45325000D02*
X54087500Y-45325000D01*
X54087500Y-45325000D02*
X54087500Y-51125000D01*
G04 #@! TO.C,D_X*
X70737500Y-50400000D02*
X73137500Y-50400000D01*
X70737500Y-50575000D02*
X73137500Y-50575000D01*
X70737500Y-50750000D02*
X73137500Y-50750000D01*
X73137500Y-51150000D02*
X70737500Y-51150000D01*
X70737500Y-50925000D02*
X73137500Y-50925000D01*
X70737500Y-51050000D02*
X73137500Y-51050000D01*
X70737500Y-51125000D02*
X70737500Y-45325000D01*
X70737500Y-45325000D02*
X73137500Y-45325000D01*
X73137500Y-45325000D02*
X73137500Y-51125000D01*
G04 #@! TO.C,D_C*
X89787500Y-50400000D02*
X92187500Y-50400000D01*
X89787500Y-50575000D02*
X92187500Y-50575000D01*
X89787500Y-50750000D02*
X92187500Y-50750000D01*
X92187500Y-51150000D02*
X89787500Y-51150000D01*
X89787500Y-50925000D02*
X92187500Y-50925000D01*
X89787500Y-51050000D02*
X92187500Y-51050000D01*
X89787500Y-51125000D02*
X89787500Y-45325000D01*
X89787500Y-45325000D02*
X92187500Y-45325000D01*
X92187500Y-45325000D02*
X92187500Y-51125000D01*
G04 #@! TO.C,D_V*
X108837500Y-50400000D02*
X111237500Y-50400000D01*
X108837500Y-50575000D02*
X111237500Y-50575000D01*
X108837500Y-50750000D02*
X111237500Y-50750000D01*
X111237500Y-51150000D02*
X108837500Y-51150000D01*
X108837500Y-50925000D02*
X111237500Y-50925000D01*
X108837500Y-51050000D02*
X111237500Y-51050000D01*
X108837500Y-51125000D02*
X108837500Y-45325000D01*
X108837500Y-45325000D02*
X111237500Y-45325000D01*
X111237500Y-45325000D02*
X111237500Y-51125000D01*
G04 #@! TO.C,D_B*
X127887500Y-50400000D02*
X130287500Y-50400000D01*
X127887500Y-50575000D02*
X130287500Y-50575000D01*
X127887500Y-50750000D02*
X130287500Y-50750000D01*
X130287500Y-51150000D02*
X127887500Y-51150000D01*
X127887500Y-50925000D02*
X130287500Y-50925000D01*
X127887500Y-51050000D02*
X130287500Y-51050000D01*
X127887500Y-51125000D02*
X127887500Y-45325000D01*
X127887500Y-45325000D02*
X130287500Y-45325000D01*
X130287500Y-45325000D02*
X130287500Y-51125000D01*
G04 #@! TO.C,D_N*
X146937500Y-50400000D02*
X149337500Y-50400000D01*
X146937500Y-50575000D02*
X149337500Y-50575000D01*
X146937500Y-50750000D02*
X149337500Y-50750000D01*
X149337500Y-51150000D02*
X146937500Y-51150000D01*
X146937500Y-50925000D02*
X149337500Y-50925000D01*
X146937500Y-51050000D02*
X149337500Y-51050000D01*
X146937500Y-51125000D02*
X146937500Y-45325000D01*
X146937500Y-45325000D02*
X149337500Y-45325000D01*
X149337500Y-45325000D02*
X149337500Y-51125000D01*
G04 #@! TO.C,D_M*
X165987500Y-50400000D02*
X168387500Y-50400000D01*
X165987500Y-50575000D02*
X168387500Y-50575000D01*
X165987500Y-50750000D02*
X168387500Y-50750000D01*
X168387500Y-51150000D02*
X165987500Y-51150000D01*
X165987500Y-50925000D02*
X168387500Y-50925000D01*
X165987500Y-51050000D02*
X168387500Y-51050000D01*
X165987500Y-51125000D02*
X165987500Y-45325000D01*
X165987500Y-45325000D02*
X168387500Y-45325000D01*
X168387500Y-45325000D02*
X168387500Y-51125000D01*
G04 #@! TO.C,D_COMMA*
X185037500Y-50400000D02*
X187437500Y-50400000D01*
X185037500Y-50575000D02*
X187437500Y-50575000D01*
X185037500Y-50750000D02*
X187437500Y-50750000D01*
X187437500Y-51150000D02*
X185037500Y-51150000D01*
X185037500Y-50925000D02*
X187437500Y-50925000D01*
X185037500Y-51050000D02*
X187437500Y-51050000D01*
X185037500Y-51125000D02*
X185037500Y-45325000D01*
X185037500Y-45325000D02*
X187437500Y-45325000D01*
X187437500Y-45325000D02*
X187437500Y-51125000D01*
G04 #@! TO.C,D_FN1*
X208850000Y-50400000D02*
X211250000Y-50400000D01*
X208850000Y-50575000D02*
X211250000Y-50575000D01*
X208850000Y-50750000D02*
X211250000Y-50750000D01*
X211250000Y-51150000D02*
X208850000Y-51150000D01*
X208850000Y-50925000D02*
X211250000Y-50925000D01*
X208850000Y-51050000D02*
X211250000Y-51050000D01*
X208850000Y-51125000D02*
X208850000Y-45325000D01*
X208850000Y-45325000D02*
X211250000Y-45325000D01*
X211250000Y-45325000D02*
X211250000Y-51125000D01*
G04 #@! TO.C,D_UP*
X232662500Y-55162500D02*
X235062500Y-55162500D01*
X232662500Y-55337500D02*
X235062500Y-55337500D01*
X232662500Y-55512500D02*
X235062500Y-55512500D01*
X235062500Y-55912500D02*
X232662500Y-55912500D01*
X232662500Y-55687500D02*
X235062500Y-55687500D01*
X232662500Y-55812500D02*
X235062500Y-55812500D01*
X232662500Y-55887500D02*
X232662500Y-50087500D01*
X232662500Y-50087500D02*
X235062500Y-50087500D01*
X235062500Y-50087500D02*
X235062500Y-55887500D01*
G04 #@! TO.C,D_1*
X256475000Y-50400000D02*
X258875000Y-50400000D01*
X256475000Y-50575000D02*
X258875000Y-50575000D01*
X256475000Y-50750000D02*
X258875000Y-50750000D01*
X258875000Y-51150000D02*
X256475000Y-51150000D01*
X256475000Y-50925000D02*
X258875000Y-50925000D01*
X256475000Y-51050000D02*
X258875000Y-51050000D01*
X256475000Y-51125000D02*
X256475000Y-45325000D01*
X256475000Y-45325000D02*
X258875000Y-45325000D01*
X258875000Y-45325000D02*
X258875000Y-51125000D01*
G04 #@! TO.C,D_2*
X275525000Y-50400000D02*
X277925000Y-50400000D01*
X275525000Y-50575000D02*
X277925000Y-50575000D01*
X275525000Y-50750000D02*
X277925000Y-50750000D01*
X277925000Y-51150000D02*
X275525000Y-51150000D01*
X275525000Y-50925000D02*
X277925000Y-50925000D01*
X275525000Y-51050000D02*
X277925000Y-51050000D01*
X275525000Y-51125000D02*
X275525000Y-45325000D01*
X275525000Y-45325000D02*
X277925000Y-45325000D01*
X277925000Y-45325000D02*
X277925000Y-51125000D01*
G04 #@! TO.C,D_3*
X294575000Y-50400000D02*
X296975000Y-50400000D01*
X294575000Y-50575000D02*
X296975000Y-50575000D01*
X294575000Y-50750000D02*
X296975000Y-50750000D01*
X296975000Y-51150000D02*
X294575000Y-51150000D01*
X294575000Y-50925000D02*
X296975000Y-50925000D01*
X294575000Y-51050000D02*
X296975000Y-51050000D01*
X294575000Y-51125000D02*
X294575000Y-45325000D01*
X294575000Y-45325000D02*
X296975000Y-45325000D01*
X296975000Y-45325000D02*
X296975000Y-51125000D01*
G04 #@! TO.C,D_CTRL1*
X23112500Y-69450000D02*
X25512500Y-69450000D01*
X23112500Y-69625000D02*
X25512500Y-69625000D01*
X23112500Y-69800000D02*
X25512500Y-69800000D01*
X25512500Y-70200000D02*
X23112500Y-70200000D01*
X23112500Y-69975000D02*
X25512500Y-69975000D01*
X23112500Y-70100000D02*
X25512500Y-70100000D01*
X23112500Y-70175000D02*
X23112500Y-64375000D01*
X23112500Y-64375000D02*
X25512500Y-64375000D01*
X25512500Y-64375000D02*
X25512500Y-70175000D01*
G04 #@! TO.C,D_WIN*
X42162500Y-69450000D02*
X44562500Y-69450000D01*
X42162500Y-69625000D02*
X44562500Y-69625000D01*
X42162500Y-69800000D02*
X44562500Y-69800000D01*
X44562500Y-70200000D02*
X42162500Y-70200000D01*
X42162500Y-69975000D02*
X44562500Y-69975000D01*
X42162500Y-70100000D02*
X44562500Y-70100000D01*
X42162500Y-70175000D02*
X42162500Y-64375000D01*
X42162500Y-64375000D02*
X44562500Y-64375000D01*
X44562500Y-64375000D02*
X44562500Y-70175000D01*
G04 #@! TO.C,D_ALT*
X65975000Y-69450000D02*
X68375000Y-69450000D01*
X65975000Y-69625000D02*
X68375000Y-69625000D01*
X65975000Y-69800000D02*
X68375000Y-69800000D01*
X68375000Y-70200000D02*
X65975000Y-70200000D01*
X65975000Y-69975000D02*
X68375000Y-69975000D01*
X65975000Y-70100000D02*
X68375000Y-70100000D01*
X65975000Y-70175000D02*
X65975000Y-64375000D01*
X65975000Y-64375000D02*
X68375000Y-64375000D01*
X68375000Y-64375000D02*
X68375000Y-70175000D01*
G04 #@! TO.C,D_FN2*
X104800000Y-69975000D02*
X107200000Y-69975000D01*
X104800000Y-70150000D02*
X107200000Y-70150000D01*
X104800000Y-70325000D02*
X107200000Y-70325000D01*
X107200000Y-70725000D02*
X104800000Y-70725000D01*
X104800000Y-70500000D02*
X107200000Y-70500000D01*
X104800000Y-70625000D02*
X107200000Y-70625000D01*
X104800000Y-70700000D02*
X104800000Y-64900000D01*
X104800000Y-64900000D02*
X107200000Y-64900000D01*
X107200000Y-64900000D02*
X107200000Y-70700000D01*
G04 #@! TO.C,D_SPACE*
X170750000Y-69450000D02*
X173150000Y-69450000D01*
X170750000Y-69625000D02*
X173150000Y-69625000D01*
X170750000Y-69800000D02*
X173150000Y-69800000D01*
X173150000Y-70200000D02*
X170750000Y-70200000D01*
X170750000Y-69975000D02*
X173150000Y-69975000D01*
X170750000Y-70100000D02*
X173150000Y-70100000D01*
X170750000Y-70175000D02*
X170750000Y-64375000D01*
X170750000Y-64375000D02*
X173150000Y-64375000D01*
X173150000Y-64375000D02*
X173150000Y-70175000D01*
G04 #@! TO.C,D_ALT1*
X189800000Y-69450000D02*
X192200000Y-69450000D01*
X189800000Y-69625000D02*
X192200000Y-69625000D01*
X189800000Y-69800000D02*
X192200000Y-69800000D01*
X192200000Y-70200000D02*
X189800000Y-70200000D01*
X189800000Y-69975000D02*
X192200000Y-69975000D01*
X189800000Y-70100000D02*
X192200000Y-70100000D01*
X189800000Y-70175000D02*
X189800000Y-64375000D01*
X189800000Y-64375000D02*
X192200000Y-64375000D01*
X192200000Y-64375000D02*
X192200000Y-70175000D01*
G04 #@! TO.C,D_LEFT*
X213612500Y-74212500D02*
X216012500Y-74212500D01*
X213612500Y-74387500D02*
X216012500Y-74387500D01*
X213612500Y-74562500D02*
X216012500Y-74562500D01*
X216012500Y-74962500D02*
X213612500Y-74962500D01*
X213612500Y-74737500D02*
X216012500Y-74737500D01*
X213612500Y-74862500D02*
X216012500Y-74862500D01*
X213612500Y-74937500D02*
X213612500Y-69137500D01*
X213612500Y-69137500D02*
X216012500Y-69137500D01*
X216012500Y-69137500D02*
X216012500Y-74937500D01*
G04 #@! TO.C,D_DOWN*
X232662500Y-74212500D02*
X235062500Y-74212500D01*
X232662500Y-74387500D02*
X235062500Y-74387500D01*
X232662500Y-74562500D02*
X235062500Y-74562500D01*
X235062500Y-74962500D02*
X232662500Y-74962500D01*
X232662500Y-74737500D02*
X235062500Y-74737500D01*
X232662500Y-74862500D02*
X235062500Y-74862500D01*
X232662500Y-74937500D02*
X232662500Y-69137500D01*
X232662500Y-69137500D02*
X235062500Y-69137500D01*
X235062500Y-69137500D02*
X235062500Y-74937500D01*
G04 #@! TO.C,D_RIGHT*
X251712500Y-74212500D02*
X254112500Y-74212500D01*
X251712500Y-74387500D02*
X254112500Y-74387500D01*
X251712500Y-74562500D02*
X254112500Y-74562500D01*
X254112500Y-74962500D02*
X251712500Y-74962500D01*
X251712500Y-74737500D02*
X254112500Y-74737500D01*
X251712500Y-74862500D02*
X254112500Y-74862500D01*
X251712500Y-74937500D02*
X251712500Y-69137500D01*
X251712500Y-69137500D02*
X254112500Y-69137500D01*
X254112500Y-69137500D02*
X254112500Y-74937500D01*
G04 #@! TO.C,D_0*
X275525000Y-69450000D02*
X277925000Y-69450000D01*
X275525000Y-69625000D02*
X277925000Y-69625000D01*
X275525000Y-69800000D02*
X277925000Y-69800000D01*
X277925000Y-70200000D02*
X275525000Y-70200000D01*
X275525000Y-69975000D02*
X277925000Y-69975000D01*
X275525000Y-70100000D02*
X277925000Y-70100000D01*
X275525000Y-70175000D02*
X275525000Y-64375000D01*
X275525000Y-64375000D02*
X277925000Y-64375000D01*
X277925000Y-64375000D02*
X277925000Y-70175000D01*
G04 #@! TO.C,D_DOT*
X294575000Y-69450000D02*
X296975000Y-69450000D01*
X294575000Y-69625000D02*
X296975000Y-69625000D01*
X294575000Y-69800000D02*
X296975000Y-69800000D01*
X296975000Y-70200000D02*
X294575000Y-70200000D01*
X294575000Y-69975000D02*
X296975000Y-69975000D01*
X294575000Y-70100000D02*
X296975000Y-70100000D01*
X294575000Y-70175000D02*
X294575000Y-64375000D01*
X294575000Y-64375000D02*
X296975000Y-64375000D01*
X296975000Y-64375000D02*
X296975000Y-70175000D01*
G04 #@! TO.C,D_TAB*
D11*
X21836904Y-8463095D02*
X21036904Y-8463095D01*
X21036904Y-8653571D01*
X21075000Y-8767857D01*
X21151190Y-8844047D01*
X21227380Y-8882142D01*
X21379761Y-8920238D01*
X21494047Y-8920238D01*
X21646428Y-8882142D01*
X21722619Y-8844047D01*
X21798809Y-8767857D01*
X21836904Y-8653571D01*
X21836904Y-8463095D01*
X21913095Y-9072619D02*
X21913095Y-9682142D01*
X21036904Y-9758333D02*
X21036904Y-10215476D01*
X21836904Y-9986904D02*
X21036904Y-9986904D01*
X21608333Y-10444047D02*
X21608333Y-10825000D01*
X21836904Y-10367857D02*
X21036904Y-10634523D01*
X21836904Y-10901190D01*
X21417857Y-11434523D02*
X21455952Y-11548809D01*
X21494047Y-11586904D01*
X21570238Y-11625000D01*
X21684523Y-11625000D01*
X21760714Y-11586904D01*
X21798809Y-11548809D01*
X21836904Y-11472619D01*
X21836904Y-11167857D01*
X21036904Y-11167857D01*
X21036904Y-11434523D01*
X21075000Y-11510714D01*
X21113095Y-11548809D01*
X21189285Y-11586904D01*
X21265476Y-11586904D01*
X21341666Y-11548809D01*
X21379761Y-11510714D01*
X21417857Y-11434523D01*
X21417857Y-11167857D01*
G04 #@! TO.C,D_Q*
X40886904Y-9091666D02*
X40086904Y-9091666D01*
X40086904Y-9282142D01*
X40125000Y-9396428D01*
X40201190Y-9472619D01*
X40277380Y-9510714D01*
X40429761Y-9548809D01*
X40544047Y-9548809D01*
X40696428Y-9510714D01*
X40772619Y-9472619D01*
X40848809Y-9396428D01*
X40886904Y-9282142D01*
X40886904Y-9091666D01*
X40963095Y-9701190D02*
X40963095Y-10310714D01*
X40963095Y-11034523D02*
X40925000Y-10958333D01*
X40848809Y-10882142D01*
X40734523Y-10767857D01*
X40696428Y-10691666D01*
X40696428Y-10615476D01*
X40886904Y-10653571D02*
X40848809Y-10577380D01*
X40772619Y-10501190D01*
X40620238Y-10463095D01*
X40353571Y-10463095D01*
X40201190Y-10501190D01*
X40125000Y-10577380D01*
X40086904Y-10653571D01*
X40086904Y-10805952D01*
X40125000Y-10882142D01*
X40201190Y-10958333D01*
X40353571Y-10996428D01*
X40620238Y-10996428D01*
X40772619Y-10958333D01*
X40848809Y-10882142D01*
X40886904Y-10805952D01*
X40886904Y-10653571D01*
G04 #@! TO.C,D_W*
X59936904Y-9053571D02*
X59136904Y-9053571D01*
X59136904Y-9244047D01*
X59175000Y-9358333D01*
X59251190Y-9434523D01*
X59327380Y-9472619D01*
X59479761Y-9510714D01*
X59594047Y-9510714D01*
X59746428Y-9472619D01*
X59822619Y-9434523D01*
X59898809Y-9358333D01*
X59936904Y-9244047D01*
X59936904Y-9053571D01*
X60013095Y-9663095D02*
X60013095Y-10272619D01*
X59136904Y-10386904D02*
X59936904Y-10577380D01*
X59365476Y-10729761D01*
X59936904Y-10882142D01*
X59136904Y-11072619D01*
G04 #@! TO.C,D_E*
X78986904Y-9148809D02*
X78186904Y-9148809D01*
X78186904Y-9339285D01*
X78225000Y-9453571D01*
X78301190Y-9529761D01*
X78377380Y-9567857D01*
X78529761Y-9605952D01*
X78644047Y-9605952D01*
X78796428Y-9567857D01*
X78872619Y-9529761D01*
X78948809Y-9453571D01*
X78986904Y-9339285D01*
X78986904Y-9148809D01*
X79063095Y-9758333D02*
X79063095Y-10367857D01*
X78567857Y-10558333D02*
X78567857Y-10825000D01*
X78986904Y-10939285D02*
X78986904Y-10558333D01*
X78186904Y-10558333D01*
X78186904Y-10939285D01*
G04 #@! TO.C,D_R*
X98036904Y-9110714D02*
X97236904Y-9110714D01*
X97236904Y-9301190D01*
X97275000Y-9415476D01*
X97351190Y-9491666D01*
X97427380Y-9529761D01*
X97579761Y-9567857D01*
X97694047Y-9567857D01*
X97846428Y-9529761D01*
X97922619Y-9491666D01*
X97998809Y-9415476D01*
X98036904Y-9301190D01*
X98036904Y-9110714D01*
X98113095Y-9720238D02*
X98113095Y-10329761D01*
X98036904Y-10977380D02*
X97655952Y-10710714D01*
X98036904Y-10520238D02*
X97236904Y-10520238D01*
X97236904Y-10825000D01*
X97275000Y-10901190D01*
X97313095Y-10939285D01*
X97389285Y-10977380D01*
X97503571Y-10977380D01*
X97579761Y-10939285D01*
X97617857Y-10901190D01*
X97655952Y-10825000D01*
X97655952Y-10520238D01*
G04 #@! TO.C,D_T*
X117086904Y-9205952D02*
X116286904Y-9205952D01*
X116286904Y-9396428D01*
X116325000Y-9510714D01*
X116401190Y-9586904D01*
X116477380Y-9625000D01*
X116629761Y-9663095D01*
X116744047Y-9663095D01*
X116896428Y-9625000D01*
X116972619Y-9586904D01*
X117048809Y-9510714D01*
X117086904Y-9396428D01*
X117086904Y-9205952D01*
X117163095Y-9815476D02*
X117163095Y-10425000D01*
X116286904Y-10501190D02*
X116286904Y-10958333D01*
X117086904Y-10729761D02*
X116286904Y-10729761D01*
G04 #@! TO.C,D_Y*
X136136904Y-9167857D02*
X135336904Y-9167857D01*
X135336904Y-9358333D01*
X135375000Y-9472619D01*
X135451190Y-9548809D01*
X135527380Y-9586904D01*
X135679761Y-9625000D01*
X135794047Y-9625000D01*
X135946428Y-9586904D01*
X136022619Y-9548809D01*
X136098809Y-9472619D01*
X136136904Y-9358333D01*
X136136904Y-9167857D01*
X136213095Y-9777380D02*
X136213095Y-10386904D01*
X135755952Y-10729761D02*
X136136904Y-10729761D01*
X135336904Y-10463095D02*
X135755952Y-10729761D01*
X135336904Y-10996428D01*
G04 #@! TO.C,D_U*
X155186904Y-9091666D02*
X154386904Y-9091666D01*
X154386904Y-9282142D01*
X154425000Y-9396428D01*
X154501190Y-9472619D01*
X154577380Y-9510714D01*
X154729761Y-9548809D01*
X154844047Y-9548809D01*
X154996428Y-9510714D01*
X155072619Y-9472619D01*
X155148809Y-9396428D01*
X155186904Y-9282142D01*
X155186904Y-9091666D01*
X155263095Y-9701190D02*
X155263095Y-10310714D01*
X154386904Y-10501190D02*
X155034523Y-10501190D01*
X155110714Y-10539285D01*
X155148809Y-10577380D01*
X155186904Y-10653571D01*
X155186904Y-10805952D01*
X155148809Y-10882142D01*
X155110714Y-10920238D01*
X155034523Y-10958333D01*
X154386904Y-10958333D01*
G04 #@! TO.C,D_I*
X174236904Y-9320238D02*
X173436904Y-9320238D01*
X173436904Y-9510714D01*
X173475000Y-9625000D01*
X173551190Y-9701190D01*
X173627380Y-9739285D01*
X173779761Y-9777380D01*
X173894047Y-9777380D01*
X174046428Y-9739285D01*
X174122619Y-9701190D01*
X174198809Y-9625000D01*
X174236904Y-9510714D01*
X174236904Y-9320238D01*
X174313095Y-9929761D02*
X174313095Y-10539285D01*
X174236904Y-10729761D02*
X173436904Y-10729761D01*
G04 #@! TO.C,D_O*
X193286904Y-9091666D02*
X192486904Y-9091666D01*
X192486904Y-9282142D01*
X192525000Y-9396428D01*
X192601190Y-9472619D01*
X192677380Y-9510714D01*
X192829761Y-9548809D01*
X192944047Y-9548809D01*
X193096428Y-9510714D01*
X193172619Y-9472619D01*
X193248809Y-9396428D01*
X193286904Y-9282142D01*
X193286904Y-9091666D01*
X193363095Y-9701190D02*
X193363095Y-10310714D01*
X192486904Y-10653571D02*
X192486904Y-10805952D01*
X192525000Y-10882142D01*
X192601190Y-10958333D01*
X192753571Y-10996428D01*
X193020238Y-10996428D01*
X193172619Y-10958333D01*
X193248809Y-10882142D01*
X193286904Y-10805952D01*
X193286904Y-10653571D01*
X193248809Y-10577380D01*
X193172619Y-10501190D01*
X193020238Y-10463095D01*
X192753571Y-10463095D01*
X192601190Y-10501190D01*
X192525000Y-10577380D01*
X192486904Y-10653571D01*
G04 #@! TO.C,D_P*
X212336904Y-9110714D02*
X211536904Y-9110714D01*
X211536904Y-9301190D01*
X211575000Y-9415476D01*
X211651190Y-9491666D01*
X211727380Y-9529761D01*
X211879761Y-9567857D01*
X211994047Y-9567857D01*
X212146428Y-9529761D01*
X212222619Y-9491666D01*
X212298809Y-9415476D01*
X212336904Y-9301190D01*
X212336904Y-9110714D01*
X212413095Y-9720238D02*
X212413095Y-10329761D01*
X212336904Y-10520238D02*
X211536904Y-10520238D01*
X211536904Y-10825000D01*
X211575000Y-10901190D01*
X211613095Y-10939285D01*
X211689285Y-10977380D01*
X211803571Y-10977380D01*
X211879761Y-10939285D01*
X211917857Y-10901190D01*
X211955952Y-10825000D01*
X211955952Y-10520238D01*
G04 #@! TO.C,D_BS*
X217604761Y-17636904D02*
X217604761Y-16836904D01*
X217795238Y-16836904D01*
X217909523Y-16875000D01*
X217985714Y-16951190D01*
X218023809Y-17027380D01*
X218061904Y-17179761D01*
X218061904Y-17294047D01*
X218023809Y-17446428D01*
X217985714Y-17522619D01*
X217909523Y-17598809D01*
X217795238Y-17636904D01*
X217604761Y-17636904D01*
X218214285Y-17713095D02*
X218823809Y-17713095D01*
X219280952Y-17217857D02*
X219395238Y-17255952D01*
X219433333Y-17294047D01*
X219471428Y-17370238D01*
X219471428Y-17484523D01*
X219433333Y-17560714D01*
X219395238Y-17598809D01*
X219319047Y-17636904D01*
X219014285Y-17636904D01*
X219014285Y-16836904D01*
X219280952Y-16836904D01*
X219357142Y-16875000D01*
X219395238Y-16913095D01*
X219433333Y-16989285D01*
X219433333Y-17065476D01*
X219395238Y-17141666D01*
X219357142Y-17179761D01*
X219280952Y-17217857D01*
X219014285Y-17217857D01*
X219776190Y-17598809D02*
X219890476Y-17636904D01*
X220080952Y-17636904D01*
X220157142Y-17598809D01*
X220195238Y-17560714D01*
X220233333Y-17484523D01*
X220233333Y-17408333D01*
X220195238Y-17332142D01*
X220157142Y-17294047D01*
X220080952Y-17255952D01*
X219928571Y-17217857D01*
X219852380Y-17179761D01*
X219814285Y-17141666D01*
X219776190Y-17065476D01*
X219776190Y-16989285D01*
X219814285Y-16913095D01*
X219852380Y-16875000D01*
X219928571Y-16836904D01*
X220119047Y-16836904D01*
X220233333Y-16875000D01*
G04 #@! TO.C,D_7*
X259961904Y-9129761D02*
X259161904Y-9129761D01*
X259161904Y-9320238D01*
X259200000Y-9434523D01*
X259276190Y-9510714D01*
X259352380Y-9548809D01*
X259504761Y-9586904D01*
X259619047Y-9586904D01*
X259771428Y-9548809D01*
X259847619Y-9510714D01*
X259923809Y-9434523D01*
X259961904Y-9320238D01*
X259961904Y-9129761D01*
X260038095Y-9739285D02*
X260038095Y-10348809D01*
X259161904Y-10463095D02*
X259161904Y-10996428D01*
X259961904Y-10653571D01*
G04 #@! TO.C,D_8*
X279011904Y-9129761D02*
X278211904Y-9129761D01*
X278211904Y-9320238D01*
X278250000Y-9434523D01*
X278326190Y-9510714D01*
X278402380Y-9548809D01*
X278554761Y-9586904D01*
X278669047Y-9586904D01*
X278821428Y-9548809D01*
X278897619Y-9510714D01*
X278973809Y-9434523D01*
X279011904Y-9320238D01*
X279011904Y-9129761D01*
X279088095Y-9739285D02*
X279088095Y-10348809D01*
X278554761Y-10653571D02*
X278516666Y-10577380D01*
X278478571Y-10539285D01*
X278402380Y-10501190D01*
X278364285Y-10501190D01*
X278288095Y-10539285D01*
X278250000Y-10577380D01*
X278211904Y-10653571D01*
X278211904Y-10805952D01*
X278250000Y-10882142D01*
X278288095Y-10920238D01*
X278364285Y-10958333D01*
X278402380Y-10958333D01*
X278478571Y-10920238D01*
X278516666Y-10882142D01*
X278554761Y-10805952D01*
X278554761Y-10653571D01*
X278592857Y-10577380D01*
X278630952Y-10539285D01*
X278707142Y-10501190D01*
X278859523Y-10501190D01*
X278935714Y-10539285D01*
X278973809Y-10577380D01*
X279011904Y-10653571D01*
X279011904Y-10805952D01*
X278973809Y-10882142D01*
X278935714Y-10920238D01*
X278859523Y-10958333D01*
X278707142Y-10958333D01*
X278630952Y-10920238D01*
X278592857Y-10882142D01*
X278554761Y-10805952D01*
G04 #@! TO.C,D_9*
X298061904Y-9129761D02*
X297261904Y-9129761D01*
X297261904Y-9320238D01*
X297300000Y-9434523D01*
X297376190Y-9510714D01*
X297452380Y-9548809D01*
X297604761Y-9586904D01*
X297719047Y-9586904D01*
X297871428Y-9548809D01*
X297947619Y-9510714D01*
X298023809Y-9434523D01*
X298061904Y-9320238D01*
X298061904Y-9129761D01*
X298138095Y-9739285D02*
X298138095Y-10348809D01*
X298061904Y-10577380D02*
X298061904Y-10729761D01*
X298023809Y-10805952D01*
X297985714Y-10844047D01*
X297871428Y-10920238D01*
X297719047Y-10958333D01*
X297414285Y-10958333D01*
X297338095Y-10920238D01*
X297300000Y-10882142D01*
X297261904Y-10805952D01*
X297261904Y-10653571D01*
X297300000Y-10577380D01*
X297338095Y-10539285D01*
X297414285Y-10501190D01*
X297604761Y-10501190D01*
X297680952Y-10539285D01*
X297719047Y-10577380D01*
X297757142Y-10653571D01*
X297757142Y-10805952D01*
X297719047Y-10882142D01*
X297680952Y-10920238D01*
X297604761Y-10958333D01*
G04 #@! TO.C,D_CTRL*
X26599404Y-27132142D02*
X25799404Y-27132142D01*
X25799404Y-27322619D01*
X25837500Y-27436904D01*
X25913690Y-27513095D01*
X25989880Y-27551190D01*
X26142261Y-27589285D01*
X26256547Y-27589285D01*
X26408928Y-27551190D01*
X26485119Y-27513095D01*
X26561309Y-27436904D01*
X26599404Y-27322619D01*
X26599404Y-27132142D01*
X26675595Y-27741666D02*
X26675595Y-28351190D01*
X26523214Y-28998809D02*
X26561309Y-28960714D01*
X26599404Y-28846428D01*
X26599404Y-28770238D01*
X26561309Y-28655952D01*
X26485119Y-28579761D01*
X26408928Y-28541666D01*
X26256547Y-28503571D01*
X26142261Y-28503571D01*
X25989880Y-28541666D01*
X25913690Y-28579761D01*
X25837500Y-28655952D01*
X25799404Y-28770238D01*
X25799404Y-28846428D01*
X25837500Y-28960714D01*
X25875595Y-28998809D01*
X25799404Y-29227380D02*
X25799404Y-29684523D01*
X26599404Y-29455952D02*
X25799404Y-29455952D01*
X26599404Y-30408333D02*
X26218452Y-30141666D01*
X26599404Y-29951190D02*
X25799404Y-29951190D01*
X25799404Y-30255952D01*
X25837500Y-30332142D01*
X25875595Y-30370238D01*
X25951785Y-30408333D01*
X26066071Y-30408333D01*
X26142261Y-30370238D01*
X26180357Y-30332142D01*
X26218452Y-30255952D01*
X26218452Y-29951190D01*
X26599404Y-31132142D02*
X26599404Y-30751190D01*
X25799404Y-30751190D01*
G04 #@! TO.C,D_A*
X45649404Y-28217857D02*
X44849404Y-28217857D01*
X44849404Y-28408333D01*
X44887500Y-28522619D01*
X44963690Y-28598809D01*
X45039880Y-28636904D01*
X45192261Y-28675000D01*
X45306547Y-28675000D01*
X45458928Y-28636904D01*
X45535119Y-28598809D01*
X45611309Y-28522619D01*
X45649404Y-28408333D01*
X45649404Y-28217857D01*
X45725595Y-28827380D02*
X45725595Y-29436904D01*
X45420833Y-29589285D02*
X45420833Y-29970238D01*
X45649404Y-29513095D02*
X44849404Y-29779761D01*
X45649404Y-30046428D01*
G04 #@! TO.C,D_S*
X64699404Y-28179761D02*
X63899404Y-28179761D01*
X63899404Y-28370238D01*
X63937500Y-28484523D01*
X64013690Y-28560714D01*
X64089880Y-28598809D01*
X64242261Y-28636904D01*
X64356547Y-28636904D01*
X64508928Y-28598809D01*
X64585119Y-28560714D01*
X64661309Y-28484523D01*
X64699404Y-28370238D01*
X64699404Y-28179761D01*
X64775595Y-28789285D02*
X64775595Y-29398809D01*
X64661309Y-29551190D02*
X64699404Y-29665476D01*
X64699404Y-29855952D01*
X64661309Y-29932142D01*
X64623214Y-29970238D01*
X64547023Y-30008333D01*
X64470833Y-30008333D01*
X64394642Y-29970238D01*
X64356547Y-29932142D01*
X64318452Y-29855952D01*
X64280357Y-29703571D01*
X64242261Y-29627380D01*
X64204166Y-29589285D01*
X64127976Y-29551190D01*
X64051785Y-29551190D01*
X63975595Y-29589285D01*
X63937500Y-29627380D01*
X63899404Y-29703571D01*
X63899404Y-29894047D01*
X63937500Y-30008333D01*
G04 #@! TO.C,D_D*
X83749404Y-28160714D02*
X82949404Y-28160714D01*
X82949404Y-28351190D01*
X82987500Y-28465476D01*
X83063690Y-28541666D01*
X83139880Y-28579761D01*
X83292261Y-28617857D01*
X83406547Y-28617857D01*
X83558928Y-28579761D01*
X83635119Y-28541666D01*
X83711309Y-28465476D01*
X83749404Y-28351190D01*
X83749404Y-28160714D01*
X83825595Y-28770238D02*
X83825595Y-29379761D01*
X83749404Y-29570238D02*
X82949404Y-29570238D01*
X82949404Y-29760714D01*
X82987500Y-29875000D01*
X83063690Y-29951190D01*
X83139880Y-29989285D01*
X83292261Y-30027380D01*
X83406547Y-30027380D01*
X83558928Y-29989285D01*
X83635119Y-29951190D01*
X83711309Y-29875000D01*
X83749404Y-29760714D01*
X83749404Y-29570238D01*
G04 #@! TO.C,D_F*
X102799404Y-28217857D02*
X101999404Y-28217857D01*
X101999404Y-28408333D01*
X102037500Y-28522619D01*
X102113690Y-28598809D01*
X102189880Y-28636904D01*
X102342261Y-28675000D01*
X102456547Y-28675000D01*
X102608928Y-28636904D01*
X102685119Y-28598809D01*
X102761309Y-28522619D01*
X102799404Y-28408333D01*
X102799404Y-28217857D01*
X102875595Y-28827380D02*
X102875595Y-29436904D01*
X102380357Y-29894047D02*
X102380357Y-29627380D01*
X102799404Y-29627380D02*
X101999404Y-29627380D01*
X101999404Y-30008333D01*
G04 #@! TO.C,D_G*
X121849404Y-28160714D02*
X121049404Y-28160714D01*
X121049404Y-28351190D01*
X121087500Y-28465476D01*
X121163690Y-28541666D01*
X121239880Y-28579761D01*
X121392261Y-28617857D01*
X121506547Y-28617857D01*
X121658928Y-28579761D01*
X121735119Y-28541666D01*
X121811309Y-28465476D01*
X121849404Y-28351190D01*
X121849404Y-28160714D01*
X121925595Y-28770238D02*
X121925595Y-29379761D01*
X121087500Y-29989285D02*
X121049404Y-29913095D01*
X121049404Y-29798809D01*
X121087500Y-29684523D01*
X121163690Y-29608333D01*
X121239880Y-29570238D01*
X121392261Y-29532142D01*
X121506547Y-29532142D01*
X121658928Y-29570238D01*
X121735119Y-29608333D01*
X121811309Y-29684523D01*
X121849404Y-29798809D01*
X121849404Y-29875000D01*
X121811309Y-29989285D01*
X121773214Y-30027380D01*
X121506547Y-30027380D01*
X121506547Y-29875000D01*
G04 #@! TO.C,D_H*
X140899404Y-28141666D02*
X140099404Y-28141666D01*
X140099404Y-28332142D01*
X140137500Y-28446428D01*
X140213690Y-28522619D01*
X140289880Y-28560714D01*
X140442261Y-28598809D01*
X140556547Y-28598809D01*
X140708928Y-28560714D01*
X140785119Y-28522619D01*
X140861309Y-28446428D01*
X140899404Y-28332142D01*
X140899404Y-28141666D01*
X140975595Y-28751190D02*
X140975595Y-29360714D01*
X140899404Y-29551190D02*
X140099404Y-29551190D01*
X140480357Y-29551190D02*
X140480357Y-30008333D01*
X140899404Y-30008333D02*
X140099404Y-30008333D01*
G04 #@! TO.C,D_J*
X159949404Y-28255952D02*
X159149404Y-28255952D01*
X159149404Y-28446428D01*
X159187500Y-28560714D01*
X159263690Y-28636904D01*
X159339880Y-28675000D01*
X159492261Y-28713095D01*
X159606547Y-28713095D01*
X159758928Y-28675000D01*
X159835119Y-28636904D01*
X159911309Y-28560714D01*
X159949404Y-28446428D01*
X159949404Y-28255952D01*
X160025595Y-28865476D02*
X160025595Y-29475000D01*
X159149404Y-29894047D02*
X159720833Y-29894047D01*
X159835119Y-29855952D01*
X159911309Y-29779761D01*
X159949404Y-29665476D01*
X159949404Y-29589285D01*
G04 #@! TO.C,D_K*
X178999404Y-28160714D02*
X178199404Y-28160714D01*
X178199404Y-28351190D01*
X178237500Y-28465476D01*
X178313690Y-28541666D01*
X178389880Y-28579761D01*
X178542261Y-28617857D01*
X178656547Y-28617857D01*
X178808928Y-28579761D01*
X178885119Y-28541666D01*
X178961309Y-28465476D01*
X178999404Y-28351190D01*
X178999404Y-28160714D01*
X179075595Y-28770238D02*
X179075595Y-29379761D01*
X178999404Y-29570238D02*
X178199404Y-29570238D01*
X178999404Y-30027380D02*
X178542261Y-29684523D01*
X178199404Y-30027380D02*
X178656547Y-29570238D01*
G04 #@! TO.C,D_L*
X198049404Y-28236904D02*
X197249404Y-28236904D01*
X197249404Y-28427380D01*
X197287500Y-28541666D01*
X197363690Y-28617857D01*
X197439880Y-28655952D01*
X197592261Y-28694047D01*
X197706547Y-28694047D01*
X197858928Y-28655952D01*
X197935119Y-28617857D01*
X198011309Y-28541666D01*
X198049404Y-28427380D01*
X198049404Y-28236904D01*
X198125595Y-28846428D02*
X198125595Y-29455952D01*
X198049404Y-30027380D02*
X198049404Y-29646428D01*
X197249404Y-29646428D01*
G04 #@! TO.C,D_ENTER*
X231386904Y-26713095D02*
X230586904Y-26713095D01*
X230586904Y-26903571D01*
X230625000Y-27017857D01*
X230701190Y-27094047D01*
X230777380Y-27132142D01*
X230929761Y-27170238D01*
X231044047Y-27170238D01*
X231196428Y-27132142D01*
X231272619Y-27094047D01*
X231348809Y-27017857D01*
X231386904Y-26903571D01*
X231386904Y-26713095D01*
X231463095Y-27322619D02*
X231463095Y-27932142D01*
X230967857Y-28122619D02*
X230967857Y-28389285D01*
X231386904Y-28503571D02*
X231386904Y-28122619D01*
X230586904Y-28122619D01*
X230586904Y-28503571D01*
X231386904Y-28846428D02*
X230586904Y-28846428D01*
X231386904Y-29303571D01*
X230586904Y-29303571D01*
X230586904Y-29570238D02*
X230586904Y-30027380D01*
X231386904Y-29798809D02*
X230586904Y-29798809D01*
X230967857Y-30294047D02*
X230967857Y-30560714D01*
X231386904Y-30675000D02*
X231386904Y-30294047D01*
X230586904Y-30294047D01*
X230586904Y-30675000D01*
X231386904Y-31475000D02*
X231005952Y-31208333D01*
X231386904Y-31017857D02*
X230586904Y-31017857D01*
X230586904Y-31322619D01*
X230625000Y-31398809D01*
X230663095Y-31436904D01*
X230739285Y-31475000D01*
X230853571Y-31475000D01*
X230929761Y-31436904D01*
X230967857Y-31398809D01*
X231005952Y-31322619D01*
X231005952Y-31017857D01*
G04 #@! TO.C,D_4*
X259961904Y-28179761D02*
X259161904Y-28179761D01*
X259161904Y-28370238D01*
X259200000Y-28484523D01*
X259276190Y-28560714D01*
X259352380Y-28598809D01*
X259504761Y-28636904D01*
X259619047Y-28636904D01*
X259771428Y-28598809D01*
X259847619Y-28560714D01*
X259923809Y-28484523D01*
X259961904Y-28370238D01*
X259961904Y-28179761D01*
X260038095Y-28789285D02*
X260038095Y-29398809D01*
X259428571Y-29932142D02*
X259961904Y-29932142D01*
X259123809Y-29741666D02*
X259695238Y-29551190D01*
X259695238Y-30046428D01*
G04 #@! TO.C,D_5*
X279011904Y-28179761D02*
X278211904Y-28179761D01*
X278211904Y-28370238D01*
X278250000Y-28484523D01*
X278326190Y-28560714D01*
X278402380Y-28598809D01*
X278554761Y-28636904D01*
X278669047Y-28636904D01*
X278821428Y-28598809D01*
X278897619Y-28560714D01*
X278973809Y-28484523D01*
X279011904Y-28370238D01*
X279011904Y-28179761D01*
X279088095Y-28789285D02*
X279088095Y-29398809D01*
X278211904Y-29970238D02*
X278211904Y-29589285D01*
X278592857Y-29551190D01*
X278554761Y-29589285D01*
X278516666Y-29665476D01*
X278516666Y-29855952D01*
X278554761Y-29932142D01*
X278592857Y-29970238D01*
X278669047Y-30008333D01*
X278859523Y-30008333D01*
X278935714Y-29970238D01*
X278973809Y-29932142D01*
X279011904Y-29855952D01*
X279011904Y-29665476D01*
X278973809Y-29589285D01*
X278935714Y-29551190D01*
G04 #@! TO.C,D_6*
X298061904Y-28179761D02*
X297261904Y-28179761D01*
X297261904Y-28370238D01*
X297300000Y-28484523D01*
X297376190Y-28560714D01*
X297452380Y-28598809D01*
X297604761Y-28636904D01*
X297719047Y-28636904D01*
X297871428Y-28598809D01*
X297947619Y-28560714D01*
X298023809Y-28484523D01*
X298061904Y-28370238D01*
X298061904Y-28179761D01*
X298138095Y-28789285D02*
X298138095Y-29398809D01*
X297261904Y-29932142D02*
X297261904Y-29779761D01*
X297300000Y-29703571D01*
X297338095Y-29665476D01*
X297452380Y-29589285D01*
X297604761Y-29551190D01*
X297909523Y-29551190D01*
X297985714Y-29589285D01*
X298023809Y-29627380D01*
X298061904Y-29703571D01*
X298061904Y-29855952D01*
X298023809Y-29932142D01*
X297985714Y-29970238D01*
X297909523Y-30008333D01*
X297719047Y-30008333D01*
X297642857Y-29970238D01*
X297604761Y-29932142D01*
X297566666Y-29855952D01*
X297566666Y-29703571D01*
X297604761Y-29627380D01*
X297642857Y-29589285D01*
X297719047Y-29551190D01*
G04 #@! TO.C,D_SHIFT*
X36124404Y-45972619D02*
X35324404Y-45972619D01*
X35324404Y-46163095D01*
X35362500Y-46277380D01*
X35438690Y-46353571D01*
X35514880Y-46391666D01*
X35667261Y-46429761D01*
X35781547Y-46429761D01*
X35933928Y-46391666D01*
X36010119Y-46353571D01*
X36086309Y-46277380D01*
X36124404Y-46163095D01*
X36124404Y-45972619D01*
X36200595Y-46582142D02*
X36200595Y-47191666D01*
X36086309Y-47344047D02*
X36124404Y-47458333D01*
X36124404Y-47648809D01*
X36086309Y-47725000D01*
X36048214Y-47763095D01*
X35972023Y-47801190D01*
X35895833Y-47801190D01*
X35819642Y-47763095D01*
X35781547Y-47725000D01*
X35743452Y-47648809D01*
X35705357Y-47496428D01*
X35667261Y-47420238D01*
X35629166Y-47382142D01*
X35552976Y-47344047D01*
X35476785Y-47344047D01*
X35400595Y-47382142D01*
X35362500Y-47420238D01*
X35324404Y-47496428D01*
X35324404Y-47686904D01*
X35362500Y-47801190D01*
X36124404Y-48144047D02*
X35324404Y-48144047D01*
X35705357Y-48144047D02*
X35705357Y-48601190D01*
X36124404Y-48601190D02*
X35324404Y-48601190D01*
X36124404Y-48982142D02*
X35324404Y-48982142D01*
X35705357Y-49629761D02*
X35705357Y-49363095D01*
X36124404Y-49363095D02*
X35324404Y-49363095D01*
X35324404Y-49744047D01*
X35324404Y-49934523D02*
X35324404Y-50391666D01*
X36124404Y-50163095D02*
X35324404Y-50163095D01*
G04 #@! TO.C,D_Z*
X55174404Y-47229761D02*
X54374404Y-47229761D01*
X54374404Y-47420238D01*
X54412500Y-47534523D01*
X54488690Y-47610714D01*
X54564880Y-47648809D01*
X54717261Y-47686904D01*
X54831547Y-47686904D01*
X54983928Y-47648809D01*
X55060119Y-47610714D01*
X55136309Y-47534523D01*
X55174404Y-47420238D01*
X55174404Y-47229761D01*
X55250595Y-47839285D02*
X55250595Y-48448809D01*
X54374404Y-48563095D02*
X54374404Y-49096428D01*
X55174404Y-48563095D01*
X55174404Y-49096428D01*
G04 #@! TO.C,D_X*
X74224404Y-47229761D02*
X73424404Y-47229761D01*
X73424404Y-47420238D01*
X73462500Y-47534523D01*
X73538690Y-47610714D01*
X73614880Y-47648809D01*
X73767261Y-47686904D01*
X73881547Y-47686904D01*
X74033928Y-47648809D01*
X74110119Y-47610714D01*
X74186309Y-47534523D01*
X74224404Y-47420238D01*
X74224404Y-47229761D01*
X74300595Y-47839285D02*
X74300595Y-48448809D01*
X73424404Y-48563095D02*
X74224404Y-49096428D01*
X73424404Y-49096428D02*
X74224404Y-48563095D01*
G04 #@! TO.C,D_C*
X93274404Y-47210714D02*
X92474404Y-47210714D01*
X92474404Y-47401190D01*
X92512500Y-47515476D01*
X92588690Y-47591666D01*
X92664880Y-47629761D01*
X92817261Y-47667857D01*
X92931547Y-47667857D01*
X93083928Y-47629761D01*
X93160119Y-47591666D01*
X93236309Y-47515476D01*
X93274404Y-47401190D01*
X93274404Y-47210714D01*
X93350595Y-47820238D02*
X93350595Y-48429761D01*
X93198214Y-49077380D02*
X93236309Y-49039285D01*
X93274404Y-48925000D01*
X93274404Y-48848809D01*
X93236309Y-48734523D01*
X93160119Y-48658333D01*
X93083928Y-48620238D01*
X92931547Y-48582142D01*
X92817261Y-48582142D01*
X92664880Y-48620238D01*
X92588690Y-48658333D01*
X92512500Y-48734523D01*
X92474404Y-48848809D01*
X92474404Y-48925000D01*
X92512500Y-49039285D01*
X92550595Y-49077380D01*
G04 #@! TO.C,D_V*
X112324404Y-47267857D02*
X111524404Y-47267857D01*
X111524404Y-47458333D01*
X111562500Y-47572619D01*
X111638690Y-47648809D01*
X111714880Y-47686904D01*
X111867261Y-47725000D01*
X111981547Y-47725000D01*
X112133928Y-47686904D01*
X112210119Y-47648809D01*
X112286309Y-47572619D01*
X112324404Y-47458333D01*
X112324404Y-47267857D01*
X112400595Y-47877380D02*
X112400595Y-48486904D01*
X111524404Y-48563095D02*
X112324404Y-48829761D01*
X111524404Y-49096428D01*
G04 #@! TO.C,D_B*
X131374404Y-47210714D02*
X130574404Y-47210714D01*
X130574404Y-47401190D01*
X130612500Y-47515476D01*
X130688690Y-47591666D01*
X130764880Y-47629761D01*
X130917261Y-47667857D01*
X131031547Y-47667857D01*
X131183928Y-47629761D01*
X131260119Y-47591666D01*
X131336309Y-47515476D01*
X131374404Y-47401190D01*
X131374404Y-47210714D01*
X131450595Y-47820238D02*
X131450595Y-48429761D01*
X130955357Y-48886904D02*
X130993452Y-49001190D01*
X131031547Y-49039285D01*
X131107738Y-49077380D01*
X131222023Y-49077380D01*
X131298214Y-49039285D01*
X131336309Y-49001190D01*
X131374404Y-48925000D01*
X131374404Y-48620238D01*
X130574404Y-48620238D01*
X130574404Y-48886904D01*
X130612500Y-48963095D01*
X130650595Y-49001190D01*
X130726785Y-49039285D01*
X130802976Y-49039285D01*
X130879166Y-49001190D01*
X130917261Y-48963095D01*
X130955357Y-48886904D01*
X130955357Y-48620238D01*
G04 #@! TO.C,D_N*
X150424404Y-47191666D02*
X149624404Y-47191666D01*
X149624404Y-47382142D01*
X149662500Y-47496428D01*
X149738690Y-47572619D01*
X149814880Y-47610714D01*
X149967261Y-47648809D01*
X150081547Y-47648809D01*
X150233928Y-47610714D01*
X150310119Y-47572619D01*
X150386309Y-47496428D01*
X150424404Y-47382142D01*
X150424404Y-47191666D01*
X150500595Y-47801190D02*
X150500595Y-48410714D01*
X150424404Y-48601190D02*
X149624404Y-48601190D01*
X150424404Y-49058333D01*
X149624404Y-49058333D01*
G04 #@! TO.C,D_M*
X169474404Y-47153571D02*
X168674404Y-47153571D01*
X168674404Y-47344047D01*
X168712500Y-47458333D01*
X168788690Y-47534523D01*
X168864880Y-47572619D01*
X169017261Y-47610714D01*
X169131547Y-47610714D01*
X169283928Y-47572619D01*
X169360119Y-47534523D01*
X169436309Y-47458333D01*
X169474404Y-47344047D01*
X169474404Y-47153571D01*
X169550595Y-47763095D02*
X169550595Y-48372619D01*
X169474404Y-48563095D02*
X168674404Y-48563095D01*
X169245833Y-48829761D01*
X168674404Y-49096428D01*
X169474404Y-49096428D01*
G04 #@! TO.C,D_COMMA*
X188524404Y-45534523D02*
X187724404Y-45534523D01*
X187724404Y-45725000D01*
X187762500Y-45839285D01*
X187838690Y-45915476D01*
X187914880Y-45953571D01*
X188067261Y-45991666D01*
X188181547Y-45991666D01*
X188333928Y-45953571D01*
X188410119Y-45915476D01*
X188486309Y-45839285D01*
X188524404Y-45725000D01*
X188524404Y-45534523D01*
X188600595Y-46144047D02*
X188600595Y-46753571D01*
X188448214Y-47401190D02*
X188486309Y-47363095D01*
X188524404Y-47248809D01*
X188524404Y-47172619D01*
X188486309Y-47058333D01*
X188410119Y-46982142D01*
X188333928Y-46944047D01*
X188181547Y-46905952D01*
X188067261Y-46905952D01*
X187914880Y-46944047D01*
X187838690Y-46982142D01*
X187762500Y-47058333D01*
X187724404Y-47172619D01*
X187724404Y-47248809D01*
X187762500Y-47363095D01*
X187800595Y-47401190D01*
X187724404Y-47896428D02*
X187724404Y-48048809D01*
X187762500Y-48125000D01*
X187838690Y-48201190D01*
X187991071Y-48239285D01*
X188257738Y-48239285D01*
X188410119Y-48201190D01*
X188486309Y-48125000D01*
X188524404Y-48048809D01*
X188524404Y-47896428D01*
X188486309Y-47820238D01*
X188410119Y-47744047D01*
X188257738Y-47705952D01*
X187991071Y-47705952D01*
X187838690Y-47744047D01*
X187762500Y-47820238D01*
X187724404Y-47896428D01*
X188524404Y-48582142D02*
X187724404Y-48582142D01*
X188295833Y-48848809D01*
X187724404Y-49115476D01*
X188524404Y-49115476D01*
X188524404Y-49496428D02*
X187724404Y-49496428D01*
X188295833Y-49763095D01*
X187724404Y-50029761D01*
X188524404Y-50029761D01*
X188295833Y-50372619D02*
X188295833Y-50753571D01*
X188524404Y-50296428D02*
X187724404Y-50563095D01*
X188524404Y-50829761D01*
G04 #@! TO.C,D_FN1*
X212336904Y-46467857D02*
X211536904Y-46467857D01*
X211536904Y-46658333D01*
X211575000Y-46772619D01*
X211651190Y-46848809D01*
X211727380Y-46886904D01*
X211879761Y-46925000D01*
X211994047Y-46925000D01*
X212146428Y-46886904D01*
X212222619Y-46848809D01*
X212298809Y-46772619D01*
X212336904Y-46658333D01*
X212336904Y-46467857D01*
X212413095Y-47077380D02*
X212413095Y-47686904D01*
X211917857Y-48144047D02*
X211917857Y-47877380D01*
X212336904Y-47877380D02*
X211536904Y-47877380D01*
X211536904Y-48258333D01*
X212336904Y-48563095D02*
X211536904Y-48563095D01*
X212336904Y-49020238D01*
X211536904Y-49020238D01*
X212336904Y-49820238D02*
X212336904Y-49363095D01*
X212336904Y-49591666D02*
X211536904Y-49591666D01*
X211651190Y-49515476D01*
X211727380Y-49439285D01*
X211765476Y-49363095D01*
G04 #@! TO.C,D_UP*
X236149404Y-54220833D02*
X235349404Y-54220833D01*
X235349404Y-54030357D01*
X235387500Y-53916071D01*
X235463690Y-53839880D01*
X235539880Y-53801785D01*
X235692261Y-53763690D01*
X235806547Y-53763690D01*
X235958928Y-53801785D01*
X236035119Y-53839880D01*
X236111309Y-53916071D01*
X236149404Y-54030357D01*
X236149404Y-54220833D01*
X236225595Y-53611309D02*
X236225595Y-53001785D01*
X235349404Y-52811309D02*
X235997023Y-52811309D01*
X236073214Y-52773214D01*
X236111309Y-52735119D01*
X236149404Y-52658928D01*
X236149404Y-52506547D01*
X236111309Y-52430357D01*
X236073214Y-52392261D01*
X235997023Y-52354166D01*
X235349404Y-52354166D01*
X236149404Y-51973214D02*
X235349404Y-51973214D01*
X235349404Y-51668452D01*
X235387500Y-51592261D01*
X235425595Y-51554166D01*
X235501785Y-51516071D01*
X235616071Y-51516071D01*
X235692261Y-51554166D01*
X235730357Y-51592261D01*
X235768452Y-51668452D01*
X235768452Y-51973214D01*
G04 #@! TO.C,D_1*
X259961904Y-47229761D02*
X259161904Y-47229761D01*
X259161904Y-47420238D01*
X259200000Y-47534523D01*
X259276190Y-47610714D01*
X259352380Y-47648809D01*
X259504761Y-47686904D01*
X259619047Y-47686904D01*
X259771428Y-47648809D01*
X259847619Y-47610714D01*
X259923809Y-47534523D01*
X259961904Y-47420238D01*
X259961904Y-47229761D01*
X260038095Y-47839285D02*
X260038095Y-48448809D01*
X259961904Y-49058333D02*
X259961904Y-48601190D01*
X259961904Y-48829761D02*
X259161904Y-48829761D01*
X259276190Y-48753571D01*
X259352380Y-48677380D01*
X259390476Y-48601190D01*
G04 #@! TO.C,D_2*
X279011904Y-47229761D02*
X278211904Y-47229761D01*
X278211904Y-47420238D01*
X278250000Y-47534523D01*
X278326190Y-47610714D01*
X278402380Y-47648809D01*
X278554761Y-47686904D01*
X278669047Y-47686904D01*
X278821428Y-47648809D01*
X278897619Y-47610714D01*
X278973809Y-47534523D01*
X279011904Y-47420238D01*
X279011904Y-47229761D01*
X279088095Y-47839285D02*
X279088095Y-48448809D01*
X278288095Y-48601190D02*
X278250000Y-48639285D01*
X278211904Y-48715476D01*
X278211904Y-48905952D01*
X278250000Y-48982142D01*
X278288095Y-49020238D01*
X278364285Y-49058333D01*
X278440476Y-49058333D01*
X278554761Y-49020238D01*
X279011904Y-48563095D01*
X279011904Y-49058333D01*
G04 #@! TO.C,D_3*
X298061904Y-47229761D02*
X297261904Y-47229761D01*
X297261904Y-47420238D01*
X297300000Y-47534523D01*
X297376190Y-47610714D01*
X297452380Y-47648809D01*
X297604761Y-47686904D01*
X297719047Y-47686904D01*
X297871428Y-47648809D01*
X297947619Y-47610714D01*
X298023809Y-47534523D01*
X298061904Y-47420238D01*
X298061904Y-47229761D01*
X298138095Y-47839285D02*
X298138095Y-48448809D01*
X297261904Y-48563095D02*
X297261904Y-49058333D01*
X297566666Y-48791666D01*
X297566666Y-48905952D01*
X297604761Y-48982142D01*
X297642857Y-49020238D01*
X297719047Y-49058333D01*
X297909523Y-49058333D01*
X297985714Y-49020238D01*
X298023809Y-48982142D01*
X298061904Y-48905952D01*
X298061904Y-48677380D01*
X298023809Y-48601190D01*
X297985714Y-48563095D01*
G04 #@! TO.C,D_CTRL1*
X26599404Y-64851190D02*
X25799404Y-64851190D01*
X25799404Y-65041666D01*
X25837500Y-65155952D01*
X25913690Y-65232142D01*
X25989880Y-65270238D01*
X26142261Y-65308333D01*
X26256547Y-65308333D01*
X26408928Y-65270238D01*
X26485119Y-65232142D01*
X26561309Y-65155952D01*
X26599404Y-65041666D01*
X26599404Y-64851190D01*
X26675595Y-65460714D02*
X26675595Y-66070238D01*
X26523214Y-66717857D02*
X26561309Y-66679761D01*
X26599404Y-66565476D01*
X26599404Y-66489285D01*
X26561309Y-66375000D01*
X26485119Y-66298809D01*
X26408928Y-66260714D01*
X26256547Y-66222619D01*
X26142261Y-66222619D01*
X25989880Y-66260714D01*
X25913690Y-66298809D01*
X25837500Y-66375000D01*
X25799404Y-66489285D01*
X25799404Y-66565476D01*
X25837500Y-66679761D01*
X25875595Y-66717857D01*
X25799404Y-66946428D02*
X25799404Y-67403571D01*
X26599404Y-67175000D02*
X25799404Y-67175000D01*
X26599404Y-68127380D02*
X26218452Y-67860714D01*
X26599404Y-67670238D02*
X25799404Y-67670238D01*
X25799404Y-67975000D01*
X25837500Y-68051190D01*
X25875595Y-68089285D01*
X25951785Y-68127380D01*
X26066071Y-68127380D01*
X26142261Y-68089285D01*
X26180357Y-68051190D01*
X26218452Y-67975000D01*
X26218452Y-67670238D01*
X26599404Y-68851190D02*
X26599404Y-68470238D01*
X25799404Y-68470238D01*
X26599404Y-69536904D02*
X26599404Y-69079761D01*
X26599404Y-69308333D02*
X25799404Y-69308333D01*
X25913690Y-69232142D01*
X25989880Y-69155952D01*
X26027976Y-69079761D01*
G04 #@! TO.C,D_WIN*
X45649404Y-65594047D02*
X44849404Y-65594047D01*
X44849404Y-65784523D01*
X44887500Y-65898809D01*
X44963690Y-65975000D01*
X45039880Y-66013095D01*
X45192261Y-66051190D01*
X45306547Y-66051190D01*
X45458928Y-66013095D01*
X45535119Y-65975000D01*
X45611309Y-65898809D01*
X45649404Y-65784523D01*
X45649404Y-65594047D01*
X45725595Y-66203571D02*
X45725595Y-66813095D01*
X44849404Y-66927380D02*
X45649404Y-67117857D01*
X45077976Y-67270238D01*
X45649404Y-67422619D01*
X44849404Y-67613095D01*
X45649404Y-67917857D02*
X44849404Y-67917857D01*
X45649404Y-68298809D02*
X44849404Y-68298809D01*
X45649404Y-68755952D01*
X44849404Y-68755952D01*
G04 #@! TO.C,D_ALT*
X69461904Y-65689285D02*
X68661904Y-65689285D01*
X68661904Y-65879761D01*
X68700000Y-65994047D01*
X68776190Y-66070238D01*
X68852380Y-66108333D01*
X69004761Y-66146428D01*
X69119047Y-66146428D01*
X69271428Y-66108333D01*
X69347619Y-66070238D01*
X69423809Y-65994047D01*
X69461904Y-65879761D01*
X69461904Y-65689285D01*
X69538095Y-66298809D02*
X69538095Y-66908333D01*
X69233333Y-67060714D02*
X69233333Y-67441666D01*
X69461904Y-66984523D02*
X68661904Y-67251190D01*
X69461904Y-67517857D01*
X69461904Y-68165476D02*
X69461904Y-67784523D01*
X68661904Y-67784523D01*
X68661904Y-68317857D02*
X68661904Y-68775000D01*
X69461904Y-68546428D02*
X68661904Y-68546428D01*
G04 #@! TO.C,D_FN2*
X108286904Y-66042857D02*
X107486904Y-66042857D01*
X107486904Y-66233333D01*
X107525000Y-66347619D01*
X107601190Y-66423809D01*
X107677380Y-66461904D01*
X107829761Y-66500000D01*
X107944047Y-66500000D01*
X108096428Y-66461904D01*
X108172619Y-66423809D01*
X108248809Y-66347619D01*
X108286904Y-66233333D01*
X108286904Y-66042857D01*
X108363095Y-66652380D02*
X108363095Y-67261904D01*
X107867857Y-67719047D02*
X107867857Y-67452380D01*
X108286904Y-67452380D02*
X107486904Y-67452380D01*
X107486904Y-67833333D01*
X108286904Y-68138095D02*
X107486904Y-68138095D01*
X108286904Y-68595238D01*
X107486904Y-68595238D01*
X107563095Y-68938095D02*
X107525000Y-68976190D01*
X107486904Y-69052380D01*
X107486904Y-69242857D01*
X107525000Y-69319047D01*
X107563095Y-69357142D01*
X107639285Y-69395238D01*
X107715476Y-69395238D01*
X107829761Y-69357142D01*
X108286904Y-68900000D01*
X108286904Y-69395238D01*
G04 #@! TO.C,D_SPACE*
X174236904Y-64775000D02*
X173436904Y-64775000D01*
X173436904Y-64965476D01*
X173475000Y-65079761D01*
X173551190Y-65155952D01*
X173627380Y-65194047D01*
X173779761Y-65232142D01*
X173894047Y-65232142D01*
X174046428Y-65194047D01*
X174122619Y-65155952D01*
X174198809Y-65079761D01*
X174236904Y-64965476D01*
X174236904Y-64775000D01*
X174313095Y-65384523D02*
X174313095Y-65994047D01*
X174198809Y-66146428D02*
X174236904Y-66260714D01*
X174236904Y-66451190D01*
X174198809Y-66527380D01*
X174160714Y-66565476D01*
X174084523Y-66603571D01*
X174008333Y-66603571D01*
X173932142Y-66565476D01*
X173894047Y-66527380D01*
X173855952Y-66451190D01*
X173817857Y-66298809D01*
X173779761Y-66222619D01*
X173741666Y-66184523D01*
X173665476Y-66146428D01*
X173589285Y-66146428D01*
X173513095Y-66184523D01*
X173475000Y-66222619D01*
X173436904Y-66298809D01*
X173436904Y-66489285D01*
X173475000Y-66603571D01*
X174236904Y-66946428D02*
X173436904Y-66946428D01*
X173436904Y-67251190D01*
X173475000Y-67327380D01*
X173513095Y-67365476D01*
X173589285Y-67403571D01*
X173703571Y-67403571D01*
X173779761Y-67365476D01*
X173817857Y-67327380D01*
X173855952Y-67251190D01*
X173855952Y-66946428D01*
X174008333Y-67708333D02*
X174008333Y-68089285D01*
X174236904Y-67632142D02*
X173436904Y-67898809D01*
X174236904Y-68165476D01*
X174160714Y-68889285D02*
X174198809Y-68851190D01*
X174236904Y-68736904D01*
X174236904Y-68660714D01*
X174198809Y-68546428D01*
X174122619Y-68470238D01*
X174046428Y-68432142D01*
X173894047Y-68394047D01*
X173779761Y-68394047D01*
X173627380Y-68432142D01*
X173551190Y-68470238D01*
X173475000Y-68546428D01*
X173436904Y-68660714D01*
X173436904Y-68736904D01*
X173475000Y-68851190D01*
X173513095Y-68889285D01*
X173817857Y-69232142D02*
X173817857Y-69498809D01*
X174236904Y-69613095D02*
X174236904Y-69232142D01*
X173436904Y-69232142D01*
X173436904Y-69613095D01*
G04 #@! TO.C,D_ALT1*
X193286904Y-65308333D02*
X192486904Y-65308333D01*
X192486904Y-65498809D01*
X192525000Y-65613095D01*
X192601190Y-65689285D01*
X192677380Y-65727380D01*
X192829761Y-65765476D01*
X192944047Y-65765476D01*
X193096428Y-65727380D01*
X193172619Y-65689285D01*
X193248809Y-65613095D01*
X193286904Y-65498809D01*
X193286904Y-65308333D01*
X193363095Y-65917857D02*
X193363095Y-66527380D01*
X193058333Y-66679761D02*
X193058333Y-67060714D01*
X193286904Y-66603571D02*
X192486904Y-66870238D01*
X193286904Y-67136904D01*
X193286904Y-67784523D02*
X193286904Y-67403571D01*
X192486904Y-67403571D01*
X192486904Y-67936904D02*
X192486904Y-68394047D01*
X193286904Y-68165476D02*
X192486904Y-68165476D01*
X193286904Y-69079761D02*
X193286904Y-68622619D01*
X193286904Y-68851190D02*
X192486904Y-68851190D01*
X192601190Y-68775000D01*
X192677380Y-68698809D01*
X192715476Y-68622619D01*
G04 #@! TO.C,D_LEFT*
X217099404Y-73785119D02*
X216299404Y-73785119D01*
X216299404Y-73594642D01*
X216337500Y-73480357D01*
X216413690Y-73404166D01*
X216489880Y-73366071D01*
X216642261Y-73327976D01*
X216756547Y-73327976D01*
X216908928Y-73366071D01*
X216985119Y-73404166D01*
X217061309Y-73480357D01*
X217099404Y-73594642D01*
X217099404Y-73785119D01*
X217175595Y-73175595D02*
X217175595Y-72566071D01*
X217099404Y-71994642D02*
X217099404Y-72375595D01*
X216299404Y-72375595D01*
X216680357Y-71727976D02*
X216680357Y-71461309D01*
X217099404Y-71347023D02*
X217099404Y-71727976D01*
X216299404Y-71727976D01*
X216299404Y-71347023D01*
X216680357Y-70737500D02*
X216680357Y-71004166D01*
X217099404Y-71004166D02*
X216299404Y-71004166D01*
X216299404Y-70623214D01*
X216299404Y-70432738D02*
X216299404Y-69975595D01*
X217099404Y-70204166D02*
X216299404Y-70204166D01*
G04 #@! TO.C,D_DOWN*
X236149404Y-74147023D02*
X235349404Y-74147023D01*
X235349404Y-73956547D01*
X235387500Y-73842261D01*
X235463690Y-73766071D01*
X235539880Y-73727976D01*
X235692261Y-73689880D01*
X235806547Y-73689880D01*
X235958928Y-73727976D01*
X236035119Y-73766071D01*
X236111309Y-73842261D01*
X236149404Y-73956547D01*
X236149404Y-74147023D01*
X236225595Y-73537500D02*
X236225595Y-72927976D01*
X236149404Y-72737500D02*
X235349404Y-72737500D01*
X235349404Y-72547023D01*
X235387500Y-72432738D01*
X235463690Y-72356547D01*
X235539880Y-72318452D01*
X235692261Y-72280357D01*
X235806547Y-72280357D01*
X235958928Y-72318452D01*
X236035119Y-72356547D01*
X236111309Y-72432738D01*
X236149404Y-72547023D01*
X236149404Y-72737500D01*
X235349404Y-71785119D02*
X235349404Y-71632738D01*
X235387500Y-71556547D01*
X235463690Y-71480357D01*
X235616071Y-71442261D01*
X235882738Y-71442261D01*
X236035119Y-71480357D01*
X236111309Y-71556547D01*
X236149404Y-71632738D01*
X236149404Y-71785119D01*
X236111309Y-71861309D01*
X236035119Y-71937500D01*
X235882738Y-71975595D01*
X235616071Y-71975595D01*
X235463690Y-71937500D01*
X235387500Y-71861309D01*
X235349404Y-71785119D01*
X235349404Y-71175595D02*
X236149404Y-70985119D01*
X235577976Y-70832738D01*
X236149404Y-70680357D01*
X235349404Y-70489880D01*
X236149404Y-70185119D02*
X235349404Y-70185119D01*
X236149404Y-69727976D01*
X235349404Y-69727976D01*
G04 #@! TO.C,D_RIGHT*
X255199404Y-74166071D02*
X254399404Y-74166071D01*
X254399404Y-73975595D01*
X254437500Y-73861309D01*
X254513690Y-73785119D01*
X254589880Y-73747023D01*
X254742261Y-73708928D01*
X254856547Y-73708928D01*
X255008928Y-73747023D01*
X255085119Y-73785119D01*
X255161309Y-73861309D01*
X255199404Y-73975595D01*
X255199404Y-74166071D01*
X255275595Y-73556547D02*
X255275595Y-72947023D01*
X255199404Y-72299404D02*
X254818452Y-72566071D01*
X255199404Y-72756547D02*
X254399404Y-72756547D01*
X254399404Y-72451785D01*
X254437500Y-72375595D01*
X254475595Y-72337500D01*
X254551785Y-72299404D01*
X254666071Y-72299404D01*
X254742261Y-72337500D01*
X254780357Y-72375595D01*
X254818452Y-72451785D01*
X254818452Y-72756547D01*
X255199404Y-71956547D02*
X254399404Y-71956547D01*
X254437500Y-71156547D02*
X254399404Y-71232738D01*
X254399404Y-71347023D01*
X254437500Y-71461309D01*
X254513690Y-71537500D01*
X254589880Y-71575595D01*
X254742261Y-71613690D01*
X254856547Y-71613690D01*
X255008928Y-71575595D01*
X255085119Y-71537500D01*
X255161309Y-71461309D01*
X255199404Y-71347023D01*
X255199404Y-71270833D01*
X255161309Y-71156547D01*
X255123214Y-71118452D01*
X254856547Y-71118452D01*
X254856547Y-71270833D01*
X255199404Y-70775595D02*
X254399404Y-70775595D01*
X254780357Y-70775595D02*
X254780357Y-70318452D01*
X255199404Y-70318452D02*
X254399404Y-70318452D01*
X254399404Y-70051785D02*
X254399404Y-69594642D01*
X255199404Y-69823214D02*
X254399404Y-69823214D01*
G04 #@! TO.C,D_0*
X279011904Y-66279761D02*
X278211904Y-66279761D01*
X278211904Y-66470238D01*
X278250000Y-66584523D01*
X278326190Y-66660714D01*
X278402380Y-66698809D01*
X278554761Y-66736904D01*
X278669047Y-66736904D01*
X278821428Y-66698809D01*
X278897619Y-66660714D01*
X278973809Y-66584523D01*
X279011904Y-66470238D01*
X279011904Y-66279761D01*
X279088095Y-66889285D02*
X279088095Y-67498809D01*
X278211904Y-67841666D02*
X278211904Y-67917857D01*
X278250000Y-67994047D01*
X278288095Y-68032142D01*
X278364285Y-68070238D01*
X278516666Y-68108333D01*
X278707142Y-68108333D01*
X278859523Y-68070238D01*
X278935714Y-68032142D01*
X278973809Y-67994047D01*
X279011904Y-67917857D01*
X279011904Y-67841666D01*
X278973809Y-67765476D01*
X278935714Y-67727380D01*
X278859523Y-67689285D01*
X278707142Y-67651190D01*
X278516666Y-67651190D01*
X278364285Y-67689285D01*
X278288095Y-67727380D01*
X278250000Y-67765476D01*
X278211904Y-67841666D01*
G04 #@! TO.C,D_DOT*
X298061904Y-65536904D02*
X297261904Y-65536904D01*
X297261904Y-65727380D01*
X297300000Y-65841666D01*
X297376190Y-65917857D01*
X297452380Y-65955952D01*
X297604761Y-65994047D01*
X297719047Y-65994047D01*
X297871428Y-65955952D01*
X297947619Y-65917857D01*
X298023809Y-65841666D01*
X298061904Y-65727380D01*
X298061904Y-65536904D01*
X298138095Y-66146428D02*
X298138095Y-66755952D01*
X298061904Y-66946428D02*
X297261904Y-66946428D01*
X297261904Y-67136904D01*
X297300000Y-67251190D01*
X297376190Y-67327380D01*
X297452380Y-67365476D01*
X297604761Y-67403571D01*
X297719047Y-67403571D01*
X297871428Y-67365476D01*
X297947619Y-67327380D01*
X298023809Y-67251190D01*
X298061904Y-67136904D01*
X298061904Y-66946428D01*
X297261904Y-67898809D02*
X297261904Y-68051190D01*
X297300000Y-68127380D01*
X297376190Y-68203571D01*
X297528571Y-68241666D01*
X297795238Y-68241666D01*
X297947619Y-68203571D01*
X298023809Y-68127380D01*
X298061904Y-68051190D01*
X298061904Y-67898809D01*
X298023809Y-67822619D01*
X297947619Y-67746428D01*
X297795238Y-67708333D01*
X297528571Y-67708333D01*
X297376190Y-67746428D01*
X297300000Y-67822619D01*
X297261904Y-67898809D01*
X297261904Y-68470238D02*
X297261904Y-68927380D01*
X298061904Y-68698809D02*
X297261904Y-68698809D01*
G04 #@! TD*
M02*
