G04 #@! TF.GenerationSoftware,KiCad,Pcbnew,(5.0.0-3-g5ebb6b6)*
G04 #@! TF.CreationDate,2019-05-05T10:35:57-03:00*
G04 #@! TF.ProjectId,elongate,656C6F6E676174652E6B696361645F70,rev?*
G04 #@! TF.SameCoordinates,Original*
G04 #@! TF.FileFunction,Legend,Bot*
G04 #@! TF.FilePolarity,Positive*
%FSLAX46Y46*%
G04 Gerber Fmt 4.6, Leading zero omitted, Abs format (unit mm)*
G04 Created by KiCad (PCBNEW (5.0.0-3-g5ebb6b6)) date 2019 May 05, Sunday 10:35:57*
%MOMM*%
%LPD*%
G01*
G04 APERTURE LIST*
%ADD10C,0.120000*%
%ADD11C,0.200000*%
%ADD12C,0.150000*%
G04 APERTURE END LIST*
D10*
G04 #@! TO.C,C1*
X112574000Y-72660252D02*
X112574000Y-72137748D01*
X113994000Y-72660252D02*
X113994000Y-72137748D01*
G04 #@! TO.C,C2*
X113994000Y-67565748D02*
X113994000Y-68088252D01*
X112574000Y-67565748D02*
X112574000Y-68088252D01*
G04 #@! TO.C,X1*
X116602000Y-74224000D02*
X116602000Y-70524000D01*
X116602000Y-70524000D02*
X121902000Y-70524000D01*
G04 #@! TO.C,R1*
X252492252Y-63448000D02*
X251969748Y-63448000D01*
X252492252Y-62028000D02*
X251969748Y-62028000D01*
G04 #@! TO.C,SW1*
X250575000Y-54950000D02*
X251025000Y-54500000D01*
X253975000Y-54950000D02*
X253525000Y-54500000D01*
X253975000Y-59550000D02*
X253525000Y-60000000D01*
X250575000Y-59550000D02*
X251025000Y-60000000D01*
X255025000Y-58250000D02*
X255025000Y-56250000D01*
X251025000Y-54500000D02*
X253525000Y-54500000D01*
X249525000Y-58250000D02*
X249525000Y-56250000D01*
X251025000Y-60000000D02*
X253525000Y-60000000D01*
G04 #@! TO.C,R2*
X115314252Y-52272000D02*
X114791748Y-52272000D01*
X115314252Y-50852000D02*
X114791748Y-50852000D01*
G04 #@! TO.C,R3*
X228525000Y-11446252D02*
X228525000Y-10923748D01*
X229945000Y-11446252D02*
X229945000Y-10923748D01*
G04 #@! TO.C,R4*
X232970000Y-11446252D02*
X232970000Y-10923748D01*
X234390000Y-11446252D02*
X234390000Y-10923748D01*
D11*
G04 #@! TO.C,USB1*
X237350000Y-4800000D02*
X237350000Y1700000D01*
X229650000Y-4800000D02*
X229650000Y1700000D01*
X229650000Y-4800000D02*
X237350000Y-4800000D01*
D10*
G04 #@! TO.C,C3*
X237415000Y-11446252D02*
X237415000Y-10923748D01*
X238835000Y-11446252D02*
X238835000Y-10923748D01*
D12*
G04 #@! TO.C,U1*
X128618555Y-59000000D02*
X128211969Y-59406586D01*
X121300000Y-51681445D02*
X120822703Y-52158742D01*
X113981445Y-59000000D02*
X114458742Y-58522703D01*
X121300000Y-66318555D02*
X121777297Y-65841258D01*
X128618555Y-59000000D02*
X128141258Y-58522703D01*
X121300000Y-66318555D02*
X120822703Y-65841258D01*
X113981445Y-59000000D02*
X114458742Y-59477297D01*
X121300000Y-51681445D02*
X121777297Y-52158742D01*
X128211969Y-59406586D02*
X129113530Y-60308148D01*
D10*
G04 #@! TO.C,C4*
X218513748Y-38290000D02*
X219036252Y-38290000D01*
X218513748Y-39710000D02*
X219036252Y-39710000D01*
G04 #@! TO.C,C5*
X223513748Y-38290000D02*
X224036252Y-38290000D01*
X223513748Y-39710000D02*
X224036252Y-39710000D01*
G04 #@! TO.C,C6*
X228513748Y-38290000D02*
X229036252Y-38290000D01*
X228513748Y-39710000D02*
X229036252Y-39710000D01*
G04 #@! TO.C,C7*
X233513748Y-38290000D02*
X234036252Y-38290000D01*
X233513748Y-39710000D02*
X234036252Y-39710000D01*
G04 #@! TO.C,C1*
D12*
X115291142Y-72232333D02*
X115338761Y-72184714D01*
X115386380Y-72041857D01*
X115386380Y-71946619D01*
X115338761Y-71803761D01*
X115243523Y-71708523D01*
X115148285Y-71660904D01*
X114957809Y-71613285D01*
X114814952Y-71613285D01*
X114624476Y-71660904D01*
X114529238Y-71708523D01*
X114434000Y-71803761D01*
X114386380Y-71946619D01*
X114386380Y-72041857D01*
X114434000Y-72184714D01*
X114481619Y-72232333D01*
X115386380Y-73184714D02*
X115386380Y-72613285D01*
X115386380Y-72899000D02*
X114386380Y-72899000D01*
X114529238Y-72803761D01*
X114624476Y-72708523D01*
X114672095Y-72613285D01*
G04 #@! TO.C,C2*
X111991142Y-67660333D02*
X112038761Y-67612714D01*
X112086380Y-67469857D01*
X112086380Y-67374619D01*
X112038761Y-67231761D01*
X111943523Y-67136523D01*
X111848285Y-67088904D01*
X111657809Y-67041285D01*
X111514952Y-67041285D01*
X111324476Y-67088904D01*
X111229238Y-67136523D01*
X111134000Y-67231761D01*
X111086380Y-67374619D01*
X111086380Y-67469857D01*
X111134000Y-67612714D01*
X111181619Y-67660333D01*
X111181619Y-68041285D02*
X111134000Y-68088904D01*
X111086380Y-68184142D01*
X111086380Y-68422238D01*
X111134000Y-68517476D01*
X111181619Y-68565095D01*
X111276857Y-68612714D01*
X111372095Y-68612714D01*
X111514952Y-68565095D01*
X112086380Y-67993666D01*
X112086380Y-68612714D01*
G04 #@! TO.C,X1*
X120061523Y-74626380D02*
X119394857Y-75626380D01*
X119394857Y-74626380D02*
X120061523Y-75626380D01*
X118490095Y-75626380D02*
X119061523Y-75626380D01*
X118775809Y-75626380D02*
X118775809Y-74626380D01*
X118871047Y-74769238D01*
X118966285Y-74864476D01*
X119061523Y-74912095D01*
G04 #@! TO.C,R1*
X252397666Y-61540380D02*
X252731000Y-61064190D01*
X252969095Y-61540380D02*
X252969095Y-60540380D01*
X252588142Y-60540380D01*
X252492904Y-60588000D01*
X252445285Y-60635619D01*
X252397666Y-60730857D01*
X252397666Y-60873714D01*
X252445285Y-60968952D01*
X252492904Y-61016571D01*
X252588142Y-61064190D01*
X252969095Y-61064190D01*
X251445285Y-61540380D02*
X252016714Y-61540380D01*
X251731000Y-61540380D02*
X251731000Y-60540380D01*
X251826238Y-60683238D01*
X251921476Y-60778476D01*
X252016714Y-60826095D01*
G04 #@! TO.C,SW1*
X253608333Y-61404761D02*
X253465476Y-61452380D01*
X253227380Y-61452380D01*
X253132142Y-61404761D01*
X253084523Y-61357142D01*
X253036904Y-61261904D01*
X253036904Y-61166666D01*
X253084523Y-61071428D01*
X253132142Y-61023809D01*
X253227380Y-60976190D01*
X253417857Y-60928571D01*
X253513095Y-60880952D01*
X253560714Y-60833333D01*
X253608333Y-60738095D01*
X253608333Y-60642857D01*
X253560714Y-60547619D01*
X253513095Y-60500000D01*
X253417857Y-60452380D01*
X253179761Y-60452380D01*
X253036904Y-60500000D01*
X252703571Y-60452380D02*
X252465476Y-61452380D01*
X252275000Y-60738095D01*
X252084523Y-61452380D01*
X251846428Y-60452380D01*
X250941666Y-61452380D02*
X251513095Y-61452380D01*
X251227380Y-61452380D02*
X251227380Y-60452380D01*
X251322619Y-60595238D01*
X251417857Y-60690476D01*
X251513095Y-60738095D01*
G04 #@! TO.C,R2*
X115219666Y-50364380D02*
X115553000Y-49888190D01*
X115791095Y-50364380D02*
X115791095Y-49364380D01*
X115410142Y-49364380D01*
X115314904Y-49412000D01*
X115267285Y-49459619D01*
X115219666Y-49554857D01*
X115219666Y-49697714D01*
X115267285Y-49792952D01*
X115314904Y-49840571D01*
X115410142Y-49888190D01*
X115791095Y-49888190D01*
X114838714Y-49459619D02*
X114791095Y-49412000D01*
X114695857Y-49364380D01*
X114457761Y-49364380D01*
X114362523Y-49412000D01*
X114314904Y-49459619D01*
X114267285Y-49554857D01*
X114267285Y-49650095D01*
X114314904Y-49792952D01*
X114886333Y-50364380D01*
X114267285Y-50364380D01*
G04 #@! TO.C,R3*
X231337380Y-11018333D02*
X230861190Y-10685000D01*
X231337380Y-10446904D02*
X230337380Y-10446904D01*
X230337380Y-10827857D01*
X230385000Y-10923095D01*
X230432619Y-10970714D01*
X230527857Y-11018333D01*
X230670714Y-11018333D01*
X230765952Y-10970714D01*
X230813571Y-10923095D01*
X230861190Y-10827857D01*
X230861190Y-10446904D01*
X230337380Y-11351666D02*
X230337380Y-11970714D01*
X230718333Y-11637380D01*
X230718333Y-11780238D01*
X230765952Y-11875476D01*
X230813571Y-11923095D01*
X230908809Y-11970714D01*
X231146904Y-11970714D01*
X231242142Y-11923095D01*
X231289761Y-11875476D01*
X231337380Y-11780238D01*
X231337380Y-11494523D01*
X231289761Y-11399285D01*
X231242142Y-11351666D01*
G04 #@! TO.C,R4*
X235782380Y-11018333D02*
X235306190Y-10685000D01*
X235782380Y-10446904D02*
X234782380Y-10446904D01*
X234782380Y-10827857D01*
X234830000Y-10923095D01*
X234877619Y-10970714D01*
X234972857Y-11018333D01*
X235115714Y-11018333D01*
X235210952Y-10970714D01*
X235258571Y-10923095D01*
X235306190Y-10827857D01*
X235306190Y-10446904D01*
X235115714Y-11875476D02*
X235782380Y-11875476D01*
X234734761Y-11637380D02*
X235449047Y-11399285D01*
X235449047Y-12018333D01*
G04 #@! TO.C,C3*
X240132142Y-11018333D02*
X240179761Y-10970714D01*
X240227380Y-10827857D01*
X240227380Y-10732619D01*
X240179761Y-10589761D01*
X240084523Y-10494523D01*
X239989285Y-10446904D01*
X239798809Y-10399285D01*
X239655952Y-10399285D01*
X239465476Y-10446904D01*
X239370238Y-10494523D01*
X239275000Y-10589761D01*
X239227380Y-10732619D01*
X239227380Y-10827857D01*
X239275000Y-10970714D01*
X239322619Y-11018333D01*
X239227380Y-11351666D02*
X239227380Y-11970714D01*
X239608333Y-11637380D01*
X239608333Y-11780238D01*
X239655952Y-11875476D01*
X239703571Y-11923095D01*
X239798809Y-11970714D01*
X240036904Y-11970714D01*
X240132142Y-11923095D01*
X240179761Y-11875476D01*
X240227380Y-11780238D01*
X240227380Y-11494523D01*
X240179761Y-11399285D01*
X240132142Y-11351666D01*
G04 #@! TO.C,U1*
X127493919Y-53883576D02*
X126921499Y-54455996D01*
X126820484Y-54489668D01*
X126753140Y-54489668D01*
X126652125Y-54455996D01*
X126517438Y-54321309D01*
X126483766Y-54220294D01*
X126483766Y-54152950D01*
X126517438Y-54051935D01*
X127089858Y-53479515D01*
X125675644Y-53479515D02*
X126079705Y-53883576D01*
X125877675Y-53681546D02*
X126584781Y-52974439D01*
X126551110Y-53142798D01*
X126551110Y-53277485D01*
X126584781Y-53378500D01*
G04 #@! TO.C,C4*
X218941666Y-41007142D02*
X218989285Y-41054761D01*
X219132142Y-41102380D01*
X219227380Y-41102380D01*
X219370238Y-41054761D01*
X219465476Y-40959523D01*
X219513095Y-40864285D01*
X219560714Y-40673809D01*
X219560714Y-40530952D01*
X219513095Y-40340476D01*
X219465476Y-40245238D01*
X219370238Y-40150000D01*
X219227380Y-40102380D01*
X219132142Y-40102380D01*
X218989285Y-40150000D01*
X218941666Y-40197619D01*
X218084523Y-40435714D02*
X218084523Y-41102380D01*
X218322619Y-40054761D02*
X218560714Y-40769047D01*
X217941666Y-40769047D01*
G04 #@! TO.C,C5*
X223941666Y-41007142D02*
X223989285Y-41054761D01*
X224132142Y-41102380D01*
X224227380Y-41102380D01*
X224370238Y-41054761D01*
X224465476Y-40959523D01*
X224513095Y-40864285D01*
X224560714Y-40673809D01*
X224560714Y-40530952D01*
X224513095Y-40340476D01*
X224465476Y-40245238D01*
X224370238Y-40150000D01*
X224227380Y-40102380D01*
X224132142Y-40102380D01*
X223989285Y-40150000D01*
X223941666Y-40197619D01*
X223036904Y-40102380D02*
X223513095Y-40102380D01*
X223560714Y-40578571D01*
X223513095Y-40530952D01*
X223417857Y-40483333D01*
X223179761Y-40483333D01*
X223084523Y-40530952D01*
X223036904Y-40578571D01*
X222989285Y-40673809D01*
X222989285Y-40911904D01*
X223036904Y-41007142D01*
X223084523Y-41054761D01*
X223179761Y-41102380D01*
X223417857Y-41102380D01*
X223513095Y-41054761D01*
X223560714Y-41007142D01*
G04 #@! TO.C,C6*
X228941666Y-41007142D02*
X228989285Y-41054761D01*
X229132142Y-41102380D01*
X229227380Y-41102380D01*
X229370238Y-41054761D01*
X229465476Y-40959523D01*
X229513095Y-40864285D01*
X229560714Y-40673809D01*
X229560714Y-40530952D01*
X229513095Y-40340476D01*
X229465476Y-40245238D01*
X229370238Y-40150000D01*
X229227380Y-40102380D01*
X229132142Y-40102380D01*
X228989285Y-40150000D01*
X228941666Y-40197619D01*
X228084523Y-40102380D02*
X228275000Y-40102380D01*
X228370238Y-40150000D01*
X228417857Y-40197619D01*
X228513095Y-40340476D01*
X228560714Y-40530952D01*
X228560714Y-40911904D01*
X228513095Y-41007142D01*
X228465476Y-41054761D01*
X228370238Y-41102380D01*
X228179761Y-41102380D01*
X228084523Y-41054761D01*
X228036904Y-41007142D01*
X227989285Y-40911904D01*
X227989285Y-40673809D01*
X228036904Y-40578571D01*
X228084523Y-40530952D01*
X228179761Y-40483333D01*
X228370238Y-40483333D01*
X228465476Y-40530952D01*
X228513095Y-40578571D01*
X228560714Y-40673809D01*
G04 #@! TO.C,C7*
X233941666Y-41007142D02*
X233989285Y-41054761D01*
X234132142Y-41102380D01*
X234227380Y-41102380D01*
X234370238Y-41054761D01*
X234465476Y-40959523D01*
X234513095Y-40864285D01*
X234560714Y-40673809D01*
X234560714Y-40530952D01*
X234513095Y-40340476D01*
X234465476Y-40245238D01*
X234370238Y-40150000D01*
X234227380Y-40102380D01*
X234132142Y-40102380D01*
X233989285Y-40150000D01*
X233941666Y-40197619D01*
X233608333Y-40102380D02*
X232941666Y-40102380D01*
X233370238Y-41102380D01*
G04 #@! TD*
M02*
