G04 #@! TF.GenerationSoftware,KiCad,Pcbnew,(5.0.0-3-g5ebb6b6)*
G04 #@! TF.CreationDate,2019-05-05T10:35:57-03:00*
G04 #@! TF.ProjectId,elongate,656C6F6E676174652E6B696361645F70,rev?*
G04 #@! TF.SameCoordinates,Original*
G04 #@! TF.FileFunction,Paste,Bot*
G04 #@! TF.FilePolarity,Positive*
%FSLAX46Y46*%
G04 Gerber Fmt 4.6, Leading zero omitted, Abs format (unit mm)*
G04 Created by KiCad (PCBNEW (5.0.0-3-g5ebb6b6)) date 2019 May 05, Sunday 10:35:57*
%MOMM*%
%LPD*%
G01*
G04 APERTURE LIST*
%ADD10C,0.100000*%
%ADD11C,1.150000*%
%ADD12R,1.600000X1.300000*%
%ADD13R,1.700000X1.000000*%
%ADD14R,2.350000X0.800000*%
%ADD15R,0.500000X1.400000*%
%ADD16O,1.500000X4.000000*%
%ADD17C,0.550000*%
G04 APERTURE END LIST*
D10*
G04 #@! TO.C,C1*
G36*
X113758505Y-72850204D02*
X113782773Y-72853804D01*
X113806572Y-72859765D01*
X113829671Y-72868030D01*
X113851850Y-72878520D01*
X113872893Y-72891132D01*
X113892599Y-72905747D01*
X113910777Y-72922223D01*
X113927253Y-72940401D01*
X113941868Y-72960107D01*
X113954480Y-72981150D01*
X113964970Y-73003329D01*
X113973235Y-73026428D01*
X113979196Y-73050227D01*
X113982796Y-73074495D01*
X113984000Y-73098999D01*
X113984000Y-73749001D01*
X113982796Y-73773505D01*
X113979196Y-73797773D01*
X113973235Y-73821572D01*
X113964970Y-73844671D01*
X113954480Y-73866850D01*
X113941868Y-73887893D01*
X113927253Y-73907599D01*
X113910777Y-73925777D01*
X113892599Y-73942253D01*
X113872893Y-73956868D01*
X113851850Y-73969480D01*
X113829671Y-73979970D01*
X113806572Y-73988235D01*
X113782773Y-73994196D01*
X113758505Y-73997796D01*
X113734001Y-73999000D01*
X112833999Y-73999000D01*
X112809495Y-73997796D01*
X112785227Y-73994196D01*
X112761428Y-73988235D01*
X112738329Y-73979970D01*
X112716150Y-73969480D01*
X112695107Y-73956868D01*
X112675401Y-73942253D01*
X112657223Y-73925777D01*
X112640747Y-73907599D01*
X112626132Y-73887893D01*
X112613520Y-73866850D01*
X112603030Y-73844671D01*
X112594765Y-73821572D01*
X112588804Y-73797773D01*
X112585204Y-73773505D01*
X112584000Y-73749001D01*
X112584000Y-73098999D01*
X112585204Y-73074495D01*
X112588804Y-73050227D01*
X112594765Y-73026428D01*
X112603030Y-73003329D01*
X112613520Y-72981150D01*
X112626132Y-72960107D01*
X112640747Y-72940401D01*
X112657223Y-72922223D01*
X112675401Y-72905747D01*
X112695107Y-72891132D01*
X112716150Y-72878520D01*
X112738329Y-72868030D01*
X112761428Y-72859765D01*
X112785227Y-72853804D01*
X112809495Y-72850204D01*
X112833999Y-72849000D01*
X113734001Y-72849000D01*
X113758505Y-72850204D01*
X113758505Y-72850204D01*
G37*
D11*
X113284000Y-73424000D03*
D10*
G36*
X113758505Y-70800204D02*
X113782773Y-70803804D01*
X113806572Y-70809765D01*
X113829671Y-70818030D01*
X113851850Y-70828520D01*
X113872893Y-70841132D01*
X113892599Y-70855747D01*
X113910777Y-70872223D01*
X113927253Y-70890401D01*
X113941868Y-70910107D01*
X113954480Y-70931150D01*
X113964970Y-70953329D01*
X113973235Y-70976428D01*
X113979196Y-71000227D01*
X113982796Y-71024495D01*
X113984000Y-71048999D01*
X113984000Y-71699001D01*
X113982796Y-71723505D01*
X113979196Y-71747773D01*
X113973235Y-71771572D01*
X113964970Y-71794671D01*
X113954480Y-71816850D01*
X113941868Y-71837893D01*
X113927253Y-71857599D01*
X113910777Y-71875777D01*
X113892599Y-71892253D01*
X113872893Y-71906868D01*
X113851850Y-71919480D01*
X113829671Y-71929970D01*
X113806572Y-71938235D01*
X113782773Y-71944196D01*
X113758505Y-71947796D01*
X113734001Y-71949000D01*
X112833999Y-71949000D01*
X112809495Y-71947796D01*
X112785227Y-71944196D01*
X112761428Y-71938235D01*
X112738329Y-71929970D01*
X112716150Y-71919480D01*
X112695107Y-71906868D01*
X112675401Y-71892253D01*
X112657223Y-71875777D01*
X112640747Y-71857599D01*
X112626132Y-71837893D01*
X112613520Y-71816850D01*
X112603030Y-71794671D01*
X112594765Y-71771572D01*
X112588804Y-71747773D01*
X112585204Y-71723505D01*
X112584000Y-71699001D01*
X112584000Y-71048999D01*
X112585204Y-71024495D01*
X112588804Y-71000227D01*
X112594765Y-70976428D01*
X112603030Y-70953329D01*
X112613520Y-70931150D01*
X112626132Y-70910107D01*
X112640747Y-70890401D01*
X112657223Y-70872223D01*
X112675401Y-70855747D01*
X112695107Y-70841132D01*
X112716150Y-70828520D01*
X112738329Y-70818030D01*
X112761428Y-70809765D01*
X112785227Y-70803804D01*
X112809495Y-70800204D01*
X112833999Y-70799000D01*
X113734001Y-70799000D01*
X113758505Y-70800204D01*
X113758505Y-70800204D01*
G37*
D11*
X113284000Y-71374000D03*
G04 #@! TD*
D10*
G04 #@! TO.C,C2*
G36*
X113758505Y-66228204D02*
X113782773Y-66231804D01*
X113806572Y-66237765D01*
X113829671Y-66246030D01*
X113851850Y-66256520D01*
X113872893Y-66269132D01*
X113892599Y-66283747D01*
X113910777Y-66300223D01*
X113927253Y-66318401D01*
X113941868Y-66338107D01*
X113954480Y-66359150D01*
X113964970Y-66381329D01*
X113973235Y-66404428D01*
X113979196Y-66428227D01*
X113982796Y-66452495D01*
X113984000Y-66476999D01*
X113984000Y-67127001D01*
X113982796Y-67151505D01*
X113979196Y-67175773D01*
X113973235Y-67199572D01*
X113964970Y-67222671D01*
X113954480Y-67244850D01*
X113941868Y-67265893D01*
X113927253Y-67285599D01*
X113910777Y-67303777D01*
X113892599Y-67320253D01*
X113872893Y-67334868D01*
X113851850Y-67347480D01*
X113829671Y-67357970D01*
X113806572Y-67366235D01*
X113782773Y-67372196D01*
X113758505Y-67375796D01*
X113734001Y-67377000D01*
X112833999Y-67377000D01*
X112809495Y-67375796D01*
X112785227Y-67372196D01*
X112761428Y-67366235D01*
X112738329Y-67357970D01*
X112716150Y-67347480D01*
X112695107Y-67334868D01*
X112675401Y-67320253D01*
X112657223Y-67303777D01*
X112640747Y-67285599D01*
X112626132Y-67265893D01*
X112613520Y-67244850D01*
X112603030Y-67222671D01*
X112594765Y-67199572D01*
X112588804Y-67175773D01*
X112585204Y-67151505D01*
X112584000Y-67127001D01*
X112584000Y-66476999D01*
X112585204Y-66452495D01*
X112588804Y-66428227D01*
X112594765Y-66404428D01*
X112603030Y-66381329D01*
X112613520Y-66359150D01*
X112626132Y-66338107D01*
X112640747Y-66318401D01*
X112657223Y-66300223D01*
X112675401Y-66283747D01*
X112695107Y-66269132D01*
X112716150Y-66256520D01*
X112738329Y-66246030D01*
X112761428Y-66237765D01*
X112785227Y-66231804D01*
X112809495Y-66228204D01*
X112833999Y-66227000D01*
X113734001Y-66227000D01*
X113758505Y-66228204D01*
X113758505Y-66228204D01*
G37*
D11*
X113284000Y-66802000D03*
D10*
G36*
X113758505Y-68278204D02*
X113782773Y-68281804D01*
X113806572Y-68287765D01*
X113829671Y-68296030D01*
X113851850Y-68306520D01*
X113872893Y-68319132D01*
X113892599Y-68333747D01*
X113910777Y-68350223D01*
X113927253Y-68368401D01*
X113941868Y-68388107D01*
X113954480Y-68409150D01*
X113964970Y-68431329D01*
X113973235Y-68454428D01*
X113979196Y-68478227D01*
X113982796Y-68502495D01*
X113984000Y-68526999D01*
X113984000Y-69177001D01*
X113982796Y-69201505D01*
X113979196Y-69225773D01*
X113973235Y-69249572D01*
X113964970Y-69272671D01*
X113954480Y-69294850D01*
X113941868Y-69315893D01*
X113927253Y-69335599D01*
X113910777Y-69353777D01*
X113892599Y-69370253D01*
X113872893Y-69384868D01*
X113851850Y-69397480D01*
X113829671Y-69407970D01*
X113806572Y-69416235D01*
X113782773Y-69422196D01*
X113758505Y-69425796D01*
X113734001Y-69427000D01*
X112833999Y-69427000D01*
X112809495Y-69425796D01*
X112785227Y-69422196D01*
X112761428Y-69416235D01*
X112738329Y-69407970D01*
X112716150Y-69397480D01*
X112695107Y-69384868D01*
X112675401Y-69370253D01*
X112657223Y-69353777D01*
X112640747Y-69335599D01*
X112626132Y-69315893D01*
X112613520Y-69294850D01*
X112603030Y-69272671D01*
X112594765Y-69249572D01*
X112588804Y-69225773D01*
X112585204Y-69201505D01*
X112584000Y-69177001D01*
X112584000Y-68526999D01*
X112585204Y-68502495D01*
X112588804Y-68478227D01*
X112594765Y-68454428D01*
X112603030Y-68431329D01*
X112613520Y-68409150D01*
X112626132Y-68388107D01*
X112640747Y-68368401D01*
X112657223Y-68350223D01*
X112675401Y-68333747D01*
X112695107Y-68319132D01*
X112716150Y-68306520D01*
X112738329Y-68296030D01*
X112761428Y-68287765D01*
X112785227Y-68281804D01*
X112809495Y-68278204D01*
X112833999Y-68277000D01*
X113734001Y-68277000D01*
X113758505Y-68278204D01*
X113758505Y-68278204D01*
G37*
D11*
X113284000Y-68852000D03*
G04 #@! TD*
D12*
G04 #@! TO.C,X1*
X117602000Y-71374000D03*
X120902000Y-71374000D03*
X120902000Y-73374000D03*
X117602000Y-73374000D03*
G04 #@! TD*
D10*
G04 #@! TO.C,R1*
G36*
X253605505Y-62039204D02*
X253629773Y-62042804D01*
X253653572Y-62048765D01*
X253676671Y-62057030D01*
X253698850Y-62067520D01*
X253719893Y-62080132D01*
X253739599Y-62094747D01*
X253757777Y-62111223D01*
X253774253Y-62129401D01*
X253788868Y-62149107D01*
X253801480Y-62170150D01*
X253811970Y-62192329D01*
X253820235Y-62215428D01*
X253826196Y-62239227D01*
X253829796Y-62263495D01*
X253831000Y-62287999D01*
X253831000Y-63188001D01*
X253829796Y-63212505D01*
X253826196Y-63236773D01*
X253820235Y-63260572D01*
X253811970Y-63283671D01*
X253801480Y-63305850D01*
X253788868Y-63326893D01*
X253774253Y-63346599D01*
X253757777Y-63364777D01*
X253739599Y-63381253D01*
X253719893Y-63395868D01*
X253698850Y-63408480D01*
X253676671Y-63418970D01*
X253653572Y-63427235D01*
X253629773Y-63433196D01*
X253605505Y-63436796D01*
X253581001Y-63438000D01*
X252930999Y-63438000D01*
X252906495Y-63436796D01*
X252882227Y-63433196D01*
X252858428Y-63427235D01*
X252835329Y-63418970D01*
X252813150Y-63408480D01*
X252792107Y-63395868D01*
X252772401Y-63381253D01*
X252754223Y-63364777D01*
X252737747Y-63346599D01*
X252723132Y-63326893D01*
X252710520Y-63305850D01*
X252700030Y-63283671D01*
X252691765Y-63260572D01*
X252685804Y-63236773D01*
X252682204Y-63212505D01*
X252681000Y-63188001D01*
X252681000Y-62287999D01*
X252682204Y-62263495D01*
X252685804Y-62239227D01*
X252691765Y-62215428D01*
X252700030Y-62192329D01*
X252710520Y-62170150D01*
X252723132Y-62149107D01*
X252737747Y-62129401D01*
X252754223Y-62111223D01*
X252772401Y-62094747D01*
X252792107Y-62080132D01*
X252813150Y-62067520D01*
X252835329Y-62057030D01*
X252858428Y-62048765D01*
X252882227Y-62042804D01*
X252906495Y-62039204D01*
X252930999Y-62038000D01*
X253581001Y-62038000D01*
X253605505Y-62039204D01*
X253605505Y-62039204D01*
G37*
D11*
X253256000Y-62738000D03*
D10*
G36*
X251555505Y-62039204D02*
X251579773Y-62042804D01*
X251603572Y-62048765D01*
X251626671Y-62057030D01*
X251648850Y-62067520D01*
X251669893Y-62080132D01*
X251689599Y-62094747D01*
X251707777Y-62111223D01*
X251724253Y-62129401D01*
X251738868Y-62149107D01*
X251751480Y-62170150D01*
X251761970Y-62192329D01*
X251770235Y-62215428D01*
X251776196Y-62239227D01*
X251779796Y-62263495D01*
X251781000Y-62287999D01*
X251781000Y-63188001D01*
X251779796Y-63212505D01*
X251776196Y-63236773D01*
X251770235Y-63260572D01*
X251761970Y-63283671D01*
X251751480Y-63305850D01*
X251738868Y-63326893D01*
X251724253Y-63346599D01*
X251707777Y-63364777D01*
X251689599Y-63381253D01*
X251669893Y-63395868D01*
X251648850Y-63408480D01*
X251626671Y-63418970D01*
X251603572Y-63427235D01*
X251579773Y-63433196D01*
X251555505Y-63436796D01*
X251531001Y-63438000D01*
X250880999Y-63438000D01*
X250856495Y-63436796D01*
X250832227Y-63433196D01*
X250808428Y-63427235D01*
X250785329Y-63418970D01*
X250763150Y-63408480D01*
X250742107Y-63395868D01*
X250722401Y-63381253D01*
X250704223Y-63364777D01*
X250687747Y-63346599D01*
X250673132Y-63326893D01*
X250660520Y-63305850D01*
X250650030Y-63283671D01*
X250641765Y-63260572D01*
X250635804Y-63236773D01*
X250632204Y-63212505D01*
X250631000Y-63188001D01*
X250631000Y-62287999D01*
X250632204Y-62263495D01*
X250635804Y-62239227D01*
X250641765Y-62215428D01*
X250650030Y-62192329D01*
X250660520Y-62170150D01*
X250673132Y-62149107D01*
X250687747Y-62129401D01*
X250704223Y-62111223D01*
X250722401Y-62094747D01*
X250742107Y-62080132D01*
X250763150Y-62067520D01*
X250785329Y-62057030D01*
X250808428Y-62048765D01*
X250832227Y-62042804D01*
X250856495Y-62039204D01*
X250880999Y-62038000D01*
X251531001Y-62038000D01*
X251555505Y-62039204D01*
X251555505Y-62039204D01*
G37*
D11*
X251206000Y-62738000D03*
G04 #@! TD*
D13*
G04 #@! TO.C,SW1*
X249125000Y-59150000D03*
X255425000Y-59150000D03*
X249125000Y-55350000D03*
X255425000Y-55350000D03*
G04 #@! TD*
D10*
G04 #@! TO.C,R2*
G36*
X116427505Y-50863204D02*
X116451773Y-50866804D01*
X116475572Y-50872765D01*
X116498671Y-50881030D01*
X116520850Y-50891520D01*
X116541893Y-50904132D01*
X116561599Y-50918747D01*
X116579777Y-50935223D01*
X116596253Y-50953401D01*
X116610868Y-50973107D01*
X116623480Y-50994150D01*
X116633970Y-51016329D01*
X116642235Y-51039428D01*
X116648196Y-51063227D01*
X116651796Y-51087495D01*
X116653000Y-51111999D01*
X116653000Y-52012001D01*
X116651796Y-52036505D01*
X116648196Y-52060773D01*
X116642235Y-52084572D01*
X116633970Y-52107671D01*
X116623480Y-52129850D01*
X116610868Y-52150893D01*
X116596253Y-52170599D01*
X116579777Y-52188777D01*
X116561599Y-52205253D01*
X116541893Y-52219868D01*
X116520850Y-52232480D01*
X116498671Y-52242970D01*
X116475572Y-52251235D01*
X116451773Y-52257196D01*
X116427505Y-52260796D01*
X116403001Y-52262000D01*
X115752999Y-52262000D01*
X115728495Y-52260796D01*
X115704227Y-52257196D01*
X115680428Y-52251235D01*
X115657329Y-52242970D01*
X115635150Y-52232480D01*
X115614107Y-52219868D01*
X115594401Y-52205253D01*
X115576223Y-52188777D01*
X115559747Y-52170599D01*
X115545132Y-52150893D01*
X115532520Y-52129850D01*
X115522030Y-52107671D01*
X115513765Y-52084572D01*
X115507804Y-52060773D01*
X115504204Y-52036505D01*
X115503000Y-52012001D01*
X115503000Y-51111999D01*
X115504204Y-51087495D01*
X115507804Y-51063227D01*
X115513765Y-51039428D01*
X115522030Y-51016329D01*
X115532520Y-50994150D01*
X115545132Y-50973107D01*
X115559747Y-50953401D01*
X115576223Y-50935223D01*
X115594401Y-50918747D01*
X115614107Y-50904132D01*
X115635150Y-50891520D01*
X115657329Y-50881030D01*
X115680428Y-50872765D01*
X115704227Y-50866804D01*
X115728495Y-50863204D01*
X115752999Y-50862000D01*
X116403001Y-50862000D01*
X116427505Y-50863204D01*
X116427505Y-50863204D01*
G37*
D11*
X116078000Y-51562000D03*
D10*
G36*
X114377505Y-50863204D02*
X114401773Y-50866804D01*
X114425572Y-50872765D01*
X114448671Y-50881030D01*
X114470850Y-50891520D01*
X114491893Y-50904132D01*
X114511599Y-50918747D01*
X114529777Y-50935223D01*
X114546253Y-50953401D01*
X114560868Y-50973107D01*
X114573480Y-50994150D01*
X114583970Y-51016329D01*
X114592235Y-51039428D01*
X114598196Y-51063227D01*
X114601796Y-51087495D01*
X114603000Y-51111999D01*
X114603000Y-52012001D01*
X114601796Y-52036505D01*
X114598196Y-52060773D01*
X114592235Y-52084572D01*
X114583970Y-52107671D01*
X114573480Y-52129850D01*
X114560868Y-52150893D01*
X114546253Y-52170599D01*
X114529777Y-52188777D01*
X114511599Y-52205253D01*
X114491893Y-52219868D01*
X114470850Y-52232480D01*
X114448671Y-52242970D01*
X114425572Y-52251235D01*
X114401773Y-52257196D01*
X114377505Y-52260796D01*
X114353001Y-52262000D01*
X113702999Y-52262000D01*
X113678495Y-52260796D01*
X113654227Y-52257196D01*
X113630428Y-52251235D01*
X113607329Y-52242970D01*
X113585150Y-52232480D01*
X113564107Y-52219868D01*
X113544401Y-52205253D01*
X113526223Y-52188777D01*
X113509747Y-52170599D01*
X113495132Y-52150893D01*
X113482520Y-52129850D01*
X113472030Y-52107671D01*
X113463765Y-52084572D01*
X113457804Y-52060773D01*
X113454204Y-52036505D01*
X113453000Y-52012001D01*
X113453000Y-51111999D01*
X113454204Y-51087495D01*
X113457804Y-51063227D01*
X113463765Y-51039428D01*
X113472030Y-51016329D01*
X113482520Y-50994150D01*
X113495132Y-50973107D01*
X113509747Y-50953401D01*
X113526223Y-50935223D01*
X113544401Y-50918747D01*
X113564107Y-50904132D01*
X113585150Y-50891520D01*
X113607329Y-50881030D01*
X113630428Y-50872765D01*
X113654227Y-50866804D01*
X113678495Y-50863204D01*
X113702999Y-50862000D01*
X114353001Y-50862000D01*
X114377505Y-50863204D01*
X114377505Y-50863204D01*
G37*
D11*
X114028000Y-51562000D03*
G04 #@! TD*
D10*
G04 #@! TO.C,R3*
G36*
X229709505Y-11636204D02*
X229733773Y-11639804D01*
X229757572Y-11645765D01*
X229780671Y-11654030D01*
X229802850Y-11664520D01*
X229823893Y-11677132D01*
X229843599Y-11691747D01*
X229861777Y-11708223D01*
X229878253Y-11726401D01*
X229892868Y-11746107D01*
X229905480Y-11767150D01*
X229915970Y-11789329D01*
X229924235Y-11812428D01*
X229930196Y-11836227D01*
X229933796Y-11860495D01*
X229935000Y-11884999D01*
X229935000Y-12535001D01*
X229933796Y-12559505D01*
X229930196Y-12583773D01*
X229924235Y-12607572D01*
X229915970Y-12630671D01*
X229905480Y-12652850D01*
X229892868Y-12673893D01*
X229878253Y-12693599D01*
X229861777Y-12711777D01*
X229843599Y-12728253D01*
X229823893Y-12742868D01*
X229802850Y-12755480D01*
X229780671Y-12765970D01*
X229757572Y-12774235D01*
X229733773Y-12780196D01*
X229709505Y-12783796D01*
X229685001Y-12785000D01*
X228784999Y-12785000D01*
X228760495Y-12783796D01*
X228736227Y-12780196D01*
X228712428Y-12774235D01*
X228689329Y-12765970D01*
X228667150Y-12755480D01*
X228646107Y-12742868D01*
X228626401Y-12728253D01*
X228608223Y-12711777D01*
X228591747Y-12693599D01*
X228577132Y-12673893D01*
X228564520Y-12652850D01*
X228554030Y-12630671D01*
X228545765Y-12607572D01*
X228539804Y-12583773D01*
X228536204Y-12559505D01*
X228535000Y-12535001D01*
X228535000Y-11884999D01*
X228536204Y-11860495D01*
X228539804Y-11836227D01*
X228545765Y-11812428D01*
X228554030Y-11789329D01*
X228564520Y-11767150D01*
X228577132Y-11746107D01*
X228591747Y-11726401D01*
X228608223Y-11708223D01*
X228626401Y-11691747D01*
X228646107Y-11677132D01*
X228667150Y-11664520D01*
X228689329Y-11654030D01*
X228712428Y-11645765D01*
X228736227Y-11639804D01*
X228760495Y-11636204D01*
X228784999Y-11635000D01*
X229685001Y-11635000D01*
X229709505Y-11636204D01*
X229709505Y-11636204D01*
G37*
D11*
X229235000Y-12210000D03*
D10*
G36*
X229709505Y-9586204D02*
X229733773Y-9589804D01*
X229757572Y-9595765D01*
X229780671Y-9604030D01*
X229802850Y-9614520D01*
X229823893Y-9627132D01*
X229843599Y-9641747D01*
X229861777Y-9658223D01*
X229878253Y-9676401D01*
X229892868Y-9696107D01*
X229905480Y-9717150D01*
X229915970Y-9739329D01*
X229924235Y-9762428D01*
X229930196Y-9786227D01*
X229933796Y-9810495D01*
X229935000Y-9834999D01*
X229935000Y-10485001D01*
X229933796Y-10509505D01*
X229930196Y-10533773D01*
X229924235Y-10557572D01*
X229915970Y-10580671D01*
X229905480Y-10602850D01*
X229892868Y-10623893D01*
X229878253Y-10643599D01*
X229861777Y-10661777D01*
X229843599Y-10678253D01*
X229823893Y-10692868D01*
X229802850Y-10705480D01*
X229780671Y-10715970D01*
X229757572Y-10724235D01*
X229733773Y-10730196D01*
X229709505Y-10733796D01*
X229685001Y-10735000D01*
X228784999Y-10735000D01*
X228760495Y-10733796D01*
X228736227Y-10730196D01*
X228712428Y-10724235D01*
X228689329Y-10715970D01*
X228667150Y-10705480D01*
X228646107Y-10692868D01*
X228626401Y-10678253D01*
X228608223Y-10661777D01*
X228591747Y-10643599D01*
X228577132Y-10623893D01*
X228564520Y-10602850D01*
X228554030Y-10580671D01*
X228545765Y-10557572D01*
X228539804Y-10533773D01*
X228536204Y-10509505D01*
X228535000Y-10485001D01*
X228535000Y-9834999D01*
X228536204Y-9810495D01*
X228539804Y-9786227D01*
X228545765Y-9762428D01*
X228554030Y-9739329D01*
X228564520Y-9717150D01*
X228577132Y-9696107D01*
X228591747Y-9676401D01*
X228608223Y-9658223D01*
X228626401Y-9641747D01*
X228646107Y-9627132D01*
X228667150Y-9614520D01*
X228689329Y-9604030D01*
X228712428Y-9595765D01*
X228736227Y-9589804D01*
X228760495Y-9586204D01*
X228784999Y-9585000D01*
X229685001Y-9585000D01*
X229709505Y-9586204D01*
X229709505Y-9586204D01*
G37*
D11*
X229235000Y-10160000D03*
G04 #@! TD*
D10*
G04 #@! TO.C,R4*
G36*
X234154505Y-11636204D02*
X234178773Y-11639804D01*
X234202572Y-11645765D01*
X234225671Y-11654030D01*
X234247850Y-11664520D01*
X234268893Y-11677132D01*
X234288599Y-11691747D01*
X234306777Y-11708223D01*
X234323253Y-11726401D01*
X234337868Y-11746107D01*
X234350480Y-11767150D01*
X234360970Y-11789329D01*
X234369235Y-11812428D01*
X234375196Y-11836227D01*
X234378796Y-11860495D01*
X234380000Y-11884999D01*
X234380000Y-12535001D01*
X234378796Y-12559505D01*
X234375196Y-12583773D01*
X234369235Y-12607572D01*
X234360970Y-12630671D01*
X234350480Y-12652850D01*
X234337868Y-12673893D01*
X234323253Y-12693599D01*
X234306777Y-12711777D01*
X234288599Y-12728253D01*
X234268893Y-12742868D01*
X234247850Y-12755480D01*
X234225671Y-12765970D01*
X234202572Y-12774235D01*
X234178773Y-12780196D01*
X234154505Y-12783796D01*
X234130001Y-12785000D01*
X233229999Y-12785000D01*
X233205495Y-12783796D01*
X233181227Y-12780196D01*
X233157428Y-12774235D01*
X233134329Y-12765970D01*
X233112150Y-12755480D01*
X233091107Y-12742868D01*
X233071401Y-12728253D01*
X233053223Y-12711777D01*
X233036747Y-12693599D01*
X233022132Y-12673893D01*
X233009520Y-12652850D01*
X232999030Y-12630671D01*
X232990765Y-12607572D01*
X232984804Y-12583773D01*
X232981204Y-12559505D01*
X232980000Y-12535001D01*
X232980000Y-11884999D01*
X232981204Y-11860495D01*
X232984804Y-11836227D01*
X232990765Y-11812428D01*
X232999030Y-11789329D01*
X233009520Y-11767150D01*
X233022132Y-11746107D01*
X233036747Y-11726401D01*
X233053223Y-11708223D01*
X233071401Y-11691747D01*
X233091107Y-11677132D01*
X233112150Y-11664520D01*
X233134329Y-11654030D01*
X233157428Y-11645765D01*
X233181227Y-11639804D01*
X233205495Y-11636204D01*
X233229999Y-11635000D01*
X234130001Y-11635000D01*
X234154505Y-11636204D01*
X234154505Y-11636204D01*
G37*
D11*
X233680000Y-12210000D03*
D10*
G36*
X234154505Y-9586204D02*
X234178773Y-9589804D01*
X234202572Y-9595765D01*
X234225671Y-9604030D01*
X234247850Y-9614520D01*
X234268893Y-9627132D01*
X234288599Y-9641747D01*
X234306777Y-9658223D01*
X234323253Y-9676401D01*
X234337868Y-9696107D01*
X234350480Y-9717150D01*
X234360970Y-9739329D01*
X234369235Y-9762428D01*
X234375196Y-9786227D01*
X234378796Y-9810495D01*
X234380000Y-9834999D01*
X234380000Y-10485001D01*
X234378796Y-10509505D01*
X234375196Y-10533773D01*
X234369235Y-10557572D01*
X234360970Y-10580671D01*
X234350480Y-10602850D01*
X234337868Y-10623893D01*
X234323253Y-10643599D01*
X234306777Y-10661777D01*
X234288599Y-10678253D01*
X234268893Y-10692868D01*
X234247850Y-10705480D01*
X234225671Y-10715970D01*
X234202572Y-10724235D01*
X234178773Y-10730196D01*
X234154505Y-10733796D01*
X234130001Y-10735000D01*
X233229999Y-10735000D01*
X233205495Y-10733796D01*
X233181227Y-10730196D01*
X233157428Y-10724235D01*
X233134329Y-10715970D01*
X233112150Y-10705480D01*
X233091107Y-10692868D01*
X233071401Y-10678253D01*
X233053223Y-10661777D01*
X233036747Y-10643599D01*
X233022132Y-10623893D01*
X233009520Y-10602850D01*
X232999030Y-10580671D01*
X232990765Y-10557572D01*
X232984804Y-10533773D01*
X232981204Y-10509505D01*
X232980000Y-10485001D01*
X232980000Y-9834999D01*
X232981204Y-9810495D01*
X232984804Y-9786227D01*
X232990765Y-9762428D01*
X232999030Y-9739329D01*
X233009520Y-9717150D01*
X233022132Y-9696107D01*
X233036747Y-9676401D01*
X233053223Y-9658223D01*
X233071401Y-9641747D01*
X233091107Y-9627132D01*
X233112150Y-9614520D01*
X233134329Y-9604030D01*
X233157428Y-9595765D01*
X233181227Y-9589804D01*
X233205495Y-9586204D01*
X233229999Y-9585000D01*
X234130001Y-9585000D01*
X234154505Y-9586204D01*
X234154505Y-9586204D01*
G37*
D11*
X233680000Y-10160000D03*
G04 #@! TD*
D14*
G04 #@! TO.C,USB1*
X236175000Y800000D03*
X230825000Y800000D03*
D15*
X231900000Y-4400000D03*
X232700000Y-4400000D03*
X233500000Y-4400000D03*
X234300000Y-4400000D03*
X235100000Y-4400000D03*
D16*
X229850000Y-2000000D03*
X237150000Y-2000000D03*
G04 #@! TD*
D10*
G04 #@! TO.C,C3*
G36*
X238599505Y-11636204D02*
X238623773Y-11639804D01*
X238647572Y-11645765D01*
X238670671Y-11654030D01*
X238692850Y-11664520D01*
X238713893Y-11677132D01*
X238733599Y-11691747D01*
X238751777Y-11708223D01*
X238768253Y-11726401D01*
X238782868Y-11746107D01*
X238795480Y-11767150D01*
X238805970Y-11789329D01*
X238814235Y-11812428D01*
X238820196Y-11836227D01*
X238823796Y-11860495D01*
X238825000Y-11884999D01*
X238825000Y-12535001D01*
X238823796Y-12559505D01*
X238820196Y-12583773D01*
X238814235Y-12607572D01*
X238805970Y-12630671D01*
X238795480Y-12652850D01*
X238782868Y-12673893D01*
X238768253Y-12693599D01*
X238751777Y-12711777D01*
X238733599Y-12728253D01*
X238713893Y-12742868D01*
X238692850Y-12755480D01*
X238670671Y-12765970D01*
X238647572Y-12774235D01*
X238623773Y-12780196D01*
X238599505Y-12783796D01*
X238575001Y-12785000D01*
X237674999Y-12785000D01*
X237650495Y-12783796D01*
X237626227Y-12780196D01*
X237602428Y-12774235D01*
X237579329Y-12765970D01*
X237557150Y-12755480D01*
X237536107Y-12742868D01*
X237516401Y-12728253D01*
X237498223Y-12711777D01*
X237481747Y-12693599D01*
X237467132Y-12673893D01*
X237454520Y-12652850D01*
X237444030Y-12630671D01*
X237435765Y-12607572D01*
X237429804Y-12583773D01*
X237426204Y-12559505D01*
X237425000Y-12535001D01*
X237425000Y-11884999D01*
X237426204Y-11860495D01*
X237429804Y-11836227D01*
X237435765Y-11812428D01*
X237444030Y-11789329D01*
X237454520Y-11767150D01*
X237467132Y-11746107D01*
X237481747Y-11726401D01*
X237498223Y-11708223D01*
X237516401Y-11691747D01*
X237536107Y-11677132D01*
X237557150Y-11664520D01*
X237579329Y-11654030D01*
X237602428Y-11645765D01*
X237626227Y-11639804D01*
X237650495Y-11636204D01*
X237674999Y-11635000D01*
X238575001Y-11635000D01*
X238599505Y-11636204D01*
X238599505Y-11636204D01*
G37*
D11*
X238125000Y-12210000D03*
D10*
G36*
X238599505Y-9586204D02*
X238623773Y-9589804D01*
X238647572Y-9595765D01*
X238670671Y-9604030D01*
X238692850Y-9614520D01*
X238713893Y-9627132D01*
X238733599Y-9641747D01*
X238751777Y-9658223D01*
X238768253Y-9676401D01*
X238782868Y-9696107D01*
X238795480Y-9717150D01*
X238805970Y-9739329D01*
X238814235Y-9762428D01*
X238820196Y-9786227D01*
X238823796Y-9810495D01*
X238825000Y-9834999D01*
X238825000Y-10485001D01*
X238823796Y-10509505D01*
X238820196Y-10533773D01*
X238814235Y-10557572D01*
X238805970Y-10580671D01*
X238795480Y-10602850D01*
X238782868Y-10623893D01*
X238768253Y-10643599D01*
X238751777Y-10661777D01*
X238733599Y-10678253D01*
X238713893Y-10692868D01*
X238692850Y-10705480D01*
X238670671Y-10715970D01*
X238647572Y-10724235D01*
X238623773Y-10730196D01*
X238599505Y-10733796D01*
X238575001Y-10735000D01*
X237674999Y-10735000D01*
X237650495Y-10733796D01*
X237626227Y-10730196D01*
X237602428Y-10724235D01*
X237579329Y-10715970D01*
X237557150Y-10705480D01*
X237536107Y-10692868D01*
X237516401Y-10678253D01*
X237498223Y-10661777D01*
X237481747Y-10643599D01*
X237467132Y-10623893D01*
X237454520Y-10602850D01*
X237444030Y-10580671D01*
X237435765Y-10557572D01*
X237429804Y-10533773D01*
X237426204Y-10509505D01*
X237425000Y-10485001D01*
X237425000Y-9834999D01*
X237426204Y-9810495D01*
X237429804Y-9786227D01*
X237435765Y-9762428D01*
X237444030Y-9739329D01*
X237454520Y-9717150D01*
X237467132Y-9696107D01*
X237481747Y-9676401D01*
X237498223Y-9658223D01*
X237516401Y-9641747D01*
X237536107Y-9627132D01*
X237557150Y-9614520D01*
X237579329Y-9604030D01*
X237602428Y-9595765D01*
X237626227Y-9589804D01*
X237650495Y-9586204D01*
X237674999Y-9585000D01*
X238575001Y-9585000D01*
X238599505Y-9586204D01*
X238599505Y-9586204D01*
G37*
D11*
X238125000Y-10160000D03*
G04 #@! TD*
D17*
G04 #@! TO.C,U1*
X128158936Y-60202082D03*
D10*
G36*
X128883720Y-60537958D02*
X128494812Y-60926866D01*
X127434152Y-59866206D01*
X127823060Y-59477298D01*
X128883720Y-60537958D01*
X128883720Y-60537958D01*
G37*
D17*
X127593250Y-60767767D03*
D10*
G36*
X128318034Y-61103643D02*
X127929126Y-61492551D01*
X126868466Y-60431891D01*
X127257374Y-60042983D01*
X128318034Y-61103643D01*
X128318034Y-61103643D01*
G37*
D17*
X127027565Y-61333452D03*
D10*
G36*
X127752349Y-61669328D02*
X127363441Y-62058236D01*
X126302781Y-60997576D01*
X126691689Y-60608668D01*
X127752349Y-61669328D01*
X127752349Y-61669328D01*
G37*
D17*
X126461880Y-61899138D03*
D10*
G36*
X127186664Y-62235014D02*
X126797756Y-62623922D01*
X125737096Y-61563262D01*
X126126004Y-61174354D01*
X127186664Y-62235014D01*
X127186664Y-62235014D01*
G37*
D17*
X125896194Y-62464823D03*
D10*
G36*
X126620978Y-62800699D02*
X126232070Y-63189607D01*
X125171410Y-62128947D01*
X125560318Y-61740039D01*
X126620978Y-62800699D01*
X126620978Y-62800699D01*
G37*
D17*
X125330509Y-63030509D03*
D10*
G36*
X126055293Y-63366385D02*
X125666385Y-63755293D01*
X124605725Y-62694633D01*
X124994633Y-62305725D01*
X126055293Y-63366385D01*
X126055293Y-63366385D01*
G37*
D17*
X124764823Y-63596194D03*
D10*
G36*
X125489607Y-63932070D02*
X125100699Y-64320978D01*
X124040039Y-63260318D01*
X124428947Y-62871410D01*
X125489607Y-63932070D01*
X125489607Y-63932070D01*
G37*
D17*
X124199138Y-64161880D03*
D10*
G36*
X124923922Y-64497756D02*
X124535014Y-64886664D01*
X123474354Y-63826004D01*
X123863262Y-63437096D01*
X124923922Y-64497756D01*
X124923922Y-64497756D01*
G37*
D17*
X123633452Y-64727565D03*
D10*
G36*
X124358236Y-65063441D02*
X123969328Y-65452349D01*
X122908668Y-64391689D01*
X123297576Y-64002781D01*
X124358236Y-65063441D01*
X124358236Y-65063441D01*
G37*
D17*
X123067767Y-65293250D03*
D10*
G36*
X123792551Y-65629126D02*
X123403643Y-66018034D01*
X122342983Y-64957374D01*
X122731891Y-64568466D01*
X123792551Y-65629126D01*
X123792551Y-65629126D01*
G37*
D17*
X122502082Y-65858936D03*
D10*
G36*
X123226866Y-66194812D02*
X122837958Y-66583720D01*
X121777298Y-65523060D01*
X122166206Y-65134152D01*
X123226866Y-66194812D01*
X123226866Y-66194812D01*
G37*
D17*
X120097918Y-65858936D03*
D10*
G36*
X119762042Y-66583720D02*
X119373134Y-66194812D01*
X120433794Y-65134152D01*
X120822702Y-65523060D01*
X119762042Y-66583720D01*
X119762042Y-66583720D01*
G37*
D17*
X119532233Y-65293250D03*
D10*
G36*
X119196357Y-66018034D02*
X118807449Y-65629126D01*
X119868109Y-64568466D01*
X120257017Y-64957374D01*
X119196357Y-66018034D01*
X119196357Y-66018034D01*
G37*
D17*
X118966548Y-64727565D03*
D10*
G36*
X118630672Y-65452349D02*
X118241764Y-65063441D01*
X119302424Y-64002781D01*
X119691332Y-64391689D01*
X118630672Y-65452349D01*
X118630672Y-65452349D01*
G37*
D17*
X118400862Y-64161880D03*
D10*
G36*
X118064986Y-64886664D02*
X117676078Y-64497756D01*
X118736738Y-63437096D01*
X119125646Y-63826004D01*
X118064986Y-64886664D01*
X118064986Y-64886664D01*
G37*
D17*
X117835177Y-63596194D03*
D10*
G36*
X117499301Y-64320978D02*
X117110393Y-63932070D01*
X118171053Y-62871410D01*
X118559961Y-63260318D01*
X117499301Y-64320978D01*
X117499301Y-64320978D01*
G37*
D17*
X117269491Y-63030509D03*
D10*
G36*
X116933615Y-63755293D02*
X116544707Y-63366385D01*
X117605367Y-62305725D01*
X117994275Y-62694633D01*
X116933615Y-63755293D01*
X116933615Y-63755293D01*
G37*
D17*
X116703806Y-62464823D03*
D10*
G36*
X116367930Y-63189607D02*
X115979022Y-62800699D01*
X117039682Y-61740039D01*
X117428590Y-62128947D01*
X116367930Y-63189607D01*
X116367930Y-63189607D01*
G37*
D17*
X116138120Y-61899138D03*
D10*
G36*
X115802244Y-62623922D02*
X115413336Y-62235014D01*
X116473996Y-61174354D01*
X116862904Y-61563262D01*
X115802244Y-62623922D01*
X115802244Y-62623922D01*
G37*
D17*
X115572435Y-61333452D03*
D10*
G36*
X115236559Y-62058236D02*
X114847651Y-61669328D01*
X115908311Y-60608668D01*
X116297219Y-60997576D01*
X115236559Y-62058236D01*
X115236559Y-62058236D01*
G37*
D17*
X115006750Y-60767767D03*
D10*
G36*
X114670874Y-61492551D02*
X114281966Y-61103643D01*
X115342626Y-60042983D01*
X115731534Y-60431891D01*
X114670874Y-61492551D01*
X114670874Y-61492551D01*
G37*
D17*
X114441064Y-60202082D03*
D10*
G36*
X114105188Y-60926866D02*
X113716280Y-60537958D01*
X114776940Y-59477298D01*
X115165848Y-59866206D01*
X114105188Y-60926866D01*
X114105188Y-60926866D01*
G37*
D17*
X114441064Y-57797918D03*
D10*
G36*
X115165848Y-58133794D02*
X114776940Y-58522702D01*
X113716280Y-57462042D01*
X114105188Y-57073134D01*
X115165848Y-58133794D01*
X115165848Y-58133794D01*
G37*
D17*
X115006750Y-57232233D03*
D10*
G36*
X115731534Y-57568109D02*
X115342626Y-57957017D01*
X114281966Y-56896357D01*
X114670874Y-56507449D01*
X115731534Y-57568109D01*
X115731534Y-57568109D01*
G37*
D17*
X115572435Y-56666548D03*
D10*
G36*
X116297219Y-57002424D02*
X115908311Y-57391332D01*
X114847651Y-56330672D01*
X115236559Y-55941764D01*
X116297219Y-57002424D01*
X116297219Y-57002424D01*
G37*
D17*
X116138120Y-56100862D03*
D10*
G36*
X116862904Y-56436738D02*
X116473996Y-56825646D01*
X115413336Y-55764986D01*
X115802244Y-55376078D01*
X116862904Y-56436738D01*
X116862904Y-56436738D01*
G37*
D17*
X116703806Y-55535177D03*
D10*
G36*
X117428590Y-55871053D02*
X117039682Y-56259961D01*
X115979022Y-55199301D01*
X116367930Y-54810393D01*
X117428590Y-55871053D01*
X117428590Y-55871053D01*
G37*
D17*
X117269491Y-54969491D03*
D10*
G36*
X117994275Y-55305367D02*
X117605367Y-55694275D01*
X116544707Y-54633615D01*
X116933615Y-54244707D01*
X117994275Y-55305367D01*
X117994275Y-55305367D01*
G37*
D17*
X117835177Y-54403806D03*
D10*
G36*
X118559961Y-54739682D02*
X118171053Y-55128590D01*
X117110393Y-54067930D01*
X117499301Y-53679022D01*
X118559961Y-54739682D01*
X118559961Y-54739682D01*
G37*
D17*
X118400862Y-53838120D03*
D10*
G36*
X119125646Y-54173996D02*
X118736738Y-54562904D01*
X117676078Y-53502244D01*
X118064986Y-53113336D01*
X119125646Y-54173996D01*
X119125646Y-54173996D01*
G37*
D17*
X118966548Y-53272435D03*
D10*
G36*
X119691332Y-53608311D02*
X119302424Y-53997219D01*
X118241764Y-52936559D01*
X118630672Y-52547651D01*
X119691332Y-53608311D01*
X119691332Y-53608311D01*
G37*
D17*
X119532233Y-52706750D03*
D10*
G36*
X120257017Y-53042626D02*
X119868109Y-53431534D01*
X118807449Y-52370874D01*
X119196357Y-51981966D01*
X120257017Y-53042626D01*
X120257017Y-53042626D01*
G37*
D17*
X120097918Y-52141064D03*
D10*
G36*
X120822702Y-52476940D02*
X120433794Y-52865848D01*
X119373134Y-51805188D01*
X119762042Y-51416280D01*
X120822702Y-52476940D01*
X120822702Y-52476940D01*
G37*
D17*
X122502082Y-52141064D03*
D10*
G36*
X122166206Y-52865848D02*
X121777298Y-52476940D01*
X122837958Y-51416280D01*
X123226866Y-51805188D01*
X122166206Y-52865848D01*
X122166206Y-52865848D01*
G37*
D17*
X123067767Y-52706750D03*
D10*
G36*
X122731891Y-53431534D02*
X122342983Y-53042626D01*
X123403643Y-51981966D01*
X123792551Y-52370874D01*
X122731891Y-53431534D01*
X122731891Y-53431534D01*
G37*
D17*
X123633452Y-53272435D03*
D10*
G36*
X123297576Y-53997219D02*
X122908668Y-53608311D01*
X123969328Y-52547651D01*
X124358236Y-52936559D01*
X123297576Y-53997219D01*
X123297576Y-53997219D01*
G37*
D17*
X124199138Y-53838120D03*
D10*
G36*
X123863262Y-54562904D02*
X123474354Y-54173996D01*
X124535014Y-53113336D01*
X124923922Y-53502244D01*
X123863262Y-54562904D01*
X123863262Y-54562904D01*
G37*
D17*
X124764823Y-54403806D03*
D10*
G36*
X124428947Y-55128590D02*
X124040039Y-54739682D01*
X125100699Y-53679022D01*
X125489607Y-54067930D01*
X124428947Y-55128590D01*
X124428947Y-55128590D01*
G37*
D17*
X125330509Y-54969491D03*
D10*
G36*
X124994633Y-55694275D02*
X124605725Y-55305367D01*
X125666385Y-54244707D01*
X126055293Y-54633615D01*
X124994633Y-55694275D01*
X124994633Y-55694275D01*
G37*
D17*
X125896194Y-55535177D03*
D10*
G36*
X125560318Y-56259961D02*
X125171410Y-55871053D01*
X126232070Y-54810393D01*
X126620978Y-55199301D01*
X125560318Y-56259961D01*
X125560318Y-56259961D01*
G37*
D17*
X126461880Y-56100862D03*
D10*
G36*
X126126004Y-56825646D02*
X125737096Y-56436738D01*
X126797756Y-55376078D01*
X127186664Y-55764986D01*
X126126004Y-56825646D01*
X126126004Y-56825646D01*
G37*
D17*
X127027565Y-56666548D03*
D10*
G36*
X126691689Y-57391332D02*
X126302781Y-57002424D01*
X127363441Y-55941764D01*
X127752349Y-56330672D01*
X126691689Y-57391332D01*
X126691689Y-57391332D01*
G37*
D17*
X127593250Y-57232233D03*
D10*
G36*
X127257374Y-57957017D02*
X126868466Y-57568109D01*
X127929126Y-56507449D01*
X128318034Y-56896357D01*
X127257374Y-57957017D01*
X127257374Y-57957017D01*
G37*
D17*
X128158936Y-57797918D03*
D10*
G36*
X127823060Y-58522702D02*
X127434152Y-58133794D01*
X128494812Y-57073134D01*
X128883720Y-57462042D01*
X127823060Y-58522702D01*
X127823060Y-58522702D01*
G37*
G04 #@! TD*
G04 #@! TO.C,C4*
G36*
X218099505Y-38301204D02*
X218123773Y-38304804D01*
X218147572Y-38310765D01*
X218170671Y-38319030D01*
X218192850Y-38329520D01*
X218213893Y-38342132D01*
X218233599Y-38356747D01*
X218251777Y-38373223D01*
X218268253Y-38391401D01*
X218282868Y-38411107D01*
X218295480Y-38432150D01*
X218305970Y-38454329D01*
X218314235Y-38477428D01*
X218320196Y-38501227D01*
X218323796Y-38525495D01*
X218325000Y-38549999D01*
X218325000Y-39450001D01*
X218323796Y-39474505D01*
X218320196Y-39498773D01*
X218314235Y-39522572D01*
X218305970Y-39545671D01*
X218295480Y-39567850D01*
X218282868Y-39588893D01*
X218268253Y-39608599D01*
X218251777Y-39626777D01*
X218233599Y-39643253D01*
X218213893Y-39657868D01*
X218192850Y-39670480D01*
X218170671Y-39680970D01*
X218147572Y-39689235D01*
X218123773Y-39695196D01*
X218099505Y-39698796D01*
X218075001Y-39700000D01*
X217424999Y-39700000D01*
X217400495Y-39698796D01*
X217376227Y-39695196D01*
X217352428Y-39689235D01*
X217329329Y-39680970D01*
X217307150Y-39670480D01*
X217286107Y-39657868D01*
X217266401Y-39643253D01*
X217248223Y-39626777D01*
X217231747Y-39608599D01*
X217217132Y-39588893D01*
X217204520Y-39567850D01*
X217194030Y-39545671D01*
X217185765Y-39522572D01*
X217179804Y-39498773D01*
X217176204Y-39474505D01*
X217175000Y-39450001D01*
X217175000Y-38549999D01*
X217176204Y-38525495D01*
X217179804Y-38501227D01*
X217185765Y-38477428D01*
X217194030Y-38454329D01*
X217204520Y-38432150D01*
X217217132Y-38411107D01*
X217231747Y-38391401D01*
X217248223Y-38373223D01*
X217266401Y-38356747D01*
X217286107Y-38342132D01*
X217307150Y-38329520D01*
X217329329Y-38319030D01*
X217352428Y-38310765D01*
X217376227Y-38304804D01*
X217400495Y-38301204D01*
X217424999Y-38300000D01*
X218075001Y-38300000D01*
X218099505Y-38301204D01*
X218099505Y-38301204D01*
G37*
D11*
X217750000Y-39000000D03*
D10*
G36*
X220149505Y-38301204D02*
X220173773Y-38304804D01*
X220197572Y-38310765D01*
X220220671Y-38319030D01*
X220242850Y-38329520D01*
X220263893Y-38342132D01*
X220283599Y-38356747D01*
X220301777Y-38373223D01*
X220318253Y-38391401D01*
X220332868Y-38411107D01*
X220345480Y-38432150D01*
X220355970Y-38454329D01*
X220364235Y-38477428D01*
X220370196Y-38501227D01*
X220373796Y-38525495D01*
X220375000Y-38549999D01*
X220375000Y-39450001D01*
X220373796Y-39474505D01*
X220370196Y-39498773D01*
X220364235Y-39522572D01*
X220355970Y-39545671D01*
X220345480Y-39567850D01*
X220332868Y-39588893D01*
X220318253Y-39608599D01*
X220301777Y-39626777D01*
X220283599Y-39643253D01*
X220263893Y-39657868D01*
X220242850Y-39670480D01*
X220220671Y-39680970D01*
X220197572Y-39689235D01*
X220173773Y-39695196D01*
X220149505Y-39698796D01*
X220125001Y-39700000D01*
X219474999Y-39700000D01*
X219450495Y-39698796D01*
X219426227Y-39695196D01*
X219402428Y-39689235D01*
X219379329Y-39680970D01*
X219357150Y-39670480D01*
X219336107Y-39657868D01*
X219316401Y-39643253D01*
X219298223Y-39626777D01*
X219281747Y-39608599D01*
X219267132Y-39588893D01*
X219254520Y-39567850D01*
X219244030Y-39545671D01*
X219235765Y-39522572D01*
X219229804Y-39498773D01*
X219226204Y-39474505D01*
X219225000Y-39450001D01*
X219225000Y-38549999D01*
X219226204Y-38525495D01*
X219229804Y-38501227D01*
X219235765Y-38477428D01*
X219244030Y-38454329D01*
X219254520Y-38432150D01*
X219267132Y-38411107D01*
X219281747Y-38391401D01*
X219298223Y-38373223D01*
X219316401Y-38356747D01*
X219336107Y-38342132D01*
X219357150Y-38329520D01*
X219379329Y-38319030D01*
X219402428Y-38310765D01*
X219426227Y-38304804D01*
X219450495Y-38301204D01*
X219474999Y-38300000D01*
X220125001Y-38300000D01*
X220149505Y-38301204D01*
X220149505Y-38301204D01*
G37*
D11*
X219800000Y-39000000D03*
G04 #@! TD*
D10*
G04 #@! TO.C,C5*
G36*
X223099505Y-38301204D02*
X223123773Y-38304804D01*
X223147572Y-38310765D01*
X223170671Y-38319030D01*
X223192850Y-38329520D01*
X223213893Y-38342132D01*
X223233599Y-38356747D01*
X223251777Y-38373223D01*
X223268253Y-38391401D01*
X223282868Y-38411107D01*
X223295480Y-38432150D01*
X223305970Y-38454329D01*
X223314235Y-38477428D01*
X223320196Y-38501227D01*
X223323796Y-38525495D01*
X223325000Y-38549999D01*
X223325000Y-39450001D01*
X223323796Y-39474505D01*
X223320196Y-39498773D01*
X223314235Y-39522572D01*
X223305970Y-39545671D01*
X223295480Y-39567850D01*
X223282868Y-39588893D01*
X223268253Y-39608599D01*
X223251777Y-39626777D01*
X223233599Y-39643253D01*
X223213893Y-39657868D01*
X223192850Y-39670480D01*
X223170671Y-39680970D01*
X223147572Y-39689235D01*
X223123773Y-39695196D01*
X223099505Y-39698796D01*
X223075001Y-39700000D01*
X222424999Y-39700000D01*
X222400495Y-39698796D01*
X222376227Y-39695196D01*
X222352428Y-39689235D01*
X222329329Y-39680970D01*
X222307150Y-39670480D01*
X222286107Y-39657868D01*
X222266401Y-39643253D01*
X222248223Y-39626777D01*
X222231747Y-39608599D01*
X222217132Y-39588893D01*
X222204520Y-39567850D01*
X222194030Y-39545671D01*
X222185765Y-39522572D01*
X222179804Y-39498773D01*
X222176204Y-39474505D01*
X222175000Y-39450001D01*
X222175000Y-38549999D01*
X222176204Y-38525495D01*
X222179804Y-38501227D01*
X222185765Y-38477428D01*
X222194030Y-38454329D01*
X222204520Y-38432150D01*
X222217132Y-38411107D01*
X222231747Y-38391401D01*
X222248223Y-38373223D01*
X222266401Y-38356747D01*
X222286107Y-38342132D01*
X222307150Y-38329520D01*
X222329329Y-38319030D01*
X222352428Y-38310765D01*
X222376227Y-38304804D01*
X222400495Y-38301204D01*
X222424999Y-38300000D01*
X223075001Y-38300000D01*
X223099505Y-38301204D01*
X223099505Y-38301204D01*
G37*
D11*
X222750000Y-39000000D03*
D10*
G36*
X225149505Y-38301204D02*
X225173773Y-38304804D01*
X225197572Y-38310765D01*
X225220671Y-38319030D01*
X225242850Y-38329520D01*
X225263893Y-38342132D01*
X225283599Y-38356747D01*
X225301777Y-38373223D01*
X225318253Y-38391401D01*
X225332868Y-38411107D01*
X225345480Y-38432150D01*
X225355970Y-38454329D01*
X225364235Y-38477428D01*
X225370196Y-38501227D01*
X225373796Y-38525495D01*
X225375000Y-38549999D01*
X225375000Y-39450001D01*
X225373796Y-39474505D01*
X225370196Y-39498773D01*
X225364235Y-39522572D01*
X225355970Y-39545671D01*
X225345480Y-39567850D01*
X225332868Y-39588893D01*
X225318253Y-39608599D01*
X225301777Y-39626777D01*
X225283599Y-39643253D01*
X225263893Y-39657868D01*
X225242850Y-39670480D01*
X225220671Y-39680970D01*
X225197572Y-39689235D01*
X225173773Y-39695196D01*
X225149505Y-39698796D01*
X225125001Y-39700000D01*
X224474999Y-39700000D01*
X224450495Y-39698796D01*
X224426227Y-39695196D01*
X224402428Y-39689235D01*
X224379329Y-39680970D01*
X224357150Y-39670480D01*
X224336107Y-39657868D01*
X224316401Y-39643253D01*
X224298223Y-39626777D01*
X224281747Y-39608599D01*
X224267132Y-39588893D01*
X224254520Y-39567850D01*
X224244030Y-39545671D01*
X224235765Y-39522572D01*
X224229804Y-39498773D01*
X224226204Y-39474505D01*
X224225000Y-39450001D01*
X224225000Y-38549999D01*
X224226204Y-38525495D01*
X224229804Y-38501227D01*
X224235765Y-38477428D01*
X224244030Y-38454329D01*
X224254520Y-38432150D01*
X224267132Y-38411107D01*
X224281747Y-38391401D01*
X224298223Y-38373223D01*
X224316401Y-38356747D01*
X224336107Y-38342132D01*
X224357150Y-38329520D01*
X224379329Y-38319030D01*
X224402428Y-38310765D01*
X224426227Y-38304804D01*
X224450495Y-38301204D01*
X224474999Y-38300000D01*
X225125001Y-38300000D01*
X225149505Y-38301204D01*
X225149505Y-38301204D01*
G37*
D11*
X224800000Y-39000000D03*
G04 #@! TD*
D10*
G04 #@! TO.C,C6*
G36*
X228099505Y-38301204D02*
X228123773Y-38304804D01*
X228147572Y-38310765D01*
X228170671Y-38319030D01*
X228192850Y-38329520D01*
X228213893Y-38342132D01*
X228233599Y-38356747D01*
X228251777Y-38373223D01*
X228268253Y-38391401D01*
X228282868Y-38411107D01*
X228295480Y-38432150D01*
X228305970Y-38454329D01*
X228314235Y-38477428D01*
X228320196Y-38501227D01*
X228323796Y-38525495D01*
X228325000Y-38549999D01*
X228325000Y-39450001D01*
X228323796Y-39474505D01*
X228320196Y-39498773D01*
X228314235Y-39522572D01*
X228305970Y-39545671D01*
X228295480Y-39567850D01*
X228282868Y-39588893D01*
X228268253Y-39608599D01*
X228251777Y-39626777D01*
X228233599Y-39643253D01*
X228213893Y-39657868D01*
X228192850Y-39670480D01*
X228170671Y-39680970D01*
X228147572Y-39689235D01*
X228123773Y-39695196D01*
X228099505Y-39698796D01*
X228075001Y-39700000D01*
X227424999Y-39700000D01*
X227400495Y-39698796D01*
X227376227Y-39695196D01*
X227352428Y-39689235D01*
X227329329Y-39680970D01*
X227307150Y-39670480D01*
X227286107Y-39657868D01*
X227266401Y-39643253D01*
X227248223Y-39626777D01*
X227231747Y-39608599D01*
X227217132Y-39588893D01*
X227204520Y-39567850D01*
X227194030Y-39545671D01*
X227185765Y-39522572D01*
X227179804Y-39498773D01*
X227176204Y-39474505D01*
X227175000Y-39450001D01*
X227175000Y-38549999D01*
X227176204Y-38525495D01*
X227179804Y-38501227D01*
X227185765Y-38477428D01*
X227194030Y-38454329D01*
X227204520Y-38432150D01*
X227217132Y-38411107D01*
X227231747Y-38391401D01*
X227248223Y-38373223D01*
X227266401Y-38356747D01*
X227286107Y-38342132D01*
X227307150Y-38329520D01*
X227329329Y-38319030D01*
X227352428Y-38310765D01*
X227376227Y-38304804D01*
X227400495Y-38301204D01*
X227424999Y-38300000D01*
X228075001Y-38300000D01*
X228099505Y-38301204D01*
X228099505Y-38301204D01*
G37*
D11*
X227750000Y-39000000D03*
D10*
G36*
X230149505Y-38301204D02*
X230173773Y-38304804D01*
X230197572Y-38310765D01*
X230220671Y-38319030D01*
X230242850Y-38329520D01*
X230263893Y-38342132D01*
X230283599Y-38356747D01*
X230301777Y-38373223D01*
X230318253Y-38391401D01*
X230332868Y-38411107D01*
X230345480Y-38432150D01*
X230355970Y-38454329D01*
X230364235Y-38477428D01*
X230370196Y-38501227D01*
X230373796Y-38525495D01*
X230375000Y-38549999D01*
X230375000Y-39450001D01*
X230373796Y-39474505D01*
X230370196Y-39498773D01*
X230364235Y-39522572D01*
X230355970Y-39545671D01*
X230345480Y-39567850D01*
X230332868Y-39588893D01*
X230318253Y-39608599D01*
X230301777Y-39626777D01*
X230283599Y-39643253D01*
X230263893Y-39657868D01*
X230242850Y-39670480D01*
X230220671Y-39680970D01*
X230197572Y-39689235D01*
X230173773Y-39695196D01*
X230149505Y-39698796D01*
X230125001Y-39700000D01*
X229474999Y-39700000D01*
X229450495Y-39698796D01*
X229426227Y-39695196D01*
X229402428Y-39689235D01*
X229379329Y-39680970D01*
X229357150Y-39670480D01*
X229336107Y-39657868D01*
X229316401Y-39643253D01*
X229298223Y-39626777D01*
X229281747Y-39608599D01*
X229267132Y-39588893D01*
X229254520Y-39567850D01*
X229244030Y-39545671D01*
X229235765Y-39522572D01*
X229229804Y-39498773D01*
X229226204Y-39474505D01*
X229225000Y-39450001D01*
X229225000Y-38549999D01*
X229226204Y-38525495D01*
X229229804Y-38501227D01*
X229235765Y-38477428D01*
X229244030Y-38454329D01*
X229254520Y-38432150D01*
X229267132Y-38411107D01*
X229281747Y-38391401D01*
X229298223Y-38373223D01*
X229316401Y-38356747D01*
X229336107Y-38342132D01*
X229357150Y-38329520D01*
X229379329Y-38319030D01*
X229402428Y-38310765D01*
X229426227Y-38304804D01*
X229450495Y-38301204D01*
X229474999Y-38300000D01*
X230125001Y-38300000D01*
X230149505Y-38301204D01*
X230149505Y-38301204D01*
G37*
D11*
X229800000Y-39000000D03*
G04 #@! TD*
D10*
G04 #@! TO.C,C7*
G36*
X233099505Y-38301204D02*
X233123773Y-38304804D01*
X233147572Y-38310765D01*
X233170671Y-38319030D01*
X233192850Y-38329520D01*
X233213893Y-38342132D01*
X233233599Y-38356747D01*
X233251777Y-38373223D01*
X233268253Y-38391401D01*
X233282868Y-38411107D01*
X233295480Y-38432150D01*
X233305970Y-38454329D01*
X233314235Y-38477428D01*
X233320196Y-38501227D01*
X233323796Y-38525495D01*
X233325000Y-38549999D01*
X233325000Y-39450001D01*
X233323796Y-39474505D01*
X233320196Y-39498773D01*
X233314235Y-39522572D01*
X233305970Y-39545671D01*
X233295480Y-39567850D01*
X233282868Y-39588893D01*
X233268253Y-39608599D01*
X233251777Y-39626777D01*
X233233599Y-39643253D01*
X233213893Y-39657868D01*
X233192850Y-39670480D01*
X233170671Y-39680970D01*
X233147572Y-39689235D01*
X233123773Y-39695196D01*
X233099505Y-39698796D01*
X233075001Y-39700000D01*
X232424999Y-39700000D01*
X232400495Y-39698796D01*
X232376227Y-39695196D01*
X232352428Y-39689235D01*
X232329329Y-39680970D01*
X232307150Y-39670480D01*
X232286107Y-39657868D01*
X232266401Y-39643253D01*
X232248223Y-39626777D01*
X232231747Y-39608599D01*
X232217132Y-39588893D01*
X232204520Y-39567850D01*
X232194030Y-39545671D01*
X232185765Y-39522572D01*
X232179804Y-39498773D01*
X232176204Y-39474505D01*
X232175000Y-39450001D01*
X232175000Y-38549999D01*
X232176204Y-38525495D01*
X232179804Y-38501227D01*
X232185765Y-38477428D01*
X232194030Y-38454329D01*
X232204520Y-38432150D01*
X232217132Y-38411107D01*
X232231747Y-38391401D01*
X232248223Y-38373223D01*
X232266401Y-38356747D01*
X232286107Y-38342132D01*
X232307150Y-38329520D01*
X232329329Y-38319030D01*
X232352428Y-38310765D01*
X232376227Y-38304804D01*
X232400495Y-38301204D01*
X232424999Y-38300000D01*
X233075001Y-38300000D01*
X233099505Y-38301204D01*
X233099505Y-38301204D01*
G37*
D11*
X232750000Y-39000000D03*
D10*
G36*
X235149505Y-38301204D02*
X235173773Y-38304804D01*
X235197572Y-38310765D01*
X235220671Y-38319030D01*
X235242850Y-38329520D01*
X235263893Y-38342132D01*
X235283599Y-38356747D01*
X235301777Y-38373223D01*
X235318253Y-38391401D01*
X235332868Y-38411107D01*
X235345480Y-38432150D01*
X235355970Y-38454329D01*
X235364235Y-38477428D01*
X235370196Y-38501227D01*
X235373796Y-38525495D01*
X235375000Y-38549999D01*
X235375000Y-39450001D01*
X235373796Y-39474505D01*
X235370196Y-39498773D01*
X235364235Y-39522572D01*
X235355970Y-39545671D01*
X235345480Y-39567850D01*
X235332868Y-39588893D01*
X235318253Y-39608599D01*
X235301777Y-39626777D01*
X235283599Y-39643253D01*
X235263893Y-39657868D01*
X235242850Y-39670480D01*
X235220671Y-39680970D01*
X235197572Y-39689235D01*
X235173773Y-39695196D01*
X235149505Y-39698796D01*
X235125001Y-39700000D01*
X234474999Y-39700000D01*
X234450495Y-39698796D01*
X234426227Y-39695196D01*
X234402428Y-39689235D01*
X234379329Y-39680970D01*
X234357150Y-39670480D01*
X234336107Y-39657868D01*
X234316401Y-39643253D01*
X234298223Y-39626777D01*
X234281747Y-39608599D01*
X234267132Y-39588893D01*
X234254520Y-39567850D01*
X234244030Y-39545671D01*
X234235765Y-39522572D01*
X234229804Y-39498773D01*
X234226204Y-39474505D01*
X234225000Y-39450001D01*
X234225000Y-38549999D01*
X234226204Y-38525495D01*
X234229804Y-38501227D01*
X234235765Y-38477428D01*
X234244030Y-38454329D01*
X234254520Y-38432150D01*
X234267132Y-38411107D01*
X234281747Y-38391401D01*
X234298223Y-38373223D01*
X234316401Y-38356747D01*
X234336107Y-38342132D01*
X234357150Y-38329520D01*
X234379329Y-38319030D01*
X234402428Y-38310765D01*
X234426227Y-38304804D01*
X234450495Y-38301204D01*
X234474999Y-38300000D01*
X235125001Y-38300000D01*
X235149505Y-38301204D01*
X235149505Y-38301204D01*
G37*
D11*
X234800000Y-39000000D03*
G04 #@! TD*
M02*
