<?xml version="1.0" encoding="UTF-8" standalone="no"?>
<svg
   xmlns:dc="http://purl.org/dc/elements/1.1/"
   xmlns:cc="http://creativecommons.org/ns#"
   xmlns:rdf="http://www.w3.org/1999/02/22-rdf-syntax-ns#"
   xmlns:svg="http://www.w3.org/2000/svg"
   xmlns="http://www.w3.org/2000/svg"
   xmlns:sodipodi="http://sodipodi.sourceforge.net/DTD/sodipodi-0.dtd"
   xmlns:inkscape="http://www.inkscape.org/namespaces/inkscape"
   width="1135.608"
   height="348.2616"
   version="1.1"
   id="svg320"
   sodipodi:docname="plate.svg"
   inkscape:version="0.92.4 5da689c313, 2019-01-14">
  <metadata
     id="metadata324">
    <rdf:RDF>
      <cc:Work
         rdf:about="">
        <dc:format>image/svg+xml</dc:format>
        <dc:type
           rdf:resource="http://purl.org/dc/dcmitype/StillImage" />
        <dc:title></dc:title>
      </cc:Work>
    </rdf:RDF>
  </metadata>
  <sodipodi:namedview
     pagecolor="#ffffff"
     bordercolor="#666666"
     borderopacity="1"
     objecttolerance="10"
     gridtolerance="10"
     guidetolerance="10"
     inkscape:pageopacity="0"
     inkscape:pageshadow="2"
     inkscape:window-width="1366"
     inkscape:window-height="711"
     id="namedview322"
     showgrid="false"
     inkscape:zoom="6.7277219"
     inkscape:cx="319.24602"
     inkscape:cy="314.36226"
     inkscape:window-x="0"
     inkscape:window-y="20"
     inkscape:window-maximized="1"
     inkscape:current-layer="g318"
     fit-margin-top="0"
     fit-margin-left="0"
     fit-margin-right="0"
     fit-margin-bottom="0" />
  <desc
     id="desc2">/home/alvaro/Desktop/AcheronProject/Elongate/kicadFiles/plate/../../manuFiles/plate.dxf - scale = 1.000000, origin = (0.000000, 0.000000), method = manual</desc>
  <defs
     id="defs16">
    <marker
       id="DistanceX"
       orient="auto"
       refX="0"
       refY="0"
       style="overflow:visible">
      <path
         d="M 3,-3 -3,3 M 0,-5 V 5"
         style="stroke:#000000;stroke-width:0.5"
         id="path4"
         inkscape:connector-curvature="0" />
    </marker>
    <pattern
       height="8"
       id="Hatch"
       patternUnits="userSpaceOnUse"
       width="8"
       x="0"
       y="0">
      <path
         d="M8 4 l-4,4"
         linecap="square"
         stroke="#000000"
         stroke-width="0.25"
         id="path7" />
      <path
         d="M6 2 l-4,4"
         linecap="square"
         stroke="#000000"
         stroke-width="0.25"
         id="path9" />
      <path
         d="M4 0 l-4,4"
         linecap="square"
         stroke="#000000"
         stroke-width="0.25"
         id="path11" />
    </pattern>
    <symbol
       id="*MODEL_SPACE" />
    <symbol
       id="*PAPER_SPACE" />
  </defs>
  <g
     inkscape:groupmode="layer"
     inkscape:label="0"
     id="g318"
     transform="translate(1200.7166,-862.55683)">
    <path
       d="m -604.90832,1169.965 a 4.8,4.8 0 0 1 -4.8,-4.8 v -58.4 a 4.8,4.8 0 0 1 4.8,-4.8 h 19.03067 a 4.8,4.8 0 0 1 4.8,4.8 v 58.4 a 4.8,4.8 0 0 1 -4.8,4.8 z"
       style="fill:none;stroke:#000000"
       id="path18"
       inkscape:connector-curvature="0" />
    <path
       d="m -678.46064,964.45035 h -52.91333 v 52.91335 h 52.91333 z"
       style="fill:none;stroke:#000000"
       id="path20"
       inkscape:connector-curvature="0" />
    <path
       d="m -930.46064,1089.3637 v -52.9147 h -52.91333 v 52.9147 z"
       style="fill:none;stroke:#000000"
       id="path22"
       inkscape:connector-curvature="0" />
    <path
       d="m -820.88906,1169.965 a 4.8,4.8 0 0 1 -4.8,-4.8 v -58.4 a 4.8,4.8 0 0 1 4.8,-4.8 h 19.02933 a 4.8,4.8 0 0 1 4.8,4.8 v 58.4 a 4.8,4.8 0 0 1 -4.8,4.8 z"
       style="fill:none;stroke:#000000"
       id="path24"
       inkscape:connector-curvature="0" />
    <path
       d="m -1199.6748,1173.019 a 9.6,9.6 0 0 1 -0.5418,-3.1795 V 883.98125 a 9.6,9.6 0 0 1 9.6,-9.6 l 37.4925,0.003 a 9.6,9.6 0 0 0 6.7915,-2.81178 l 5.7042,-5.70414 a 9.6,9.6 0 0 1 6.7882,-2.81178 h 16.0471 a 9.6,9.6 0 0 1 6.7882,2.81178 l 5.7009,5.70086 a 9.6,9.6 0 0 0 6.7882,2.81178 h 185.3983 a 9.6,9.6 0 0 0 6.78822,-2.81178 l 5.70087,-5.70086 a 9.6,9.6 0 0 1 6.78822,-2.81178 h 16.0471 a 9.6,9.6 0 0 1 6.78823,2.81178 l 5.76174,5.72108 a 9.6,9.6 0 0 0 6.76795,2.79156 h 198.26171 a 9.6,9.6 0 0 0 6.78822,-2.81178 l 5.70087,-5.70086 a 9.6,9.6 0 0 1 6.78823,-2.81178 h 16.0471 a 9.6,9.6 0 0 1 6.78822,2.81178 l 5.70087,5.70086 a 9.6,9.6 0 0 0 6.78822,2.81178 h 198.30223 a 9.6,9.6 0 0 0 6.78822,-2.81178 l 5.70087,-5.70086 a 9.6,9.6 0 0 1 6.78822,-2.81178 h 16.0471 a 9.6,9.6 0 0 1 6.78823,2.81178 l 5.70086,5.70086 a 9.6,9.6 0 0 0 6.78823,2.81178 h 185.39827 a 9.6,9.6 0 0 0 6.78822,-2.81178 l 5.70087,-5.70086 a 9.6,9.6 0 0 1 6.78822,-2.81178 h 16.0471 a 9.6,9.6 0 0 1 6.78823,2.81178 l 5.70086,5.70086 a 9.6,9.6 0 0 0 6.78823,2.81178 h 37.499133 a 9.6,9.6 0 0 1 9.6,9.6 v 285.85823 a 9.6,9.6 0 0 1 -0.541828,3.1795 1.92,1.92 0 0 1 -2.618342,1.1064 10.46928,10.46928 0 0 0 -12.006995,2.3086 9.6,9.6 0 0 1 -6.976501,3.0055 h -24.955467 a 9.6,9.6 0 0 0 -6.78823,2.8117 l -5.70086,5.7009 a 9.6,9.6 0 0 1 -6.78823,2.8118 h -16.0471 a 9.6,9.6 0 0 1 -6.78822,-2.8118 l -5.70087,-5.7009 a 9.6,9.6 0 0 0 -6.78822,-2.8117 h -29.98334 a 28.8,28.8 0 0 0 -20.36467,8.4353 l -7.5238,7.5238 a 9.6,9.6 0 0 1 -6.78823,2.8118 h -84.95088 a 9.6,9.6 0 0 0 -6.78823,2.8117 l -6.48452,6.4845 a 9.6,9.6 0 0 1 -6.78823,2.8118 h -16.0471 a 9.6,9.6 0 0 1 -6.78822,-2.8118 l -6.48452,-6.4845 a 9.6,9.6 0 0 0 -6.78823,-2.8117 h -84.77427 a 9.6,9.6 0 0 1 -6.78822,-2.8118 l -7.5238,-7.5238 a 28.8,28.8 0 0 0 -20.36467,-8.4353 h -113.0713 a 9.6,9.6 0 0 0 -6.78822,2.8117 l -5.70087,5.7009 a 9.6,9.6 0 0 1 -6.78822,2.8118 h -16.0471 a 9.6,9.6 0 0 1 -6.78823,-2.8118 l -5.70087,-5.7009 a 9.6,9.6 0 0 0 -6.78822,-2.8117 h -198.30231 a 9.6,9.6 0 0 0 -6.78823,2.8117 l -5.70086,5.7009 a 9.6,9.6 0 0 1 -6.78823,2.8118 h -16.0471 a 9.6,9.6 0 0 1 -6.78822,-2.8118 l -5.70087,-5.7009 a 9.6,9.6 0 0 0 -6.78822,-2.8117 h -185.3983 a 9.6,9.6 0 0 0 -6.7882,2.8117 l -5.7009,5.7009 a 9.6,9.6 0 0 1 -6.7882,2.8118 h -16.0471 a 9.6,9.6 0 0 1 -6.7882,-2.8118 l -5.7009,-5.7009 a 9.6,9.6 0 0 0 -6.7882,-2.8117 h -24.9555 a 9.6,9.6 0 0 1 -6.9765,-3.0055 10.46928,10.46928 0 0 0 -12.007,-2.3086 1.92,1.92 0 0 1 -2.6183,-1.1064 z"
       style="fill:none;stroke:#000000"
       id="path28"
       inkscape:connector-curvature="0" />
    <path
       d="m -1055.374,1089.3637 h 52.9134 v -52.9147 h -52.9134 z"
       style="fill:none;stroke:#000000"
       id="path30"
       inkscape:connector-curvature="0" />
    <path
       d="m -957.46064,1108.449 h -52.91336 v 52.9147 h 52.91336 z"
       style="fill:none;stroke:#000000"
       id="path32"
       inkscape:connector-curvature="0" />
    <path
       d="m -461.3713,892.45035 v 52.91334 h 52.91333 v -52.91334 z"
       style="fill:none;stroke:#000000"
       id="path36"
       inkscape:connector-curvature="0" />
    <path
       d="m -533.3713,892.45035 v 52.91334 h 52.91333 v -52.91334 z"
       style="fill:none;stroke:#000000"
       id="path38"
       inkscape:connector-curvature="0" />
    <path
       d="m -605.3713,892.45035 v 52.91334 h 52.91333 v -52.91334 z"
       style="fill:none;stroke:#000000"
       id="path40"
       inkscape:connector-curvature="0" />
    <path
       d="m -1122.0917,1184.236 a 3.77953,3.77953 0 1 0 -7.559,0 3.77953,3.77953 0 1 0 7.559,0 z"
       style="fill:none;stroke:#000000"
       id="path42"
       inkscape:connector-curvature="0" />
    <path
       d="m -884.36693,1108.4074 v 52.9134 h 52.91333 v -35.1494 -17.764 z"
       style="fill:none;stroke:#000000"
       id="path44"
       inkscape:connector-curvature="0" />
    <path
       d="m -1122.0917,870.32352 a 3.77953,3.77953 0 1 0 -7.559,0 3.77953,3.77953 0 1 0 7.559,0 z"
       style="fill:none;stroke:#000000"
       id="path46"
       inkscape:connector-curvature="0" />
    <path
       d="m -1056.4593,892.45035 h -52.9133 v 52.91334 h 52.9133 z"
       style="fill:none;stroke:#000000"
       id="path48"
       inkscape:connector-curvature="0" />
    <path
       d="m -702.77899,1106.765 a 4.8,4.8 0 0 1 4.80001,-4.8 h 19.02933 a 4.8,4.8 0 0 1 4.8,4.8 v 58.4 a 4.8,4.8 0 0 1 -4.8,4.8 h -19.02933 a 4.8,4.8 0 0 1 -4.80001,-4.8 z"
       style="fill:none;stroke:#000000"
       id="path50"
       inkscape:connector-curvature="0" />
    <path
       d="m -363.4593,964.45035 h -52.91334 v 52.91335 h 52.91334 z"
       style="fill:none;stroke:#000000"
       id="path52"
       inkscape:connector-curvature="0" />
    <path
       d="m -209.3713,892.45035 v 52.91334 h 52.91333 v -52.91334 z"
       style="fill:none;stroke:#000000"
       id="path54"
       inkscape:connector-curvature="0" />
    <path
       d="m -137.3713,964.45035 v 52.91335 h 52.91333 v -52.91335 z"
       style="fill:none;stroke:#000000"
       id="path56"
       inkscape:connector-curvature="0" />
    <path
       d="m -281.3713,1036.449 v 52.9147 h 52.90933 v -52.9147 z"
       style="fill:none;stroke:#000000"
       id="path58"
       inkscape:connector-curvature="0" />
    <path
       d="m -677.37264,945.36369 h 52.91334 v -52.91334 h -52.91334 z"
       style="fill:none;stroke:#000000"
       id="path60"
       inkscape:connector-curvature="0" />
    <path
       d="m -696.45797,892.45035 h -52.91733 v 52.91334 h 52.91733 z"
       style="fill:none;stroke:#000000"
       id="path62"
       inkscape:connector-curvature="0" />
    <path
       d="m -228.46197,945.36369 v -52.91334 h -52.90933 v 52.91334 z"
       style="fill:none;stroke:#000000"
       id="path64"
       inkscape:connector-curvature="0" />
    <path
       d="m -629.19166,870.32352 a 3.77953,3.77953 0 1 0 -7.55906,0 3.77953,3.77953 0 1 0 7.55906,0 z"
       style="fill:none;stroke:#000000"
       id="path66"
       inkscape:connector-curvature="0" />
    <path
       d="m -136.17444,870.32352 a 3.77953,3.77953 0 1 0 -7.55906,0 3.77953,3.77953 0 1 0 7.55906,0 z"
       style="fill:none;stroke:#000000"
       id="path72"
       inkscape:connector-curvature="0" />
    <path
       d="m -750.78941,1163.5702 a 8.64,8.64 0 1 0 -17.28,0 8.64,8.64 0 1 0 17.28,0 z"
       style="fill:none;stroke:#000000"
       id="path74"
       inkscape:connector-curvature="0" />
    <path
       d="m -156.45797,1089.3637 v -52.9147 h -52.91333 v 52.9147 z"
       style="fill:none;stroke:#000000"
       id="path76"
       inkscape:connector-curvature="0" />
    <path
       d="m -615.47178,1161.3208 v -52.9134 h -52.91334 v 17.764 35.1494 z"
       style="fill:none;stroke:#000000"
       id="path78"
       inkscape:connector-curvature="0" />
    <path
       d="m -470.3753,1036.449 v 52.9147 h 52.91466 v -52.9147 z"
       style="fill:none;stroke:#000000"
       id="path80"
       inkscape:connector-curvature="0" />
    <path
       d="m -551.37397,1089.3637 h 52.91467 v -52.9147 h -52.91467 z"
       style="fill:none;stroke:#000000"
       id="path82"
       inkscape:connector-curvature="0" />
    <path
       d="m -318.4593,1179.365 v -52.9133 h -52.91467 v 52.9133 z"
       style="fill:none;stroke:#000000"
       id="path84"
       inkscape:connector-curvature="0" />
    <path
       d="m -246.4593,1179.365 v -52.9133 h -52.91467 v 52.9133 z"
       style="fill:none;stroke:#000000"
       id="path90"
       inkscape:connector-curvature="0" />
    <path
       d="m -137.3713,1108.449 v 52.9147 h 52.91333 v -52.9147 z"
       style="fill:none;stroke:#000000"
       id="path94"
       inkscape:connector-curvature="0" />
    <path
       d="m -570.4593,1036.449 h -52.91467 v 52.9147 h 52.91467 z"
       style="fill:none;stroke:#000000"
       id="path96"
       inkscape:connector-curvature="0" />
    <path
       d="m -318.4593,1054.4517 h -52.91467 v 52.9133 h 52.91467 z"
       style="fill:none;stroke:#000000"
       id="path100"
       inkscape:connector-curvature="0" />
    <path
       d="m -786.46064,1089.3637 v -52.9147 h -52.91333 v 52.9147 z"
       style="fill:none;stroke:#000000"
       id="path104"
       inkscape:connector-curvature="0" />
    <path
       d="m -443.37397,1126.4517 v 52.9133 h 52.91467 v -52.9133 z"
       style="fill:none;stroke:#000000"
       id="path106"
       inkscape:connector-curvature="0" />
    <path
       d="m -136.17444,1184.236 a 3.77953,3.77953 0 1 0 -7.55906,0 3.77953,3.77953 0 1 0 7.55906,0 z"
       style="fill:none;stroke:#000000"
       id="path110"
       inkscape:connector-curvature="0" />
    <path
       d="m -341.20174,1203.9113 a 3.77953,3.77953 0 1 0 -7.55906,0 3.77953,3.77953 0 1 0 7.55906,0 z"
       style="fill:none;stroke:#000000"
       id="path112"
       inkscape:connector-curvature="0" />
    <path
       d="m -984.4593,892.45035 h -52.9133 v 52.91334 h 52.9133 z"
       style="fill:none;stroke:#000000"
       id="path118"
       inkscape:connector-curvature="0" />
    <path
       d="m -1091.374,1017.3637 h 52.9134 v -52.91335 h -52.9134 z"
       style="fill:none;stroke:#000000"
       id="path120"
       inkscape:connector-curvature="0" />
    <path
       d="m -966.46064,964.45035 h -52.91336 v 52.91335 h 52.91336 z"
       style="fill:none;stroke:#000000"
       id="path122"
       inkscape:connector-curvature="0" />
    <path
       d="m -1038.4606,1108.449 h -52.9134 v 52.9147 h 52.9134 z"
       style="fill:none;stroke:#000000"
       id="path124"
       inkscape:connector-curvature="0" />
    <path
       d="m -1119.4593,1108.449 h -52.9133 v 52.9147 h 52.9133 z"
       style="fill:none;stroke:#000000"
       id="path126"
       inkscape:connector-curvature="0" />
    <path
       d="m -1101.4606,1089.3637 v -52.9147 h -52.9134 v 52.9147 z"
       style="fill:none;stroke:#000000"
       id="path128"
       inkscape:connector-curvature="0" />
    <path
       d="m -1181.3726,945.36369 h 52.9133 v -52.91334 h -52.9133 z"
       style="fill:none;stroke:#000000"
       id="path138"
       inkscape:connector-curvature="0" />
    <path
       d="m -882.09169,1184.236 a 3.77953,3.77953 0 1 0 -7.55906,0 3.77953,3.77953 0 1 0 7.55906,0 z"
       style="fill:none;stroke:#000000"
       id="path146"
       inkscape:connector-curvature="0" />
    <path
       d="m -1172.3726,964.45035 v 52.91335 h 52.9133 v -52.91335 z"
       style="fill:none;stroke:#000000"
       id="path148"
       inkscape:connector-curvature="0" />
    <path
       d="m -894.9304,1101.965 a 4.8,4.8 0 0 1 4.8,4.8 v 58.4 a 4.8,4.8 0 0 1 -4.8,4.8 h -19.03066 a 4.8,4.8 0 0 1 -4.8,-4.8 v -58.4 a 4.8,4.8 0 0 1 4.8,-4.8 z"
       style="fill:none;stroke:#000000"
       id="path152"
       inkscape:connector-curvature="0" />
    <path
       d="m -629.19166,1184.236 a 3.77953,3.77953 0 1 0 -7.55906,0 3.77953,3.77953 0 1 0 7.55906,0 z"
       style="fill:none;stroke:#000000"
       id="path168"
       inkscape:connector-curvature="0" />
    <path
       d="m -768.46197,892.45035 h -52.91333 v 52.91334 h 52.91333 z"
       style="fill:none;stroke:#000000"
       id="path172"
       inkscape:connector-curvature="0" />
    <path
       d="m -515.37397,964.45035 v 52.91335 h 52.91467 v -52.91335 z"
       style="fill:none;stroke:#000000"
       id="path176"
       inkscape:connector-curvature="0" />
    <path
       d="m -587.37397,964.45035 v 52.91335 h 52.91467 v -52.91335 z"
       style="fill:none;stroke:#000000"
       id="path178"
       inkscape:connector-curvature="0" />
    <path
       d="m -659.37397,964.45035 v 52.91335 h 52.91467 v -52.91335 z"
       style="fill:none;stroke:#000000"
       id="path184"
       inkscape:connector-curvature="0" />
    <path
       d="m -480.45797,1161.3637 v -52.9147 h -52.91333 v 52.9147 z"
       style="fill:none;stroke:#000000"
       id="path186"
       inkscape:connector-curvature="0" />
    <path
       d="m -156.45797,1161.3637 v -52.9147 h -52.91333 v 52.9147 z"
       style="fill:none;stroke:#000000"
       id="path188"
       inkscape:connector-curvature="0" />
    <path
       d="m -893.37264,892.45035 v 52.91334 h 52.91334 v -52.91334 z"
       style="fill:none;stroke:#000000"
       id="path192"
       inkscape:connector-curvature="0" />
    <path
       d="m -875.37397,964.45035 v 52.91335 h 52.91333 v -52.91335 z"
       style="fill:none;stroke:#000000"
       id="path194"
       inkscape:connector-curvature="0" />
    <path
       d="m -281.3713,1017.3637 h 52.90933 v -52.91335 h -52.90933 z"
       style="fill:none;stroke:#000000"
       id="path196"
       inkscape:connector-curvature="0" />
    <path
       d="m -714.46064,1036.449 h -52.91333 v 52.9147 h 52.91333 z"
       style="fill:none;stroke:#000000"
       id="path202"
       inkscape:connector-curvature="0" />
    <path
       d="m -84.45797,892.45035 h -52.91333 v 52.91334 h 52.91333 z"
       style="fill:none;stroke:#000000"
       id="path204"
       inkscape:connector-curvature="0" />
    <path
       d="m -376.17444,870.32352 a 3.77953,3.77953 0 1 0 -7.55906,0 3.77953,3.77953 0 1 0 7.55906,0 z"
       style="fill:none;stroke:#000000"
       id="path210"
       inkscape:connector-curvature="0" />
    <path
       d="m -300.32952,922.40821 a 8.64,8.64 0 1 0 -17.28,0 8.64,8.64 0 1 0 17.28,0 z"
       style="fill:none;stroke:#000000"
       id="path212"
       inkscape:connector-curvature="0" />
    <path
       d="m -300.32952,958.40821 a 8.64,8.64 0 1 0 -17.28,0 8.64,8.64 0 1 0 17.28,0 z"
       style="fill:none;stroke:#000000"
       id="path214"
       inkscape:connector-curvature="0" />
    <path
       d="m -300.32952,994.40821 a 8.64,8.64 0 1 0 -17.28,0 8.64,8.64 0 1 0 17.28,0 z"
       style="fill:none;stroke:#000000"
       id="path216"
       inkscape:connector-curvature="0" />
    <path
       d="m -947.37397,964.45035 v 52.91335 h 52.91333 v -52.91335 z"
       style="fill:none;stroke:#000000"
       id="path218"
       inkscape:connector-curvature="0" />
    <path
       d="m -912.4593,892.45035 h -52.91334 v 52.91334 h 52.91334 z"
       style="fill:none;stroke:#000000"
       id="path226"
       inkscape:connector-curvature="0" />
    <path
       d="m -882.09169,870.32352 a 3.77953,3.77953 0 1 0 -7.55906,0 3.77953,3.77953 0 1 0 7.55906,0 z"
       style="fill:none;stroke:#000000"
       id="path228"
       inkscape:connector-curvature="0" />
    <path
       d="m -858.46064,1036.449 h -52.91333 v 52.9147 h 52.91333 z"
       style="fill:none;stroke:#000000"
       id="path238"
       inkscape:connector-curvature="0" />
    <path
       d="m -137.3713,1036.449 v 52.9147 h 52.91333 v -52.9147 z"
       style="fill:none;stroke:#000000"
       id="path244"
       inkscape:connector-curvature="0" />
    <path
       d="m -209.3713,964.45035 v 52.91335 h 52.91333 v -52.91335 z"
       style="fill:none;stroke:#000000"
       id="path254"
       inkscape:connector-curvature="0" />
    <path
       d="m -803.37397,1017.3637 h 52.91333 v -52.91335 h -52.91333 z"
       style="fill:none;stroke:#000000"
       id="path256"
       inkscape:connector-curvature="0" />
    <path
       d="m -642.46064,1036.449 h -52.91333 v 52.9147 h 52.91333 z"
       style="fill:none;stroke:#000000"
       id="path258"
       inkscape:connector-curvature="0" />
    <path
       d="m -389.3713,892.45035 v 52.91334 h 52.91333 v -52.91334 z"
       style="fill:none;stroke:#000000"
       id="path262"
       inkscape:connector-curvature="0" />
    <path
       d="m -750.78941,1115.5702 a 8.64,8.64 0 1 0 -17.28,0 8.64,8.64 0 1 0 17.28,0 z"
       style="fill:none;stroke:#000000"
       id="path264"
       inkscape:connector-curvature="0" />
    <path
       d="m -750.78941,1139.5702 a 8.64,8.64 0 1 0 -17.28,0 8.64,8.64 0 1 0 17.28,0 z"
       style="fill:none;stroke:#000000"
       id="path272"
       inkscape:connector-curvature="0" />
  </g>
</svg>
