  0
SECTION
  2
HEADER
  9
$ACADVER
  1
AC1014
  9
$HANDSEED
  5
FFFF
  9
$MEASUREMENT
 70
     1
  0
ENDSEC
  0
SECTION
  2
TABLES
  0
TABLE
  2
VPORT
  5
8
330
0
100
AcDbSymbolTable
 70
     4
  0
VPORT
  5
2E
330
8
100
AcDbSymbolTableRecord
100
AcDbViewportTableRecord
  2
*ACTIVE
 70
     0
 10
0.0
 20
0.0
 11
1.0
 21
1.0
 12
210.0
 22
148.5
 13
0.0
 23
0.0
 14
10.0
 24
10.0
 15
10.0
 25
10.0
 16
0.0
 26
0.0
 36
1.0
 17
0.0
 27
0.0
 37
0.0
 40
341.0
 41
1.24
 42
50.0
 43
0.0
 44
0.0
 50
0.0
 51
0.0
 71
     0
 72
   100
 73
     1
 74
     3
 75
     0
 76
     0
 77
     0
 78
     0
  0
ENDTAB
  0
TABLE
  2
LTYPE
  5
5
330
0
100
AcDbSymbolTable
 70
     1
  0
LTYPE
  5
14
330
5
100
AcDbSymbolTableRecord
100
AcDbLinetypeTableRecord
  2
BYBLOCK
 70
     0
  3

 72
    65
 73
     0
 40
0.0
  0
LTYPE
  5
15
330
5
100
AcDbSymbolTableRecord
100
AcDbLinetypeTableRecord
  2
BYLAYER
 70
     0
  3

 72
    65
 73
     0
 40
0.0
  0
LTYPE
  5
16
330
5
100
AcDbSymbolTableRecord
100
AcDbLinetypeTableRecord
  2
CONTINUOUS
 70
     0
  3
Solid line
 72
    65
 73
     0
 40
0.0
  0
ENDTAB
  0
TABLE
  2
LAYER
  5
2
100
AcDbSymbolTable
 70
1
  0
LAYER
  5
50
100
AcDbSymbolTableRecord
100
AcDbLayerTableRecord
  2
0
 70
0
  6
CONTINUOUS
  0
ENDTAB
  0
TABLE
  2
STYLE
  5
3
330
0
100
AcDbSymbolTable
 70
     1
  0
STYLE
  5
11
330
3
100
AcDbSymbolTableRecord
100
AcDbTextStyleTableRecord
  2
STANDARD
 70
     0
 40
0.0
 41
1.0
 50
0.0
 71
     0
 42
2.5
  3
txt
  4

  0
ENDTAB
  0
TABLE
  2
VIEW
  5
6
330
0
100
AcDbSymbolTable
 70
     0
  0
ENDTAB
  0
TABLE
  2
UCS
  5
7
330
0
100
AcDbSymbolTable
 70
     0
  0
ENDTAB
  0
TABLE
  2
APPID
  5
9
330
0
100
AcDbSymbolTable
 70
     2
  0
APPID
  5
12
330
9
100
AcDbSymbolTableRecord
100
AcDbRegAppTableRecord
  2
ACAD
 70
     0
  0
ENDTAB
  0
TABLE
  2
DIMSTYLE
  5
A
330
0
100
AcDbSymbolTable
 70
     1
  0
DIMSTYLE
105
27
330
A
100
AcDbSymbolTableRecord
100
AcDbDimStyleTableRecord
  2
ISO-25
 70
     0
  3

  4

  5

  6

  7

 40
1.0
 41
2.5
 42
0.625
 43
3.75
 44
1.25
 45
0.0
 46
0.0
 47
0.0
 48
0.0
140
2.5
141
2.5
142
0.0
143
0.03937007874016
144
1.0
145
0.0
146
1.0
147
0.625
 71
     0
 72
     0
 73
     0
 74
     0
 75
     0
 76
     0
 77
     1
 78
     8
170
     0
171
     3
172
     1
173
     0
174
     0
175
     0
176
     0
177
     0
178
     0
270
     2
271
     2
272
     2
273
     2
274
     3
340
11
275
     0
280
     0
281
     0
282
     0
283
     0
284
     8
285
     0
286
     0
287
     3
288
     0
  0
ENDTAB
  0
TABLE
  2
BLOCK_RECORD
  5
1
330
0
100
AcDbSymbolTable
 70
     1
  0
BLOCK_RECORD
  5
1F
330
1
100
AcDbSymbolTableRecord
100
AcDbBlockTableRecord
  2
*MODEL_SPACE
  0
BLOCK_RECORD
  5
1B
330
1
100
AcDbSymbolTableRecord
100
AcDbBlockTableRecord
  2
*PAPER_SPACE
  0
ENDTAB
  0
ENDSEC
  0
SECTION
  2
BLOCKS
  0
BLOCK
  5
20
330
1F
100
AcDbEntity
  8
0
100
AcDbBlockBegin
  2
*MODEL_SPACE
 70
     0
 10
0.0
 20
0.0
 30
0.0
  3
*MODEL_SPACE
  1

  0
ENDBLK
  5
21
330
1F
100
AcDbEntity
  8
0
100
AcDbBlockEnd
  0
BLOCK
  5
1C
330
1B
100
AcDbEntity
 67
     1
  8
0
100
AcDbBlockBegin
  2
*PAPER_SPACE
  1

  0
ENDBLK
  5
1D
330
1B
100
AcDbEntity
 67
     1
  8
0
100
AcDbBlockEnd
  0
ENDSEC
  0
SECTION
  2
ENTITIES
  0
SPLINE
  5
100
100
AcDbEntity
  8
0
 62
7
100
AcDbSpline
 70
8
 71
3
 72
8
 73
4
 74
0
 40
0
 40
0
 40
0
 40
0
 40
1
 40
1
 40
1
 40
1
 10
157.640941
 20
10.809137
 30
0.0
 10
157.304116
 20
10.809137
 30
0.0
 10
156.981086
 20
10.942940
 30
0.0
 10
156.742915
 20
11.181111
 30
0.0
  0
SPLINE
  5
101
100
AcDbEntity
  8
0
 62
7
100
AcDbSpline
 70
8
 71
3
 72
8
 73
4
 74
0
 40
0
 40
0
 40
0
 40
0
 40
1
 40
1
 40
1
 40
1
 10
156.742915
 20
11.181111
 30
0.0
 10
156.504744
 20
11.419282
 30
0.0
 10
156.370941
 20
11.742312
 30
0.0
 10
156.370941
 20
12.079137
 30
0.0
  0
SPLINE
  5
102
100
AcDbEntity
  8
0
 62
7
100
AcDbSpline
 70
8
 71
3
 72
8
 73
4
 74
0
 40
0
 40
0
 40
0
 40
0
 40
1
 40
1
 40
1
 40
1
 10
156.370941
 20
12.079137
 30
0.0
 10
156.370941
 20
12.079137
 30
0.0
 10
156.370941
 20
27.530803
 30
0.0
 10
156.370941
 20
27.530803
 30
0.0
  0
SPLINE
  5
103
100
AcDbEntity
  8
0
 62
7
100
AcDbSpline
 70
8
 71
3
 72
8
 73
4
 74
0
 40
0
 40
0
 40
0
 40
0
 40
1
 40
1
 40
1
 40
1
 10
156.370941
 20
27.530803
 30
0.0
 10
156.370941
 20
27.867628
 30
0.0
 10
156.504744
 20
28.190658
 30
0.0
 10
156.742915
 20
28.428829
 30
0.0
  0
SPLINE
  5
104
100
AcDbEntity
  8
0
 62
7
100
AcDbSpline
 70
8
 71
3
 72
8
 73
4
 74
0
 40
0
 40
0
 40
0
 40
0
 40
1
 40
1
 40
1
 40
1
 10
156.742915
 20
28.428829
 30
0.0
 10
156.981086
 20
28.667000
 30
0.0
 10
157.304116
 20
28.800803
 30
0.0
 10
157.640941
 20
28.800803
 30
0.0
  0
SPLINE
  5
105
100
AcDbEntity
  8
0
 62
7
100
AcDbSpline
 70
8
 71
3
 72
8
 73
4
 74
0
 40
0
 40
0
 40
0
 40
0
 40
1
 40
1
 40
1
 40
1
 10
162.676139
 20
28.800803
 30
0.0
 10
163.377540
 20
28.800803
 30
0.0
 10
163.946139
 20
28.232205
 30
0.0
 10
163.946139
 20
27.530803
 30
0.0
  0
LWPOLYLINE
  5
106
100
AcDbEntity
  8
0
 62
7
100
AcDbPolyline
 90
2
 70
0
 10
157.640941
 20
28.800803
 30
0.0
 10
162.676139
 20
28.800803
 30
0.0
  0
SPLINE
  5
107
100
AcDbEntity
  8
0
 62
7
100
AcDbSpline
 70
8
 71
3
 72
8
 73
4
 74
0
 40
0
 40
0
 40
0
 40
0
 40
1
 40
1
 40
1
 40
1
 10
163.946139
 20
12.079137
 30
0.0
 10
163.946139
 20
11.377735
 30
0.0
 10
163.377540
 20
10.809137
 30
0.0
 10
162.676139
 20
10.809137
 30
0.0
  0
LWPOLYLINE
  5
108
100
AcDbEntity
  8
0
 62
7
100
AcDbPolyline
 90
2
 70
0
 10
163.946139
 20
27.530803
 30
0.0
 10
163.946139
 20
12.079137
 30
0.0
  0
LWPOLYLINE
  5
109
100
AcDbEntity
  8
0
 62
7
100
AcDbPolyline
 90
2
 70
0
 10
162.676139
 20
10.809137
 30
0.0
 10
157.640941
 20
10.809137
 30
0.0
  0
LWPOLYLINE
  5
10a
100
AcDbEntity
  8
0
 62
7
100
AcDbPolyline
 90
4
 70
1
 10
138.180223
 20
65.184888
 30
0.0
 10
124.180238
 20
65.184888
 30
0.0
 10
124.180238
 20
51.184897
 30
0.0
 10
138.180223
 20
51.184897
 30
0.0
  0
SPLINE
  5
10b
100
AcDbEntity
  8
0
 62
7
100
AcDbSpline
 70
8
 71
3
 72
8
 73
4
 74
0
 40
0
 40
0
 40
0
 40
0
 40
1
 40
1
 40
1
 40
1
 10
100.496037
 20
10.809137
 30
0.0
 10
100.159212
 20
10.809137
 30
0.0
 10
99.836182
 20
10.942940
 30
0.0
 10
99.598011
 20
11.181111
 30
0.0
  0
SPLINE
  5
10c
100
AcDbEntity
  8
0
 62
7
100
AcDbSpline
 70
8
 71
3
 72
8
 73
4
 74
0
 40
0
 40
0
 40
0
 40
0
 40
1
 40
1
 40
1
 40
1
 10
99.598011
 20
11.181111
 30
0.0
 10
99.359840
 20
11.419282
 30
0.0
 10
99.226037
 20
11.742312
 30
0.0
 10
99.226037
 20
12.079137
 30
0.0
  0
LWPOLYLINE
  5
10d
100
AcDbEntity
  8
0
 62
7
100
AcDbPolyline
 90
4
 70
1
 10
71.505223
 20
32.134897
 30
0.0
 10
71.505223
 20
46.135245
 30
0.0
 10
57.505238
 20
46.135245
 30
0.0
 10
57.505238
 20
32.134897
 30
0.0
  0
SPLINE
  5
10e
100
AcDbEntity
  8
0
 62
7
100
AcDbSpline
 70
8
 71
3
 72
8
 73
4
 74
0
 40
0
 40
0
 40
0
 40
0
 40
1
 40
1
 40
1
 40
1
 10
99.226037
 20
27.530803
 30
0.0
 10
99.226037
 20
27.867628
 30
0.0
 10
99.359840
 20
28.190658
 30
0.0
 10
99.598011
 20
28.428829
 30
0.0
  0
SPLINE
  5
10f
100
AcDbEntity
  8
0
 62
7
100
AcDbSpline
 70
8
 71
3
 72
8
 73
4
 74
0
 40
0
 40
0
 40
0
 40
0
 40
1
 40
1
 40
1
 40
1
 10
99.598011
 20
28.428829
 30
0.0
 10
99.836182
 20
28.667000
 30
0.0
 10
100.159212
 20
28.800803
 30
0.0
 10
100.496037
 20
28.800803
 30
0.0
  0
LWPOLYLINE
  5
110
100
AcDbEntity
  8
0
 62
7
100
AcDbPolyline
 90
2
 70
0
 10
99.226037
 20
12.079137
 30
0.0
 10
99.226037
 20
27.530803
 30
0.0
  0
SPLINE
  5
111
100
AcDbEntity
  8
0
 62
7
100
AcDbSpline
 70
8
 71
3
 72
8
 73
4
 74
0
 40
0
 40
0
 40
0
 40
0
 40
1
 40
1
 40
1
 40
1
 10
105.530880
 20
28.800803
 30
0.0
 10
105.867705
 20
28.800803
 30
0.0
 10
106.190735
 20
28.667000
 30
0.0
 10
106.428906
 20
28.428829
 30
0.0
  0
SPLINE
  5
112
100
AcDbEntity
  8
0
 62
7
100
AcDbSpline
 70
8
 71
3
 72
8
 73
4
 74
0
 40
0
 40
0
 40
0
 40
0
 40
1
 40
1
 40
1
 40
1
 10
106.428906
 20
28.428829
 30
0.0
 10
106.667077
 20
28.190658
 30
0.0
 10
106.800880
 20
27.867628
 30
0.0
 10
106.800880
 20
27.530803
 30
0.0
  0
LWPOLYLINE
  5
113
100
AcDbEntity
  8
0
 62
7
100
AcDbPolyline
 90
2
 70
0
 10
100.496037
 20
28.800803
 30
0.0
 10
105.530880
 20
28.800803
 30
0.0
  0
SPLINE
  5
114
100
AcDbEntity
  8
0
 62
7
100
AcDbSpline
 70
8
 71
3
 72
8
 73
4
 74
0
 40
0
 40
0
 40
0
 40
0
 40
1
 40
1
 40
1
 40
1
 10
106.800880
 20
12.079137
 30
0.0
 10
106.800880
 20
11.742312
 30
0.0
 10
106.667077
 20
11.419282
 30
0.0
 10
106.428906
 20
11.181111
 30
0.0
  0
SPLINE
  5
115
100
AcDbEntity
  8
0
 62
7
100
AcDbSpline
 70
8
 71
3
 72
8
 73
4
 74
0
 40
0
 40
0
 40
0
 40
0
 40
1
 40
1
 40
1
 40
1
 10
106.428906
 20
11.181111
 30
0.0
 10
106.190735
 20
10.942940
 30
0.0
 10
105.867705
 20
10.809137
 30
0.0
 10
105.530880
 20
10.809137
 30
0.0
  0
LWPOLYLINE
  5
116
100
AcDbEntity
  8
0
 62
7
100
AcDbPolyline
 90
2
 70
0
 10
106.800880
 20
27.530803
 30
0.0
 10
106.800880
 20
12.079137
 30
0.0
  0
SPLINE
  5
117
100
AcDbEntity
  8
0
 62
7
100
AcDbSpline
 70
8
 71
3
 72
8
 73
4
 74
0
 40
0
 40
0
 40
0
 40
0
 40
1
 40
1
 40
1
 40
1
 10
0.275643
 20
10.001099
 30
0.0
 10
0.180758
 20
10.271422
 30
0.0
 10
0.132291
 20
10.555850
 30
0.0
 10
0.132292
 20
10.842342
 30
0.0
  0
LWPOLYLINE
  5
118
100
AcDbEntity
  8
0
 62
7
100
AcDbPolyline
 90
2
 70
0
 10
105.530880
 20
10.809137
 30
0.0
 10
100.496037
 20
10.809137
 30
0.0
  0
SPLINE
  5
119
100
AcDbEntity
  8
0
 62
7
100
AcDbSpline
 70
8
 71
3
 72
8
 73
4
 74
0
 40
0
 40
0
 40
0
 40
0
 40
1
 40
1
 40
1
 40
1
 10
0.132292
 20
86.475671
 30
0.0
 10
0.132292
 20
87.149320
 30
0.0
 10
0.399898
 20
87.795379
 30
0.0
 10
0.876240
 20
88.271722
 30
0.0
  0
SPLINE
  5
11a
100
AcDbEntity
  8
0
 62
7
100
AcDbSpline
 70
8
 71
3
 72
8
 73
4
 74
0
 40
0
 40
0
 40
0
 40
0
 40
1
 40
1
 40
1
 40
1
 10
0.876240
 20
88.271722
 30
0.0
 10
1.352583
 20
88.748064
 30
0.0
 10
1.998642
 20
89.015671
 30
0.0
 10
2.672292
 20
89.015671
 30
0.0
  0
SPLINE
  5
11b
100
AcDbEntity
  8
0
 62
7
100
AcDbSpline
 70
8
 71
3
 72
8
 73
4
 74
0
 40
0
 40
0
 40
0
 40
0
 40
1
 40
1
 40
1
 40
1
 10
2.672292
 20
89.015671
 30
0.0
 10
2.672292
 20
89.015671
 30
0.0
 10
12.592182
 20
89.014877
 30
0.0
 10
12.592182
 20
89.014877
 30
0.0
  0
SPLINE
  5
11c
100
AcDbEntity
  8
0
 62
7
100
AcDbSpline
 70
8
 71
3
 72
8
 73
4
 74
0
 40
0
 40
0
 40
0
 40
0
 40
1
 40
1
 40
1
 40
1
 10
12.592182
 20
89.014877
 30
0.0
 10
13.266133
 20
89.014647
 30
0.0
 10
13.912546
 20
89.282272
 30
0.0
 10
14.389100
 20
89.758827
 30
0.0
  0
SPLINE
  5
11d
100
AcDbEntity
  8
0
 62
7
100
AcDbSpline
 70
8
 71
3
 72
8
 73
4
 74
0
 40
0
 40
0
 40
0
 40
0
 40
1
 40
1
 40
1
 40
1
 10
14.389100
 20
89.758827
 30
0.0
 10
14.389100
 20
89.758827
 30
0.0
 10
15.898336
 20
91.268047
 30
0.0
 10
15.898336
 20
91.268047
 30
0.0
  0
SPLINE
  5
11e
100
AcDbEntity
  8
0
 62
7
100
AcDbSpline
 70
8
 71
3
 72
8
 73
4
 74
0
 40
0
 40
0
 40
0
 40
0
 40
1
 40
1
 40
1
 40
1
 10
15.898336
 20
91.268047
 30
0.0
 10
16.374677
 20
91.744389
 30
0.0
 10
17.020733
 20
92.011995
 30
0.0
 10
17.694381
 20
92.011997
 30
0.0
  0
SPLINE
  5
11f
100
AcDbEntity
  8
0
 62
7
100
AcDbSpline
 70
8
 71
3
 72
8
 73
4
 74
0
 40
0
 40
0
 40
0
 40
0
 40
1
 40
1
 40
1
 40
1
 10
17.694381
 20
92.011997
 30
0.0
 10
17.694381
 20
92.011997
 30
0.0
 10
21.940176
 20
92.011997
 30
0.0
 10
21.940176
 20
92.011997
 30
0.0
  0
SPLINE
  5
120
100
AcDbEntity
  8
0
 62
7
100
AcDbSpline
 70
8
 71
3
 72
8
 73
4
 74
0
 40
0
 40
0
 40
0
 40
0
 40
1
 40
1
 40
1
 40
1
 10
21.940176
 20
92.011997
 30
0.0
 10
22.613824
 20
92.011995
 30
0.0
 10
23.259880
 20
91.744389
 30
0.0
 10
23.736221
 20
91.268047
 30
0.0
  0
LWPOLYLINE
  5
121
100
AcDbEntity
  8
0
 62
7
100
AcDbPolyline
 90
2
 70
0
 10
0.132292
 20
10.842342
 30
0.0
 10
0.132292
 20
86.475671
 30
0.0
  0
SPLINE
  5
122
100
AcDbEntity
  8
0
 62
7
100
AcDbSpline
 70
8
 71
3
 72
8
 73
4
 74
0
 40
0
 40
0
 40
0
 40
0
 40
1
 40
1
 40
1
 40
1
 10
25.244584
 20
89.759695
 30
0.0
 10
25.720924
 20
89.283353
 30
0.0
 10
26.366981
 20
89.015747
 30
0.0
 10
27.040628
 20
89.015745
 30
0.0
  0
LWPOLYLINE
  5
123
100
AcDbEntity
  8
0
 62
7
100
AcDbPolyline
 90
2
 70
0
 10
23.736221
 20
91.268047
 30
0.0
 10
25.244584
 20
89.759695
 30
0.0
  0
SPLINE
  5
124
100
AcDbEntity
  8
0
 62
7
100
AcDbSpline
 70
8
 71
3
 72
8
 73
4
 74
0
 40
0
 40
0
 40
0
 40
0
 40
1
 40
1
 40
1
 40
1
 10
76.093929
 20
89.015745
 30
0.0
 10
76.767578
 20
89.015745
 30
0.0
 10
77.413637
 20
89.283352
 30
0.0
 10
77.889978
 20
89.759695
 30
0.0
  0
LWPOLYLINE
  5
125
100
AcDbEntity
  8
0
 62
7
100
AcDbPolyline
 90
2
 70
0
 10
27.040628
 20
89.015745
 30
0.0
 10
76.093929
 20
89.015745
 30
0.0
  0
SPLINE
  5
126
100
AcDbEntity
  8
0
 62
7
100
AcDbSpline
 70
8
 71
3
 72
8
 73
4
 74
0
 40
0
 40
0
 40
0
 40
0
 40
1
 40
1
 40
1
 40
1
 10
79.398334
 20
91.268047
 30
0.0
 10
79.874675
 20
91.744390
 30
0.0
 10
80.520734
 20
92.011997
 30
0.0
 10
81.194383
 20
92.011997
 30
0.0
  0
SPLINE
  5
127
100
AcDbEntity
  8
0
 62
7
100
AcDbSpline
 70
8
 71
3
 72
8
 73
4
 74
0
 40
0
 40
0
 40
0
 40
0
 40
1
 40
1
 40
1
 40
1
 10
81.194383
 20
92.011997
 30
0.0
 10
81.194383
 20
92.011997
 30
0.0
 10
85.440179
 20
92.011997
 30
0.0
 10
85.440179
 20
92.011997
 30
0.0
  0
SPLINE
  5
128
100
AcDbEntity
  8
0
 62
7
100
AcDbSpline
 70
8
 71
3
 72
8
 73
4
 74
0
 40
0
 40
0
 40
0
 40
0
 40
1
 40
1
 40
1
 40
1
 10
85.440179
 20
92.011997
 30
0.0
 10
86.113829
 20
92.011997
 30
0.0
 10
86.759889
 20
91.744391
 30
0.0
 10
87.236231
 20
91.268047
 30
0.0
  0
SPLINE
  5
129
100
AcDbEntity
  8
0
 62
7
100
AcDbSpline
 70
8
 71
3
 72
8
 73
4
 74
0
 40
0
 40
0
 40
0
 40
0
 40
1
 40
1
 40
1
 40
1
 10
87.236231
 20
91.268047
 30
0.0
 10
87.236231
 20
91.268047
 30
0.0
 10
88.760692
 20
89.754345
 30
0.0
 10
88.760692
 20
89.754345
 30
0.0
  0
SPLINE
  5
12a
100
AcDbEntity
  8
0
 62
7
100
AcDbSpline
 70
8
 71
3
 72
8
 73
4
 74
0
 40
0
 40
0
 40
0
 40
0
 40
1
 40
1
 40
1
 40
1
 10
88.760692
 20
89.754345
 30
0.0
 10
89.236591
 20
89.281276
 30
0.0
 10
89.880353
 20
89.015745
 30
0.0
 10
90.551378
 20
89.015745
 30
0.0
  0
LWPOLYLINE
  5
12b
100
AcDbEntity
  8
0
 62
7
100
AcDbPolyline
 90
2
 70
0
 10
77.889978
 20
89.759695
 30
0.0
 10
79.398334
 20
91.268047
 30
0.0
  0
SPLINE
  5
12c
100
AcDbEntity
  8
0
 62
7
100
AcDbSpline
 70
8
 71
3
 72
8
 73
4
 74
0
 40
0
 40
0
 40
0
 40
0
 40
1
 40
1
 40
1
 40
1
 10
143.008122
 20
89.015745
 30
0.0
 10
143.681772
 20
89.015745
 30
0.0
 10
144.327830
 20
89.283352
 30
0.0
 10
144.804172
 20
89.759695
 30
0.0
  0
SPLINE
  5
12d
100
AcDbEntity
  8
0
 62
7
100
AcDbSpline
 70
8
 71
3
 72
8
 73
4
 74
0
 40
0
 40
0
 40
0
 40
0
 40
1
 40
1
 40
1
 40
1
 10
144.804172
 20
89.759695
 30
0.0
 10
144.804172
 20
89.759695
 30
0.0
 10
146.312528
 20
91.268047
 30
0.0
 10
146.312528
 20
91.268047
 30
0.0
  0
SPLINE
  5
12e
100
AcDbEntity
  8
0
 62
7
100
AcDbSpline
 70
8
 71
3
 72
8
 73
4
 74
0
 40
0
 40
0
 40
0
 40
0
 40
1
 40
1
 40
1
 40
1
 10
146.312528
 20
91.268047
 30
0.0
 10
146.788870
 20
91.744391
 30
0.0
 10
147.434930
 20
92.011997
 30
0.0
 10
148.108580
 20
92.011997
 30
0.0
  0
LWPOLYLINE
  5
12f
100
AcDbEntity
  8
0
 62
7
100
AcDbPolyline
 90
2
 70
0
 10
90.551378
 20
89.015745
 30
0.0
 10
143.008122
 20
89.015745
 30
0.0
  0
SPLINE
  5
130
100
AcDbEntity
  8
0
 62
7
100
AcDbSpline
 70
8
 71
3
 72
8
 73
4
 74
0
 40
0
 40
0
 40
0
 40
0
 40
1
 40
1
 40
1
 40
1
 10
152.354375
 20
92.011997
 30
0.0
 10
153.028025
 20
92.011997
 30
0.0
 10
153.674083
 20
91.744390
 30
0.0
 10
154.150425
 20
91.268047
 30
0.0
  0
LWPOLYLINE
  5
131
100
AcDbEntity
  8
0
 62
7
100
AcDbPolyline
 90
2
 70
0
 10
148.108580
 20
92.011997
 30
0.0
 10
152.354375
 20
92.011997
 30
0.0
  0
SPLINE
  5
132
100
AcDbEntity
  8
0
 62
7
100
AcDbSpline
 70
8
 71
3
 72
8
 73
4
 74
0
 40
0
 40
0
 40
0
 40
0
 40
1
 40
1
 40
1
 40
1
 10
155.658780
 20
89.759695
 30
0.0
 10
156.135122
 20
89.283352
 30
0.0
 10
156.781181
 20
89.015745
 30
0.0
 10
157.454830
 20
89.015745
 30
0.0
  0
LWPOLYLINE
  5
133
100
AcDbEntity
  8
0
 62
7
100
AcDbPolyline
 90
2
 70
0
 10
154.150425
 20
91.268047
 30
0.0
 10
155.658780
 20
89.759695
 30
0.0
  0
SPLINE
  5
134
100
AcDbEntity
  8
0
 62
7
100
AcDbSpline
 70
8
 71
3
 72
8
 73
4
 74
0
 40
0
 40
0
 40
0
 40
0
 40
1
 40
1
 40
1
 40
1
 10
209.922295
 20
89.015745
 30
0.0
 10
210.595945
 20
89.015745
 30
0.0
 10
211.242003
 20
89.283352
 30
0.0
 10
211.718345
 20
89.759695
 30
0.0
  0
SPLINE
  5
135
100
AcDbEntity
  8
0
 62
7
100
AcDbSpline
 70
8
 71
3
 72
8
 73
4
 74
0
 40
0
 40
0
 40
0
 40
0
 40
1
 40
1
 40
1
 40
1
 10
211.718345
 20
89.759695
 30
0.0
 10
211.718345
 20
89.759695
 30
0.0
 10
213.226700
 20
91.268047
 30
0.0
 10
213.226700
 20
91.268047
 30
0.0
  0
SPLINE
  5
136
100
AcDbEntity
  8
0
 62
7
100
AcDbSpline
 70
8
 71
3
 72
8
 73
4
 74
0
 40
0
 40
0
 40
0
 40
0
 40
1
 40
1
 40
1
 40
1
 10
213.226700
 20
91.268047
 30
0.0
 10
213.703042
 20
91.744390
 30
0.0
 10
214.349101
 20
92.011997
 30
0.0
 10
215.022750
 20
92.011997
 30
0.0
  0
SPLINE
  5
137
100
AcDbEntity
  8
0
 62
7
100
AcDbSpline
 70
8
 71
3
 72
8
 73
4
 74
0
 40
0
 40
0
 40
0
 40
0
 40
1
 40
1
 40
1
 40
1
 10
215.022750
 20
92.011997
 30
0.0
 10
215.022750
 20
92.011997
 30
0.0
 10
219.268545
 20
92.011997
 30
0.0
 10
219.268545
 20
92.011997
 30
0.0
  0
SPLINE
  5
138
100
AcDbEntity
  8
0
 62
7
100
AcDbSpline
 70
8
 71
3
 72
8
 73
4
 74
0
 40
0
 40
0
 40
0
 40
0
 40
1
 40
1
 40
1
 40
1
 10
219.268545
 20
92.011997
 30
0.0
 10
219.942196
 20
92.011997
 30
0.0
 10
220.588255
 20
91.744391
 30
0.0
 10
221.064598
 20
91.268047
 30
0.0
  0
SPLINE
  5
139
100
AcDbEntity
  8
0
 62
7
100
AcDbSpline
 70
8
 71
3
 72
8
 73
4
 74
0
 40
0
 40
0
 40
0
 40
0
 40
1
 40
1
 40
1
 40
1
 10
221.064598
 20
91.268047
 30
0.0
 10
221.064598
 20
91.268047
 30
0.0
 10
222.572950
 20
89.759695
 30
0.0
 10
222.572950
 20
89.759695
 30
0.0
  0
SPLINE
  5
13a
100
AcDbEntity
  8
0
 62
7
100
AcDbSpline
 70
8
 71
3
 72
8
 73
4
 74
0
 40
0
 40
0
 40
0
 40
0
 40
1
 40
1
 40
1
 40
1
 10
222.572950
 20
89.759695
 30
0.0
 10
223.049293
 20
89.283352
 30
0.0
 10
223.695352
 20
89.015745
 30
0.0
 10
224.369003
 20
89.015745
 30
0.0
  0
LWPOLYLINE
  5
13b
100
AcDbEntity
  8
0
 62
7
100
AcDbPolyline
 90
2
 70
0
 10
157.454830
 20
89.015745
 30
0.0
 10
209.922295
 20
89.015745
 30
0.0
  0
SPLINE
  5
13c
100
AcDbEntity
  8
0
 62
7
100
AcDbSpline
 70
8
 71
3
 72
8
 73
4
 74
0
 40
0
 40
0
 40
0
 40
0
 40
1
 40
1
 40
1
 40
1
 10
273.422295
 20
89.015745
 30
0.0
 10
274.095945
 20
89.015745
 30
0.0
 10
274.742003
 20
89.283352
 30
0.0
 10
275.218345
 20
89.759695
 30
0.0
  0
SPLINE
  5
13d
100
AcDbEntity
  8
0
 62
7
100
AcDbSpline
 70
8
 71
3
 72
8
 73
4
 74
0
 40
0
 40
0
 40
0
 40
0
 40
1
 40
1
 40
1
 40
1
 10
275.218345
 20
89.759695
 30
0.0
 10
275.218345
 20
89.759695
 30
0.0
 10
276.726700
 20
91.268047
 30
0.0
 10
276.726700
 20
91.268047
 30
0.0
  0
SPLINE
  5
13e
100
AcDbEntity
  8
0
 62
7
100
AcDbSpline
 70
8
 71
3
 72
8
 73
4
 74
0
 40
0
 40
0
 40
0
 40
0
 40
1
 40
1
 40
1
 40
1
 10
276.726700
 20
91.268047
 30
0.0
 10
277.203042
 20
91.744390
 30
0.0
 10
277.849101
 20
92.011997
 30
0.0
 10
278.522750
 20
92.011997
 30
0.0
  0
SPLINE
  5
13f
100
AcDbEntity
  8
0
 62
7
100
AcDbSpline
 70
8
 71
3
 72
8
 73
4
 74
0
 40
0
 40
0
 40
0
 40
0
 40
1
 40
1
 40
1
 40
1
 10
278.522750
 20
92.011997
 30
0.0
 10
278.522750
 20
92.011997
 30
0.0
 10
282.768545
 20
92.011997
 30
0.0
 10
282.768545
 20
92.011997
 30
0.0
  0
SPLINE
  5
140
100
AcDbEntity
  8
0
 62
7
100
AcDbSpline
 70
8
 71
3
 72
8
 73
4
 74
0
 40
0
 40
0
 40
0
 40
0
 40
1
 40
1
 40
1
 40
1
 10
282.768545
 20
92.011997
 30
0.0
 10
283.442196
 20
92.011997
 30
0.0
 10
284.088255
 20
91.744391
 30
0.0
 10
284.564598
 20
91.268047
 30
0.0
  0
SPLINE
  5
141
100
AcDbEntity
  8
0
 62
7
100
AcDbSpline
 70
8
 71
3
 72
8
 73
4
 74
0
 40
0
 40
0
 40
0
 40
0
 40
1
 40
1
 40
1
 40
1
 10
284.564598
 20
91.268047
 30
0.0
 10
284.564598
 20
91.268047
 30
0.0
 10
286.072950
 20
89.759695
 30
0.0
 10
286.072950
 20
89.759695
 30
0.0
  0
SPLINE
  5
142
100
AcDbEntity
  8
0
 62
7
100
AcDbSpline
 70
8
 71
3
 72
8
 73
4
 74
0
 40
0
 40
0
 40
0
 40
0
 40
1
 40
1
 40
1
 40
1
 10
286.072950
 20
89.759695
 30
0.0
 10
286.549293
 20
89.283352
 30
0.0
 10
287.195352
 20
89.015745
 30
0.0
 10
287.869003
 20
89.015745
 30
0.0
  0
LWPOLYLINE
  5
143
100
AcDbEntity
  8
0
 62
7
100
AcDbPolyline
 90
2
 70
0
 10
224.369003
 20
89.015745
 30
0.0
 10
273.422295
 20
89.015745
 30
0.0
  0
SPLINE
  5
144
100
AcDbEntity
  8
0
 62
7
100
AcDbSpline
 70
8
 71
3
 72
8
 73
4
 74
0
 40
0
 40
0
 40
0
 40
0
 40
1
 40
1
 40
1
 40
1
 10
297.790649
 20
89.015745
 30
0.0
 10
299.193452
 20
89.015745
 30
0.0
 10
300.330649
 20
87.878548
 30
0.0
 10
300.330649
 20
86.475745
 30
0.0
  0
SPLINE
  5
145
100
AcDbEntity
  8
0
 62
7
100
AcDbSpline
 70
8
 71
3
 72
8
 73
4
 74
0
 40
0
 40
0
 40
0
 40
0
 40
1
 40
1
 40
1
 40
1
 10
300.330649
 20
86.475745
 30
0.0
 10
300.330649
 20
86.475745
 30
0.0
 10
300.330649
 20
10.842421
 30
0.0
 10
300.330649
 20
10.842421
 30
0.0
  0
SPLINE
  5
146
100
AcDbEntity
  8
0
 62
7
100
AcDbSpline
 70
8
 71
3
 72
8
 73
4
 74
0
 40
0
 40
0
 40
0
 40
0
 40
1
 40
1
 40
1
 40
1
 10
300.330649
 20
10.842421
 30
0.0
 10
300.330647
 20
10.555929
 30
0.0
 10
300.282177
 20
10.271501
 30
0.0
 10
300.187290
 20
10.001179
 30
0.0
  0
SPLINE
  5
147
100
AcDbEntity
  8
0
 62
7
100
AcDbSpline
 70
8
 71
3
 72
8
 73
4
 74
0
 40
0
 40
0
 40
0
 40
0
 40
1
 40
1
 40
1
 40
1
 10
300.187290
 20
10.001179
 30
0.0
 10
300.139861
 20
9.866057
 30
0.0
 10
300.037603
 20
9.757230
 30
0.0
 10
299.905692
 20
9.701490
 30
0.0
  0
SPLINE
  5
148
100
AcDbEntity
  8
0
 62
7
100
AcDbSpline
 70
8
 71
3
 72
8
 73
4
 74
0
 40
0
 40
0
 40
0
 40
0
 40
1
 40
1
 40
1
 40
1
 10
299.905692
 20
9.701490
 30
0.0
 10
299.773781
 20
9.645750
 30
0.0
 10
299.624471
 20
9.648275
 30
0.0
 10
299.494520
 20
9.708444
 30
0.0
  0
SPLINE
  5
149
100
AcDbEntity
  8
0
 62
7
100
AcDbSpline
 70
8
 71
3
 72
8
 73
4
 74
0
 40
0
 40
0
 40
0
 40
0
 40
1
 40
1
 40
1
 40
1
 10
299.494520
 20
9.708444
 30
0.0
 10
298.414327
 20
10.208589
 30
0.0
 10
297.135374
 20
9.962683
 30
0.0
 10
296.317669
 20
9.097626
 30
0.0
  0
SPLINE
  5
14a
100
AcDbEntity
  8
0
 62
7
100
AcDbSpline
 70
8
 71
3
 72
8
 73
4
 74
0
 40
0
 40
0
 40
0
 40
0
 40
1
 40
1
 40
1
 40
1
 10
296.317669
 20
9.097626
 30
0.0
 10
295.837884
 20
8.590043
 30
0.0
 10
295.170255
 20
8.302427
 30
0.0
 10
294.471804
 20
8.302421
 30
0.0
  0
LWPOLYLINE
  5
14b
100
AcDbEntity
  8
0
 62
7
100
AcDbPolyline
 90
2
 70
0
 10
287.869003
 20
89.015745
 30
0.0
 10
297.790649
 20
89.015745
 30
0.0
  0
SPLINE
  5
14c
100
AcDbEntity
  8
0
 62
7
100
AcDbSpline
 70
8
 71
3
 72
8
 73
4
 74
0
 40
0
 40
0
 40
0
 40
0
 40
1
 40
1
 40
1
 40
1
 10
287.869003
 20
8.302421
 30
0.0
 10
287.195355
 20
8.302427
 30
0.0
 10
286.549296
 20
8.034828
 30
0.0
 10
286.072950
 20
7.558492
 30
0.0
  0
LWPOLYLINE
  5
14d
100
AcDbEntity
  8
0
 62
7
100
AcDbPolyline
 90
2
 70
0
 10
294.471804
 20
8.302421
 30
0.0
 10
287.869003
 20
8.302421
 30
0.0
  0
SPLINE
  5
14e
100
AcDbEntity
  8
0
 62
7
100
AcDbSpline
 70
8
 71
3
 72
8
 73
4
 74
0
 40
0
 40
0
 40
0
 40
0
 40
1
 40
1
 40
1
 40
1
 10
284.564598
 20
6.050129
 30
0.0
 10
284.088256
 20
5.573784
 30
0.0
 10
283.442197
 20
5.306175
 30
0.0
 10
282.768545
 20
5.306174
 30
0.0
  0
LWPOLYLINE
  5
14f
100
AcDbEntity
  8
0
 62
7
100
AcDbPolyline
 90
2
 70
0
 10
286.072950
 20
7.558492
 30
0.0
 10
284.564598
 20
6.050129
 30
0.0
  0
SPLINE
  5
150
100
AcDbEntity
  8
0
 62
7
100
AcDbSpline
 70
8
 71
3
 72
8
 73
4
 74
0
 40
0
 40
0
 40
0
 40
0
 40
1
 40
1
 40
1
 40
1
 10
278.522750
 20
5.306174
 30
0.0
 10
277.849100
 20
5.306176
 30
0.0
 10
277.203041
 20
5.573785
 30
0.0
 10
276.726700
 20
6.050129
 30
0.0
  0
LWPOLYLINE
  5
151
100
AcDbEntity
  8
0
 62
7
100
AcDbPolyline
 90
2
 70
0
 10
282.768545
 20
5.306174
 30
0.0
 10
278.522750
 20
5.306174
 30
0.0
  0
SPLINE
  5
152
100
AcDbEntity
  8
0
 62
7
100
AcDbSpline
 70
8
 71
3
 72
8
 73
4
 74
0
 40
0
 40
0
 40
0
 40
0
 40
1
 40
1
 40
1
 40
1
 10
275.218345
 20
7.558492
 30
0.0
 10
274.742000
 20
8.034827
 30
0.0
 10
274.095942
 20
8.302426
 30
0.0
 10
273.422295
 20
8.302421
 30
0.0
  0
LWPOLYLINE
  5
153
100
AcDbEntity
  8
0
 62
7
100
AcDbPolyline
 90
2
 70
0
 10
276.726700
 20
6.050129
 30
0.0
 10
275.218345
 20
7.558492
 30
0.0
  0
SPLINE
  5
154
100
AcDbEntity
  8
0
 62
7
100
AcDbSpline
 70
8
 71
3
 72
8
 73
4
 74
0
 40
0
 40
0
 40
0
 40
0
 40
1
 40
1
 40
1
 40
1
 10
265.489203
 20
8.302421
 30
0.0
 10
263.468255
 20
8.302423
 30
0.0
 10
261.530079
 20
7.499606
 30
0.0
 10
260.101051
 20
6.070581
 30
0.0
  0
LWPOLYLINE
  5
155
100
AcDbEntity
  8
0
 62
7
100
AcDbPolyline
 90
2
 70
0
 10
273.422295
 20
8.302421
 30
0.0
 10
265.489203
 20
8.302421
 30
0.0
  0
SPLINE
  5
156
100
AcDbEntity
  8
0
 62
7
100
AcDbSpline
 70
8
 71
3
 72
8
 73
4
 74
0
 40
0
 40
0
 40
0
 40
0
 40
1
 40
1
 40
1
 40
1
 10
258.110379
 20
4.079909
 30
0.0
 10
257.634037
 20
3.603564
 30
0.0
 10
256.987978
 20
3.335955
 30
0.0
 10
256.314326
 20
3.335954
 30
0.0
  0
LWPOLYLINE
  5
157
100
AcDbEntity
  8
0
 62
7
100
AcDbPolyline
 90
2
 70
0
 10
260.101051
 20
6.070581
 30
0.0
 10
258.110379
 20
4.079909
 30
0.0
  0
SPLINE
  5
158
100
AcDbEntity
  8
0
 62
7
100
AcDbSpline
 70
8
 71
3
 72
8
 73
4
 74
0
 40
0
 40
0
 40
0
 40
0
 40
1
 40
1
 40
1
 40
1
 10
233.837739
 20
3.335954
 30
0.0
 10
233.164092
 20
3.335960
 30
0.0
 10
232.518033
 20
3.068360
 30
0.0
 10
232.041687
 20
2.592025
 30
0.0
  0
LWPOLYLINE
  5
159
100
AcDbEntity
  8
0
 62
7
100
AcDbPolyline
 90
2
 70
0
 10
256.314326
 20
3.335954
 30
0.0
 10
233.837739
 20
3.335954
 30
0.0
  0
SPLINE
  5
15a
100
AcDbEntity
  8
0
 62
7
100
AcDbSpline
 70
8
 71
3
 72
8
 73
4
 74
0
 40
0
 40
0
 40
0
 40
0
 40
1
 40
1
 40
1
 40
1
 10
230.325991
 20
0.876334
 30
0.0
 10
229.849649
 20
0.399989
 30
0.0
 10
229.203590
 20
0.132380
 30
0.0
 10
228.529938
 20
0.132379
 30
0.0
  0
SPLINE
  5
15b
100
AcDbEntity
  8
0
 62
7
100
AcDbSpline
 70
8
 71
3
 72
8
 73
4
 74
0
 40
0
 40
0
 40
0
 40
0
 40
1
 40
1
 40
1
 40
1
 10
228.529938
 20
0.132379
 30
0.0
 10
228.529938
 20
0.132379
 30
0.0
 10
224.284143
 20
0.132379
 30
0.0
 10
224.284143
 20
0.132379
 30
0.0
  0
SPLINE
  5
15c
100
AcDbEntity
  8
0
 62
7
100
AcDbSpline
 70
8
 71
3
 72
8
 73
4
 74
0
 40
0
 40
0
 40
0
 40
0
 40
1
 40
1
 40
1
 40
1
 10
224.284143
 20
0.132379
 30
0.0
 10
223.610493
 20
0.132381
 30
0.0
 10
222.964434
 20
0.399990
 30
0.0
 10
222.488093
 20
0.876334
 30
0.0
  0
LWPOLYLINE
  5
15d
100
AcDbEntity
  8
0
 62
7
100
AcDbPolyline
 90
2
 70
0
 10
232.041687
 20
2.592025
 30
0.0
 10
230.325991
 20
0.876334
 30
0.0
  0
SPLINE
  5
15e
100
AcDbEntity
  8
0
 62
7
100
AcDbSpline
 70
8
 71
3
 72
8
 73
4
 74
0
 40
0
 40
0
 40
0
 40
0
 40
1
 40
1
 40
1
 40
1
 10
220.772397
 20
2.592025
 30
0.0
 10
220.296051
 20
3.068360
 30
0.0
 10
219.649992
 20
3.335960
 30
0.0
 10
218.976345
 20
3.335954
 30
0.0
  0
LWPOLYLINE
  5
15f
100
AcDbEntity
  8
0
 62
7
100
AcDbPolyline
 90
2
 70
0
 10
222.488093
 20
0.876334
 30
0.0
 10
220.772397
 20
2.592025
 30
0.0
  0
SPLINE
  5
160
100
AcDbEntity
  8
0
 62
7
100
AcDbSpline
 70
8
 71
3
 72
8
 73
4
 74
0
 40
0
 40
0
 40
0
 40
0
 40
1
 40
1
 40
1
 40
1
 10
196.546486
 20
3.335954
 30
0.0
 10
195.872836
 20
3.335956
 30
0.0
 10
195.226777
 20
3.603565
 30
0.0
 10
194.750436
 20
4.079909
 30
0.0
  0
LWPOLYLINE
  5
161
100
AcDbEntity
  8
0
 62
7
100
AcDbPolyline
 90
2
 70
0
 10
218.976345
 20
3.335954
 30
0.0
 10
196.546486
 20
3.335954
 30
0.0
  0
SPLINE
  5
162
100
AcDbEntity
  8
0
 62
7
100
AcDbSpline
 70
8
 71
3
 72
8
 73
4
 74
0
 40
0
 40
0
 40
0
 40
0
 40
1
 40
1
 40
1
 40
1
 10
192.759764
 20
6.070581
 30
0.0
 10
191.330736
 20
7.499606
 30
0.0
 10
189.392560
 20
8.302423
 30
0.0
 10
187.371612
 20
8.302421
 30
0.0
  0
LWPOLYLINE
  5
163
100
AcDbEntity
  8
0
 62
7
100
AcDbPolyline
 90
2
 70
0
 10
194.750436
 20
4.079909
 30
0.0
 10
192.759764
 20
6.070581
 30
0.0
  0
SPLINE
  5
164
100
AcDbEntity
  8
0
 62
7
100
AcDbSpline
 70
8
 71
3
 72
8
 73
4
 74
0
 40
0
 40
0
 40
0
 40
0
 40
1
 40
1
 40
1
 40
1
 10
157.454830
 20
8.302421
 30
0.0
 10
156.781184
 20
8.302426
 30
0.0
 10
156.135126
 20
8.034827
 30
0.0
 10
155.658780
 20
7.558492
 30
0.0
  0
LWPOLYLINE
  5
165
100
AcDbEntity
  8
0
 62
7
100
AcDbPolyline
 90
2
 70
0
 10
187.371612
 20
8.302421
 30
0.0
 10
157.454830
 20
8.302421
 30
0.0
  0
SPLINE
  5
166
100
AcDbEntity
  8
0
 62
7
100
AcDbSpline
 70
8
 71
3
 72
8
 73
4
 74
0
 40
0
 40
0
 40
0
 40
0
 40
1
 40
1
 40
1
 40
1
 10
154.150425
 20
6.050129
 30
0.0
 10
153.674084
 20
5.573785
 30
0.0
 10
153.028026
 20
5.306176
 30
0.0
 10
152.354375
 20
5.306174
 30
0.0
  0
LWPOLYLINE
  5
167
100
AcDbEntity
  8
0
 62
7
100
AcDbPolyline
 90
2
 70
0
 10
155.658780
 20
7.558492
 30
0.0
 10
154.150425
 20
6.050129
 30
0.0
  0
SPLINE
  5
168
100
AcDbEntity
  8
0
 62
7
100
AcDbSpline
 70
8
 71
3
 72
8
 73
4
 74
0
 40
0
 40
0
 40
0
 40
0
 40
1
 40
1
 40
1
 40
1
 10
148.108580
 20
5.306174
 30
0.0
 10
147.434929
 20
5.306175
 30
0.0
 10
146.788869
 20
5.573784
 30
0.0
 10
146.312528
 20
6.050129
 30
0.0
  0
LWPOLYLINE
  5
169
100
AcDbEntity
  8
0
 62
7
100
AcDbPolyline
 90
2
 70
0
 10
152.354375
 20
5.306174
 30
0.0
 10
148.108580
 20
5.306174
 30
0.0
  0
SPLINE
  5
16a
100
AcDbEntity
  8
0
 62
7
100
AcDbSpline
 70
8
 71
3
 72
8
 73
4
 74
0
 40
0
 40
0
 40
0
 40
0
 40
1
 40
1
 40
1
 40
1
 10
144.804172
 20
7.558492
 30
0.0
 10
144.327827
 20
8.034827
 30
0.0
 10
143.681769
 20
8.302426
 30
0.0
 10
143.008122
 20
8.302421
 30
0.0
  0
LWPOLYLINE
  5
16b
100
AcDbEntity
  8
0
 62
7
100
AcDbPolyline
 90
2
 70
0
 10
146.312528
 20
6.050129
 30
0.0
 10
144.804172
 20
7.558492
 30
0.0
  0
SPLINE
  5
16c
100
AcDbEntity
  8
0
 62
7
100
AcDbSpline
 70
8
 71
3
 72
8
 73
4
 74
0
 40
0
 40
0
 40
0
 40
0
 40
1
 40
1
 40
1
 40
1
 10
90.540636
 20
8.302421
 30
0.0
 10
89.866989
 20
8.302427
 30
0.0
 10
89.220930
 20
8.034828
 30
0.0
 10
88.744584
 20
7.558492
 30
0.0
  0
LWPOLYLINE
  5
16d
100
AcDbEntity
  8
0
 62
7
100
AcDbPolyline
 90
2
 70
0
 10
143.008122
 20
8.302421
 30
0.0
 10
90.540636
 20
8.302421
 30
0.0
  0
SPLINE
  5
16e
100
AcDbEntity
  8
0
 62
7
100
AcDbSpline
 70
8
 71
3
 72
8
 73
4
 74
0
 40
0
 40
0
 40
0
 40
0
 40
1
 40
1
 40
1
 40
1
 10
87.236231
 20
6.050129
 30
0.0
 10
86.759890
 20
5.573784
 30
0.0
 10
86.113830
 20
5.306175
 30
0.0
 10
85.440179
 20
5.306174
 30
0.0
  0
LWPOLYLINE
  5
16f
100
AcDbEntity
  8
0
 62
7
100
AcDbPolyline
 90
2
 70
0
 10
88.744584
 20
7.558492
 30
0.0
 10
87.236231
 20
6.050129
 30
0.0
  0
SPLINE
  5
170
100
AcDbEntity
  8
0
 62
7
100
AcDbSpline
 70
8
 71
3
 72
8
 73
4
 74
0
 40
0
 40
0
 40
0
 40
0
 40
1
 40
1
 40
1
 40
1
 10
81.194383
 20
5.306174
 30
0.0
 10
80.520733
 20
5.306176
 30
0.0
 10
79.874675
 20
5.573785
 30
0.0
 10
79.398334
 20
6.050129
 30
0.0
  0
SPLINE
  5
171
100
AcDbEntity
  8
0
 62
7
100
AcDbSpline
 70
8
 71
3
 72
8
 73
4
 74
0
 40
0
 40
0
 40
0
 40
0
 40
1
 40
1
 40
1
 40
1
 10
79.398334
 20
6.050129
 30
0.0
 10
79.398334
 20
6.050129
 30
0.0
 10
77.889978
 20
7.558492
 30
0.0
 10
77.889978
 20
7.558492
 30
0.0
  0
SPLINE
  5
172
100
AcDbEntity
  8
0
 62
7
100
AcDbSpline
 70
8
 71
3
 72
8
 73
4
 74
0
 40
0
 40
0
 40
0
 40
0
 40
1
 40
1
 40
1
 40
1
 10
77.889978
 20
7.558492
 30
0.0
 10
77.413633
 20
8.034827
 30
0.0
 10
76.767575
 20
8.302426
 30
0.0
 10
76.093929
 20
8.302421
 30
0.0
  0
SPLINE
  5
173
100
AcDbEntity
  8
0
 62
7
100
AcDbSpline
 70
8
 71
3
 72
8
 73
4
 74
0
 40
0
 40
0
 40
0
 40
0
 40
1
 40
1
 40
1
 40
1
 10
76.093929
 20
8.302421
 30
0.0
 10
76.093929
 20
8.302421
 30
0.0
 10
27.040628
 20
8.302421
 30
0.0
 10
27.040628
 20
8.302421
 30
0.0
  0
SPLINE
  5
174
100
AcDbEntity
  8
0
 62
7
100
AcDbSpline
 70
8
 71
3
 72
8
 73
4
 74
0
 40
0
 40
0
 40
0
 40
0
 40
1
 40
1
 40
1
 40
1
 10
27.040628
 20
8.302421
 30
0.0
 10
26.366984
 20
8.302425
 30
0.0
 10
25.720928
 20
8.034826
 30
0.0
 10
25.244584
 20
7.558492
 30
0.0
  0
LWPOLYLINE
  5
175
100
AcDbEntity
  8
0
 62
7
100
AcDbPolyline
 90
2
 70
0
 10
85.440179
 20
5.306174
 30
0.0
 10
81.194383
 20
5.306174
 30
0.0
  0
SPLINE
  5
176
100
AcDbEntity
  8
0
 62
7
100
AcDbSpline
 70
8
 71
3
 72
8
 73
4
 74
0
 40
0
 40
0
 40
0
 40
0
 40
1
 40
1
 40
1
 40
1
 10
23.736221
 20
6.050129
 30
0.0
 10
23.259881
 20
5.573786
 30
0.0
 10
22.613825
 20
5.306177
 30
0.0
 10
21.940176
 20
5.306174
 30
0.0
  0
LWPOLYLINE
  5
177
100
AcDbEntity
  8
0
 62
7
100
AcDbPolyline
 90
2
 70
0
 10
25.244584
 20
7.558492
 30
0.0
 10
23.736221
 20
6.050129
 30
0.0
  0
SPLINE
  5
178
100
AcDbEntity
  8
0
 62
7
100
AcDbSpline
 70
8
 71
3
 72
8
 73
4
 74
0
 40
0
 40
0
 40
0
 40
0
 40
1
 40
1
 40
1
 40
1
 10
17.694381
 20
5.306174
 30
0.0
 10
17.020732
 20
5.306177
 30
0.0
 10
16.374676
 20
5.573786
 30
0.0
 10
15.898336
 20
6.050129
 30
0.0
  0
LWPOLYLINE
  5
179
100
AcDbEntity
  8
0
 62
7
100
AcDbPolyline
 90
2
 70
0
 10
21.940176
 20
5.306174
 30
0.0
 10
17.694381
 20
5.306174
 30
0.0
  0
SPLINE
  5
17a
100
AcDbEntity
  8
0
 62
7
100
AcDbSpline
 70
8
 71
3
 72
8
 73
4
 74
0
 40
0
 40
0
 40
0
 40
0
 40
1
 40
1
 40
1
 40
1
 10
14.389973
 20
7.558492
 30
0.0
 10
13.913629
 20
8.034826
 30
0.0
 10
13.267573
 20
8.302425
 30
0.0
 10
12.593929
 20
8.302421
 30
0.0
  0
LWPOLYLINE
  5
17b
100
AcDbEntity
  8
0
 62
7
100
AcDbPolyline
 90
2
 70
0
 10
15.898336
 20
6.050129
 30
0.0
 10
14.389973
 20
7.558492
 30
0.0
  0
SPLINE
  5
17c
100
AcDbEntity
  8
0
 62
7
100
AcDbSpline
 70
8
 71
3
 72
8
 73
4
 74
0
 40
0
 40
0
 40
0
 40
0
 40
1
 40
1
 40
1
 40
1
 10
5.991119
 20
8.302421
 30
0.0
 10
5.292668
 20
8.302427
 30
0.0
 10
4.625039
 20
8.590043
 30
0.0
 10
4.145254
 20
9.097626
 30
0.0
  0
SPLINE
  5
17d
100
AcDbEntity
  8
0
 62
7
100
AcDbSpline
 70
8
 71
3
 72
8
 73
4
 74
0
 40
0
 40
0
 40
0
 40
0
 40
1
 40
1
 40
1
 40
1
 10
4.145254
 20
9.097626
 30
0.0
 10
3.327549
 20
9.962683
 30
0.0
 10
2.048595
 20
10.208589
 30
0.0
 10
0.968401
 20
9.708444
 30
0.0
  0
SPLINE
  5
17e
100
AcDbEntity
  8
0
 62
7
100
AcDbSpline
 70
8
 71
3
 72
8
 73
4
 74
0
 40
0
 40
0
 40
0
 40
0
 40
1
 40
1
 40
1
 40
1
 10
0.968401
 20
9.708444
 30
0.0
 10
0.838452
 20
9.648279
 30
0.0
 10
0.689145
 20
9.645756
 30
0.0
 10
0.557236
 20
9.701495
 30
0.0
  0
SPLINE
  5
17f
100
AcDbEntity
  8
0
 62
7
100
AcDbSpline
 70
8
 71
3
 72
8
 73
4
 74
0
 40
0
 40
0
 40
0
 40
0
 40
1
 40
1
 40
1
 40
1
 10
0.557236
 20
9.701495
 30
0.0
 10
0.425328
 20
9.757235
 30
0.0
 10
0.323073
 20
9.866060
 30
0.0
 10
0.275643
 20
10.001179
 30
0.0
  0
LWPOLYLINE
  5
180
100
AcDbEntity
  8
0
 62
7
100
AcDbPolyline
 90
2
 70
0
 10
12.593929
 20
8.302421
 30
0.0
 10
5.991119
 20
8.302421
 30
0.0
  0
LWPOLYLINE
  5
181
100
AcDbEntity
  8
0
 62
7
100
AcDbPolyline
 90
1
 70
1
 10
0.275643
 20
10.001179
 30
0.0
  0
LWPOLYLINE
  5
182
100
AcDbEntity
  8
0
 62
7
100
AcDbPolyline
 90
4
 70
1
 10
38.455230
 20
32.134897
 30
0.0
 10
52.455233
 20
32.134897
 30
0.0
 10
52.455233
 20
46.135245
 30
0.0
 10
38.455230
 20
46.135245
 30
0.0
  0
LWPOLYLINE
  5
183
100
AcDbEntity
  8
0
 62
7
100
AcDbPolyline
 90
4
 70
1
 10
64.361473
 20
27.085245
 30
0.0
 10
50.361480
 20
27.085245
 30
0.0
 10
50.361480
 20
13.084897
 30
0.0
 10
64.361473
 20
13.084897
 30
0.0
  0
LWPOLYLINE
  5
184
100
AcDbEntity
  8
0
 62
7
100
AcDbPolyline
 90
4
 70
1
 10
195.618444
 20
84.234888
 30
0.0
 10
195.618444
 20
70.234900
 30
0.0
 10
209.618429
 20
70.234900
 30
0.0
 10
209.618429
 20
84.234888
 30
0.0
  0
LWPOLYLINE
  5
185
100
AcDbEntity
  8
0
 62
7
100
AcDbPolyline
 90
4
 70
1
 10
176.568444
 20
84.234888
 30
0.0
 10
176.568444
 20
70.234900
 30
0.0
 10
190.568429
 20
70.234900
 30
0.0
 10
190.568429
 20
84.234888
 30
0.0
  0
SPLINE
  5
186
100
AcDbEntity
  8
0
 62
7
100
AcDbSpline
 70
8
 71
3
 72
8
 73
4
 74
0
 40
0
 40
0
 40
0
 40
0
 40
1
 40
1
 40
1
 40
1
 10
20.802838
 20
7.033268
 30
0.0
 10
20.804265
 20
7.391480
 30
0.0
 10
20.613981
 20
7.723094
 30
0.0
 10
20.303995
 20
7.902613
 30
0.0
  0
SPLINE
  5
187
100
AcDbEntity
  8
0
 62
7
100
AcDbSpline
 70
8
 71
3
 72
8
 73
4
 74
0
 40
0
 40
0
 40
0
 40
0
 40
1
 40
1
 40
1
 40
1
 10
20.303995
 20
7.902613
 30
0.0
 10
19.994010
 20
8.082133
 30
0.0
 10
19.611680
 20
8.082133
 30
0.0
 10
19.301695
 20
7.902613
 30
0.0
  0
SPLINE
  5
188
100
AcDbEntity
  8
0
 62
7
100
AcDbSpline
 70
8
 71
3
 72
8
 73
4
 74
0
 40
0
 40
0
 40
0
 40
0
 40
1
 40
1
 40
1
 40
1
 10
19.301695
 20
7.902613
 30
0.0
 10
18.991710
 20
7.723094
 30
0.0
 10
18.801425
 20
7.391480
 30
0.0
 10
18.802853
 20
7.033268
 30
0.0
  0
SPLINE
  5
189
100
AcDbEntity
  8
0
 62
7
100
AcDbSpline
 70
8
 71
3
 72
8
 73
4
 74
0
 40
0
 40
0
 40
0
 40
0
 40
1
 40
1
 40
1
 40
1
 10
18.802853
 20
7.033268
 30
0.0
 10
18.801425
 20
6.675056
 30
0.0
 10
18.991710
 20
6.343442
 30
0.0
 10
19.301695
 20
6.163922
 30
0.0
  0
SPLINE
  5
18a
100
AcDbEntity
  8
0
 62
7
100
AcDbSpline
 70
8
 71
3
 72
8
 73
4
 74
0
 40
0
 40
0
 40
0
 40
0
 40
1
 40
1
 40
1
 40
1
 10
19.301695
 20
6.163922
 30
0.0
 10
19.611680
 20
5.984403
 30
0.0
 10
19.994010
 20
5.984403
 30
0.0
 10
20.303995
 20
6.163922
 30
0.0
  0
SPLINE
  5
18b
100
AcDbEntity
  8
0
 62
7
100
AcDbSpline
 70
8
 71
3
 72
8
 73
4
 74
0
 40
0
 40
0
 40
0
 40
0
 40
1
 40
1
 40
1
 40
1
 10
20.303995
 20
6.163922
 30
0.0
 10
20.613981
 20
6.343442
 30
0.0
 10
20.804265
 20
6.675056
 30
0.0
 10
20.802838
 20
7.033268
 30
0.0
  0
LWPOLYLINE
  5
18c
100
AcDbEntity
  8
0
 62
7
100
AcDbPolyline
 90
4
 70
1
 10
157.518444
 20
84.234888
 30
0.0
 10
157.518444
 20
70.234900
 30
0.0
 10
171.518429
 20
70.234900
 30
0.0
 10
171.518429
 20
84.234888
 30
0.0
  0
LWPOLYLINE
  5
18d
100
AcDbEntity
  8
0
 62
7
100
AcDbPolyline
 90
1
 70
1
 10
20.802838
 20
7.033268
 30
0.0
  0
SPLINE
  5
18e
100
AcDbEntity
  8
0
 62
7
100
AcDbSpline
 70
8
 71
3
 72
8
 73
4
 74
0
 40
0
 40
0
 40
0
 40
0
 40
1
 40
1
 40
1
 40
1
 10
20.802838
 20
90.089278
 30
0.0
 10
20.804265
 20
90.447490
 30
0.0
 10
20.613981
 20
90.779104
 30
0.0
 10
20.303995
 20
90.958624
 30
0.0
  0
SPLINE
  5
18f
100
AcDbEntity
  8
0
 62
7
100
AcDbSpline
 70
8
 71
3
 72
8
 73
4
 74
0
 40
0
 40
0
 40
0
 40
0
 40
1
 40
1
 40
1
 40
1
 10
20.303995
 20
90.958624
 30
0.0
 10
19.994010
 20
91.138143
 30
0.0
 10
19.611680
 20
91.138143
 30
0.0
 10
19.301695
 20
90.958624
 30
0.0
  0
SPLINE
  5
190
100
AcDbEntity
  8
0
 62
7
100
AcDbSpline
 70
8
 71
3
 72
8
 73
4
 74
0
 40
0
 40
0
 40
0
 40
0
 40
1
 40
1
 40
1
 40
1
 10
19.301695
 20
90.958624
 30
0.0
 10
18.991710
 20
90.779104
 30
0.0
 10
18.801425
 20
90.447490
 30
0.0
 10
18.802853
 20
90.089278
 30
0.0
  0
SPLINE
  5
191
100
AcDbEntity
  8
0
 62
7
100
AcDbSpline
 70
8
 71
3
 72
8
 73
4
 74
0
 40
0
 40
0
 40
0
 40
0
 40
1
 40
1
 40
1
 40
1
 10
18.802853
 20
90.089278
 30
0.0
 10
18.801425
 20
89.731066
 30
0.0
 10
18.991710
 20
89.399452
 30
0.0
 10
19.301695
 20
89.219933
 30
0.0
  0
SPLINE
  5
192
100
AcDbEntity
  8
0
 62
7
100
AcDbSpline
 70
8
 71
3
 72
8
 73
4
 74
0
 40
0
 40
0
 40
0
 40
0
 40
1
 40
1
 40
1
 40
1
 10
19.301695
 20
89.219933
 30
0.0
 10
19.611680
 20
89.040413
 30
0.0
 10
19.994010
 20
89.040413
 30
0.0
 10
20.303995
 20
89.219933
 30
0.0
  0
SPLINE
  5
193
100
AcDbEntity
  8
0
 62
7
100
AcDbSpline
 70
8
 71
3
 72
8
 73
4
 74
0
 40
0
 40
0
 40
0
 40
0
 40
1
 40
1
 40
1
 40
1
 10
20.303995
 20
89.219933
 30
0.0
 10
20.613981
 20
89.399452
 30
0.0
 10
20.804265
 20
89.731066
 30
0.0
 10
20.802838
 20
90.089278
 30
0.0
  0
LWPOLYLINE
  5
194
100
AcDbEntity
  8
0
 62
7
100
AcDbPolyline
 90
5
 70
1
 10
83.700850
 20
27.096252
 30
0.0
 10
83.700850
 20
13.096248
 30
0.0
 10
97.700835
 20
13.096248
 30
0.0
 10
97.700835
 20
22.396193
 30
0.0
 10
97.700835
 20
27.096252
 30
0.0
  0
LWPOLYLINE
  5
195
100
AcDbEntity
  8
0
 62
7
100
AcDbPolyline
 90
1
 70
1
 10
20.802838
 20
90.089278
 30
0.0
  0
SPLINE
  5
196
100
AcDbEntity
  8
0
 62
7
100
AcDbSpline
 70
8
 71
3
 72
8
 73
4
 74
0
 40
0
 40
0
 40
0
 40
0
 40
1
 40
1
 40
1
 40
1
 10
131.745993
 20
27.530803
 30
0.0
 10
131.745993
 20
27.867629
 30
0.0
 10
131.879796
 20
28.190659
 30
0.0
 10
132.117968
 20
28.428830
 30
0.0
  0
SPLINE
  5
197
100
AcDbEntity
  8
0
 62
7
100
AcDbSpline
 70
8
 71
3
 72
8
 73
4
 74
0
 40
0
 40
0
 40
0
 40
0
 40
1
 40
1
 40
1
 40
1
 10
132.117968
 20
28.428830
 30
0.0
 10
132.356140
 20
28.667001
 30
0.0
 10
132.679170
 20
28.800804
 30
0.0
 10
133.015995
 20
28.800803
 30
0.0
  0
LWPOLYLINE
  5
198
100
AcDbEntity
  8
0
 62
7
100
AcDbPolyline
 90
4
 70
1
 10
38.168077
 20
84.234888
 30
0.0
 10
24.168100
 20
84.234888
 30
0.0
 10
24.168100
 20
70.234900
 30
0.0
 10
38.168077
 20
70.234900
 30
0.0
  0
SPLINE
  5
199
100
AcDbEntity
  8
0
 62
7
100
AcDbSpline
 70
8
 71
3
 72
8
 73
4
 74
0
 40
0
 40
0
 40
0
 40
0
 40
1
 40
1
 40
1
 40
1
 10
138.050839
 20
28.800803
 30
0.0
 10
138.387664
 20
28.800803
 30
0.0
 10
138.710693
 20
28.667000
 30
0.0
 10
138.948864
 20
28.428829
 30
0.0
  0
SPLINE
  5
19a
100
AcDbEntity
  8
0
 62
7
100
AcDbSpline
 70
8
 71
3
 72
8
 73
4
 74
0
 40
0
 40
0
 40
0
 40
0
 40
1
 40
1
 40
1
 40
1
 10
138.948864
 20
28.428829
 30
0.0
 10
139.187036
 20
28.190658
 30
0.0
 10
139.320839
 20
27.867628
 30
0.0
 10
139.320839
 20
27.530803
 30
0.0
  0
SPLINE
  5
19b
100
AcDbEntity
  8
0
 62
7
100
AcDbSpline
 70
8
 71
3
 72
8
 73
4
 74
0
 40
0
 40
0
 40
0
 40
0
 40
1
 40
1
 40
1
 40
1
 10
139.320839
 20
27.530803
 30
0.0
 10
139.320839
 20
27.530803
 30
0.0
 10
139.320839
 20
12.079137
 30
0.0
 10
139.320839
 20
12.079137
 30
0.0
  0
SPLINE
  5
19c
100
AcDbEntity
  8
0
 62
7
100
AcDbSpline
 70
8
 71
3
 72
8
 73
4
 74
0
 40
0
 40
0
 40
0
 40
0
 40
1
 40
1
 40
1
 40
1
 10
139.320839
 20
12.079137
 30
0.0
 10
139.320839
 20
11.742312
 30
0.0
 10
139.187036
 20
11.419282
 30
0.0
 10
138.948864
 20
11.181111
 30
0.0
  0
SPLINE
  5
19d
100
AcDbEntity
  8
0
 62
7
100
AcDbSpline
 70
8
 71
3
 72
8
 73
4
 74
0
 40
0
 40
0
 40
0
 40
0
 40
1
 40
1
 40
1
 40
1
 10
138.948864
 20
11.181111
 30
0.0
 10
138.710693
 20
10.942940
 30
0.0
 10
138.387664
 20
10.809137
 30
0.0
 10
138.050839
 20
10.809137
 30
0.0
  0
LWPOLYLINE
  5
19e
100
AcDbEntity
  8
0
 62
7
100
AcDbPolyline
 90
2
 70
0
 10
133.015995
 20
28.800803
 30
0.0
 10
138.050839
 20
28.800803
 30
0.0
  0
SPLINE
  5
19f
100
AcDbEntity
  8
0
 62
7
100
AcDbSpline
 70
8
 71
3
 72
8
 73
4
 74
0
 40
0
 40
0
 40
0
 40
0
 40
1
 40
1
 40
1
 40
1
 10
133.015995
 20
10.809137
 30
0.0
 10
132.679170
 20
10.809136
 30
0.0
 10
132.356140
 20
10.942939
 30
0.0
 10
132.117968
 20
11.181110
 30
0.0
  0
SPLINE
  5
1a0
100
AcDbEntity
  8
0
 62
7
100
AcDbSpline
 70
8
 71
3
 72
8
 73
4
 74
0
 40
0
 40
0
 40
0
 40
0
 40
1
 40
1
 40
1
 40
1
 10
132.117968
 20
11.181110
 30
0.0
 10
131.879796
 20
11.419281
 30
0.0
 10
131.745993
 20
11.742311
 30
0.0
 10
131.745993
 20
12.079137
 30
0.0
  0
LWPOLYLINE
  5
1a1
100
AcDbEntity
  8
0
 62
7
100
AcDbPolyline
 90
2
 70
0
 10
138.050839
 20
10.809137
 30
0.0
 10
133.015995
 20
10.809137
 30
0.0
  0
LWPOLYLINE
  5
1a2
100
AcDbEntity
  8
0
 62
7
100
AcDbPolyline
 90
2
 70
0
 10
131.745993
 20
12.079137
 30
0.0
 10
131.745993
 20
27.530803
 30
0.0
  0
LWPOLYLINE
  5
1a3
100
AcDbEntity
  8
0
 62
7
100
AcDbPolyline
 90
4
 70
1
 10
221.524327
 20
65.184888
 30
0.0
 10
207.524339
 20
65.184888
 30
0.0
 10
207.524339
 20
51.184897
 30
0.0
 10
221.524327
 20
51.184897
 30
0.0
  0
LWPOLYLINE
  5
1a4
100
AcDbEntity
  8
0
 62
7
100
AcDbPolyline
 90
4
 70
1
 10
262.293444
 20
84.234888
 30
0.0
 10
262.293444
 20
70.234900
 30
0.0
 10
276.293429
 20
70.234900
 30
0.0
 10
276.293429
 20
84.234888
 30
0.0
  0
LWPOLYLINE
  5
1a5
100
AcDbEntity
  8
0
 62
7
100
AcDbPolyline
 90
4
 70
1
 10
281.343444
 20
65.184888
 30
0.0
 10
281.343444
 20
51.184897
 30
0.0
 10
295.343429
 20
51.184897
 30
0.0
 10
295.343429
 20
65.184888
 30
0.0
  0
LWPOLYLINE
  5
1a6
100
AcDbEntity
  8
0
 62
7
100
AcDbPolyline
 90
4
 70
1
 10
243.243444
 20
46.135245
 30
0.0
 10
243.243444
 20
32.134897
 30
0.0
 10
257.242371
 20
32.134897
 30
0.0
 10
257.242371
 20
46.135245
 30
0.0
  0
LWPOLYLINE
  5
1a7
100
AcDbEntity
  8
0
 62
7
100
AcDbPolyline
 90
4
 70
1
 10
138.468089
 20
70.234900
 30
0.0
 10
152.468077
 20
70.234900
 30
0.0
 10
152.468077
 20
84.234888
 30
0.0
 10
138.468089
 20
84.234888
 30
0.0
  0
LWPOLYLINE
  5
1a8
100
AcDbEntity
  8
0
 62
7
100
AcDbPolyline
 90
4
 70
1
 10
133.418429
 20
84.234888
 30
0.0
 10
119.417386
 20
84.234888
 30
0.0
 10
119.417386
 20
70.234900
 30
0.0
 10
133.418429
 20
70.234900
 30
0.0
  0
SPLINE
  5
1a9
100
AcDbEntity
  8
0
 62
7
100
AcDbSpline
 70
8
 71
3
 72
8
 73
4
 74
0
 40
0
 40
0
 40
0
 40
0
 40
1
 40
1
 40
1
 40
1
 10
151.215974
 20
90.089278
 30
0.0
 10
151.215974
 20
90.446544
 30
0.0
 10
151.025375
 20
90.776671
 30
0.0
 10
150.715973
 20
90.955304
 30
0.0
  0
SPLINE
  5
1aa
100
AcDbEntity
  8
0
 62
7
100
AcDbSpline
 70
8
 71
3
 72
8
 73
4
 74
0
 40
0
 40
0
 40
0
 40
0
 40
1
 40
1
 40
1
 40
1
 10
150.715973
 20
90.955304
 30
0.0
 10
150.406572
 20
91.133937
 30
0.0
 10
150.025374
 20
91.133937
 30
0.0
 10
149.715973
 20
90.955304
 30
0.0
  0
SPLINE
  5
1ab
100
AcDbEntity
  8
0
 62
7
100
AcDbSpline
 70
8
 71
3
 72
8
 73
4
 74
0
 40
0
 40
0
 40
0
 40
0
 40
1
 40
1
 40
1
 40
1
 10
149.715973
 20
90.955304
 30
0.0
 10
149.406571
 20
90.776671
 30
0.0
 10
149.215972
 20
90.446544
 30
0.0
 10
149.215972
 20
90.089278
 30
0.0
  0
SPLINE
  5
1ac
100
AcDbEntity
  8
0
 62
7
100
AcDbSpline
 70
8
 71
3
 72
8
 73
4
 74
0
 40
0
 40
0
 40
0
 40
0
 40
1
 40
1
 40
1
 40
1
 10
149.215972
 20
90.089278
 30
0.0
 10
149.215972
 20
89.732012
 30
0.0
 10
149.406571
 20
89.401885
 30
0.0
 10
149.715973
 20
89.223252
 30
0.0
  0
SPLINE
  5
1ad
100
AcDbEntity
  8
0
 62
7
100
AcDbSpline
 70
8
 71
3
 72
8
 73
4
 74
0
 40
0
 40
0
 40
0
 40
0
 40
1
 40
1
 40
1
 40
1
 10
149.715973
 20
89.223252
 30
0.0
 10
150.025374
 20
89.044619
 30
0.0
 10
150.406572
 20
89.044619
 30
0.0
 10
150.715973
 20
89.223252
 30
0.0
  0
SPLINE
  5
1ae
100
AcDbEntity
  8
0
 62
7
100
AcDbSpline
 70
8
 71
3
 72
8
 73
4
 74
0
 40
0
 40
0
 40
0
 40
0
 40
1
 40
1
 40
1
 40
1
 10
150.715973
 20
89.223252
 30
0.0
 10
151.025375
 20
89.401885
 30
0.0
 10
151.215974
 20
89.732012
 30
0.0
 10
151.215974
 20
90.089278
 30
0.0
  0
LWPOLYLINE
  5
1af
100
AcDbEntity
  8
0
 62
7
100
AcDbPolyline
 90
4
 70
1
 10
257.242371
 20
70.234900
 30
0.0
 10
257.242371
 20
84.234888
 30
0.0
 10
243.243444
 20
84.234888
 30
0.0
 10
243.243444
 20
70.234900
 30
0.0
  0
SPLINE
  5
1b0
100
AcDbEntity
  8
0
 62
7
100
AcDbSpline
 70
8
 71
3
 72
8
 73
4
 74
0
 40
0
 40
0
 40
0
 40
0
 40
1
 40
1
 40
1
 40
1
 10
281.660113
 20
90.089278
 30
0.0
 10
281.660113
 20
90.446544
 30
0.0
 10
281.469514
 20
90.776671
 30
0.0
 10
281.160113
 20
90.955304
 30
0.0
  0
SPLINE
  5
1b1
100
AcDbEntity
  8
0
 62
7
100
AcDbSpline
 70
8
 71
3
 72
8
 73
4
 74
0
 40
0
 40
0
 40
0
 40
0
 40
1
 40
1
 40
1
 40
1
 10
281.160113
 20
90.955304
 30
0.0
 10
280.850712
 20
91.133937
 30
0.0
 10
280.469513
 20
91.133937
 30
0.0
 10
280.160112
 20
90.955304
 30
0.0
  0
SPLINE
  5
1b2
100
AcDbEntity
  8
0
 62
7
100
AcDbSpline
 70
8
 71
3
 72
8
 73
4
 74
0
 40
0
 40
0
 40
0
 40
0
 40
1
 40
1
 40
1
 40
1
 10
280.160112
 20
90.955304
 30
0.0
 10
279.850711
 20
90.776671
 30
0.0
 10
279.660112
 20
90.446544
 30
0.0
 10
279.660112
 20
90.089278
 30
0.0
  0
SPLINE
  5
1b3
100
AcDbEntity
  8
0
 62
7
100
AcDbSpline
 70
8
 71
3
 72
8
 73
4
 74
0
 40
0
 40
0
 40
0
 40
0
 40
1
 40
1
 40
1
 40
1
 10
279.660112
 20
90.089278
 30
0.0
 10
279.660112
 20
89.732012
 30
0.0
 10
279.850711
 20
89.401885
 30
0.0
 10
280.160112
 20
89.223252
 30
0.0
  0
SPLINE
  5
1b4
100
AcDbEntity
  8
0
 62
7
100
AcDbSpline
 70
8
 71
3
 72
8
 73
4
 74
0
 40
0
 40
0
 40
0
 40
0
 40
1
 40
1
 40
1
 40
1
 10
280.160112
 20
89.223252
 30
0.0
 10
280.469513
 20
89.044619
 30
0.0
 10
280.850712
 20
89.044619
 30
0.0
 10
281.160113
 20
89.223252
 30
0.0
  0
SPLINE
  5
1b5
100
AcDbEntity
  8
0
 62
7
100
AcDbSpline
 70
8
 71
3
 72
8
 73
4
 74
0
 40
0
 40
0
 40
0
 40
0
 40
1
 40
1
 40
1
 40
1
 10
281.160113
 20
89.223252
 30
0.0
 10
281.469514
 20
89.401885
 30
0.0
 10
281.660113
 20
89.732012
 30
0.0
 10
281.660113
 20
90.089278
 30
0.0
  0
LWPOLYLINE
  5
1b6
100
AcDbEntity
  8
0
 62
7
100
AcDbPolyline
 90
1
 70
1
 10
151.215974
 20
90.089278
 30
0.0
  0
SPLINE
  5
1b7
100
AcDbEntity
  8
0
 62
7
100
AcDbSpline
 70
8
 71
3
 72
8
 73
4
 74
0
 40
0
 40
0
 40
0
 40
0
 40
1
 40
1
 40
1
 40
1
 10
119.043236
 20
12.501094
 30
0.0
 10
119.043236
 20
13.317803
 30
0.0
 10
118.607527
 20
14.072474
 30
0.0
 10
117.900236
 20
14.480828
 30
0.0
  0
SPLINE
  5
1b8
100
AcDbEntity
  8
0
 62
7
100
AcDbSpline
 70
8
 71
3
 72
8
 73
4
 74
0
 40
0
 40
0
 40
0
 40
0
 40
1
 40
1
 40
1
 40
1
 10
117.900236
 20
14.480828
 30
0.0
 10
117.192945
 20
14.889183
 30
0.0
 10
116.321527
 20
14.889183
 30
0.0
 10
115.614236
 20
14.480828
 30
0.0
  0
SPLINE
  5
1b9
100
AcDbEntity
  8
0
 62
7
100
AcDbSpline
 70
8
 71
3
 72
8
 73
4
 74
0
 40
0
 40
0
 40
0
 40
0
 40
1
 40
1
 40
1
 40
1
 10
115.614236
 20
14.480828
 30
0.0
 10
114.906945
 20
14.072474
 30
0.0
 10
114.471236
 20
13.317803
 30
0.0
 10
114.471236
 20
12.501094
 30
0.0
  0
SPLINE
  5
1ba
100
AcDbEntity
  8
0
 62
7
100
AcDbSpline
 70
8
 71
3
 72
8
 73
4
 74
0
 40
0
 40
0
 40
0
 40
0
 40
1
 40
1
 40
1
 40
1
 10
114.471236
 20
12.501094
 30
0.0
 10
114.471236
 20
11.684385
 30
0.0
 10
114.906945
 20
10.929715
 30
0.0
 10
115.614236
 20
10.521360
 30
0.0
  0
SPLINE
  5
1bb
100
AcDbEntity
  8
0
 62
7
100
AcDbSpline
 70
8
 71
3
 72
8
 73
4
 74
0
 40
0
 40
0
 40
0
 40
0
 40
1
 40
1
 40
1
 40
1
 10
115.614236
 20
10.521360
 30
0.0
 10
116.321527
 20
10.113005
 30
0.0
 10
117.192945
 20
10.113005
 30
0.0
 10
117.900236
 20
10.521360
 30
0.0
  0
SPLINE
  5
1bc
100
AcDbEntity
  8
0
 62
7
100
AcDbSpline
 70
8
 71
3
 72
8
 73
4
 74
0
 40
0
 40
0
 40
0
 40
0
 40
1
 40
1
 40
1
 40
1
 10
117.900236
 20
10.521360
 30
0.0
 10
118.607527
 20
10.929715
 30
0.0
 10
119.043236
 20
11.684385
 30
0.0
 10
119.043236
 20
12.501094
 30
0.0
  0
LWPOLYLINE
  5
1bd
100
AcDbEntity
  8
0
 62
7
100
AcDbPolyline
 90
1
 70
1
 10
281.660113
 20
90.089278
 30
0.0
  0
LWPOLYLINE
  5
1be
100
AcDbEntity
  8
0
 62
7
100
AcDbPolyline
 90
1
 70
1
 10
119.043236
 20
12.501094
 30
0.0
  0
LWPOLYLINE
  5
1bf
100
AcDbEntity
  8
0
 62
7
100
AcDbPolyline
 90
4
 70
1
 10
276.293429
 20
32.134897
 30
0.0
 10
276.293429
 20
46.135245
 30
0.0
 10
262.293444
 20
46.135245
 30
0.0
 10
262.293444
 20
32.134897
 30
0.0
  0
LWPOLYLINE
  5
1c0
100
AcDbEntity
  8
0
 62
7
100
AcDbPolyline
 90
5
 70
1
 10
154.846025
 20
13.096248
 30
0.0
 10
154.846025
 20
27.096252
 30
0.0
 10
140.846037
 20
27.096252
 30
0.0
 10
140.846037
 20
22.396193
 30
0.0
 10
140.846037
 20
13.096248
 30
0.0
  0
LWPOLYLINE
  5
1c1
100
AcDbEntity
  8
0
 62
7
100
AcDbPolyline
 90
4
 70
1
 10
193.236136
 20
46.135245
 30
0.0
 10
193.236136
 20
32.134897
 30
0.0
 10
207.236473
 20
32.134897
 30
0.0
 10
207.236473
 20
46.135245
 30
0.0
  0
LWPOLYLINE
  5
1c2
100
AcDbEntity
  8
0
 62
7
100
AcDbPolyline
 90
4
 70
1
 10
171.805238
 20
32.134897
 30
0.0
 10
185.805577
 20
32.134897
 30
0.0
 10
185.805577
 20
46.135245
 30
0.0
 10
171.805238
 20
46.135245
 30
0.0
  0
LWPOLYLINE
  5
1c3
100
AcDbEntity
  8
0
 62
7
100
AcDbPolyline
 90
4
 70
1
 10
233.430577
 20
8.322053
 30
0.0
 10
233.430577
 20
22.322031
 30
0.0
 10
219.430238
 20
22.322031
 30
0.0
 10
219.430238
 20
8.322053
 30
0.0
  0
LWPOLYLINE
  5
1c4
100
AcDbEntity
  8
0
 62
7
100
AcDbPolyline
 90
4
 70
1
 10
252.480577
 20
8.322053
 30
0.0
 10
252.480577
 20
22.322031
 30
0.0
 10
238.480238
 20
22.322031
 30
0.0
 10
238.480238
 20
8.322053
 30
0.0
  0
LWPOLYLINE
  5
1c5
100
AcDbEntity
  8
0
 62
7
100
AcDbPolyline
 90
4
 70
1
 10
281.343444
 20
27.085245
 30
0.0
 10
281.343444
 20
13.084897
 30
0.0
 10
295.343429
 20
13.084897
 30
0.0
 10
295.343429
 20
27.085245
 30
0.0
  0
LWPOLYLINE
  5
1c6
100
AcDbEntity
  8
0
 62
7
100
AcDbPolyline
 90
4
 70
1
 10
166.755577
 20
46.135245
 30
0.0
 10
152.755238
 20
46.135245
 30
0.0
 10
152.755238
 20
32.134897
 30
0.0
 10
166.755577
 20
32.134897
 30
0.0
  0
LWPOLYLINE
  5
1c7
100
AcDbEntity
  8
0
 62
7
100
AcDbPolyline
 90
4
 70
1
 10
233.430577
 20
41.372031
 30
0.0
 10
219.430238
 20
41.372031
 30
0.0
 10
219.430238
 20
27.372053
 30
0.0
 10
233.430577
 20
27.372053
 30
0.0
  0
LWPOLYLINE
  5
1c8
100
AcDbEntity
  8
0
 62
7
100
AcDbPolyline
 90
4
 70
1
 10
109.605223
 20
32.134897
 30
0.0
 10
109.605223
 20
46.135245
 30
0.0
 10
95.605238
 20
46.135245
 30
0.0
 10
95.605238
 20
32.134897
 30
0.0
  0
SPLINE
  5
1c9
100
AcDbEntity
  8
0
 62
7
100
AcDbSpline
 70
8
 71
3
 72
8
 73
4
 74
0
 40
0
 40
0
 40
0
 40
0
 40
1
 40
1
 40
1
 40
1
 10
281.660113
 20
7.033268
 30
0.0
 10
281.660113
 20
7.390534
 30
0.0
 10
281.469514
 20
7.720661
 30
0.0
 10
281.160113
 20
7.899294
 30
0.0
  0
SPLINE
  5
1ca
100
AcDbEntity
  8
0
 62
7
100
AcDbSpline
 70
8
 71
3
 72
8
 73
4
 74
0
 40
0
 40
0
 40
0
 40
0
 40
1
 40
1
 40
1
 40
1
 10
281.160113
 20
7.899294
 30
0.0
 10
280.850712
 20
8.077927
 30
0.0
 10
280.469513
 20
8.077927
 30
0.0
 10
280.160112
 20
7.899294
 30
0.0
  0
SPLINE
  5
1cb
100
AcDbEntity
  8
0
 62
7
100
AcDbSpline
 70
8
 71
3
 72
8
 73
4
 74
0
 40
0
 40
0
 40
0
 40
0
 40
1
 40
1
 40
1
 40
1
 10
280.160112
 20
7.899294
 30
0.0
 10
279.850711
 20
7.720661
 30
0.0
 10
279.660112
 20
7.390534
 30
0.0
 10
279.660112
 20
7.033268
 30
0.0
  0
SPLINE
  5
1cc
100
AcDbEntity
  8
0
 62
7
100
AcDbSpline
 70
8
 71
3
 72
8
 73
4
 74
0
 40
0
 40
0
 40
0
 40
0
 40
1
 40
1
 40
1
 40
1
 10
279.660112
 20
7.033268
 30
0.0
 10
279.660112
 20
6.676002
 30
0.0
 10
279.850711
 20
6.345875
 30
0.0
 10
280.160112
 20
6.167242
 30
0.0
  0
SPLINE
  5
1cd
100
AcDbEntity
  8
0
 62
7
100
AcDbSpline
 70
8
 71
3
 72
8
 73
4
 74
0
 40
0
 40
0
 40
0
 40
0
 40
1
 40
1
 40
1
 40
1
 10
280.160112
 20
6.167242
 30
0.0
 10
280.469513
 20
5.988609
 30
0.0
 10
280.850712
 20
5.988609
 30
0.0
 10
281.160113
 20
6.167242
 30
0.0
  0
SPLINE
  5
1ce
100
AcDbEntity
  8
0
 62
7
100
AcDbSpline
 70
8
 71
3
 72
8
 73
4
 74
0
 40
0
 40
0
 40
0
 40
0
 40
1
 40
1
 40
1
 40
1
 10
281.160113
 20
6.167242
 30
0.0
 10
281.469514
 20
6.345875
 30
0.0
 10
281.660113
 20
6.676002
 30
0.0
 10
281.660113
 20
7.033268
 30
0.0
  0
LWPOLYLINE
  5
1cf
100
AcDbEntity
  8
0
 62
7
100
AcDbPolyline
 90
4
 70
1
 10
200.380238
 20
22.322031
 30
0.0
 10
200.380238
 20
8.322053
 30
0.0
 10
214.380577
 20
8.322053
 30
0.0
 10
214.380577
 20
22.322031
 30
0.0
  0
SPLINE
  5
1d0
100
AcDbEntity
  8
0
 62
7
100
AcDbSpline
 70
8
 71
3
 72
8
 73
4
 74
0
 40
0
 40
0
 40
0
 40
0
 40
1
 40
1
 40
1
 40
1
 10
227.413307
 20
1.827511
 30
0.0
 10
227.413307
 20
2.184777
 30
0.0
 10
227.222708
 20
2.514905
 30
0.0
 10
226.913306
 20
2.693537
 30
0.0
  0
SPLINE
  5
1d1
100
AcDbEntity
  8
0
 62
7
100
AcDbSpline
 70
8
 71
3
 72
8
 73
4
 74
0
 40
0
 40
0
 40
0
 40
0
 40
1
 40
1
 40
1
 40
1
 10
226.913306
 20
2.693537
 30
0.0
 10
226.603905
 20
2.872170
 30
0.0
 10
226.222707
 20
2.872170
 30
0.0
 10
225.913306
 20
2.693537
 30
0.0
  0
SPLINE
  5
1d2
100
AcDbEntity
  8
0
 62
7
100
AcDbSpline
 70
8
 71
3
 72
8
 73
4
 74
0
 40
0
 40
0
 40
0
 40
0
 40
1
 40
1
 40
1
 40
1
 10
225.913306
 20
2.693537
 30
0.0
 10
225.603904
 20
2.514905
 30
0.0
 10
225.413305
 20
2.184777
 30
0.0
 10
225.413305
 20
1.827511
 30
0.0
  0
SPLINE
  5
1d3
100
AcDbEntity
  8
0
 62
7
100
AcDbSpline
 70
8
 71
3
 72
8
 73
4
 74
0
 40
0
 40
0
 40
0
 40
0
 40
1
 40
1
 40
1
 40
1
 10
225.413305
 20
1.827511
 30
0.0
 10
225.413305
 20
1.470246
 30
0.0
 10
225.603904
 20
1.140118
 30
0.0
 10
225.913306
 20
0.961486
 30
0.0
  0
SPLINE
  5
1d4
100
AcDbEntity
  8
0
 62
7
100
AcDbSpline
 70
8
 71
3
 72
8
 73
4
 74
0
 40
0
 40
0
 40
0
 40
0
 40
1
 40
1
 40
1
 40
1
 10
225.913306
 20
0.961486
 30
0.0
 10
226.222707
 20
0.782853
 30
0.0
 10
226.603905
 20
0.782853
 30
0.0
 10
226.913306
 20
0.961486
 30
0.0
  0
SPLINE
  5
1d5
100
AcDbEntity
  8
0
 62
7
100
AcDbSpline
 70
8
 71
3
 72
8
 73
4
 74
0
 40
0
 40
0
 40
0
 40
0
 40
1
 40
1
 40
1
 40
1
 10
226.913306
 20
0.961486
 30
0.0
 10
227.222708
 20
1.140118
 30
0.0
 10
227.413307
 20
1.470246
 30
0.0
 10
227.413307
 20
1.827511
 30
0.0
  0
LWPOLYLINE
  5
1d6
100
AcDbEntity
  8
0
 62
7
100
AcDbPolyline
 90
1
 70
1
 10
281.660113
 20
7.033268
 30
0.0
  0
LWPOLYLINE
  5
1d7
100
AcDbEntity
  8
0
 62
7
100
AcDbPolyline
 90
1
 70
1
 10
227.413307
 20
1.827511
 30
0.0
  0
LWPOLYLINE
  5
1d8
100
AcDbEntity
  8
0
 62
7
100
AcDbPolyline
 90
4
 70
1
 10
57.218077
 20
84.234888
 30
0.0
 10
43.218100
 20
84.234888
 30
0.0
 10
43.218100
 20
70.234900
 30
0.0
 10
57.218077
 20
70.234900
 30
0.0
  0
LWPOLYLINE
  5
1d9
100
AcDbEntity
  8
0
 62
7
100
AcDbPolyline
 90
4
 70
1
 10
28.930230
 20
51.184897
 30
0.0
 10
42.930233
 20
51.184897
 30
0.0
 10
42.930233
 20
65.184888
 30
0.0
 10
28.930230
 20
65.184888
 30
0.0
  0
LWPOLYLINE
  5
1da
100
AcDbEntity
  8
0
 62
7
100
AcDbPolyline
 90
4
 70
1
 10
61.980223
 20
65.184888
 30
0.0
 10
47.980230
 20
65.184888
 30
0.0
 10
47.980230
 20
51.184897
 30
0.0
 10
61.980223
 20
51.184897
 30
0.0
  0
LWPOLYLINE
  5
1db
100
AcDbEntity
  8
0
 62
7
100
AcDbPolyline
 90
4
 70
1
 10
42.930233
 20
27.085245
 30
0.0
 10
28.930230
 20
27.085245
 30
0.0
 10
28.930230
 20
13.084897
 30
0.0
 10
42.930233
 20
13.084897
 30
0.0
  0
LWPOLYLINE
  5
1dc
100
AcDbEntity
  8
0
 62
7
100
AcDbPolyline
 90
4
 70
1
 10
21.499327
 20
27.085245
 30
0.0
 10
7.499350
 20
27.085245
 30
0.0
 10
7.499350
 20
13.084897
 30
0.0
 10
21.499327
 20
13.084897
 30
0.0
  0
LWPOLYLINE
  5
1dd
100
AcDbEntity
  8
0
 62
7
100
AcDbPolyline
 90
4
 70
1
 10
26.261483
 20
32.134897
 30
0.0
 10
26.261483
 20
46.135245
 30
0.0
 10
12.261480
 20
46.135245
 30
0.0
 10
12.261480
 20
32.134897
 30
0.0
  0
SPLINE
  5
1de
100
AcDbEntity
  8
0
 62
7
100
AcDbSpline
 70
8
 71
3
 72
8
 73
4
 74
0
 40
0
 40
0
 40
0
 40
0
 40
1
 40
1
 40
1
 40
1
 10
84.302841
 20
7.033268
 30
0.0
 10
84.302841
 20
7.390534
 30
0.0
 10
84.112242
 20
7.720661
 30
0.0
 10
83.802840
 20
7.899294
 30
0.0
  0
SPLINE
  5
1df
100
AcDbEntity
  8
0
 62
7
100
AcDbSpline
 70
8
 71
3
 72
8
 73
4
 74
0
 40
0
 40
0
 40
0
 40
0
 40
1
 40
1
 40
1
 40
1
 10
83.802840
 20
7.899294
 30
0.0
 10
83.493439
 20
8.077927
 30
0.0
 10
83.112241
 20
8.077927
 30
0.0
 10
82.802840
 20
7.899294
 30
0.0
  0
SPLINE
  5
1e0
100
AcDbEntity
  8
0
 62
7
100
AcDbSpline
 70
8
 71
3
 72
8
 73
4
 74
0
 40
0
 40
0
 40
0
 40
0
 40
1
 40
1
 40
1
 40
1
 10
82.802840
 20
7.899294
 30
0.0
 10
82.493439
 20
7.720661
 30
0.0
 10
82.302839
 20
7.390534
 30
0.0
 10
82.302839
 20
7.033268
 30
0.0
  0
SPLINE
  5
1e1
100
AcDbEntity
  8
0
 62
7
100
AcDbSpline
 70
8
 71
3
 72
8
 73
4
 74
0
 40
0
 40
0
 40
0
 40
0
 40
1
 40
1
 40
1
 40
1
 10
82.302839
 20
7.033268
 30
0.0
 10
82.302839
 20
6.676002
 30
0.0
 10
82.493439
 20
6.345875
 30
0.0
 10
82.802840
 20
6.167242
 30
0.0
  0
SPLINE
  5
1e2
100
AcDbEntity
  8
0
 62
7
100
AcDbSpline
 70
8
 71
3
 72
8
 73
4
 74
0
 40
0
 40
0
 40
0
 40
0
 40
1
 40
1
 40
1
 40
1
 10
82.802840
 20
6.167242
 30
0.0
 10
83.112241
 20
5.988609
 30
0.0
 10
83.493439
 20
5.988609
 30
0.0
 10
83.802840
 20
6.167242
 30
0.0
  0
SPLINE
  5
1e3
100
AcDbEntity
  8
0
 62
7
100
AcDbSpline
 70
8
 71
3
 72
8
 73
4
 74
0
 40
0
 40
0
 40
0
 40
0
 40
1
 40
1
 40
1
 40
1
 10
83.802840
 20
6.167242
 30
0.0
 10
84.112242
 20
6.345875
 30
0.0
 10
84.302841
 20
6.676002
 30
0.0
 10
84.302841
 20
7.033268
 30
0.0
  0
LWPOLYLINE
  5
1e4
100
AcDbEntity
  8
0
 62
7
100
AcDbPolyline
 90
4
 70
1
 10
5.118100
 20
70.234900
 30
0.0
 10
19.118077
 20
70.234900
 30
0.0
 10
19.118077
 20
84.234888
 30
0.0
 10
5.118100
 20
84.234888
 30
0.0
  0
LWPOLYLINE
  5
1e5
100
AcDbEntity
  8
0
 62
7
100
AcDbPolyline
 90
1
 70
1
 10
84.302841
 20
7.033268
 30
0.0
  0
SPLINE
  5
1e6
100
AcDbEntity
  8
0
 62
7
100
AcDbSpline
 70
8
 71
3
 72
8
 73
4
 74
0
 40
0
 40
0
 40
0
 40
0
 40
1
 40
1
 40
1
 40
1
 10
80.905932
 20
28.800803
 30
0.0
 10
81.242757
 20
28.800803
 30
0.0
 10
81.565786
 20
28.667000
 30
0.0
 10
81.803958
 20
28.428829
 30
0.0
  0
SPLINE
  5
1e7
100
AcDbEntity
  8
0
 62
7
100
AcDbSpline
 70
8
 71
3
 72
8
 73
4
 74
0
 40
0
 40
0
 40
0
 40
0
 40
1
 40
1
 40
1
 40
1
 10
81.803958
 20
28.428829
 30
0.0
 10
82.042129
 20
28.190658
 30
0.0
 10
82.175932
 20
27.867628
 30
0.0
 10
82.175932
 20
27.530803
 30
0.0
  0
LWPOLYLINE
  5
1e8
100
AcDbEntity
  8
0
 62
7
100
AcDbPolyline
 90
4
 70
1
 10
7.499350
 20
65.184888
 30
0.0
 10
7.499350
 20
51.184897
 30
0.0
 10
21.499327
 20
51.184897
 30
0.0
 10
21.499327
 20
65.184888
 30
0.0
  0
SPLINE
  5
1e9
100
AcDbEntity
  8
0
 62
7
100
AcDbSpline
 70
8
 71
3
 72
8
 73
4
 74
0
 40
0
 40
0
 40
0
 40
0
 40
1
 40
1
 40
1
 40
1
 10
82.175932
 20
12.079137
 30
0.0
 10
82.175932
 20
11.742312
 30
0.0
 10
82.042129
 20
11.419282
 30
0.0
 10
81.803958
 20
11.181111
 30
0.0
  0
SPLINE
  5
1ea
100
AcDbEntity
  8
0
 62
7
100
AcDbSpline
 70
8
 71
3
 72
8
 73
4
 74
0
 40
0
 40
0
 40
0
 40
0
 40
1
 40
1
 40
1
 40
1
 10
81.803958
 20
11.181111
 30
0.0
 10
81.565786
 20
10.942940
 30
0.0
 10
81.242757
 20
10.809137
 30
0.0
 10
80.905932
 20
10.809137
 30
0.0
  0
LWPOLYLINE
  5
1eb
100
AcDbEntity
  8
0
 62
7
100
AcDbPolyline
 90
2
 70
0
 10
82.175932
 20
27.530803
 30
0.0
 10
82.175932
 20
12.079137
 30
0.0
  0
SPLINE
  5
1ec
100
AcDbEntity
  8
0
 62
7
100
AcDbSpline
 70
8
 71
3
 72
8
 73
4
 74
0
 40
0
 40
0
 40
0
 40
0
 40
1
 40
1
 40
1
 40
1
 10
75.870737
 20
10.809137
 30
0.0
 10
75.169335
 20
10.809137
 30
0.0
 10
74.600737
 20
11.377735
 30
0.0
 10
74.600737
 20
12.079137
 30
0.0
  0
LWPOLYLINE
  5
1ed
100
AcDbEntity
  8
0
 62
7
100
AcDbPolyline
 90
2
 70
0
 10
80.905932
 20
10.809137
 30
0.0
 10
75.870737
 20
10.809137
 30
0.0
  0
SPLINE
  5
1ee
100
AcDbEntity
  8
0
 62
7
100
AcDbSpline
 70
8
 71
3
 72
8
 73
4
 74
0
 40
0
 40
0
 40
0
 40
0
 40
1
 40
1
 40
1
 40
1
 10
74.600737
 20
27.530803
 30
0.0
 10
74.600737
 20
28.232205
 30
0.0
 10
75.169335
 20
28.800803
 30
0.0
 10
75.870737
 20
28.800803
 30
0.0
  0
LWPOLYLINE
  5
1ef
100
AcDbEntity
  8
0
 62
7
100
AcDbPolyline
 90
2
 70
0
 10
74.600737
 20
12.079137
 30
0.0
 10
74.600737
 20
27.530803
 30
0.0
  0
SPLINE
  5
1f0
100
AcDbEntity
  8
0
 62
7
100
AcDbSpline
 70
8
 71
3
 72
8
 73
4
 74
0
 40
0
 40
0
 40
0
 40
0
 40
1
 40
1
 40
1
 40
1
 10
151.215974
 20
7.033268
 30
0.0
 10
151.215974
 20
7.390534
 30
0.0
 10
151.025375
 20
7.720661
 30
0.0
 10
150.715973
 20
7.899294
 30
0.0
  0
SPLINE
  5
1f1
100
AcDbEntity
  8
0
 62
7
100
AcDbSpline
 70
8
 71
3
 72
8
 73
4
 74
0
 40
0
 40
0
 40
0
 40
0
 40
1
 40
1
 40
1
 40
1
 10
150.715973
 20
7.899294
 30
0.0
 10
150.406572
 20
8.077927
 30
0.0
 10
150.025374
 20
8.077927
 30
0.0
 10
149.715973
 20
7.899294
 30
0.0
  0
SPLINE
  5
1f2
100
AcDbEntity
  8
0
 62
7
100
AcDbSpline
 70
8
 71
3
 72
8
 73
4
 74
0
 40
0
 40
0
 40
0
 40
0
 40
1
 40
1
 40
1
 40
1
 10
149.715973
 20
7.899294
 30
0.0
 10
149.406571
 20
7.720661
 30
0.0
 10
149.215972
 20
7.390534
 30
0.0
 10
149.215972
 20
7.033268
 30
0.0
  0
SPLINE
  5
1f3
100
AcDbEntity
  8
0
 62
7
100
AcDbSpline
 70
8
 71
3
 72
8
 73
4
 74
0
 40
0
 40
0
 40
0
 40
0
 40
1
 40
1
 40
1
 40
1
 10
149.215972
 20
7.033268
 30
0.0
 10
149.215972
 20
6.676002
 30
0.0
 10
149.406571
 20
6.345875
 30
0.0
 10
149.715973
 20
6.167242
 30
0.0
  0
SPLINE
  5
1f4
100
AcDbEntity
  8
0
 62
7
100
AcDbSpline
 70
8
 71
3
 72
8
 73
4
 74
0
 40
0
 40
0
 40
0
 40
0
 40
1
 40
1
 40
1
 40
1
 10
149.715973
 20
6.167242
 30
0.0
 10
150.025374
 20
5.988609
 30
0.0
 10
150.406572
 20
5.988609
 30
0.0
 10
150.715973
 20
6.167242
 30
0.0
  0
SPLINE
  5
1f5
100
AcDbEntity
  8
0
 62
7
100
AcDbSpline
 70
8
 71
3
 72
8
 73
4
 74
0
 40
0
 40
0
 40
0
 40
0
 40
1
 40
1
 40
1
 40
1
 10
150.715973
 20
6.167242
 30
0.0
 10
151.025375
 20
6.345875
 30
0.0
 10
151.215974
 20
6.676002
 30
0.0
 10
151.215974
 20
7.033268
 30
0.0
  0
LWPOLYLINE
  5
1f6
100
AcDbEntity
  8
0
 62
7
100
AcDbPolyline
 90
2
 70
0
 10
75.870737
 20
28.800803
 30
0.0
 10
80.905932
 20
28.800803
 30
0.0
  0
LWPOLYLINE
  5
1f7
100
AcDbEntity
  8
0
 62
7
100
AcDbPolyline
 90
1
 70
1
 10
151.215974
 20
7.033268
 30
0.0
  0
LWPOLYLINE
  5
1f8
100
AcDbEntity
  8
0
 62
7
100
AcDbPolyline
 90
4
 70
1
 10
114.367371
 20
84.234888
 30
0.0
 10
100.367386
 20
84.234888
 30
0.0
 10
100.367386
 20
70.234900
 30
0.0
 10
114.367371
 20
70.234900
 30
0.0
  0
LWPOLYLINE
  5
1f9
100
AcDbEntity
  8
0
 62
7
100
AcDbPolyline
 90
4
 70
1
 10
181.330238
 20
65.184888
 30
0.0
 10
181.330238
 20
51.184897
 30
0.0
 10
195.330577
 20
51.184897
 30
0.0
 10
195.330577
 20
65.184888
 30
0.0
  0
LWPOLYLINE
  5
1fa
100
AcDbEntity
  8
0
 62
7
100
AcDbPolyline
 90
4
 70
1
 10
162.280238
 20
65.184888
 30
0.0
 10
162.280238
 20
51.184897
 30
0.0
 10
176.280577
 20
51.184897
 30
0.0
 10
176.280577
 20
65.184888
 30
0.0
  0
LWPOLYLINE
  5
1fb
100
AcDbEntity
  8
0
 62
7
100
AcDbPolyline
 90
4
 70
1
 10
143.230238
 20
65.184888
 30
0.0
 10
143.230238
 20
51.184897
 30
0.0
 10
157.230577
 20
51.184897
 30
0.0
 10
157.230577
 20
65.184888
 30
0.0
  0
LWPOLYLINE
  5
1fc
100
AcDbEntity
  8
0
 62
7
100
AcDbPolyline
 90
4
 70
1
 10
190.568429
 20
13.084897
 30
0.0
 10
190.568429
 20
27.085245
 30
0.0
 10
176.568444
 20
27.085245
 30
0.0
 10
176.568444
 20
13.084897
 30
0.0
  0
LWPOLYLINE
  5
1fd
100
AcDbEntity
  8
0
 62
7
100
AcDbPolyline
 90
4
 70
1
 10
276.293429
 20
13.084897
 30
0.0
 10
276.293429
 20
27.085245
 30
0.0
 10
262.293444
 20
27.085245
 30
0.0
 10
262.293444
 20
13.084897
 30
0.0
  0
LWPOLYLINE
  5
1fe
100
AcDbEntity
  8
0
 62
7
100
AcDbPolyline
 90
4
 70
1
 10
81.318089
 20
84.234888
 30
0.0
 10
81.318089
 20
70.234900
 30
0.0
 10
95.318077
 20
70.234900
 30
0.0
 10
95.318077
 20
84.234888
 30
0.0
  0
LWPOLYLINE
  5
1ff
100
AcDbEntity
  8
0
 62
7
100
AcDbPolyline
 90
4
 70
1
 10
86.080238
 20
65.184888
 30
0.0
 10
86.080238
 20
51.184897
 30
0.0
 10
100.080223
 20
51.184897
 30
0.0
 10
100.080223
 20
65.184888
 30
0.0
  0
LWPOLYLINE
  5
200
100
AcDbEntity
  8
0
 62
7
100
AcDbPolyline
 90
4
 70
1
 10
243.243444
 20
51.184897
 30
0.0
 10
257.242371
 20
51.184897
 30
0.0
 10
257.242371
 20
65.184888
 30
0.0
 10
243.243444
 20
65.184888
 30
0.0
  0
LWPOLYLINE
  5
201
100
AcDbEntity
  8
0
 62
7
100
AcDbPolyline
 90
4
 70
1
 10
128.655223
 20
46.135245
 30
0.0
 10
114.655238
 20
46.135245
 30
0.0
 10
114.655238
 20
32.134897
 30
0.0
 10
128.655223
 20
32.134897
 30
0.0
  0
SPLINE
  5
202
100
AcDbEntity
  8
0
 62
7
100
AcDbSpline
 70
8
 71
3
 72
8
 73
4
 74
0
 40
0
 40
0
 40
0
 40
0
 40
1
 40
1
 40
1
 40
1
 10
218.160113
 20
90.089278
 30
0.0
 10
218.160113
 20
90.446544
 30
0.0
 10
217.969514
 20
90.776671
 30
0.0
 10
217.660113
 20
90.955304
 30
0.0
  0
SPLINE
  5
203
100
AcDbEntity
  8
0
 62
7
100
AcDbSpline
 70
8
 71
3
 72
8
 73
4
 74
0
 40
0
 40
0
 40
0
 40
0
 40
1
 40
1
 40
1
 40
1
 10
217.660113
 20
90.955304
 30
0.0
 10
217.350712
 20
91.133937
 30
0.0
 10
216.969513
 20
91.133937
 30
0.0
 10
216.660112
 20
90.955304
 30
0.0
  0
SPLINE
  5
204
100
AcDbEntity
  8
0
 62
7
100
AcDbSpline
 70
8
 71
3
 72
8
 73
4
 74
0
 40
0
 40
0
 40
0
 40
0
 40
1
 40
1
 40
1
 40
1
 10
216.660112
 20
90.955304
 30
0.0
 10
216.350711
 20
90.776671
 30
0.0
 10
216.160112
 20
90.446544
 30
0.0
 10
216.160112
 20
90.089278
 30
0.0
  0
SPLINE
  5
205
100
AcDbEntity
  8
0
 62
7
100
AcDbSpline
 70
8
 71
3
 72
8
 73
4
 74
0
 40
0
 40
0
 40
0
 40
0
 40
1
 40
1
 40
1
 40
1
 10
216.160112
 20
90.089278
 30
0.0
 10
216.160112
 20
89.732012
 30
0.0
 10
216.350711
 20
89.401885
 30
0.0
 10
216.660112
 20
89.223252
 30
0.0
  0
SPLINE
  5
206
100
AcDbEntity
  8
0
 62
7
100
AcDbSpline
 70
8
 71
3
 72
8
 73
4
 74
0
 40
0
 40
0
 40
0
 40
0
 40
1
 40
1
 40
1
 40
1
 10
216.660112
 20
89.223252
 30
0.0
 10
216.969513
 20
89.044619
 30
0.0
 10
217.350712
 20
89.044619
 30
0.0
 10
217.660113
 20
89.223252
 30
0.0
  0
SPLINE
  5
207
100
AcDbEntity
  8
0
 62
7
100
AcDbSpline
 70
8
 71
3
 72
8
 73
4
 74
0
 40
0
 40
0
 40
0
 40
0
 40
1
 40
1
 40
1
 40
1
 10
217.660113
 20
89.223252
 30
0.0
 10
217.969514
 20
89.401885
 30
0.0
 10
218.160113
 20
89.732012
 30
0.0
 10
218.160113
 20
90.089278
 30
0.0
  0
LWPOLYLINE
  5
208
100
AcDbEntity
  8
0
 62
7
100
AcDbPolyline
 90
4
 70
1
 10
295.343429
 20
84.234888
 30
0.0
 10
281.343444
 20
84.234888
 30
0.0
 10
281.343444
 20
70.234900
 30
0.0
 10
295.343429
 20
70.234900
 30
0.0
  0
SPLINE
  5
209
100
AcDbEntity
  8
0
 62
7
100
AcDbSpline
 70
8
 71
3
 72
8
 73
4
 74
0
 40
0
 40
0
 40
0
 40
0
 40
1
 40
1
 40
1
 40
1
 10
238.227415
 20
76.308537
 30
0.0
 10
238.227415
 20
77.125247
 30
0.0
 10
237.791706
 20
77.879917
 30
0.0
 10
237.084415
 20
78.288272
 30
0.0
  0
SPLINE
  5
20a
100
AcDbEntity
  8
0
 62
7
100
AcDbSpline
 70
8
 71
3
 72
8
 73
4
 74
0
 40
0
 40
0
 40
0
 40
0
 40
1
 40
1
 40
1
 40
1
 10
237.084415
 20
78.288272
 30
0.0
 10
236.377124
 20
78.696626
 30
0.0
 10
235.505706
 20
78.696626
 30
0.0
 10
234.798415
 20
78.288272
 30
0.0
  0
SPLINE
  5
20b
100
AcDbEntity
  8
0
 62
7
100
AcDbSpline
 70
8
 71
3
 72
8
 73
4
 74
0
 40
0
 40
0
 40
0
 40
0
 40
1
 40
1
 40
1
 40
1
 10
234.798415
 20
78.288272
 30
0.0
 10
234.091124
 20
77.879917
 30
0.0
 10
233.655415
 20
77.125247
 30
0.0
 10
233.655415
 20
76.308537
 30
0.0
  0
SPLINE
  5
20c
100
AcDbEntity
  8
0
 62
7
100
AcDbSpline
 70
8
 71
3
 72
8
 73
4
 74
0
 40
0
 40
0
 40
0
 40
0
 40
1
 40
1
 40
1
 40
1
 10
233.655415
 20
76.308537
 30
0.0
 10
233.655415
 20
75.491828
 30
0.0
 10
234.091124
 20
74.737158
 30
0.0
 10
234.798415
 20
74.328803
 30
0.0
  0
SPLINE
  5
20d
100
AcDbEntity
  8
0
 62
7
100
AcDbSpline
 70
8
 71
3
 72
8
 73
4
 74
0
 40
0
 40
0
 40
0
 40
0
 40
1
 40
1
 40
1
 40
1
 10
234.798415
 20
74.328803
 30
0.0
 10
235.505706
 20
73.920449
 30
0.0
 10
236.377124
 20
73.920449
 30
0.0
 10
237.084415
 20
74.328803
 30
0.0
  0
SPLINE
  5
20e
100
AcDbEntity
  8
0
 62
7
100
AcDbSpline
 70
8
 71
3
 72
8
 73
4
 74
0
 40
0
 40
0
 40
0
 40
0
 40
1
 40
1
 40
1
 40
1
 10
237.084415
 20
74.328803
 30
0.0
 10
237.791706
 20
74.737158
 30
0.0
 10
238.227415
 20
75.491828
 30
0.0
 10
238.227415
 20
76.308537
 30
0.0
  0
LWPOLYLINE
  5
20f
100
AcDbEntity
  8
0
 62
7
100
AcDbPolyline
 90
1
 70
1
 10
218.160113
 20
90.089278
 30
0.0
  0
SPLINE
  5
210
100
AcDbEntity
  8
0
 62
7
100
AcDbSpline
 70
8
 71
3
 72
8
 73
4
 74
0
 40
0
 40
0
 40
0
 40
0
 40
1
 40
1
 40
1
 40
1
 10
238.227415
 20
66.783537
 30
0.0
 10
238.227415
 20
67.600247
 30
0.0
 10
237.791706
 20
68.354917
 30
0.0
 10
237.084415
 20
68.763272
 30
0.0
  0
SPLINE
  5
211
100
AcDbEntity
  8
0
 62
7
100
AcDbSpline
 70
8
 71
3
 72
8
 73
4
 74
0
 40
0
 40
0
 40
0
 40
0
 40
1
 40
1
 40
1
 40
1
 10
237.084415
 20
68.763272
 30
0.0
 10
236.377124
 20
69.171626
 30
0.0
 10
235.505706
 20
69.171626
 30
0.0
 10
234.798415
 20
68.763272
 30
0.0
  0
SPLINE
  5
212
100
AcDbEntity
  8
0
 62
7
100
AcDbSpline
 70
8
 71
3
 72
8
 73
4
 74
0
 40
0
 40
0
 40
0
 40
0
 40
1
 40
1
 40
1
 40
1
 10
234.798415
 20
68.763272
 30
0.0
 10
234.091124
 20
68.354917
 30
0.0
 10
233.655415
 20
67.600247
 30
0.0
 10
233.655415
 20
66.783537
 30
0.0
  0
SPLINE
  5
213
100
AcDbEntity
  8
0
 62
7
100
AcDbSpline
 70
8
 71
3
 72
8
 73
4
 74
0
 40
0
 40
0
 40
0
 40
0
 40
1
 40
1
 40
1
 40
1
 10
233.655415
 20
66.783537
 30
0.0
 10
233.655415
 20
65.966828
 30
0.0
 10
234.091124
 20
65.212158
 30
0.0
 10
234.798415
 20
64.803803
 30
0.0
  0
SPLINE
  5
214
100
AcDbEntity
  8
0
 62
7
100
AcDbSpline
 70
8
 71
3
 72
8
 73
4
 74
0
 40
0
 40
0
 40
0
 40
0
 40
1
 40
1
 40
1
 40
1
 10
234.798415
 20
64.803803
 30
0.0
 10
235.505706
 20
64.395449
 30
0.0
 10
236.377124
 20
64.395449
 30
0.0
 10
237.084415
 20
64.803803
 30
0.0
  0
SPLINE
  5
215
100
AcDbEntity
  8
0
 62
7
100
AcDbSpline
 70
8
 71
3
 72
8
 73
4
 74
0
 40
0
 40
0
 40
0
 40
0
 40
1
 40
1
 40
1
 40
1
 10
237.084415
 20
64.803803
 30
0.0
 10
237.791706
 20
65.212158
 30
0.0
 10
238.227415
 20
65.966828
 30
0.0
 10
238.227415
 20
66.783537
 30
0.0
  0
LWPOLYLINE
  5
216
100
AcDbEntity
  8
0
 62
7
100
AcDbPolyline
 90
1
 70
1
 10
238.227415
 20
76.308537
 30
0.0
  0
SPLINE
  5
217
100
AcDbEntity
  8
0
 62
7
100
AcDbSpline
 70
8
 71
3
 72
8
 73
4
 74
0
 40
0
 40
0
 40
0
 40
0
 40
1
 40
1
 40
1
 40
1
 10
238.227415
 20
57.258537
 30
0.0
 10
238.227415
 20
58.075247
 30
0.0
 10
237.791706
 20
58.829917
 30
0.0
 10
237.084415
 20
59.238272
 30
0.0
  0
SPLINE
  5
218
100
AcDbEntity
  8
0
 62
7
100
AcDbSpline
 70
8
 71
3
 72
8
 73
4
 74
0
 40
0
 40
0
 40
0
 40
0
 40
1
 40
1
 40
1
 40
1
 10
237.084415
 20
59.238272
 30
0.0
 10
236.377124
 20
59.646626
 30
0.0
 10
235.505706
 20
59.646626
 30
0.0
 10
234.798415
 20
59.238272
 30
0.0
  0
SPLINE
  5
219
100
AcDbEntity
  8
0
 62
7
100
AcDbSpline
 70
8
 71
3
 72
8
 73
4
 74
0
 40
0
 40
0
 40
0
 40
0
 40
1
 40
1
 40
1
 40
1
 10
234.798415
 20
59.238272
 30
0.0
 10
234.091124
 20
58.829917
 30
0.0
 10
233.655415
 20
58.075247
 30
0.0
 10
233.655415
 20
57.258537
 30
0.0
  0
SPLINE
  5
21a
100
AcDbEntity
  8
0
 62
7
100
AcDbSpline
 70
8
 71
3
 72
8
 73
4
 74
0
 40
0
 40
0
 40
0
 40
0
 40
1
 40
1
 40
1
 40
1
 10
233.655415
 20
57.258537
 30
0.0
 10
233.655415
 20
56.441828
 30
0.0
 10
234.091124
 20
55.687158
 30
0.0
 10
234.798415
 20
55.278803
 30
0.0
  0
SPLINE
  5
21b
100
AcDbEntity
  8
0
 62
7
100
AcDbSpline
 70
8
 71
3
 72
8
 73
4
 74
0
 40
0
 40
0
 40
0
 40
0
 40
1
 40
1
 40
1
 40
1
 10
234.798415
 20
55.278803
 30
0.0
 10
235.505706
 20
54.870449
 30
0.0
 10
236.377124
 20
54.870449
 30
0.0
 10
237.084415
 20
55.278803
 30
0.0
  0
SPLINE
  5
21c
100
AcDbEntity
  8
0
 62
7
100
AcDbSpline
 70
8
 71
3
 72
8
 73
4
 74
0
 40
0
 40
0
 40
0
 40
0
 40
1
 40
1
 40
1
 40
1
 10
237.084415
 20
55.278803
 30
0.0
 10
237.791706
 20
55.687158
 30
0.0
 10
238.227415
 20
56.441828
 30
0.0
 10
238.227415
 20
57.258537
 30
0.0
  0
LWPOLYLINE
  5
21d
100
AcDbEntity
  8
0
 62
7
100
AcDbPolyline
 90
1
 70
1
 10
238.227415
 20
66.783537
 30
0.0
  0
LWPOLYLINE
  5
21e
100
AcDbEntity
  8
0
 62
7
100
AcDbPolyline
 90
1
 70
1
 10
238.227415
 20
57.258537
 30
0.0
  0
LWPOLYLINE
  5
21f
100
AcDbEntity
  8
0
 62
7
100
AcDbPolyline
 90
4
 70
1
 10
67.030238
 20
65.184888
 30
0.0
 10
67.030238
 20
51.184897
 30
0.0
 10
81.030223
 20
51.184897
 30
0.0
 10
81.030223
 20
65.184888
 30
0.0
  0
SPLINE
  5
220
100
AcDbEntity
  8
0
 62
7
100
AcDbSpline
 70
8
 71
3
 72
8
 73
4
 74
0
 40
0
 40
0
 40
0
 40
0
 40
1
 40
1
 40
1
 40
1
 10
84.302841
 20
90.089278
 30
0.0
 10
84.302841
 20
90.446544
 30
0.0
 10
84.112242
 20
90.776671
 30
0.0
 10
83.802840
 20
90.955304
 30
0.0
  0
SPLINE
  5
221
100
AcDbEntity
  8
0
 62
7
100
AcDbSpline
 70
8
 71
3
 72
8
 73
4
 74
0
 40
0
 40
0
 40
0
 40
0
 40
1
 40
1
 40
1
 40
1
 10
83.802840
 20
90.955304
 30
0.0
 10
83.493439
 20
91.133937
 30
0.0
 10
83.112241
 20
91.133937
 30
0.0
 10
82.802840
 20
90.955304
 30
0.0
  0
SPLINE
  5
222
100
AcDbEntity
  8
0
 62
7
100
AcDbSpline
 70
8
 71
3
 72
8
 73
4
 74
0
 40
0
 40
0
 40
0
 40
0
 40
1
 40
1
 40
1
 40
1
 10
82.802840
 20
90.955304
 30
0.0
 10
82.493439
 20
90.776671
 30
0.0
 10
82.302839
 20
90.446544
 30
0.0
 10
82.302839
 20
90.089278
 30
0.0
  0
SPLINE
  5
223
100
AcDbEntity
  8
0
 62
7
100
AcDbSpline
 70
8
 71
3
 72
8
 73
4
 74
0
 40
0
 40
0
 40
0
 40
0
 40
1
 40
1
 40
1
 40
1
 10
82.302839
 20
90.089278
 30
0.0
 10
82.302839
 20
89.732012
 30
0.0
 10
82.493439
 20
89.401885
 30
0.0
 10
82.802840
 20
89.223252
 30
0.0
  0
SPLINE
  5
224
100
AcDbEntity
  8
0
 62
7
100
AcDbSpline
 70
8
 71
3
 72
8
 73
4
 74
0
 40
0
 40
0
 40
0
 40
0
 40
1
 40
1
 40
1
 40
1
 10
82.802840
 20
89.223252
 30
0.0
 10
83.112241
 20
89.044619
 30
0.0
 10
83.493439
 20
89.044619
 30
0.0
 10
83.802840
 20
89.223252
 30
0.0
  0
SPLINE
  5
225
100
AcDbEntity
  8
0
 62
7
100
AcDbSpline
 70
8
 71
3
 72
8
 73
4
 74
0
 40
0
 40
0
 40
0
 40
0
 40
1
 40
1
 40
1
 40
1
 10
83.802840
 20
89.223252
 30
0.0
 10
84.112242
 20
89.401885
 30
0.0
 10
84.302841
 20
89.732012
 30
0.0
 10
84.302841
 20
90.089278
 30
0.0
  0
LWPOLYLINE
  5
226
100
AcDbEntity
  8
0
 62
7
100
AcDbPolyline
 90
4
 70
1
 10
76.268077
 20
84.234888
 30
0.0
 10
62.268089
 20
84.234888
 30
0.0
 10
62.268089
 20
70.234900
 30
0.0
 10
76.268077
 20
70.234900
 30
0.0
  0
LWPOLYLINE
  5
227
100
AcDbEntity
  8
0
 62
7
100
AcDbPolyline
 90
1
 70
1
 10
84.302841
 20
90.089278
 30
0.0
  0
LWPOLYLINE
  5
228
100
AcDbEntity
  8
0
 62
7
100
AcDbPolyline
 90
4
 70
1
 10
90.555223
 20
46.135245
 30
0.0
 10
76.555238
 20
46.135245
 30
0.0
 10
76.555238
 20
32.134897
 30
0.0
 10
90.555223
 20
32.134897
 30
0.0
  0
LWPOLYLINE
  5
229
100
AcDbEntity
  8
0
 62
7
100
AcDbPolyline
 90
4
 70
1
 10
281.343444
 20
46.135245
 30
0.0
 10
281.343444
 20
32.134897
 30
0.0
 10
295.343429
 20
32.134897
 30
0.0
 10
295.343429
 20
46.135245
 30
0.0
  0
LWPOLYLINE
  5
22a
100
AcDbEntity
  8
0
 62
7
100
AcDbPolyline
 90
4
 70
1
 10
262.293444
 20
65.184888
 30
0.0
 10
262.293444
 20
51.184897
 30
0.0
 10
276.293429
 20
51.184897
 30
0.0
 10
276.293429
 20
65.184888
 30
0.0
  0
LWPOLYLINE
  5
22b
100
AcDbEntity
  8
0
 62
7
100
AcDbPolyline
 90
4
 70
1
 10
105.130238
 20
51.184897
 30
0.0
 10
119.130223
 20
51.184897
 30
0.0
 10
119.130223
 20
65.184888
 30
0.0
 10
105.130238
 20
65.184888
 30
0.0
  0
LWPOLYLINE
  5
22c
100
AcDbEntity
  8
0
 62
7
100
AcDbPolyline
 90
4
 70
1
 10
147.705223
 20
46.135245
 30
0.0
 10
133.705238
 20
46.135245
 30
0.0
 10
133.705238
 20
32.134897
 30
0.0
 10
147.705223
 20
32.134897
 30
0.0
  0
SPLINE
  5
22d
100
AcDbEntity
  8
0
 62
7
100
AcDbSpline
 70
8
 71
3
 72
8
 73
4
 74
0
 40
0
 40
0
 40
0
 40
0
 40
1
 40
1
 40
1
 40
1
 10
119.043236
 20
25.201094
 30
0.0
 10
119.043236
 20
26.017803
 30
0.0
 10
118.607527
 20
26.772474
 30
0.0
 10
117.900236
 20
27.180828
 30
0.0
  0
SPLINE
  5
22e
100
AcDbEntity
  8
0
 62
7
100
AcDbSpline
 70
8
 71
3
 72
8
 73
4
 74
0
 40
0
 40
0
 40
0
 40
0
 40
1
 40
1
 40
1
 40
1
 10
117.900236
 20
27.180828
 30
0.0
 10
117.192945
 20
27.589183
 30
0.0
 10
116.321527
 20
27.589183
 30
0.0
 10
115.614236
 20
27.180828
 30
0.0
  0
SPLINE
  5
22f
100
AcDbEntity
  8
0
 62
7
100
AcDbSpline
 70
8
 71
3
 72
8
 73
4
 74
0
 40
0
 40
0
 40
0
 40
0
 40
1
 40
1
 40
1
 40
1
 10
115.614236
 20
27.180828
 30
0.0
 10
114.906945
 20
26.772474
 30
0.0
 10
114.471236
 20
26.017803
 30
0.0
 10
114.471236
 20
25.201094
 30
0.0
  0
SPLINE
  5
230
100
AcDbEntity
  8
0
 62
7
100
AcDbSpline
 70
8
 71
3
 72
8
 73
4
 74
0
 40
0
 40
0
 40
0
 40
0
 40
1
 40
1
 40
1
 40
1
 10
114.471236
 20
25.201094
 30
0.0
 10
114.471236
 20
24.384385
 30
0.0
 10
114.906945
 20
23.629715
 30
0.0
 10
115.614236
 20
23.221360
 30
0.0
  0
SPLINE
  5
231
100
AcDbEntity
  8
0
 62
7
100
AcDbSpline
 70
8
 71
3
 72
8
 73
4
 74
0
 40
0
 40
0
 40
0
 40
0
 40
1
 40
1
 40
1
 40
1
 10
115.614236
 20
23.221360
 30
0.0
 10
116.321527
 20
22.813005
 30
0.0
 10
117.192945
 20
22.813005
 30
0.0
 10
117.900236
 20
23.221360
 30
0.0
  0
SPLINE
  5
232
100
AcDbEntity
  8
0
 62
7
100
AcDbSpline
 70
8
 71
3
 72
8
 73
4
 74
0
 40
0
 40
0
 40
0
 40
0
 40
1
 40
1
 40
1
 40
1
 10
117.900236
 20
23.221360
 30
0.0
 10
118.607527
 20
23.629715
 30
0.0
 10
119.043236
 20
24.384385
 30
0.0
 10
119.043236
 20
25.201094
 30
0.0
  0
LWPOLYLINE
  5
233
100
AcDbEntity
  8
0
 62
7
100
AcDbPolyline
 90
4
 70
1
 10
214.668444
 20
84.234888
 30
0.0
 10
214.668444
 20
70.234900
 30
0.0
 10
228.668429
 20
70.234900
 30
0.0
 10
228.668429
 20
84.234888
 30
0.0
  0
SPLINE
  5
234
100
AcDbEntity
  8
0
 62
7
100
AcDbSpline
 70
8
 71
3
 72
8
 73
4
 74
0
 40
0
 40
0
 40
0
 40
0
 40
1
 40
1
 40
1
 40
1
 10
119.043236
 20
18.851094
 30
0.0
 10
119.043236
 20
19.667803
 30
0.0
 10
118.607527
 20
20.422474
 30
0.0
 10
117.900236
 20
20.830828
 30
0.0
  0
SPLINE
  5
235
100
AcDbEntity
  8
0
 62
7
100
AcDbSpline
 70
8
 71
3
 72
8
 73
4
 74
0
 40
0
 40
0
 40
0
 40
0
 40
1
 40
1
 40
1
 40
1
 10
117.900236
 20
20.830828
 30
0.0
 10
117.192945
 20
21.239183
 30
0.0
 10
116.321527
 20
21.239183
 30
0.0
 10
115.614236
 20
20.830828
 30
0.0
  0
SPLINE
  5
236
100
AcDbEntity
  8
0
 62
7
100
AcDbSpline
 70
8
 71
3
 72
8
 73
4
 74
0
 40
0
 40
0
 40
0
 40
0
 40
1
 40
1
 40
1
 40
1
 10
115.614236
 20
20.830828
 30
0.0
 10
114.906945
 20
20.422474
 30
0.0
 10
114.471236
 20
19.667803
 30
0.0
 10
114.471236
 20
18.851094
 30
0.0
  0
SPLINE
  5
237
100
AcDbEntity
  8
0
 62
7
100
AcDbSpline
 70
8
 71
3
 72
8
 73
4
 74
0
 40
0
 40
0
 40
0
 40
0
 40
1
 40
1
 40
1
 40
1
 10
114.471236
 20
18.851094
 30
0.0
 10
114.471236
 20
18.034385
 30
0.0
 10
114.906945
 20
17.279715
 30
0.0
 10
115.614236
 20
16.871360
 30
0.0
  0
SPLINE
  5
238
100
AcDbEntity
  8
0
 62
7
100
AcDbSpline
 70
8
 71
3
 72
8
 73
4
 74
0
 40
0
 40
0
 40
0
 40
0
 40
1
 40
1
 40
1
 40
1
 10
115.614236
 20
16.871360
 30
0.0
 10
116.321527
 20
16.463005
 30
0.0
 10
117.192945
 20
16.463005
 30
0.0
 10
117.900236
 20
16.871360
 30
0.0
  0
SPLINE
  5
239
100
AcDbEntity
  8
0
 62
7
100
AcDbSpline
 70
8
 71
3
 72
8
 73
4
 74
0
 40
0
 40
0
 40
0
 40
0
 40
1
 40
1
 40
1
 40
1
 10
117.900236
 20
16.871360
 30
0.0
 10
118.607527
 20
17.279715
 30
0.0
 10
119.043236
 20
18.034385
 30
0.0
 10
119.043236
 20
18.851094
 30
0.0
  0
LWPOLYLINE
  5
23a
100
AcDbEntity
  8
0
 62
7
100
AcDbPolyline
 90
1
 70
1
 10
119.043236
 20
25.201094
 30
0.0
  0
LWPOLYLINE
  5
23b
100
AcDbEntity
  8
0
 62
7
100
AcDbPolyline
 90
1
 70
1
 10
119.043236
 20
18.851094
 30
0.0
  0
ENDSEC
  0
SECTION
  2
OBJECTS
  0
DICTIONARY
  5
C
330
0
100
AcDbDictionary
  3
ACAD_GROUP
350
D
  3
ACAD_MLINESTYLE
350
17
  0
DICTIONARY
  5
D
330
C
100
AcDbDictionary
  0
DICTIONARY
  5
1A
330
C
100
AcDbDictionary
  0
DICTIONARY
  5
17
330
C
100
AcDbDictionary
  3
STANDARD
350
18
  0
DICTIONARY
  5
19
330
C
100
AcDbDictionary
  0
ENDSEC
  0
EOF
