0
SECTION
2
HEADER
9
$INSUNITS
70
4
9
$ACADVER
1
AC1014
9
$HANDSEED
5
FFFF
0
ENDSEC
0
SECTION
2
TABLES
0
TABLE
2
VPORT
5
8
100
AcDbSymbolTable
0
ENDTAB
0
TABLE
2
LTYPE
5
5
100
AcDbSymbolTable
0
LTYPE
5
14
100
AcDbSymbolTableRecord
100
AcDbLinetypeTableRecord
2
BYBLOCK
70
0
0
LTYPE
5
15
100
AcDbSymbolTableRecord
100
AcDbLinetypeTableRecord
2
BYLAYER
70
0
0
ENDTAB
0
TABLE
2
LAYER
5
2
100
AcDbSymbolTable
70
2
0
LAYER
5
50
100
AcDbSymbolTableRecord
100
AcDbLayerTableRecord
2
0
70
0
6
CONTINUOUS
0
ENDTAB
0
TABLE
2
STYLE
5
3
100
AcDbSymbolTable
70
1
0
STYLE
5
11
100
AcDbSymbolTableRecord
100
AcDbTextStyleTableRecord
2
STANDARD
70
0
0
ENDTAB
0
TABLE
2
VIEW
5
6
100
AcDbSymbolTable
70
0
0
ENDTAB
0
TABLE
2
UCS
5
7
100
AcDbSymbolTable
70
0
0
ENDTAB
0
TABLE
2
APPID
5
9
100
AcDbSymbolTable
70
2
0
APPID
5
12
100
AcDbSymbolTableRecord
100
AcDbRegAppTableRecord
2
ACAD
70
0
0
ENDTAB
0
TABLE
2
DIMSTYLE
5
A
100
AcDbSymbolTable
70
1
0
ENDTAB
0
TABLE
2
BLOCK_RECORD
5
1
100
AcDbSymbolTable
70
1
0
BLOCK_RECORD
5
1F
100
AcDbSymbolTableRecord
100
AcDbBlockTableRecord
2
*MODEL_SPACE
0
BLOCK_RECORD
5
1B
100
AcDbSymbolTableRecord
100
AcDbBlockTableRecord
2
*PAPER_SPACE
0
ENDTAB
0
ENDSEC
0
SECTION
2
BLOCKS
0
BLOCK
5
20
100
AcDbEntity
100
AcDbBlockBegin
2
*MODEL_SPACE
0
ENDBLK
5
21
100
AcDbEntity
100
AcDbBlockEnd
0
BLOCK
5
1C
100
AcDbEntity
100
AcDbBlockBegin
2
*PAPER_SPACE
0
ENDBLK
5
1D
100
AcDbEntity
100
AcDbBlockEnd
0
ENDSEC
0
SECTION
2
ENTITIES
0
LWPOLYLINE
5
100
100
AcDbEntity
8
0
100
AcDbPolyline
90
8
70
1
43
0.0
10
-160.04865928413224
20
-12.553244444444278
42
-0.41421356237306789
10
-161.31865928413225
20
-11.2832444444443
10
-161.31865928413197
20
4.1684222222225298
42
-0.41421356237308488
10
-160.04865928413199
20
5.4384222222225453
10
-155.01346206190982
20
5.4384222222222922
42
-0.41421356237305923
10
-153.74346206190978
20
4.1684222222222811
10
-153.74346206191004
20
-11.2832444444443
42
-0.41421356237305507
10
-155.01346206191005
20
-12.553244444444294
0
LWPOLYLINE
5
101
100
AcDbEntity
8
0
100
AcDbPolyline
90
4
70
1
43
0.0
10
-179.50937690159782
20
41.822511111111567
10
-193.5093630127088
20
41.822511111111567
10
-193.5093630127088
20
27.82252500000034
10
-179.50937690159782
20
27.82252500000034
0
LWPOLYLINE
5
102
100
AcDbEntity
8
0
100
AcDbPolyline
90
4
70
1
43
0.0
10
-246.18437690159783
20
8.7725250000003285
10
-246.18437690159783
20
22.772863888889361
10
-260.18436301270879
20
22.772863888889361
10
-260.18436301270879
20
8.7725250000003285
0
LWPOLYLINE
5
103
100
AcDbEntity
8
0
100
AcDbPolyline
90
8
70
1
43
0.0
10
-217.19356490593492
20
-12.553244444443997
42
-0.41421356237309448
10
-218.46356490593493
20
-11.283244444443977
10
-218.46356490593493
20
4.1684222222227829
42
-0.41421356237311246
10
-217.19356490593495
20
5.4384222222227763
10
-212.15872046149056
20
5.4384222222227896
42
-0.41421356237302132
10
-210.88872046149052
20
4.1684222222227829
10
-210.88872046149055
20
-11.283244444443977
42
-0.41421356237308582
10
-212.15872046149053
20
-12.553244444443996
0
LWPOLYLINE
5
104
100
AcDbEntity
8
0
100
AcDbPolyline
90
8
70
1
43
0.0
10
-218.46356490593493
20
4.1684222222227829
10
-218.46356490593493
20
-11.283244444443977
42
0.41421356237309448
10
-217.19356490593495
20
-12.553244444444003
10
-212.15872046149056
20
-12.553244444443996
42
0.41421356237308582
10
-210.88872046149055
20
-11.283244444443977
10
-210.88872046149052
20
4.1684222222227829
42
0.41421356237302132
10
-212.15872046149053
20
5.4384222222227807
10
-217.19356490593495
20
5.4384222222227763
42
0.41421356237311246
0
LWPOLYLINE
5
105
100
AcDbEntity
8
0
100
AcDbPolyline
90
102
70
1
43
0.0
10
-317.41395986908901
20
-13.36127772768133
42
-0.084595466122101184
10
-317.55731856826441
20
-12.52002243041396
10
-317.55731856826429
20
63.113294652637855
42
-0.41421356237308682
10
-315.01731856826433
20
65.653294652637868
10
-305.09740720235618
20
65.652427659464053
42
0.19900112464894584
10
-303.30048854076074
20
66.396376287130749
10
-301.79126734405463
20
67.905597483838022
42
-0.19891236737973061
10
-299.99521611984079
20
68.649546259627115
10
-295.74942101669149
20
68.649546259627854
42
-0.19891236737959522
10
-293.95336979247918
20
67.905597483841575
10
-292.44501573705639
20
66.397243428419316
42
0.19891236737891999
10
-290.64896451284699
20
65.653294652637868
10
-241.59567262368211
20
65.653294652638635
42
0.19891236738015611
10
-239.79962139946485
20
66.397243428426705
10
-238.29126734405122
20
67.905597483841348
42
-0.19891236737929202
10
-236.49521611984082
20
68.64954625962713
10
-232.24942101669441
20
68.649546259627897
42
-0.19891236737949758
10
-230.4533697924812
20
67.905597483843621
10
-228.92890891661017
20
66.391895828952258
42
0.19813751922702738
10
-227.13822126153903
20
65.653294652637882
10
-174.68147809328264
20
65.653294652636859
42
0.19891236737960089
10
-172.88542686906922
20
66.397243428423153
10
-171.37707281365155
20
67.905597483842612
42
-0.19891236737944598
10
-169.58102158943962
20
68.64954625962713
10
-165.33522648629065
20
68.649546259625609
42
-0.19891236737959797
10
-163.53917526207772
20
67.905597483839571
10
-162.03082120666409
20
66.397243428424431
42
0.19891236737978946
10
-160.23476998244988
20
65.653294652637612
10
-107.76730595701451
20
65.653294652637612
42
0.19891236737960433
10
-105.97125473280076
20
66.39724342842392
10
-104.46290067738387
20
67.905597483840594
42
-0.19891236737960882
10
-102.66684945317017
20
68.649546259626618
10
-98.42105435002523
20
68.649546259626362
42
-0.19891236737969287
10
-96.62500312581156
20
67.905597483840097
10
-95.116649070395141
20
66.39724342842419
42
0.19891236737981241
10
-93.320597846180675
20
65.653294652637641
10
-44.267305957012972
20
65.653294652637655
42
0.19891236737992499
10
-42.471254732800539
20
66.397243428423934
10
-40.962900677383587
20
67.905597483839827
42
-0.19891236737992496
10
-39.166849453168631
20
68.649546259626121
10
-34.921054350025997
20
68.649546259626106
42
-0.19891236737936174
10
-33.125003125811041
20
67.905597483840097
10
-31.616649070396647
20
66.397243428423934
42
0.1989123673793399
10
-29.820597846181656
20
65.653294652637641
10
-19.898951901598601
20
65.653294652637655
42
-0.41421356237347806
10
-17.358951901598587
20
63.113294652636881
10
-17.358951901598619
20
-12.520022430415036
42
-0.084595466123822266
10
-17.502310600771967
20
-13.361277727677782
42
-0.44263213904364318
10
-18.195080109566959
20
-13.654011302874487
42
0.32230089367656434
10
-21.371930923683955
20
-14.264837354260415
42
-0.20623481718690048
10
-23.217796813049638
20
-15.060022430414934
10
-29.820597846181656
20
-15.060022430414799
42
0.19891236737977658
10
-31.616649070394125
20
-15.803971206200798
10
-33.125003125811041
20
-17.312325261617463
42
-0.19891236737957904
10
-34.921054350025997
20
-18.056274037403778
10
-39.16684945317116
20
-18.056274037403632
42
-0.19891236737958115
10
-40.96290067738618
20
-17.312325261616394
10
-42.471254732800539
20
-15.803971206200968
42
0.19891236738004625
10
-44.267305957015495
20
-15.060022430414939
10
-52.200397212934853
20
-15.060022430414934
42
0.19891236737956344
10
-57.58855088557727
20
-17.291868757773532
10
-59.579222240906802
20
-19.282540113102225
42
-0.19891236737993429
10
-61.375273465119271
20
-20.026488888888654
10
-83.851861821722835
20
-20.026488888888441
42
0.1989123673798428
10
-85.647913045938324
20
-20.770437664674958
10
-87.363609609997326
20
-22.486134228733391
42
-0.19891236737972631
10
-89.15966083421128
20
-23.230083004519834
10
-93.405455937355697
20
-23.230083004520203
42
-0.19891236737954823
10
-95.201507161568884
20
-22.486134228734308
10
-96.917203725630941
20
-20.770437664676145
42
0.1989123673797665
10
-98.713254949845606
20
-20.026488888888572
10
-121.14311367140857
20
-20.026488888888512
42
-0.19891236737968199
10
-122.93916489562278
20
-19.282540113102268
10
-124.92983625095181
20
-17.291868757773376
42
0.19891236737966886
10
-130.31798992359319
20
-15.060022430414898
10
-160.23476998244809
20
-15.060022430415192
42
0.19891236737947104
10
-162.03082120666073
20
-15.803971206200305
10
-163.53917526208048
20
-17.312325261619616
42
-0.198912367379357
10
-165.33522648629167
20
-18.056274037404659
10
-169.58102158943683
20
-18.056274037404837
42
-0.19891236737969434
10
-171.37707281365101
20
-17.312325261618749
10
-172.88542686906897
20
-15.803971206201478
42
0.19891236737979603
10
-174.68147809328318
20
-15.060022430414701
10
-227.14896451284798
20
-15.060022430413913
42
0.19891236737940166
10
-228.94501573705995
20
-15.803971206200059
10
-230.45336979247938
20
-17.312325261618348
42
-0.19891236737967022
10
-232.24942101669336
20
-18.056274037404613
10
-236.49521611983545
20
-18.056274037405601
42
-0.19891236737998025
10
-238.29126734405148
20
-17.31232526161736
10
-239.79962139946838
20
-15.803971206201176
42
0.19891236737974155
10
-241.59567262368284
20
-15.060022430414328
10
-290.64896451284136
20
-15.060022430413621
42
0.1989123673801064
10
-292.44501573705969
20
-15.803971206199838
10
-293.95336979247941
20
-17.312325261618234
42
-0.19891236737968673
10
-295.74942101669342
20
-18.05627403740457
10
-299.9952161198355
20
-18.056274037405103
42
-0.19891236737974063
10
-301.7912673440502
20
-17.312325261618867
10
-303.29962139946952
20
-15.803971206200014
42
0.19891236737964316
10
-305.09567262368313
20
-15.06002243041403
10
-311.69847365681403
20
-15.060022430414271
42
-0.2062348171869946
10
-313.54433954617866
20
-14.264837354260349
42
0.3223008936764663
10
-316.72119036029579
20
-13.654011302872979
42
-0.44263213904575677
0
LWPOLYLINE
5
106
100
AcDbEntity
8
0
100
AcDbPolyline
90
4
70
1
43
0.0
10
-279.2343630127088
20
8.772525000000325
10
-265.23437690159778
20
8.7725250000003285
10
-265.23437690159784
20
22.772863888889361
10
-279.23436301270885
20
22.772863888889361
0
LWPOLYLINE
5
107
100
AcDbEntity
8
0
100
AcDbPolyline
90
4
70
1
43
0.0
10
-253.32812690159784
20
3.7228638888893606
10
-267.3281130127088
20
3.7228638888893562
10
-267.3281130127088
20
-10.277474999999569
10
-253.32812690159784
20
-10.277474999999567
0
LWPOLYLINE
5
108
100
AcDbEntity
8
0
100
AcDbPolyline
90
102
70
1
43
0.0
10
-317.55731856826429
20
63.113294652637855
42
-0.41421356237308621
10
-315.01731856826433
20
65.653294652637868
10
-305.09740720235618
20
65.652427659464053
42
0.19900112464894584
10
-303.30048854076074
20
66.396376287130749
10
-301.79126734405463
20
67.905597483838022
42
-0.19891236737973209
10
-299.99521611984079
20
68.649546259627115
10
-295.74942101669149
20
68.649546259627868
42
-0.19891236737958584
10
-293.95336979247918
20
67.905597483841575
10
-292.44501573705639
20
66.397243428419316
42
0.19891236737891999
10
-290.64896451284699
20
65.653294652637868
10
-241.59567262368211
20
65.653294652638635
42
0.19891236738015611
10
-239.79962139946485
20
66.397243428426705
10
-238.29126734405125
20
67.905597483841362
42
-0.19891236737930437
10
-236.49521611984082
20
68.64954625962713
10
-232.24942101669438
20
68.649546259627868
42
-0.19891236737949991
10
-230.4533697924812
20
67.905597483843621
10
-228.92890891661017
20
66.391895828952258
42
0.19813751922702738
10
-227.13822126153903
20
65.653294652637882
10
-174.68147809328264
20
65.653294652636859
42
0.19891236737960089
10
-172.88542686906922
20
66.397243428423153
10
-171.37707281365152
20
67.905597483842612
42
-0.19891236737944853
10
-169.58102158943962
20
68.64954625962713
10
-165.33522648629062
20
68.649546259625595
42
-0.19891236737959106
10
-163.53917526207772
20
67.905597483839571
10
-162.03082120666409
20
66.397243428424431
42
0.19891236737978946
10
-160.23476998244988
20
65.653294652637612
10
-107.76730595701451
20
65.653294652637612
42
0.19891236737960433
10
-105.97125473280076
20
66.39724342842392
10
-104.46290067738386
20
67.905597483840566
42
-0.19891236737961646
10
-102.66684945317017
20
68.649546259626618
10
-98.42105435002523
20
68.649546259626376
42
-0.19891236737968801
10
-96.62500312581156
20
67.905597483840097
10
-95.116649070395141
20
66.39724342842419
42
0.19891236737981241
10
-93.320597846180675
20
65.653294652637641
10
-44.267305957012972
20
65.653294652637655
42
0.19891236737992499
10
-42.471254732800539
20
66.397243428423934
10
-40.962900677383573
20
67.905597483839827
42
-0.19891236737991133
10
-39.166849453168631
20
68.649546259626121
10
-34.921054350025997
20
68.649546259626106
42
-0.19891236737936785
10
-33.125003125811041
20
67.905597483840097
10
-31.616649070396647
20
66.397243428423934
42
0.1989123673793399
10
-29.820597846181656
20
65.653294652637641
10
-19.898951901598601
20
65.653294652637641
42
-0.41421356237348422
10
-17.358951901598587
20
63.113294652636881
10
-17.358951901598623
20
-12.52002243041504
42
-0.084595466123848315
10
-17.502310600771988
20
-13.361277727677773
42
-0.44263213904367582
10
-18.195080109566959
20
-13.654011302874487
42
0.32230089367656434
10
-21.371930923683955
20
-14.264837354260413
42
-0.20623481718690165
10
-23.217796813049638
20
-15.060022430414936
10
-29.820597846181656
20
-15.060022430414799
42
0.19891236737977658
10
-31.616649070394125
20
-15.803971206200798
10
-33.125003125811034
20
-17.312325261617474
42
-0.19891236737958284
10
-34.921054350025997
20
-18.056274037403778
10
-39.16684945317116
20
-18.056274037403647
42
-0.19891236737957721
10
-40.96290067738618
20
-17.312325261616394
10
-42.471254732800539
20
-15.80397120620097
42
0.19891236738004633
10
-44.267305957015495
20
-15.060022430414939
10
-52.200397212934853
20
-15.060022430414934
42
0.19891236737956344
10
-57.58855088557727
20
-17.291868757773532
10
-59.579222240906802
20
-19.282540113102232
42
-0.19891236737993936
10
-61.375273465119271
20
-20.026488888888654
10
-83.851861821722835
20
-20.026488888888441
42
0.1989123673798428
10
-85.647913045938324
20
-20.770437664674958
10
-87.363609609997326
20
-22.486134228733391
42
-0.19891236737972645
10
-89.15966083421128
20
-23.230083004519834
10
-93.405455937355697
20
-23.230083004520196
42
-0.19891236737953993
10
-95.201507161568884
20
-22.486134228734308
10
-96.917203725630941
20
-20.770437664676145
42
0.1989123673797667
10
-98.713254949845606
20
-20.026488888888572
10
-121.14311367140857
20
-20.026488888888526
42
-0.19891236737967749
10
-122.93916489562278
20
-19.282540113102268
10
-124.92983625095181
20
-17.291868757773376
42
0.19891236737966886
10
-130.31798992359319
20
-15.060022430414898
10
-160.23476998244809
20
-15.060022430415192
42
0.19891236737947104
10
-162.03082120666073
20
-15.803971206200305
10
-163.53917526208051
20
-17.312325261619609
42
-0.19891236737936138
10
-165.33522648629167
20
-18.056274037404659
10
-169.58102158943683
20
-18.056274037404844
42
-0.19891236737969481
10
-171.37707281365101
20
-17.312325261618749
10
-172.88542686906897
20
-15.803971206201478
42
0.19891236737979609
10
-174.68147809328318
20
-15.060022430414701
10
-227.14896451284798
20
-15.060022430413913
42
0.19891236737940166
10
-228.94501573705995
20
-15.803971206200059
10
-230.45336979247935
20
-17.312325261618348
42
-0.19891236737966642
10
-232.24942101669336
20
-18.056274037404613
10
-236.49521611983545
20
-18.056274037405611
42
-0.19891236737997828
10
-238.29126734405148
20
-17.31232526161736
10
-239.79962139946838
20
-15.803971206201178
42
0.19891236737974169
10
-241.59567262368284
20
-15.060022430414328
10
-290.64896451284136
20
-15.060022430413621
42
0.1989123673801064
10
-292.44501573705969
20
-15.803971206199838
10
-293.95336979247941
20
-17.312325261618231
42
-0.19891236737968615
10
-295.74942101669342
20
-18.05627403740457
10
-299.9952161198355
20
-18.056274037405103
42
-0.1989123673797418
10
-301.7912673440502
20
-17.312325261618867
10
-303.29962139946952
20
-15.803971206200014
42
0.19891236737964316
10
-305.09567262368313
20
-15.06002243041403
10
-311.69847365681403
20
-15.060022430414271
42
-0.20623481718699424
10
-313.54433954617866
20
-14.264837354260349
42
0.3223008936764663
10
-316.72119036029585
20
-13.654011302872981
42
-0.44263213904575799
10
-317.41395986908901
20
-13.361277727681331
42
-0.084595466122101295
10
-317.55731856826441
20
-12.52002243041396
0
LWPOLYLINE
5
109
100
AcDbEntity
8
0
100
AcDbPolyline
90
4
70
1
43
0.0
10
-122.07115745715342
20
60.872511111111564
10
-122.07115745715342
20
46.872525000000351
10
-108.07117134604223
20
46.872525000000351
10
-108.07117134604223
20
60.872511111111564
0
LWPOLYLINE
5
110
100
AcDbEntity
8
0
100
AcDbPolyline
90
4
70
1
43
0.0
10
-141.12115745715317
20
60.872511111111564
10
-141.12115745715317
20
46.872525000000344
10
-127.12117134604225
20
46.872525000000351
10
-127.12117134604225
20
60.872511111111564
0
LWPOLYLINE
5
111
100
AcDbEntity
8
0
100
AcDbPolyline
90
4
70
1
43
0.0
10
-160.17115745715324
20
60.872511111111564
10
-160.17115745715319
20
46.872525000000344
10
-146.17117134604223
20
46.872525000000344
10
-146.17117134604223
20
60.872511111111564
0
CIRCLE
5
112
100
AcDbEntity
8
0
100
AcDbCircle
10
-297.8867592602453
20
-16.329111962201491
30
0
40
1.0000005400000012
0
LWPOLYLINE
5
113
100
AcDbEntity
8
0
100
AcDbPolyline
90
5
70
1
43
0.0
10
-233.98875046149055
20
3.7338705555559404
10
-233.98875046149055
20
-10.2661155555551
10
-219.98876435037937
20
-10.266115555555098
10
-219.98876435037937
20
-0.96618777777731868
10
-219.98876435037937
20
3.7338705555559448
0
CIRCLE
5
114
100
AcDbEntity
8
0
100
AcDbCircle
10
-297.8867592602453
20
66.726902374524315
30
0
40
1.0000005400000012
0
LWPOLYLINE
5
115
100
AcDbEntity
8
0
100
AcDbPolyline
90
4
70
1
43
0.0
10
-279.52152412382003
20
60.872511111111542
10
-293.52151023493099
20
60.872511111111542
10
-293.52151023493099
20
46.872525000000323
10
-279.52152412382003
20
46.872525000000337
0
LWPOLYLINE
5
116
100
AcDbEntity
8
0
100
AcDbPolyline
90
8
70
1
43
0.0
10
-185.94360650635417
20
4.1684222222225298
42
-0.41421356237317597
10
-184.67360650635419
20
5.438422222222532
10
-179.6387620619098
20
5.4384222222225365
42
-0.41421356237315232
10
-178.36876206190979
20
4.1684222222225298
10
-178.36876206190999
20
-11.283244444444122
42
-0.41421356237309859
10
-179.63876206191006
20
-12.553244444444127
10
-184.67360650635442
20
-12.5532444444441
42
-0.41421356237309093
10
-185.94360650635446
20
-11.283244444444076
0
LWPOLYLINE
5
117
100
AcDbEntity
8
0
100
AcDbPolyline
90
4
70
1
43
0.0
10
-96.165274123819984
20
41.822511111111574
10
-110.165260234931
20
41.822511111111574
10
-110.165260234931
20
27.822525000000347
10
-96.165274123819984
20
27.822525000000347
0
LWPOLYLINE
5
118
100
AcDbEntity
8
0
100
AcDbPolyline
90
4
70
1
43
0.0
10
-55.396157457152171
20
60.872511111111578
10
-55.396157457152171
20
46.872525000000358
10
-41.396171346042436
20
46.872525000000358
10
-41.396171346042436
20
60.872511111111578
0
LWPOLYLINE
5
119
100
AcDbEntity
8
0
100
AcDbPolyline
90
4
70
1
43
0.0
10
-36.34615745715216
20
41.822511111111581
10
-36.34615745715216
20
27.822525000000358
10
-22.34617134604246
20
27.822525000000358
10
-22.34617134604246
20
41.822511111111581
0
LWPOLYLINE
5
120
100
AcDbEntity
8
0
100
AcDbPolyline
90
4
70
1
43
0.0
10
-74.44615745715322
20
22.772863888889383
10
-74.44615745715322
20
8.7725250000003498
10
-60.447229679376626
20
8.7725250000003498
10
-60.447229679376626
20
22.77286388888939
0
LWPOLYLINE
5
121
100
AcDbEntity
8
0
100
AcDbPolyline
90
4
70
1
43
0.0
10
-179.221510234931
20
46.872525000000344
10
-165.22152412382002
20
46.872525000000344
10
-165.22152412382007
20
60.872511111111564
10
-179.221510234931
20
60.872511111111564
0
LWPOLYLINE
5
122
100
AcDbEntity
8
0
100
AcDbPolyline
90
4
70
1
43
0.0
10
-184.27117134604225
20
60.872511111111564
10
-198.2722157904866
20
60.872511111111564
10
-198.2722157904866
20
46.872525000000344
10
-184.27117134604225
20
46.872525000000344
0
LWPOLYLINE
5
123
100
AcDbEntity
8
0
100
AcDbPolyline
90
4
70
1
43
0.0
10
-60.447229679376626
20
46.872525000000358
10
-60.447229679376626
20
60.872511111111578
10
-74.44615745715322
20
60.872511111111578
10
-74.44615745715322
20
46.872525000000351
0
CIRCLE
5
124
100
AcDbEntity
8
0
100
AcDbCircle
10
-167.47362800659161
20
66.726902374524343
30
0
40
1.0000005400000056
0
LWPOLYLINE
5
125
100
AcDbEntity
8
0
100
AcDbPolyline
90
4
70
1
43
0.0
10
-165.22152412382007
20
60.872511111111564
10
-179.221510234931
20
60.872511111111564
10
-179.221510234931
20
46.872525000000344
10
-165.22152412382002
20
46.872525000000344
0
LWPOLYLINE
5
126
100
AcDbEntity
8
0
100
AcDbPolyline
90
4
70
1
43
0.0
10
-198.2722157904866
20
60.872511111111564
10
-198.2722157904866
20
46.872525000000344
10
-184.27117134604225
20
46.872525000000344
10
-184.27117134604225
20
60.872511111111564
0
CIRCLE
5
127
100
AcDbEntity
8
0
100
AcDbCircle
10
-37.029488815485436
20
66.726902374525352
30
0
40
1.0000005399999878
0
CIRCLE
5
128
100
AcDbEntity
8
0
100
AcDbCircle
10
-200.93236475808098
20
-10.861279675708184
30
0
40
2.2860000000000014
0
LWPOLYLINE
5
129
100
AcDbEntity
8
0
100
AcDbPolyline
90
4
70
1
43
0.0
10
-41.396171346042436
20
8.7725250000003552
10
-41.396171346042436
20
22.77286388888939
10
-55.396157457152171
20
22.77286388888939
10
-55.396157457152171
20
8.7725250000003498
0
LWPOLYLINE
5
130
100
AcDbEntity
8
0
100
AcDbPolyline
90
5
70
1
43
0.0
10
-162.84357650635442
20
-10.26611555555532
10
-162.84357650635417
20
3.7338705555556961
10
-176.84356261746541
20
3.7338705555559493
10
-176.84356261746541
20
-0.96618777777746523
10
-176.84356261746541
20
-10.266115555555245
0
LWPOLYLINE
5
131
100
AcDbEntity
8
0
100
AcDbPolyline
90
4
70
1
43
0.0
10
-124.4534657904866
20
22.772863888889383
10
-124.4534657904866
20
8.7725250000003427
10
-110.45312690159783
20
8.7725250000003463
10
-110.45312690159783
20
22.772863888889383
0
LWPOLYLINE
5
132
100
AcDbEntity
8
0
100
AcDbPolyline
90
4
70
1
43
0.0
10
-145.88436301270883
20
8.7725250000003427
10
-131.88402412382004
20
8.7725250000003427
10
-131.88402412382004
20
22.772863888889383
10
-145.88436301270883
20
22.772863888889372
0
LWPOLYLINE
5
133
100
AcDbEntity
8
0
100
AcDbPolyline
90
4
70
1
43
0.0
10
-84.259024123820012
20
-15.040327777777303
10
-84.259024123820012
20
-1.0403416666662002
10
-98.259363012708789
20
-1.0403416666662046
10
-98.259363012708789
20
-15.040327777777305
0
LWPOLYLINE
5
134
100
AcDbEntity
8
0
100
AcDbPolyline
90
4
70
1
43
0.0
10
-98.259363012708789
20
-1.0403416666662046
10
-98.259363012708789
20
-15.040327777777305
10
-84.259024123820012
20
-15.040327777777303
10
-84.259024123820012
20
-1.0403416666662002
0
LWPOLYLINE
5
135
100
AcDbEntity
8
0
100
AcDbPolyline
90
8
70
1
43
0.0
10
-160.04865928413224
20
-12.553244444444278
42
-0.41421356237306789
10
-161.31865928413225
20
-11.2832444444443
10
-161.31865928413197
20
4.1684222222225298
42
-0.41421356237308488
10
-160.04865928413199
20
5.4384222222225453
10
-155.01346206190982
20
5.4384222222222922
42
-0.41421356237305923
10
-153.74346206190978
20
4.1684222222222811
10
-153.74346206191004
20
-11.2832444444443
42
-0.41421356237305507
10
-155.01346206191005
20
-12.553244444444294
0
LWPOLYLINE
5
136
100
AcDbEntity
8
0
100
AcDbPolyline
90
4
70
1
43
0.0
10
-65.209024123820541
20
-15.0403277777773
10
-65.209024123820541
20
-1.0403416666662002
10
-79.20936301270882
20
-1.0403416666662002
10
-79.20936301270882
20
-15.040327777777303
0
LWPOLYLINE
5
137
100
AcDbEntity
8
0
100
AcDbPolyline
90
4
70
1
43
0.0
10
-124.4534657904866
20
8.7725250000003427
10
-110.45312690159783
20
8.7725250000003463
10
-110.45312690159783
20
22.772863888889383
10
-124.4534657904866
20
22.772863888889383
0
LWPOLYLINE
5
138
100
AcDbEntity
8
0
100
AcDbPolyline
90
4
70
1
43
0.0
10
-36.34615745715216
20
3.7228638888893872
10
-36.34615745715216
20
-10.277474999999541
10
-22.34617134604246
20
-10.277474999999541
10
-22.34617134604246
20
3.7228638888893872
0
LWPOLYLINE
5
139
100
AcDbEntity
8
0
100
AcDbPolyline
90
4
70
1
43
0.0
10
-150.93402412382002
20
22.772863888889372
10
-164.93436301270879
20
22.772863888889372
10
-164.93436301270879
20
8.7725250000003374
10
-150.93402412382002
20
8.7725250000003427
0
LWPOLYLINE
5
140
100
AcDbEntity
8
0
100
AcDbPolyline
90
4
70
1
43
0.0
10
-164.93436301270879
20
22.772863888889372
10
-164.93436301270879
20
8.7725250000003374
10
-150.93402412382002
20
8.7725250000003427
10
-150.93402412382002
20
22.772863888889372
0
LWPOLYLINE
5
141
100
AcDbEntity
8
0
100
AcDbPolyline
90
4
70
1
43
0.0
10
-84.259024123820012
20
18.009658333333771
10
-98.259363012708789
20
18.009658333333771
10
-98.259363012708789
20
4.0096722222227976
10
-84.259024123820012
20
4.0096722222228021
0
LWPOLYLINE
5
142
100
AcDbEntity
8
0
100
AcDbPolyline
90
4
70
1
43
0.0
10
-79.20936301270882
20
-1.0403416666662002
10
-79.20936301270882
20
-15.040327777777303
10
-65.209024123820541
20
-15.0403277777773
10
-65.209024123820541
20
-1.0403416666662002
0
LWPOLYLINE
5
143
100
AcDbEntity
8
0
100
AcDbPolyline
90
4
70
1
43
0.0
10
-208.08437690159781
20
8.7725250000003321
10
-208.08437690159781
20
22.772863888889372
10
-222.08436301270879
20
22.772863888889361
10
-222.08436301270879
20
8.7725250000003321
0
LWPOLYLINE
5
144
100
AcDbEntity
8
0
100
AcDbPolyline
90
4
70
1
43
0.0
10
-117.3093630127088
20
-1.0403416666662046
10
-117.3093630127088
20
-15.040327777777307
10
-103.30902412382
20
-15.040327777777305
10
-103.30902412382
20
-1.0403416666662046
0
LWPOLYLINE
5
145
100
AcDbEntity
8
0
100
AcDbPolyline
90
4
70
1
43
0.0
10
-60.447229679376626
20
8.7725250000003498
10
-60.447229679376626
20
22.77286388888939
10
-74.44615745715322
20
22.772863888889383
10
-74.44615745715322
20
8.7725250000003498
0
CIRCLE
5
146
100
AcDbEntity
8
0
100
AcDbCircle
10
-37.029488815485436
20
-16.329111962202486
30
0
40
1.0000005399999878
0
CIRCLE
5
147
100
AcDbEntity
8
0
100
AcDbCircle
10
-91.276295340817555
20
-21.534859628230258
30
0
40
1.0000005399998813
0
LWPOLYLINE
5
148
100
AcDbEntity
8
0
100
AcDbPolyline
90
4
70
1
43
0.0
10
-131.88402412382004
20
8.7725250000003427
10
-131.88402412382004
20
22.772863888889383
10
-145.88436301270883
20
22.772863888889372
10
-145.88436301270883
20
8.7725250000003427
0
LWPOLYLINE
5
149
100
AcDbEntity
8
0
100
AcDbPolyline
90
4
70
1
43
0.0
10
-60.447229679376626
20
46.872525000000358
10
-60.447229679376626
20
60.872511111111578
10
-74.44615745715322
20
60.872511111111578
10
-74.44615745715322
20
46.872525000000351
0
LWPOLYLINE
5
150
100
AcDbEntity
8
0
100
AcDbPolyline
90
4
70
1
43
0.0
10
-260.47152412382002
20
60.872511111111542
10
-274.47151023493097
20
60.872511111111542
10
-274.47151023493097
20
46.872525000000337
10
-260.47152412382002
20
46.872525000000337
0
LWPOLYLINE
5
151
100
AcDbEntity
8
0
100
AcDbPolyline
90
4
70
1
43
0.0
10
-288.75936301270877
20
27.822525000000322
10
-274.75937690159782
20
27.822525000000333
10
-274.75937690159782
20
41.82251111111156
10
-288.75936301270877
20
41.822511111111552
0
LWPOLYLINE
5
152
100
AcDbEntity
8
0
100
AcDbPolyline
90
4
70
1
43
0.0
10
-255.70937690159784
20
41.82251111111156
10
-269.70936301270882
20
41.82251111111156
10
-269.70936301270882
20
27.822525000000333
10
-255.70937690159784
20
27.822525000000333
0
LWPOLYLINE
5
153
100
AcDbEntity
8
0
100
AcDbPolyline
90
4
70
1
43
0.0
10
-274.75937690159782
20
3.7228638888893562
10
-288.75936301270877
20
3.7228638888893562
10
-288.75936301270877
20
-10.277474999999573
10
-274.75937690159782
20
-10.277474999999569
0
LWPOLYLINE
5
154
100
AcDbEntity
8
0
100
AcDbPolyline
90
4
70
1
43
0.0
10
-296.19027412381996
20
3.7228638888893562
10
-310.19026023493109
20
3.7228638888893517
10
-310.19026023493109
20
-10.277474999999574
10
-296.19027412381996
20
-10.277474999999574
0
LWPOLYLINE
5
155
100
AcDbEntity
8
0
100
AcDbPolyline
90
4
70
1
43
0.0
10
-291.42812690159781
20
8.772525000000325
10
-291.42812690159781
20
22.772863888889354
10
-305.42811301270888
20
22.772863888889354
10
-305.42811301270882
20
8.7725250000003197
0
LWPOLYLINE
5
156
100
AcDbEntity
8
0
100
AcDbPolyline
90
4
70
1
43
0.0
10
-265.23437690159778
20
8.7725250000003285
10
-265.23437690159784
20
22.772863888889361
10
-279.23436301270885
20
22.772863888889361
10
-279.2343630127088
20
8.772525000000325
0
LWPOLYLINE
5
157
100
AcDbEntity
8
0
100
AcDbPolyline
90
4
70
1
43
0.0
10
-260.18436301270879
20
22.772863888889361
10
-260.18436301270879
20
8.7725250000003285
10
-246.18437690159783
20
8.7725250000003285
10
-246.18437690159783
20
22.772863888889361
0
LWPOLYLINE
5
158
100
AcDbEntity
8
0
100
AcDbPolyline
90
4
70
1
43
0.0
10
-274.75937690159782
20
3.7228638888893562
10
-288.75936301270877
20
3.7228638888893562
10
-288.75936301270877
20
-10.277474999999573
10
-274.75937690159782
20
-10.277474999999569
0
CIRCLE
5
159
100
AcDbEntity
8
0
100
AcDbCircle
10
-297.8867592602453
20
66.726902374524315
30
0
40
1.0000005400000012
0
LWPOLYLINE
5
160
100
AcDbEntity
8
0
100
AcDbPolyline
90
4
70
1
43
0.0
10
-312.57151023493111
20
46.872525000000323
10
-298.57152412381998
20
46.872525000000323
10
-298.57152412381998
20
60.872511111111542
10
-312.57151023493111
20
60.872511111111542
0
LWPOLYLINE
5
161
100
AcDbEntity
8
0
100
AcDbPolyline
90
4
70
1
43
0.0
10
-296.19027412381996
20
3.7228638888893562
10
-310.19026023493109
20
3.7228638888893517
10
-310.19026023493109
20
-10.277474999999574
10
-296.19027412381996
20
-10.277474999999574
0
LWPOLYLINE
5
162
100
AcDbEntity
8
0
100
AcDbPolyline
90
4
70
1
43
0.0
10
-291.42812690159781
20
8.772525000000325
10
-291.42812690159781
20
22.772863888889354
10
-305.42811301270888
20
22.772863888889354
10
-305.42811301270882
20
8.7725250000003197
0
LWPOLYLINE
5
163
100
AcDbEntity
8
0
100
AcDbPolyline
90
4
70
1
43
0.0
10
-274.47151023493097
20
46.872525000000337
10
-260.47152412382002
20
46.872525000000337
10
-260.47152412382002
20
60.872511111111542
10
-274.47151023493097
20
60.872511111111542
0
CIRCLE
5
164
100
AcDbEntity
8
0
100
AcDbCircle
10
-234.3867592602453
20
-16.329111962201488
30
0
40
1.0000005399999878
0
LWPOLYLINE
5
165
100
AcDbEntity
8
0
100
AcDbPolyline
90
4
70
1
43
0.0
10
-310.19026023493109
20
41.822511111111552
10
-310.19026023493109
20
27.822525000000322
10
-296.19027412381996
20
27.822525000000322
10
-296.19027412382002
20
41.822511111111552
0
LWPOLYLINE
5
166
100
AcDbEntity
8
0
100
AcDbPolyline
90
4
70
1
43
0.0
10
-255.70937690159784
20
41.82251111111156
10
-269.70936301270882
20
41.82251111111156
10
-269.70936301270882
20
27.822525000000333
10
-255.70937690159784
20
27.822525000000333
0
LWPOLYLINE
5
167
100
AcDbEntity
8
0
100
AcDbPolyline
90
8
70
1
43
0.0
10
-236.78366768371276
20
5.4384222222227852
42
-0.41421356237302132
10
-235.51366768371275
20
4.1684222222227785
10
-235.51366768371275
20
-11.283244444443978
42
-0.4142135623730771
10
-236.78366768371276
20
-12.553244444443996
10
-241.81886490593496
20
-12.55324444444401
42
-0.41421356237309809
10
-243.08886490593494
20
-11.28324444444398
10
-243.08886490593494
20
4.1684222222227785
42
-0.41421356237310325
10
-241.81886490593496
20
5.4384222222227763
0
LWPOLYLINE
5
168
100
AcDbEntity
8
0
100
AcDbPolyline
90
4
70
1
43
0.0
10
-298.57152412381998
20
60.872511111111542
10
-312.57151023493111
20
60.872511111111542
10
-312.57151023493111
20
46.872525000000323
10
-298.57152412381998
20
46.872525000000323
0
LWPOLYLINE
5
169
100
AcDbEntity
8
0
100
AcDbPolyline
90
4
70
1
43
0.0
10
-253.32812690159784
20
3.7228638888893606
10
-267.3281130127088
20
3.7228638888893562
10
-267.3281130127088
20
-10.277474999999569
10
-253.32812690159784
20
-10.277474999999567
0
LWPOLYLINE
5
170
100
AcDbEntity
8
0
100
AcDbPolyline
90
4
70
1
43
0.0
10
-296.19027412381996
20
27.822525000000322
10
-296.19027412382002
20
41.822511111111552
10
-310.19026023493109
20
41.822511111111552
10
-310.19026023493109
20
27.822525000000322
0
LWPOLYLINE
5
171
100
AcDbEntity
8
0
100
AcDbPolyline
90
4
70
1
43
0.0
10
-41.396171346042436
20
22.77286388888939
10
-55.396157457152171
20
22.77286388888939
10
-55.396157457152171
20
8.7725250000003498
10
-41.396171346042436
20
8.7725250000003552
0
LWPOLYLINE
5
172
100
AcDbEntity
8
0
100
AcDbPolyline
90
4
70
1
43
0.0
10
-274.75937690159782
20
41.82251111111156
10
-288.75936301270877
20
41.822511111111552
10
-288.75936301270877
20
27.822525000000322
10
-274.75937690159782
20
27.822525000000333
0
LWPOLYLINE
5
173
100
AcDbEntity
8
0
100
AcDbPolyline
90
4
70
1
43
0.0
10
-279.52152412382003
20
60.872511111111542
10
-293.52151023493099
20
60.872511111111542
10
-293.52151023493099
20
46.872525000000323
10
-279.52152412382003
20
46.872525000000337
0
CIRCLE
5
174
100
AcDbEntity
8
0
100
AcDbCircle
10
-297.8867592602453
20
-16.329111962201491
30
0
40
1.0000005400000012
0
CIRCLE
5
175
100
AcDbEntity
8
0
100
AcDbCircle
10
-167.47362800659158
20
-16.32911196220148
30
0
40
1.0000005400000056
0
LWPOLYLINE
5
176
100
AcDbEntity
8
0
100
AcDbPolyline
90
4
70
1
43
0.0
10
-141.12115745715317
20
46.872525000000344
10
-127.12117134604225
20
46.872525000000351
10
-127.12117134604225
20
60.872511111111564
10
-141.12115745715317
20
60.872511111111564
0
LWPOLYLINE
5
177
100
AcDbEntity
8
0
100
AcDbPolyline
90
4
70
1
43
0.0
10
-203.32222967937568
20
60.872511111111564
10
-217.32221579048661
20
60.872511111111564
10
-217.32221579048661
20
46.872525000000337
10
-203.32222967937565
20
46.872525000000344
0
LWPOLYLINE
5
178
100
AcDbEntity
8
0
100
AcDbPolyline
90
4
70
1
43
0.0
10
-160.17115745715324
20
60.872511111111564
10
-160.17115745715319
20
46.872525000000344
10
-146.17117134604223
20
46.872525000000344
10
-146.17117134604223
20
60.872511111111564
0
LWPOLYLINE
5
179
100
AcDbEntity
8
0
100
AcDbPolyline
90
4
70
1
43
0.0
10
-136.3593630127088
20
41.822511111111574
10
-136.3593630127088
20
27.822525000000347
10
-122.35902412382003
20
27.822525000000347
10
-122.35902412382003
20
41.822511111111574
0
LWPOLYLINE
5
180
100
AcDbEntity
8
0
100
AcDbPolyline
90
4
70
1
43
0.0
10
-155.40936301270878
20
41.822511111111567
10
-155.40936301270878
20
27.82252500000034
10
-141.40902412382002
20
27.82252500000034
10
-141.40902412382002
20
41.822511111111567
0
LWPOLYLINE
5
181
100
AcDbEntity
8
0
100
AcDbPolyline
90
4
70
1
43
0.0
10
-108.07117134604223
20
60.872511111111564
10
-122.07115745715342
20
60.872511111111564
10
-122.07115745715342
20
46.872525000000351
10
-108.07117134604223
20
46.872525000000351
0
CIRCLE
5
182
100
AcDbEntity
8
0
100
AcDbCircle
10
-167.47362800659161
20
66.726902374524343
30
0
40
1.0000005400000056
0
LWPOLYLINE
5
183
100
AcDbEntity
8
0
100
AcDbPolyline
90
4
70
1
43
0.0
10
-174.45936301270879
20
41.822511111111567
10
-174.45936301270879
20
27.82252500000034
10
-160.45902412382003
20
27.82252500000034
10
-160.45902412382003
20
41.822511111111567
0
LWPOLYLINE
5
184
100
AcDbEntity
8
0
100
AcDbPolyline
90
4
70
1
43
0.0
10
-127.12117134604225
20
-10.277474999999551
10
-127.12117134604225
20
3.7228638888893739
10
-141.12115745715317
20
3.7228638888893739
10
-141.12115745715317
20
-10.277474999999555
0
LWPOLYLINE
5
185
100
AcDbEntity
8
0
100
AcDbPolyline
90
4
70
1
43
0.0
10
-41.396171346042436
20
-10.277474999999543
10
-41.396171346042436
20
3.7228638888893872
10
-55.396157457152171
20
3.7228638888893828
10
-55.396157457152171
20
-10.277474999999543
0
LWPOLYLINE
5
186
100
AcDbEntity
8
0
100
AcDbPolyline
90
4
70
1
43
0.0
10
-98.259363012708789
20
18.009658333333771
10
-98.259363012708789
20
4.0096722222227976
10
-84.259024123820012
20
4.0096722222228021
10
-84.259024123820012
20
18.009658333333771
0
LWPOLYLINE
5
187
100
AcDbEntity
8
0
100
AcDbPolyline
90
4
70
1
43
0.0
10
-236.37151023493104
20
60.872511111111564
10
-236.37151023493101
20
46.872525000000337
10
-222.37152412382002
20
46.872525000000337
10
-222.37152412382002
20
60.872511111111564
0
LWPOLYLINE
5
188
100
AcDbEntity
8
0
100
AcDbPolyline
90
4
70
1
43
0.0
10
-231.6093630127088
20
41.82251111111156
10
-231.6093630127088
20
27.822525000000333
10
-217.60937690159781
20
27.822525000000333
10
-217.60937690159781
20
41.82251111111156
0
LWPOLYLINE
5
189
100
AcDbEntity
8
0
100
AcDbPolyline
90
4
70
1
43
0.0
10
-74.44615745715322
20
27.822525000000347
10
-60.447229679376626
20
27.822525000000358
10
-60.447229679376626
20
41.822511111111581
10
-74.44615745715322
20
41.822511111111574
0
LWPOLYLINE
5
190
100
AcDbEntity
8
0
100
AcDbPolyline
90
4
70
1
43
0.0
10
-110.165260234931
20
41.822511111111574
10
-110.165260234931
20
27.822525000000347
10
-96.165274123819984
20
27.822525000000347
10
-96.165274123819984
20
41.822511111111574
0
LWPOLYLINE
5
191
100
AcDbEntity
8
0
100
AcDbPolyline
90
4
70
1
43
0.0
10
-122.35902412382003
20
27.822525000000347
10
-122.35902412382003
20
41.822511111111574
10
-136.3593630127088
20
41.822511111111574
10
-136.3593630127088
20
27.822525000000347
0
LWPOLYLINE
5
192
100
AcDbEntity
8
0
100
AcDbPolyline
90
4
70
1
43
0.0
10
-189.03437690159785
20
22.772863888889372
10
-203.03436301270878
20
22.772863888889372
10
-203.03436301270878
20
8.7725250000003321
10
-189.03437690159785
20
8.7725250000003374
0
LWPOLYLINE
5
193
100
AcDbEntity
8
0
100
AcDbPolyline
90
4
70
1
43
0.0
10
-22.34617134604246
20
60.872511111111578
10
-36.34615745715216
20
60.872511111111578
10
-36.34615745715216
20
46.872525000000358
10
-22.34617134604246
20
46.872525000000358
0
LWPOLYLINE
5
194
100
AcDbEntity
8
0
100
AcDbPolyline
90
4
70
1
43
0.0
10
-203.32222967937568
20
60.872511111111564
10
-217.32221579048661
20
60.872511111111564
10
-217.32221579048661
20
46.872525000000337
10
-203.32222967937565
20
46.872525000000344
0
LWPOLYLINE
5
195
100
AcDbEntity
8
0
100
AcDbPolyline
90
4
70
1
43
0.0
10
-174.45936301270879
20
41.822511111111567
10
-174.45936301270879
20
27.82252500000034
10
-160.45902412382003
20
27.82252500000034
10
-160.45902412382003
20
41.822511111111567
0
CIRCLE
5
196
100
AcDbEntity
8
0
100
AcDbCircle
10
-100.52948881548477
20
66.726902374524997
30
0
40
1.0000005399998813
0
CIRCLE
5
197
100
AcDbEntity
8
0
100
AcDbCircle
10
-81.748186134537022
20
52.946161363856483
30
0
40
2.2860000000000014
0
CIRCLE
5
198
100
AcDbEntity
8
0
100
AcDbCircle
10
-81.748186134537022
20
43.421161363846601
30
0
40
2.2860000000000014
0
CIRCLE
5
199
100
AcDbEntity
8
0
100
AcDbCircle
10
-81.748186134537022
20
33.896161363846574
30
0
40
2.2860000000000014
0
LWPOLYLINE
5
200
100
AcDbEntity
8
0
100
AcDbPolyline
90
4
70
1
43
0.0
10
-250.65936301270881
20
41.82251111111156
10
-250.65936301270881
20
27.822525000000333
10
-236.65937690159782
20
27.822525000000333
10
-236.65937690159782
20
41.82251111111156
0
LWPOLYLINE
5
201
100
AcDbEntity
8
0
100
AcDbPolyline
90
4
70
1
43
0.0
10
-217.60937690159781
20
41.82251111111156
10
-231.6093630127088
20
41.82251111111156
10
-231.6093630127088
20
27.822525000000333
10
-217.60937690159781
20
27.822525000000333
0
LWPOLYLINE
5
202
100
AcDbEntity
8
0
100
AcDbPolyline
90
4
70
1
43
0.0
10
-236.65937690159782
20
41.82251111111156
10
-250.65936301270881
20
41.82251111111156
10
-250.65936301270881
20
27.822525000000333
10
-236.65937690159782
20
27.822525000000333
0
LWPOLYLINE
5
203
100
AcDbEntity
8
0
100
AcDbPolyline
90
4
70
1
43
0.0
10
-55.396157457152171
20
-10.277474999999543
10
-41.396171346042436
20
-10.277474999999543
10
-41.396171346042436
20
3.7228638888893872
10
-55.396157457152171
20
3.7228638888893828
0
LWPOLYLINE
5
204
100
AcDbEntity
8
0
100
AcDbPolyline
90
4
70
1
43
0.0
10
-241.42152412382003
20
60.872511111111564
10
-255.42151023493102
20
60.872511111111542
10
-255.42151023493102
20
46.872525000000337
10
-241.42152412382003
20
46.872525000000337
0
CIRCLE
5
205
100
AcDbEntity
8
0
100
AcDbCircle
10
-234.3867592602453
20
66.726902374524315
30
0
40
1.0000005399999878
0
LWPOLYLINE
5
206
100
AcDbEntity
8
0
100
AcDbPolyline
90
4
70
1
43
0.0
10
-222.37152412382002
20
60.872511111111564
10
-236.37151023493104
20
60.872511111111564
10
-236.37151023493101
20
46.872525000000337
10
-222.37152412382002
20
46.872525000000337
0
LWPOLYLINE
5
207
100
AcDbEntity
8
0
100
AcDbPolyline
90
8
70
1
43
0.0
10
-235.51366768371275
20
-11.283244444443978
10
-235.51366768371275
20
4.1684222222227785
42
0.41421356237302132
10
-236.78366768371276
20
5.4384222222227763
10
-241.81886490593496
20
5.4384222222227763
42
0.41421356237310325
10
-243.08886490593494
20
4.1684222222227785
10
-243.08886490593494
20
-11.28324444444398
42
0.41421356237309809
10
-241.81886490593496
20
-12.553244444444008
10
-236.78366768371274
20
-12.553244444443996
42
0.4142135623730771
0
CIRCLE
5
208
100
AcDbEntity
8
0
100
AcDbCircle
10
-234.3867592602453
20
66.726902374524315
30
0
40
1.0000005399999878
0
LWPOLYLINE
5
209
100
AcDbEntity
8
0
100
AcDbPolyline
90
4
70
1
43
0.0
10
-241.42152412382003
20
60.872511111111564
10
-255.42151023493102
20
60.872511111111542
10
-255.42151023493102
20
46.872525000000337
10
-241.42152412382003
20
46.872525000000337
0
LWPOLYLINE
5
210
100
AcDbEntity
8
0
100
AcDbPolyline
90
4
70
1
43
0.0
10
-227.13437690159782
20
22.772863888889361
10
-241.1343630127088
20
22.772863888889361
10
-241.1343630127088
20
8.7725250000003285
10
-227.13437690159782
20
8.7725250000003321
0
LWPOLYLINE
5
211
100
AcDbEntity
8
0
100
AcDbPolyline
90
4
70
1
43
0.0
10
-227.13437690159782
20
22.772863888889361
10
-241.1343630127088
20
22.772863888889361
10
-241.1343630127088
20
8.7725250000003285
10
-227.13437690159782
20
8.7725250000003321
0
LWPOLYLINE
5
212
100
AcDbEntity
8
0
100
AcDbPolyline
90
5
70
1
43
0.0
10
-219.98876435037937
20
3.7338705555559448
10
-233.98875046149055
20
3.7338705555559404
10
-233.98875046149055
20
-10.2661155555551
10
-219.98876435037937
20
-10.266115555555098
10
-219.98876435037937
20
-0.96618777777731868
0
LWPOLYLINE
5
213
100
AcDbEntity
8
0
100
AcDbPolyline
90
4
70
1
43
0.0
10
-36.34615745715216
20
22.77286388888939
10
-36.34615745715216
20
8.7725250000003552
10
-22.34617134604246
20
8.7725250000003552
10
-22.34617134604246
20
22.77286388888939
0
CIRCLE
5
214
100
AcDbEntity
8
0
100
AcDbCircle
10
-234.3867592602453
20
-16.329111962201488
30
0
40
1.0000005399999878
0
LWPOLYLINE
5
215
100
AcDbEntity
8
0
100
AcDbPolyline
90
4
70
1
43
0.0
10
-222.08436301270879
20
22.772863888889361
10
-222.08436301270879
20
8.7725250000003321
10
-208.08437690159781
20
8.7725250000003321
10
-208.08437690159781
20
22.772863888889372
0
CIRCLE
5
216
100
AcDbEntity
8
0
100
AcDbCircle
10
-91.276295340817555
20
-21.534859628230258
30
0
40
1.0000005399998813
0
LWPOLYLINE
5
217
100
AcDbEntity
8
0
100
AcDbPolyline
90
4
70
1
43
0.0
10
-36.34615745715216
20
-10.277474999999541
10
-22.34617134604246
20
-10.277474999999541
10
-22.34617134604246
20
3.7228638888893872
10
-36.34615745715216
20
3.7228638888893872
0
LWPOLYLINE
5
218
100
AcDbEntity
8
0
100
AcDbPolyline
90
4
70
1
43
0.0
10
-55.396157457152171
20
41.822511111111581
10
-55.396157457152171
20
27.822525000000358
10
-41.396171346042436
20
27.822525000000358
10
-41.396171346042436
20
41.822511111111581
0
LWPOLYLINE
5
219
100
AcDbEntity
8
0
100
AcDbPolyline
90
4
70
1
43
0.0
10
-212.55936301270879
20
27.822525000000333
10
-198.55937690159783
20
27.82252500000034
10
-198.55937690159783
20
41.822511111111567
10
-212.55936301270879
20
41.82251111111156
0
LWPOLYLINE
5
220
100
AcDbEntity
8
0
100
AcDbPolyline
90
4
70
1
43
0.0
10
-169.98437690159784
20
22.772863888889372
10
-183.9843630127088
20
22.772863888889372
10
-183.9843630127088
20
8.7725250000003374
10
-169.98437690159784
20
8.7725250000003374
0
LWPOLYLINE
5
221
100
AcDbEntity
8
0
100
AcDbPolyline
90
4
70
1
43
0.0
10
-155.40936301270878
20
41.822511111111567
10
-155.40936301270878
20
27.82252500000034
10
-141.40902412382002
20
27.82252500000034
10
-141.40902412382002
20
41.822511111111567
0
LWPOLYLINE
5
222
100
AcDbEntity
8
0
100
AcDbPolyline
90
4
70
1
43
0.0
10
-103.02115745715344
20
60.872511111111564
10
-103.02115745715344
20
46.872525000000351
10
-89.021171346042223
20
46.872525000000351
10
-89.021171346042223
20
60.872511111111578
0
CIRCLE
5
223
100
AcDbEntity
8
0
100
AcDbCircle
10
-200.93236475808098
20
1.8387203242918604
30
0
40
2.2860000000000014
0
CIRCLE
5
224
100
AcDbEntity
8
0
100
AcDbCircle
10
-100.52948881548477
20
66.726902374524997
30
0
40
1.0000005399998813
0
CIRCLE
5
225
100
AcDbEntity
8
0
100
AcDbCircle
10
-81.748186134537022
20
52.946161363856483
30
0
40
2.2860000000000014
0
CIRCLE
5
226
100
AcDbEntity
8
0
100
AcDbCircle
10
-81.748186134537022
20
43.421161363846601
30
0
40
2.2860000000000014
0
CIRCLE
5
227
100
AcDbEntity
8
0
100
AcDbCircle
10
-200.93236475808101
20
-4.5112796757080815
30
0
40
2.2860000000000191
0
CIRCLE
5
228
100
AcDbEntity
8
0
100
AcDbCircle
10
-81.748186134537022
20
33.896161363846574
30
0
40
2.2860000000000014
0
LWPOLYLINE
5
229
100
AcDbEntity
8
0
100
AcDbPolyline
90
8
70
1
43
0.0
10
-185.94360650635417
20
4.1684222222225298
42
-0.41421356237317597
10
-184.67360650635419
20
5.438422222222532
10
-179.6387620619098
20
5.4384222222225365
42
-0.41421356237315232
10
-178.36876206190979
20
4.1684222222225298
10
-178.36876206190999
20
-11.283244444444122
42
-0.41421356237309859
10
-179.63876206191006
20
-12.553244444444127
10
-184.67360650635442
20
-12.5532444444441
42
-0.41421356237309093
10
-185.94360650635446
20
-11.283244444444076
0
LWPOLYLINE
5
230
100
AcDbEntity
8
0
100
AcDbPolyline
90
4
70
1
43
0.0
10
-103.02115745715344
20
60.872511111111564
10
-103.02115745715344
20
46.872525000000351
10
-89.021171346042223
20
46.872525000000351
10
-89.021171346042223
20
60.872511111111578
0
LWPOLYLINE
5
231
100
AcDbEntity
8
0
100
AcDbPolyline
90
4
70
1
43
0.0
10
-74.44615745715322
20
41.822511111111574
10
-74.44615745715322
20
27.822525000000347
10
-60.447229679376626
20
27.822525000000358
10
-60.447229679376626
20
41.822511111111581
0
LWPOLYLINE
5
232
100
AcDbEntity
8
0
100
AcDbPolyline
90
5
70
1
43
0.0
10
-162.84357650635417
20
3.7338705555556961
10
-176.84356261746541
20
3.7338705555559493
10
-176.84356261746541
20
-0.96618777777746523
10
-176.84356261746541
20
-10.266115555555245
10
-162.84357650635442
20
-10.26611555555532
0
LWPOLYLINE
5
233
100
AcDbEntity
8
0
100
AcDbPolyline
90
4
70
1
43
0.0
10
-183.9843630127088
20
22.772863888889372
10
-183.9843630127088
20
8.7725250000003374
10
-169.98437690159784
20
8.7725250000003374
10
-169.98437690159784
20
22.772863888889372
0
LWPOLYLINE
5
234
100
AcDbEntity
8
0
100
AcDbPolyline
90
4
70
1
43
0.0
10
-203.03436301270878
20
22.772863888889372
10
-203.03436301270878
20
8.7725250000003321
10
-189.03437690159785
20
8.7725250000003374
10
-189.03437690159785
20
22.772863888889372
0
CIRCLE
5
235
100
AcDbEntity
8
0
100
AcDbCircle
10
-37.029488815485436
20
66.726902374525352
30
0
40
1.0000005399999878
0
LWPOLYLINE
5
236
100
AcDbEntity
8
0
100
AcDbPolyline
90
4
70
1
43
0.0
10
-36.34615745715216
20
60.872511111111578
10
-36.34615745715216
20
46.872525000000358
10
-22.34617134604246
20
46.872525000000358
10
-22.34617134604246
20
60.872511111111578
0
LWPOLYLINE
5
237
100
AcDbEntity
8
0
100
AcDbPolyline
90
4
70
1
43
0.0
10
-55.396157457152171
20
60.872511111111578
10
-55.396157457152171
20
46.872525000000358
10
-41.396171346042436
20
46.872525000000358
10
-41.396171346042436
20
60.872511111111578
0
LWPOLYLINE
5
238
100
AcDbEntity
8
0
100
AcDbPolyline
90
4
70
1
43
0.0
10
-36.34615745715216
20
41.822511111111581
10
-36.34615745715216
20
27.822525000000358
10
-22.34617134604246
20
27.822525000000358
10
-22.34617134604246
20
41.822511111111581
0
LWPOLYLINE
5
239
100
AcDbEntity
8
0
100
AcDbPolyline
90
4
70
1
43
0.0
10
-55.396157457152171
20
41.822511111111581
10
-55.396157457152171
20
27.822525000000358
10
-41.396171346042436
20
27.822525000000358
10
-41.396171346042436
20
41.822511111111581
0
LWPOLYLINE
5
240
100
AcDbEntity
8
0
100
AcDbPolyline
90
4
70
1
43
0.0
10
-22.34617134604246
20
22.77286388888939
10
-36.34615745715216
20
22.77286388888939
10
-36.34615745715216
20
8.7725250000003552
10
-22.34617134604246
20
8.7725250000003552
0
LWPOLYLINE
5
241
100
AcDbEntity
8
0
100
AcDbPolyline
90
4
70
1
43
0.0
10
-141.12115745715317
20
3.7228638888893739
10
-141.12115745715317
20
-10.277474999999555
10
-127.12117134604225
20
-10.277474999999551
10
-127.12117134604225
20
3.7228638888893739
0
CIRCLE
5
242
100
AcDbEntity
8
0
100
AcDbCircle
10
-200.93236475808098
20
1.8387203242918604
30
0
40
2.2860000000000014
0
CIRCLE
5
243
100
AcDbEntity
8
0
100
AcDbCircle
10
-200.93236475808101
20
-4.5112796757080815
30
0
40
2.2860000000000191
0
CIRCLE
5
244
100
AcDbEntity
8
0
100
AcDbCircle
10
-200.93236475808098
20
-10.861279675708184
30
0
40
2.2860000000000014
0
LWPOLYLINE
5
245
100
AcDbEntity
8
0
100
AcDbPolyline
90
4
70
1
43
0.0
10
-193.5093630127088
20
41.822511111111567
10
-193.5093630127088
20
27.82252500000034
10
-179.50937690159782
20
27.82252500000034
10
-179.50937690159782
20
41.822511111111567
0
LWPOLYLINE
5
246
100
AcDbEntity
8
0
100
AcDbPolyline
90
4
70
1
43
0.0
10
-212.55936301270879
20
41.82251111111156
10
-212.55936301270879
20
27.822525000000333
10
-198.55937690159783
20
27.82252500000034
10
-198.55937690159783
20
41.822511111111567
0
LWPOLYLINE
5
247
100
AcDbEntity
8
0
100
AcDbPolyline
90
4
70
1
43
0.0
10
-103.30902412382
20
-1.0403416666662046
10
-117.3093630127088
20
-1.0403416666662046
10
-117.3093630127088
20
-15.040327777777307
10
-103.30902412382
20
-15.040327777777305
0
CIRCLE
5
248
100
AcDbEntity
8
0
100
AcDbCircle
10
-37.029488815485436
20
-16.329111962202486
30
0
40
1.0000005399999878
0
CIRCLE
5
249
100
AcDbEntity
8
0
100
AcDbCircle
10
-167.47362800659158
20
-16.32911196220148
30
0
40
1.0000005400000056
0
ENDSEC
0
SECTION
2
OBJECTS
0
DICTIONARY
5
C
100
AcDbDictionary
3
ACAD_GROUP
350
D
3
ACAD_MLINESTYLE
350
17
0
DICTIONARY
5
D
100
AcDbDictionary
0
DICTIONARY
5
1A
330
C
100
AcDbDictionary
0
DICTIONARY
5
17
100
AcDbDictionary
0
ENDSEC
0
EOF
